M48
;GenerationSoftware,Autodesk,EAGLE,9.3.0*%
;CreationDate,2019-12-16T20:21:35Z*%
FMAT,2
ICI,OFF
METRIC,TZ,000.000
T2C0.350
T1C1.100
%
G90
M71
T1
X36421Y46074
X32921Y46074
X31171Y23141
X34671Y23141
X38171Y23141
T2
X25908Y32004
X49276Y32766
X29464Y38227
X29591Y30734
X43180Y41402
X25146Y26670
X21717Y38481
X25781Y34290
X44831Y31750
X44069Y43053
X34163Y39497
X34544Y43942
X40373Y45707
X45974Y38247
X45212Y34671
X44323Y27813
X27495Y41720
X29921Y44501
X37084Y29972
M30