G04 EAGLE Gerber RS-274X export*
G75*
%MOMM*%
%FSLAX34Y34*%
%LPD*%
%INBottom Copper*%
%IPPOS*%
%AMOC8*
5,1,8,0,0,1.08239X$1,22.5*%
G01*
%ADD10R,1.000000X1.100000*%
%ADD11R,1.500000X1.300000*%
%ADD12C,0.124994*%
%ADD13R,5.699988X5.699988*%
%ADD14R,1.399997X0.400000*%
%ADD15R,1.100000X1.000000*%
%ADD16R,1.300000X1.500000*%
%ADD17C,0.499997*%
%ADD18C,1.000000*%
%ADD19C,1.700000*%
%ADD20C,0.756400*%
%ADD21C,0.254000*%
%ADD22C,0.609600*%
%ADD23C,0.304800*%

G36*
X278630Y195708D02*
X278630Y195708D01*
X278658Y195706D01*
X278726Y195728D01*
X278797Y195742D01*
X278820Y195758D01*
X278847Y195767D01*
X278902Y195814D01*
X278961Y195855D01*
X278976Y195879D01*
X278998Y195897D01*
X279029Y195962D01*
X279068Y196022D01*
X279073Y196050D01*
X279085Y196076D01*
X279094Y196177D01*
X279101Y196219D01*
X279099Y196229D01*
X279100Y196242D01*
X278861Y199243D01*
X413543Y199243D01*
X413304Y196242D01*
X413308Y196213D01*
X413303Y196185D01*
X413320Y196116D01*
X413328Y196044D01*
X413343Y196020D01*
X413349Y195992D01*
X413392Y195934D01*
X413428Y195872D01*
X413450Y195855D01*
X413467Y195832D01*
X413529Y195795D01*
X413586Y195752D01*
X413614Y195745D01*
X413638Y195730D01*
X413738Y195714D01*
X413779Y195703D01*
X413789Y195705D01*
X413802Y195703D01*
X432802Y195703D01*
X432878Y195718D01*
X432956Y195727D01*
X432975Y195738D01*
X432997Y195742D01*
X433061Y195786D01*
X433129Y195825D01*
X433145Y195844D01*
X433161Y195855D01*
X433185Y195893D01*
X433235Y195953D01*
X442735Y212453D01*
X442744Y212480D01*
X442760Y212504D01*
X442775Y212574D01*
X442798Y212642D01*
X442795Y212670D01*
X442801Y212698D01*
X442788Y212769D01*
X442782Y212840D01*
X442769Y212865D01*
X442763Y212893D01*
X442723Y212953D01*
X442690Y213016D01*
X442668Y213034D01*
X442652Y213058D01*
X442569Y213116D01*
X442537Y213143D01*
X442526Y213146D01*
X442516Y213153D01*
X439815Y214431D01*
X458239Y246342D01*
X458254Y246389D01*
X458279Y246432D01*
X458286Y246483D01*
X458303Y246532D01*
X458299Y246582D01*
X458305Y246631D01*
X458292Y246681D01*
X458288Y246732D01*
X458266Y246776D01*
X458253Y246824D01*
X458218Y246870D01*
X458197Y246911D01*
X458170Y246934D01*
X458144Y246968D01*
X457393Y247665D01*
X457363Y247683D01*
X457333Y247712D01*
X456512Y248272D01*
X456495Y248362D01*
X456469Y248427D01*
X456450Y248496D01*
X456430Y248522D01*
X456420Y248548D01*
X456383Y248584D01*
X456342Y248640D01*
X455093Y249797D01*
X455033Y249834D01*
X454977Y249878D01*
X454946Y249887D01*
X454922Y249902D01*
X454871Y249910D01*
X454805Y249929D01*
X454713Y249940D01*
X454094Y250716D01*
X454067Y250739D01*
X454042Y250772D01*
X453313Y251448D01*
X453310Y251539D01*
X453293Y251608D01*
X453285Y251678D01*
X453270Y251707D01*
X453263Y251734D01*
X453232Y251776D01*
X453200Y251837D01*
X452137Y253168D01*
X452083Y253213D01*
X452035Y253264D01*
X452005Y253278D01*
X451984Y253296D01*
X451935Y253312D01*
X451872Y253341D01*
X451783Y253365D01*
X451286Y254225D01*
X451263Y254251D01*
X451243Y254288D01*
X450624Y255065D01*
X450634Y255156D01*
X450628Y255226D01*
X450630Y255297D01*
X450619Y255328D01*
X450617Y255356D01*
X450593Y255401D01*
X450569Y255466D01*
X449717Y256941D01*
X449671Y256994D01*
X449631Y257052D01*
X449603Y257070D01*
X449585Y257091D01*
X449538Y257113D01*
X449481Y257152D01*
X449396Y257189D01*
X449033Y258114D01*
X449014Y258143D01*
X449000Y258182D01*
X448503Y259042D01*
X448527Y259131D01*
X448531Y259201D01*
X448544Y259271D01*
X448538Y259303D01*
X448539Y259331D01*
X448522Y259380D01*
X448509Y259448D01*
X447886Y261032D01*
X447848Y261092D01*
X447817Y261155D01*
X447793Y261177D01*
X447778Y261201D01*
X447735Y261230D01*
X447684Y261277D01*
X447606Y261325D01*
X447385Y262294D01*
X447370Y262326D01*
X447362Y262366D01*
X446999Y263291D01*
X447036Y263376D01*
X447051Y263445D01*
X447074Y263512D01*
X447072Y263544D01*
X447078Y263572D01*
X447069Y263622D01*
X447065Y263691D01*
X446686Y265351D01*
X446657Y265416D01*
X446636Y265483D01*
X446615Y265509D01*
X446604Y265534D01*
X446566Y265569D01*
X446522Y265623D01*
X446452Y265683D01*
X446382Y266612D01*
X446359Y266695D01*
X446340Y266780D01*
X446332Y266791D01*
X446328Y266805D01*
X446274Y266873D01*
X446224Y266943D01*
X446212Y266951D01*
X446203Y266962D01*
X446128Y267004D01*
X446054Y267049D01*
X446039Y267052D01*
X446028Y267058D01*
X445972Y267064D01*
X445877Y267081D01*
X409520Y267081D01*
X377985Y298616D01*
X377982Y298618D01*
X377980Y298621D01*
X377899Y298673D01*
X377818Y298726D01*
X377814Y298727D01*
X377811Y298729D01*
X377716Y298746D01*
X377621Y298764D01*
X377618Y298763D01*
X377614Y298764D01*
X377519Y298742D01*
X377425Y298722D01*
X377422Y298720D01*
X377418Y298719D01*
X377340Y298663D01*
X377261Y298608D01*
X377259Y298605D01*
X377255Y298603D01*
X377158Y298451D01*
X376200Y296138D01*
X374422Y294360D01*
X373695Y294059D01*
X372470Y293552D01*
X372098Y293397D01*
X369582Y293397D01*
X367258Y294360D01*
X365480Y296138D01*
X364517Y298462D01*
X364517Y300978D01*
X364599Y301174D01*
X364600Y301183D01*
X364605Y301191D01*
X364637Y301368D01*
X364637Y313386D01*
X364763Y313511D01*
X364767Y313518D01*
X364774Y313522D01*
X364822Y313601D01*
X364874Y313678D01*
X364875Y313686D01*
X364879Y313692D01*
X364911Y313870D01*
X364911Y315888D01*
X366766Y317743D01*
X370638Y317743D01*
X370843Y317538D01*
X370848Y317535D01*
X370851Y317530D01*
X370931Y317480D01*
X371010Y317427D01*
X371015Y317426D01*
X371020Y317423D01*
X371114Y317407D01*
X371207Y317389D01*
X371212Y317390D01*
X371218Y317389D01*
X371309Y317411D01*
X371403Y317431D01*
X371408Y317434D01*
X371413Y317435D01*
X371561Y317538D01*
X371766Y317743D01*
X374154Y317743D01*
X374159Y317744D01*
X374164Y317743D01*
X374257Y317764D01*
X374351Y317782D01*
X374355Y317785D01*
X374360Y317786D01*
X374438Y317842D01*
X374516Y317895D01*
X374519Y317899D01*
X374524Y317902D01*
X374574Y317984D01*
X374626Y318063D01*
X374627Y318068D01*
X374629Y318073D01*
X374661Y318250D01*
X374661Y320638D01*
X374866Y320843D01*
X374869Y320848D01*
X374874Y320851D01*
X374924Y320931D01*
X374977Y321010D01*
X374978Y321015D01*
X374981Y321020D01*
X374997Y321114D01*
X375015Y321207D01*
X375014Y321212D01*
X375015Y321218D01*
X374993Y321309D01*
X374973Y321403D01*
X374970Y321408D01*
X374969Y321413D01*
X374866Y321561D01*
X374661Y321766D01*
X374661Y325638D01*
X374866Y325843D01*
X374869Y325848D01*
X374874Y325851D01*
X374924Y325931D01*
X374977Y326010D01*
X374978Y326015D01*
X374981Y326020D01*
X374997Y326114D01*
X375015Y326207D01*
X375014Y326212D01*
X375015Y326218D01*
X374993Y326309D01*
X374973Y326403D01*
X374970Y326408D01*
X374969Y326413D01*
X374866Y326561D01*
X374661Y326766D01*
X374661Y330638D01*
X374866Y330843D01*
X374869Y330848D01*
X374874Y330851D01*
X374924Y330931D01*
X374977Y331010D01*
X374978Y331015D01*
X374981Y331020D01*
X374997Y331114D01*
X375015Y331207D01*
X375014Y331212D01*
X375015Y331218D01*
X374993Y331309D01*
X374973Y331403D01*
X374970Y331408D01*
X374969Y331413D01*
X374866Y331561D01*
X374661Y331766D01*
X374661Y335638D01*
X374866Y335843D01*
X374867Y335845D01*
X374868Y335845D01*
X374870Y335848D01*
X374874Y335851D01*
X374924Y335931D01*
X374977Y336010D01*
X374978Y336015D01*
X374981Y336020D01*
X374997Y336114D01*
X375015Y336207D01*
X375014Y336212D01*
X375015Y336218D01*
X374993Y336309D01*
X374973Y336403D01*
X374970Y336408D01*
X374969Y336413D01*
X374866Y336561D01*
X374661Y336766D01*
X374661Y340638D01*
X374866Y340843D01*
X374869Y340848D01*
X374874Y340851D01*
X374924Y340931D01*
X374977Y341010D01*
X374978Y341015D01*
X374981Y341020D01*
X374997Y341114D01*
X375015Y341207D01*
X375014Y341212D01*
X375015Y341218D01*
X374993Y341309D01*
X374973Y341403D01*
X374970Y341408D01*
X374969Y341413D01*
X374866Y341561D01*
X374661Y341766D01*
X374661Y345638D01*
X374866Y345843D01*
X374869Y345848D01*
X374874Y345851D01*
X374924Y345931D01*
X374977Y346010D01*
X374978Y346015D01*
X374981Y346020D01*
X374997Y346114D01*
X375015Y346207D01*
X375014Y346212D01*
X375015Y346218D01*
X374993Y346309D01*
X374973Y346403D01*
X374970Y346408D01*
X374969Y346413D01*
X374866Y346561D01*
X374661Y346766D01*
X374661Y350638D01*
X374866Y350843D01*
X374869Y350848D01*
X374874Y350851D01*
X374924Y350931D01*
X374977Y351010D01*
X374978Y351015D01*
X374981Y351020D01*
X374997Y351114D01*
X375015Y351207D01*
X375014Y351212D01*
X375015Y351218D01*
X374993Y351309D01*
X374973Y351403D01*
X374970Y351408D01*
X374969Y351413D01*
X374866Y351561D01*
X374661Y351766D01*
X374661Y355638D01*
X376516Y357493D01*
X378893Y357493D01*
X378901Y357494D01*
X378909Y357493D01*
X378994Y357513D01*
X386203Y357513D01*
X386211Y357514D01*
X386219Y357513D01*
X386309Y357534D01*
X386400Y357552D01*
X386406Y357557D01*
X386414Y357559D01*
X386562Y357661D01*
X394646Y365745D01*
X394650Y365752D01*
X394657Y365756D01*
X394706Y365835D01*
X394757Y365912D01*
X394758Y365920D01*
X394763Y365927D01*
X394795Y366104D01*
X394795Y369873D01*
X396283Y371361D01*
X412388Y371361D01*
X413876Y369873D01*
X413876Y363768D01*
X412388Y362279D01*
X402169Y362279D01*
X402161Y362278D01*
X402153Y362279D01*
X402063Y362258D01*
X401972Y362240D01*
X401966Y362235D01*
X401958Y362234D01*
X401810Y362131D01*
X393058Y353379D01*
X393056Y353376D01*
X393054Y353375D01*
X393002Y353294D01*
X392947Y353212D01*
X392946Y353209D01*
X392945Y353207D01*
X392928Y353111D01*
X392909Y353015D01*
X392910Y353012D01*
X392909Y353010D01*
X392931Y352913D01*
X392951Y352819D01*
X392952Y352817D01*
X392953Y352814D01*
X393010Y352734D01*
X393065Y352654D01*
X393067Y352653D01*
X393069Y352651D01*
X393152Y352599D01*
X393234Y352547D01*
X393237Y352546D01*
X393239Y352545D01*
X393417Y352513D01*
X394556Y352513D01*
X399560Y347510D01*
X399566Y347505D01*
X399571Y347499D01*
X399649Y347450D01*
X399727Y347399D01*
X399734Y347397D01*
X399741Y347393D01*
X399918Y347361D01*
X412388Y347361D01*
X413876Y345873D01*
X413876Y340868D01*
X413877Y340863D01*
X413876Y340858D01*
X413897Y340765D01*
X413916Y340671D01*
X413918Y340667D01*
X413920Y340662D01*
X413975Y340584D01*
X414028Y340506D01*
X414033Y340503D01*
X414036Y340499D01*
X414117Y340448D01*
X414196Y340396D01*
X414201Y340396D01*
X414206Y340393D01*
X414383Y340361D01*
X414771Y340361D01*
X414779Y340362D01*
X414787Y340361D01*
X414877Y340382D01*
X414968Y340400D01*
X414974Y340405D01*
X414982Y340407D01*
X415130Y340509D01*
X428131Y353510D01*
X428135Y353517D01*
X428142Y353521D01*
X428190Y353600D01*
X428242Y353677D01*
X428243Y353685D01*
X428247Y353691D01*
X428279Y353869D01*
X428279Y360973D01*
X428278Y360978D01*
X428279Y360983D01*
X428259Y361076D01*
X428240Y361169D01*
X428237Y361173D01*
X428236Y361179D01*
X428180Y361256D01*
X428127Y361335D01*
X428123Y361338D01*
X428120Y361342D01*
X428038Y361393D01*
X427959Y361444D01*
X427954Y361445D01*
X427949Y361448D01*
X427772Y361480D01*
X426038Y361480D01*
X424549Y362968D01*
X424549Y376073D01*
X426038Y377561D01*
X434532Y377561D01*
X434539Y377563D01*
X434547Y377562D01*
X434637Y377583D01*
X434728Y377601D01*
X434735Y377605D01*
X434742Y377607D01*
X434890Y377710D01*
X443464Y386284D01*
X454399Y386284D01*
X454407Y386285D01*
X454414Y386284D01*
X454504Y386305D01*
X454595Y386324D01*
X454602Y386328D01*
X454610Y386330D01*
X454758Y386432D01*
X456158Y387833D01*
X456511Y387979D01*
X457735Y388487D01*
X457736Y388487D01*
X458482Y388796D01*
X460998Y388796D01*
X463322Y387833D01*
X465100Y386055D01*
X466063Y383731D01*
X466063Y381750D01*
X466064Y381742D01*
X466063Y381734D01*
X466084Y381644D01*
X466102Y381553D01*
X466107Y381547D01*
X466109Y381539D01*
X466211Y381391D01*
X466330Y381272D01*
X466336Y381268D01*
X466341Y381262D01*
X466420Y381213D01*
X466497Y381162D01*
X466505Y381160D01*
X466511Y381156D01*
X466689Y381124D01*
X476629Y381124D01*
X479582Y378171D01*
X479582Y368995D01*
X476629Y366042D01*
X461454Y366042D01*
X458501Y368995D01*
X458501Y375804D01*
X458500Y375810D01*
X458501Y375817D01*
X458480Y375908D01*
X458461Y376000D01*
X458458Y376006D01*
X458456Y376012D01*
X458401Y376089D01*
X458349Y376166D01*
X458343Y376170D01*
X458339Y376175D01*
X458188Y376273D01*
X456158Y377113D01*
X454758Y378514D01*
X454751Y378518D01*
X454747Y378525D01*
X454668Y378573D01*
X454591Y378625D01*
X454583Y378626D01*
X454576Y378630D01*
X454399Y378662D01*
X446831Y378662D01*
X446824Y378661D01*
X446816Y378662D01*
X446726Y378641D01*
X446635Y378623D01*
X446628Y378618D01*
X446621Y378617D01*
X446473Y378514D01*
X439779Y371821D01*
X439775Y371814D01*
X439769Y371810D01*
X439720Y371731D01*
X439668Y371654D01*
X439667Y371646D01*
X439663Y371639D01*
X439631Y371462D01*
X439631Y362968D01*
X438142Y361480D01*
X436408Y361480D01*
X436403Y361479D01*
X436398Y361480D01*
X436305Y361459D01*
X436212Y361440D01*
X436207Y361437D01*
X436202Y361436D01*
X436124Y361381D01*
X436046Y361328D01*
X436043Y361323D01*
X436039Y361320D01*
X435988Y361239D01*
X435937Y361160D01*
X435936Y361154D01*
X435933Y361150D01*
X435901Y360973D01*
X435901Y350502D01*
X418278Y332878D01*
X418276Y332876D01*
X418274Y332875D01*
X418221Y332794D01*
X418167Y332711D01*
X418166Y332709D01*
X418165Y332707D01*
X418147Y332609D01*
X418129Y332515D01*
X418130Y332512D01*
X418129Y332509D01*
X418151Y332413D01*
X418171Y332318D01*
X418172Y332316D01*
X418173Y332314D01*
X418229Y332234D01*
X418285Y332154D01*
X418287Y332152D01*
X418289Y332150D01*
X418371Y332099D01*
X418454Y332046D01*
X418457Y332046D01*
X418459Y332044D01*
X418636Y332012D01*
X423039Y332012D01*
X423045Y332013D01*
X423050Y332013D01*
X423143Y332033D01*
X423236Y332052D01*
X423240Y332055D01*
X423245Y332056D01*
X423323Y332111D01*
X423402Y332165D01*
X423405Y332169D01*
X423409Y332172D01*
X423459Y332253D01*
X423511Y332333D01*
X423512Y332338D01*
X423515Y332342D01*
X423547Y332520D01*
X423547Y333880D01*
X425035Y335369D01*
X432665Y335369D01*
X432673Y335370D01*
X432680Y335369D01*
X432770Y335390D01*
X432861Y335408D01*
X432868Y335413D01*
X432876Y335415D01*
X433024Y335517D01*
X445955Y348448D01*
X445960Y348456D01*
X445967Y348461D01*
X446064Y348613D01*
X446760Y350292D01*
X448538Y352070D01*
X449508Y352472D01*
X450733Y352979D01*
X450862Y353033D01*
X453378Y353033D01*
X455702Y352070D01*
X457480Y350292D01*
X458443Y347968D01*
X458443Y345452D01*
X457480Y343128D01*
X455702Y341350D01*
X455420Y341233D01*
X454195Y340726D01*
X454023Y340654D01*
X454015Y340649D01*
X454006Y340647D01*
X453858Y340545D01*
X443777Y330463D01*
X443772Y330456D01*
X443766Y330452D01*
X443717Y330373D01*
X443666Y330296D01*
X443664Y330288D01*
X443660Y330282D01*
X443628Y330104D01*
X443628Y322984D01*
X443629Y322982D01*
X443628Y322979D01*
X443648Y322884D01*
X443668Y322788D01*
X443669Y322786D01*
X443670Y322783D01*
X443726Y322702D01*
X443780Y322622D01*
X443783Y322621D01*
X443784Y322618D01*
X443868Y322565D01*
X443948Y322513D01*
X443951Y322512D01*
X443953Y322511D01*
X444049Y322495D01*
X444146Y322477D01*
X444148Y322478D01*
X444151Y322477D01*
X444244Y322499D01*
X444341Y322521D01*
X444344Y322522D01*
X444346Y322523D01*
X444494Y322626D01*
X444728Y322860D01*
X445190Y323051D01*
X446407Y323556D01*
X446415Y323561D01*
X446424Y323563D01*
X446572Y323665D01*
X455289Y332383D01*
X456029Y332689D01*
X457253Y333196D01*
X457343Y333234D01*
X458936Y333234D01*
X458941Y333235D01*
X458946Y333234D01*
X459039Y333254D01*
X459132Y333273D01*
X459137Y333276D01*
X459142Y333277D01*
X459219Y333332D01*
X459298Y333386D01*
X459301Y333390D01*
X459305Y333393D01*
X459356Y333475D01*
X459407Y333554D01*
X459408Y333559D01*
X459411Y333563D01*
X459443Y333741D01*
X459443Y334197D01*
X460931Y335686D01*
X473036Y335686D01*
X474524Y334197D01*
X474524Y321092D01*
X473036Y319604D01*
X460931Y319604D01*
X459983Y320552D01*
X459979Y320555D01*
X459976Y320559D01*
X459896Y320610D01*
X459816Y320663D01*
X459811Y320664D01*
X459807Y320667D01*
X459713Y320683D01*
X459619Y320701D01*
X459614Y320700D01*
X459609Y320700D01*
X459517Y320679D01*
X459423Y320659D01*
X459419Y320656D01*
X459414Y320655D01*
X459266Y320552D01*
X454475Y315762D01*
X454474Y315759D01*
X454472Y315758D01*
X454468Y315753D01*
X454463Y315749D01*
X454366Y315597D01*
X453670Y313918D01*
X451892Y312140D01*
X451102Y311813D01*
X451101Y311813D01*
X450213Y311444D01*
X450205Y311439D01*
X450196Y311437D01*
X450048Y311335D01*
X443777Y305063D01*
X443772Y305056D01*
X443766Y305052D01*
X443717Y304973D01*
X443666Y304896D01*
X443664Y304888D01*
X443660Y304882D01*
X443628Y304704D01*
X443628Y299776D01*
X442140Y298287D01*
X425035Y298287D01*
X423547Y299776D01*
X423547Y301232D01*
X423546Y301237D01*
X423547Y301242D01*
X423526Y301335D01*
X423507Y301428D01*
X423504Y301433D01*
X423503Y301438D01*
X423448Y301516D01*
X423394Y301594D01*
X423390Y301597D01*
X423387Y301601D01*
X423306Y301652D01*
X423226Y301704D01*
X423221Y301704D01*
X423217Y301707D01*
X423039Y301739D01*
X413885Y301739D01*
X413877Y301738D01*
X413869Y301739D01*
X413780Y301718D01*
X413688Y301700D01*
X413682Y301695D01*
X413674Y301693D01*
X413526Y301591D01*
X413319Y301383D01*
X401214Y301383D01*
X399725Y302871D01*
X399725Y308415D01*
X399724Y308423D01*
X399725Y308431D01*
X399704Y308521D01*
X399686Y308612D01*
X399681Y308618D01*
X399680Y308626D01*
X399577Y308774D01*
X391159Y317192D01*
X391159Y322061D01*
X391158Y322069D01*
X391159Y322077D01*
X391138Y322167D01*
X391120Y322258D01*
X391115Y322264D01*
X391113Y322272D01*
X391011Y322420D01*
X387609Y325822D01*
X387607Y325824D01*
X387605Y325826D01*
X387524Y325878D01*
X387442Y325933D01*
X387439Y325934D01*
X387437Y325935D01*
X387341Y325952D01*
X387245Y325971D01*
X387242Y325970D01*
X387240Y325971D01*
X387143Y325949D01*
X387049Y325929D01*
X387047Y325928D01*
X387044Y325927D01*
X386964Y325870D01*
X386884Y325815D01*
X386883Y325813D01*
X386881Y325811D01*
X386829Y325728D01*
X386777Y325646D01*
X386776Y325643D01*
X386775Y325641D01*
X386743Y325463D01*
X386743Y321766D01*
X386538Y321561D01*
X386535Y321556D01*
X386530Y321553D01*
X386479Y321473D01*
X386427Y321394D01*
X386426Y321389D01*
X386423Y321384D01*
X386407Y321291D01*
X386389Y321197D01*
X386390Y321192D01*
X386389Y321187D01*
X386411Y321094D01*
X386431Y321001D01*
X386434Y320997D01*
X386435Y320991D01*
X386538Y320843D01*
X386743Y320638D01*
X386743Y316766D01*
X384855Y314878D01*
X384824Y314872D01*
X384819Y314869D01*
X384814Y314868D01*
X384736Y314812D01*
X384658Y314759D01*
X384655Y314755D01*
X384651Y314752D01*
X384600Y314670D01*
X384549Y314591D01*
X384548Y314586D01*
X384545Y314581D01*
X384513Y314404D01*
X384513Y311967D01*
X384514Y311959D01*
X384513Y311951D01*
X384534Y311861D01*
X384552Y311770D01*
X384557Y311763D01*
X384559Y311756D01*
X384661Y311608D01*
X414180Y282089D01*
X414186Y282085D01*
X414191Y282079D01*
X414270Y282030D01*
X414347Y281978D01*
X414355Y281977D01*
X414361Y281973D01*
X414539Y281941D01*
X437889Y281941D01*
X437897Y281942D01*
X437904Y281941D01*
X437994Y281962D01*
X438085Y281980D01*
X438092Y281985D01*
X438100Y281987D01*
X438248Y282089D01*
X439648Y283490D01*
X440863Y283993D01*
X441972Y284453D01*
X444488Y284453D01*
X446812Y283490D01*
X447633Y282669D01*
X447640Y282664D01*
X447645Y282657D01*
X447723Y282609D01*
X447800Y282558D01*
X447809Y282556D01*
X447816Y282552D01*
X447906Y282538D01*
X447997Y282520D01*
X448005Y282522D01*
X448014Y282521D01*
X448103Y282543D01*
X448193Y282562D01*
X448200Y282567D01*
X448209Y282569D01*
X448282Y282624D01*
X448357Y282676D01*
X448362Y282684D01*
X448369Y282689D01*
X448464Y282842D01*
X448502Y282939D01*
X448514Y283008D01*
X448534Y283076D01*
X448531Y283108D01*
X448536Y283136D01*
X448525Y283186D01*
X448519Y283255D01*
X448495Y283344D01*
X448992Y284205D01*
X449003Y284238D01*
X449025Y284273D01*
X449387Y285198D01*
X449472Y285235D01*
X449530Y285275D01*
X449592Y285309D01*
X449613Y285334D01*
X449636Y285350D01*
X449663Y285393D01*
X449708Y285446D01*
X450559Y286921D01*
X450582Y286988D01*
X450612Y287052D01*
X450614Y287085D01*
X450623Y287111D01*
X450619Y287163D01*
X450624Y287232D01*
X450613Y287323D01*
X451233Y288100D01*
X451248Y288131D01*
X451275Y288163D01*
X451772Y289023D01*
X451861Y289047D01*
X451888Y289061D01*
X451911Y289066D01*
X451937Y289083D01*
X451990Y289102D01*
X452015Y289124D01*
X452040Y289136D01*
X452074Y289176D01*
X452126Y289221D01*
X453187Y290553D01*
X453219Y290615D01*
X453259Y290674D01*
X453266Y290706D01*
X453279Y290731D01*
X453283Y290782D01*
X453297Y290850D01*
X453301Y290942D01*
X454029Y291618D01*
X454049Y291646D01*
X454081Y291674D01*
X454700Y292451D01*
X454791Y292461D01*
X454858Y292483D01*
X454928Y292496D01*
X454955Y292514D01*
X454982Y292522D01*
X455021Y292556D01*
X455079Y292593D01*
X456327Y293752D01*
X456368Y293809D01*
X456416Y293861D01*
X456428Y293892D01*
X456444Y293914D01*
X456456Y293965D01*
X456480Y294029D01*
X456498Y294120D01*
X457318Y294680D01*
X457343Y294705D01*
X457378Y294727D01*
X458106Y295403D01*
X458198Y295400D01*
X458267Y295411D01*
X458338Y295414D01*
X458368Y295427D01*
X458395Y295432D01*
X458439Y295459D01*
X458502Y295488D01*
X459909Y296447D01*
X459958Y296498D01*
X460013Y296542D01*
X460029Y296571D01*
X460049Y296591D01*
X460068Y296639D01*
X460102Y296699D01*
X460132Y296786D01*
X461027Y297217D01*
X461055Y297238D01*
X461093Y297255D01*
X461914Y297815D01*
X462004Y297798D01*
X462075Y297799D01*
X462145Y297791D01*
X462176Y297800D01*
X462205Y297800D01*
X462252Y297821D01*
X462319Y297839D01*
X463852Y298579D01*
X463909Y298621D01*
X463970Y298657D01*
X463990Y298683D01*
X464012Y298700D01*
X464038Y298744D01*
X464081Y298799D01*
X464124Y298880D01*
X465073Y299173D01*
X465103Y299190D01*
X465144Y299201D01*
X466039Y299632D01*
X466126Y299602D01*
X466195Y299592D01*
X466264Y299574D01*
X466296Y299578D01*
X466324Y299575D01*
X466374Y299588D01*
X466443Y299596D01*
X468069Y300099D01*
X468131Y300132D01*
X468197Y300158D01*
X468221Y300181D01*
X468245Y300194D01*
X468278Y300235D01*
X468328Y300282D01*
X468383Y300356D01*
X469365Y300505D01*
X469398Y300517D01*
X469439Y300522D01*
X470388Y300815D01*
X470470Y300772D01*
X470537Y300752D01*
X470602Y300724D01*
X470635Y300723D01*
X470662Y300715D01*
X470713Y300721D01*
X470782Y300719D01*
X472466Y300973D01*
X472532Y300997D01*
X472601Y301013D01*
X472628Y301032D01*
X472654Y301042D01*
X472692Y301077D01*
X472749Y301116D01*
X472814Y301181D01*
X473808Y301181D01*
X473842Y301188D01*
X473883Y301187D01*
X474866Y301336D01*
X474940Y301281D01*
X475004Y301251D01*
X475064Y301214D01*
X475096Y301208D01*
X475121Y301196D01*
X475173Y301194D01*
X475241Y301182D01*
X476944Y301182D01*
X477013Y301196D01*
X477083Y301202D01*
X477113Y301217D01*
X477140Y301222D01*
X477183Y301251D01*
X477245Y301282D01*
X477319Y301336D01*
X478301Y301189D01*
X478336Y301190D01*
X478377Y301183D01*
X479371Y301183D01*
X479436Y301118D01*
X479495Y301079D01*
X479548Y301033D01*
X479579Y301023D01*
X479603Y301007D01*
X479653Y300998D01*
X479719Y300975D01*
X481403Y300722D01*
X481473Y300726D01*
X481544Y300721D01*
X481575Y300731D01*
X481603Y300732D01*
X481649Y300754D01*
X481715Y300775D01*
X481797Y300818D01*
X482746Y300526D01*
X482781Y300522D01*
X482820Y300509D01*
X483803Y300361D01*
X483857Y300287D01*
X483910Y300240D01*
X483956Y300187D01*
X483985Y300172D01*
X484006Y300153D01*
X484055Y300135D01*
X484116Y300104D01*
X485743Y299602D01*
X485813Y299595D01*
X485882Y299580D01*
X485915Y299585D01*
X485943Y299582D01*
X485992Y299598D01*
X486060Y299608D01*
X486147Y299639D01*
X487042Y299208D01*
X487055Y299205D01*
X487058Y299203D01*
X487073Y299200D01*
X487076Y299199D01*
X487113Y299180D01*
X488111Y298873D01*
X488160Y298868D01*
X488207Y298853D01*
X488259Y298858D01*
X488310Y298853D01*
X488358Y298867D01*
X488407Y298872D01*
X488452Y298896D01*
X488502Y298912D01*
X488540Y298943D01*
X488583Y298966D01*
X488621Y299011D01*
X488656Y299040D01*
X488672Y299072D01*
X488700Y299104D01*
X507122Y331014D01*
X509618Y329291D01*
X509645Y329280D01*
X509667Y329261D01*
X509736Y329241D01*
X509801Y329213D01*
X509830Y329213D01*
X509858Y329205D01*
X509929Y329213D01*
X510000Y329213D01*
X510027Y329224D01*
X510056Y329227D01*
X510118Y329262D01*
X510183Y329290D01*
X510204Y329310D01*
X510229Y329325D01*
X510292Y329402D01*
X510322Y329432D01*
X510326Y329442D01*
X510335Y329453D01*
X519835Y345953D01*
X519845Y345985D01*
X519854Y345998D01*
X519858Y346022D01*
X519859Y346026D01*
X519890Y346096D01*
X519890Y346120D01*
X519898Y346142D01*
X519892Y346218D01*
X519893Y346295D01*
X519883Y346319D01*
X519882Y346340D01*
X519861Y346379D01*
X519835Y346451D01*
X510335Y362951D01*
X510316Y362973D01*
X510303Y362999D01*
X510250Y363047D01*
X510203Y363100D01*
X510177Y363113D01*
X510156Y363132D01*
X510088Y363155D01*
X510024Y363186D01*
X509995Y363188D01*
X509968Y363197D01*
X509896Y363192D01*
X509825Y363195D01*
X509798Y363185D01*
X509769Y363183D01*
X509679Y363141D01*
X509639Y363126D01*
X509631Y363119D01*
X509618Y363113D01*
X507122Y361390D01*
X488700Y393300D01*
X488667Y393337D01*
X488643Y393380D01*
X488601Y393411D01*
X488567Y393450D01*
X488523Y393472D01*
X488484Y393502D01*
X488433Y393515D01*
X488387Y393538D01*
X488338Y393540D01*
X488290Y393553D01*
X488232Y393546D01*
X488186Y393548D01*
X488153Y393536D01*
X488111Y393531D01*
X487113Y393224D01*
X487082Y393207D01*
X487042Y393196D01*
X486147Y392765D01*
X486060Y392796D01*
X485990Y392805D01*
X485922Y392823D01*
X485890Y392819D01*
X485862Y392823D01*
X485812Y392810D01*
X485743Y392802D01*
X484116Y392300D01*
X484054Y392267D01*
X483988Y392240D01*
X483965Y392218D01*
X483940Y392205D01*
X483908Y392164D01*
X483857Y392117D01*
X483803Y392043D01*
X482820Y391895D01*
X482787Y391883D01*
X482746Y391878D01*
X481797Y391586D01*
X481715Y391629D01*
X481648Y391649D01*
X481583Y391677D01*
X481550Y391678D01*
X481523Y391686D01*
X481472Y391680D01*
X481403Y391682D01*
X479719Y391429D01*
X479653Y391405D01*
X479584Y391389D01*
X479557Y391370D01*
X479531Y391360D01*
X479493Y391325D01*
X479436Y391286D01*
X479371Y391221D01*
X478377Y391221D01*
X478343Y391214D01*
X478301Y391215D01*
X477319Y391068D01*
X477245Y391122D01*
X477181Y391152D01*
X477121Y391189D01*
X477089Y391195D01*
X477063Y391207D01*
X477012Y391209D01*
X476944Y391222D01*
X475241Y391222D01*
X475172Y391208D01*
X475102Y391203D01*
X475072Y391188D01*
X475045Y391183D01*
X475002Y391154D01*
X474940Y391123D01*
X474866Y391068D01*
X473883Y391217D01*
X473848Y391215D01*
X473808Y391223D01*
X472814Y391223D01*
X472749Y391288D01*
X472690Y391327D01*
X472637Y391373D01*
X472605Y391383D01*
X472582Y391399D01*
X472531Y391409D01*
X472466Y391431D01*
X470782Y391685D01*
X470712Y391682D01*
X470641Y391687D01*
X470610Y391677D01*
X470582Y391675D01*
X470536Y391653D01*
X470470Y391632D01*
X470388Y391589D01*
X469439Y391882D01*
X469404Y391886D01*
X469365Y391899D01*
X468383Y392048D01*
X468328Y392122D01*
X468276Y392169D01*
X468229Y392223D01*
X468200Y392238D01*
X468180Y392256D01*
X468131Y392274D01*
X468069Y392305D01*
X466443Y392808D01*
X466372Y392815D01*
X466303Y392830D01*
X466271Y392825D01*
X466243Y392828D01*
X466194Y392813D01*
X466126Y392802D01*
X466039Y392772D01*
X465144Y393203D01*
X465110Y393212D01*
X465073Y393231D01*
X464124Y393524D01*
X464081Y393605D01*
X464036Y393660D01*
X463998Y393720D01*
X463972Y393739D01*
X463954Y393761D01*
X463908Y393785D01*
X463852Y393825D01*
X462319Y394565D01*
X462250Y394582D01*
X462184Y394608D01*
X462152Y394607D01*
X462124Y394614D01*
X462073Y394607D01*
X462004Y394606D01*
X461914Y394589D01*
X461093Y395149D01*
X461061Y395162D01*
X461027Y395187D01*
X460132Y395618D01*
X460102Y395705D01*
X460066Y395766D01*
X460037Y395830D01*
X460014Y395853D01*
X460000Y395878D01*
X459966Y395903D01*
X459955Y395918D01*
X459937Y395929D01*
X459909Y395957D01*
X458502Y396916D01*
X458437Y396944D01*
X458376Y396979D01*
X458344Y396984D01*
X458318Y396994D01*
X458266Y396995D01*
X458198Y397004D01*
X458106Y397001D01*
X457378Y397677D01*
X457348Y397695D01*
X457318Y397724D01*
X456498Y398284D01*
X456480Y398375D01*
X456454Y398440D01*
X456435Y398508D01*
X456416Y398534D01*
X456405Y398560D01*
X456369Y398597D01*
X456327Y398652D01*
X455079Y399811D01*
X455019Y399848D01*
X454964Y399891D01*
X454932Y399901D01*
X454908Y399915D01*
X454857Y399923D01*
X454791Y399943D01*
X454700Y399953D01*
X454081Y400730D01*
X454054Y400753D01*
X454029Y400786D01*
X453301Y401462D01*
X453297Y401554D01*
X453281Y401623D01*
X453273Y401693D01*
X453257Y401722D01*
X453251Y401749D01*
X453220Y401791D01*
X453187Y401851D01*
X452126Y403183D01*
X452072Y403228D01*
X452024Y403280D01*
X451994Y403294D01*
X451973Y403312D01*
X451923Y403327D01*
X451861Y403357D01*
X451772Y403381D01*
X451275Y404241D01*
X451252Y404267D01*
X451233Y404304D01*
X450613Y405081D01*
X450624Y405172D01*
X450622Y405195D01*
X450622Y405197D01*
X450621Y405199D01*
X450618Y405243D01*
X450620Y405313D01*
X450609Y405344D01*
X450606Y405372D01*
X450582Y405418D01*
X450559Y405483D01*
X449708Y406958D01*
X449661Y407011D01*
X449621Y407069D01*
X449594Y407087D01*
X449576Y407108D01*
X449529Y407131D01*
X449472Y407169D01*
X449387Y407206D01*
X449025Y408131D01*
X449006Y408160D01*
X448992Y408199D01*
X448495Y409060D01*
X448519Y409149D01*
X448524Y409219D01*
X448536Y409289D01*
X448530Y409321D01*
X448532Y409349D01*
X448515Y409398D01*
X448501Y409465D01*
X447880Y411051D01*
X447842Y411110D01*
X447811Y411173D01*
X447787Y411195D01*
X447771Y411219D01*
X447729Y411248D01*
X447678Y411295D01*
X447600Y411344D01*
X447379Y412313D01*
X447365Y412344D01*
X447357Y412385D01*
X446994Y413310D01*
X447031Y413394D01*
X447046Y413463D01*
X447069Y413530D01*
X447067Y413563D01*
X447073Y413590D01*
X447064Y413641D01*
X447061Y413710D01*
X446682Y415370D01*
X446653Y415435D01*
X446632Y415502D01*
X446611Y415527D01*
X446600Y415553D01*
X446562Y415588D01*
X446519Y415642D01*
X446449Y415702D01*
X446375Y416693D01*
X446366Y416726D01*
X446364Y416768D01*
X446143Y417737D01*
X446192Y417814D01*
X446217Y417880D01*
X446250Y417943D01*
X446253Y417976D01*
X446263Y418002D01*
X446261Y418053D01*
X446268Y418122D01*
X446230Y418630D01*
X446207Y418713D01*
X446188Y418798D01*
X446180Y418809D01*
X446176Y418823D01*
X446122Y418891D01*
X446072Y418961D01*
X446060Y418969D01*
X446052Y418980D01*
X445976Y419021D01*
X445902Y419067D01*
X445887Y419070D01*
X445876Y419076D01*
X445820Y419082D01*
X445725Y419099D01*
X436887Y419099D01*
X436884Y419099D01*
X436882Y419099D01*
X436787Y419079D01*
X436691Y419060D01*
X436688Y419058D01*
X436686Y419058D01*
X436605Y419002D01*
X436525Y418947D01*
X436523Y418945D01*
X436521Y418943D01*
X436468Y418860D01*
X436415Y418779D01*
X436415Y418776D01*
X436414Y418774D01*
X436397Y418678D01*
X436380Y418582D01*
X436380Y418579D01*
X436380Y418577D01*
X436402Y418482D01*
X436423Y418386D01*
X436425Y418384D01*
X436426Y418381D01*
X436528Y418233D01*
X437160Y417602D01*
X438123Y415278D01*
X438123Y412762D01*
X437160Y410438D01*
X435382Y408660D01*
X434248Y408190D01*
X434247Y408190D01*
X433058Y407697D01*
X430542Y407697D01*
X428864Y408393D01*
X428855Y408394D01*
X428847Y408399D01*
X428669Y408431D01*
X410430Y408431D01*
X410422Y408430D01*
X410414Y408431D01*
X410325Y408410D01*
X410233Y408392D01*
X410227Y408387D01*
X410219Y408385D01*
X410071Y408283D01*
X397271Y395482D01*
X397268Y395478D01*
X397264Y395475D01*
X397213Y395395D01*
X397160Y395315D01*
X397159Y395310D01*
X397156Y395306D01*
X397140Y395212D01*
X397122Y395119D01*
X397124Y395113D01*
X397123Y395108D01*
X397144Y395016D01*
X397164Y394923D01*
X397167Y394918D01*
X397168Y394913D01*
X397271Y394765D01*
X397873Y394163D01*
X397880Y394159D01*
X397884Y394152D01*
X397963Y394103D01*
X398040Y394052D01*
X398048Y394051D01*
X398054Y394046D01*
X398232Y394014D01*
X404211Y394014D01*
X405699Y392526D01*
X405699Y380421D01*
X404211Y378933D01*
X395717Y378933D01*
X395710Y378931D01*
X395702Y378933D01*
X395612Y378912D01*
X395521Y378893D01*
X395514Y378889D01*
X395507Y378887D01*
X395359Y378784D01*
X386465Y369891D01*
X379005Y369891D01*
X378893Y369911D01*
X376516Y369911D01*
X374661Y371766D01*
X374661Y374154D01*
X374660Y374159D01*
X374661Y374164D01*
X374640Y374257D01*
X374622Y374351D01*
X374619Y374355D01*
X374618Y374360D01*
X374562Y374438D01*
X374509Y374516D01*
X374505Y374519D01*
X374502Y374524D01*
X374420Y374574D01*
X374341Y374626D01*
X374336Y374627D01*
X374331Y374629D01*
X374154Y374661D01*
X371766Y374661D01*
X369911Y376516D01*
X369911Y378893D01*
X369910Y378901D01*
X369911Y378909D01*
X369891Y378994D01*
X369891Y386576D01*
X369890Y386581D01*
X369891Y386586D01*
X369870Y386679D01*
X369852Y386772D01*
X369849Y386777D01*
X369848Y386782D01*
X369792Y386860D01*
X369739Y386938D01*
X369735Y386941D01*
X369732Y386945D01*
X369650Y386996D01*
X369571Y387047D01*
X369566Y387048D01*
X369561Y387051D01*
X369384Y387083D01*
X367831Y387083D01*
X366342Y388571D01*
X366342Y401676D01*
X367831Y403165D01*
X379935Y403165D01*
X381424Y401676D01*
X381424Y401220D01*
X381425Y401215D01*
X381424Y401209D01*
X381445Y401116D01*
X381463Y401023D01*
X381466Y401019D01*
X381467Y401014D01*
X381523Y400936D01*
X381576Y400857D01*
X381580Y400855D01*
X381583Y400850D01*
X381665Y400800D01*
X381744Y400748D01*
X381749Y400747D01*
X381754Y400745D01*
X381931Y400713D01*
X386484Y400713D01*
X386491Y400714D01*
X386499Y400713D01*
X386589Y400734D01*
X386680Y400752D01*
X386687Y400757D01*
X386694Y400758D01*
X386842Y400861D01*
X403096Y417114D01*
X404215Y418233D01*
X404216Y418236D01*
X404218Y418237D01*
X404270Y418317D01*
X404326Y418400D01*
X404326Y418403D01*
X404327Y418405D01*
X404345Y418500D01*
X404363Y418597D01*
X404363Y418600D01*
X404363Y418602D01*
X404342Y418699D01*
X404322Y418793D01*
X404320Y418795D01*
X404319Y418798D01*
X404263Y418878D01*
X404207Y418958D01*
X404205Y418959D01*
X404203Y418961D01*
X404120Y419014D01*
X404038Y419065D01*
X404035Y419066D01*
X404033Y419067D01*
X403856Y419099D01*
X347229Y419099D01*
X347221Y419098D01*
X347213Y419099D01*
X347123Y419078D01*
X347032Y419060D01*
X347026Y419055D01*
X347018Y419053D01*
X346870Y418951D01*
X337661Y409742D01*
X337657Y409736D01*
X337651Y409731D01*
X337602Y409652D01*
X337550Y409575D01*
X337549Y409567D01*
X337545Y409561D01*
X337513Y409383D01*
X337513Y400867D01*
X337514Y400864D01*
X337513Y400860D01*
X337533Y400766D01*
X337552Y400671D01*
X337555Y400668D01*
X337555Y400664D01*
X337611Y400585D01*
X337665Y400505D01*
X337668Y400503D01*
X337671Y400500D01*
X337753Y400448D01*
X337833Y400396D01*
X337837Y400395D01*
X337840Y400393D01*
X337936Y400377D01*
X338030Y400360D01*
X338034Y400361D01*
X338038Y400360D01*
X338214Y400399D01*
X338846Y400661D01*
X340071Y401168D01*
X340372Y401293D01*
X342888Y401293D01*
X343593Y401001D01*
X343599Y400999D01*
X343605Y400996D01*
X343697Y400980D01*
X343790Y400962D01*
X343796Y400963D01*
X343803Y400962D01*
X343894Y400983D01*
X343986Y401003D01*
X343991Y401006D01*
X343998Y401008D01*
X344146Y401111D01*
X345547Y402512D01*
X358652Y402512D01*
X360141Y401024D01*
X360141Y388919D01*
X358652Y387431D01*
X358020Y387431D01*
X358015Y387430D01*
X358010Y387431D01*
X357917Y387410D01*
X357823Y387391D01*
X357819Y387388D01*
X357814Y387387D01*
X357736Y387332D01*
X357658Y387279D01*
X357655Y387274D01*
X357651Y387271D01*
X357600Y387190D01*
X357548Y387110D01*
X357548Y387105D01*
X357545Y387101D01*
X357513Y386924D01*
X357513Y379005D01*
X357493Y378893D01*
X357493Y376516D01*
X355638Y374661D01*
X351766Y374661D01*
X351561Y374866D01*
X351556Y374869D01*
X351553Y374874D01*
X351473Y374924D01*
X351394Y374977D01*
X351389Y374978D01*
X351384Y374981D01*
X351290Y374997D01*
X351197Y375015D01*
X351192Y375014D01*
X351186Y375015D01*
X351095Y374993D01*
X351001Y374973D01*
X350996Y374970D01*
X350991Y374969D01*
X350843Y374866D01*
X350638Y374661D01*
X346766Y374661D01*
X346561Y374866D01*
X346556Y374869D01*
X346553Y374874D01*
X346473Y374924D01*
X346394Y374977D01*
X346389Y374978D01*
X346384Y374981D01*
X346290Y374997D01*
X346197Y375015D01*
X346192Y375014D01*
X346186Y375015D01*
X346095Y374993D01*
X346001Y374973D01*
X345996Y374970D01*
X345991Y374969D01*
X345843Y374866D01*
X345638Y374661D01*
X341766Y374661D01*
X341561Y374866D01*
X341556Y374869D01*
X341553Y374874D01*
X341473Y374924D01*
X341394Y374977D01*
X341389Y374978D01*
X341384Y374981D01*
X341290Y374997D01*
X341197Y375015D01*
X341192Y375014D01*
X341186Y375015D01*
X341095Y374993D01*
X341001Y374973D01*
X340996Y374970D01*
X340991Y374969D01*
X340843Y374866D01*
X340638Y374661D01*
X336766Y374661D01*
X336561Y374866D01*
X336556Y374869D01*
X336553Y374874D01*
X336473Y374924D01*
X336394Y374977D01*
X336389Y374978D01*
X336384Y374981D01*
X336290Y374997D01*
X336197Y375015D01*
X336192Y375014D01*
X336186Y375015D01*
X336095Y374993D01*
X336001Y374973D01*
X335996Y374970D01*
X335991Y374969D01*
X335843Y374866D01*
X335638Y374661D01*
X331766Y374661D01*
X331561Y374866D01*
X331556Y374869D01*
X331553Y374874D01*
X331473Y374924D01*
X331394Y374977D01*
X331389Y374978D01*
X331384Y374981D01*
X331290Y374997D01*
X331197Y375015D01*
X331192Y375014D01*
X331186Y375015D01*
X331095Y374993D01*
X331001Y374973D01*
X330996Y374970D01*
X330991Y374969D01*
X330843Y374866D01*
X330638Y374661D01*
X326766Y374661D01*
X324911Y376516D01*
X324911Y378893D01*
X324910Y378901D01*
X324911Y378909D01*
X324891Y378994D01*
X324891Y416640D01*
X340211Y431960D01*
X341726Y433475D01*
X341729Y433479D01*
X341733Y433482D01*
X341784Y433563D01*
X341837Y433642D01*
X341838Y433647D01*
X341841Y433652D01*
X341857Y433745D01*
X341874Y433839D01*
X341873Y433844D01*
X341874Y433849D01*
X341853Y433942D01*
X341833Y434035D01*
X341830Y434039D01*
X341829Y434044D01*
X341726Y434192D01*
X340080Y435838D01*
X339117Y438162D01*
X339117Y440678D01*
X340080Y443002D01*
X341481Y444402D01*
X341485Y444409D01*
X341491Y444414D01*
X341540Y444492D01*
X341592Y444569D01*
X341593Y444577D01*
X341597Y444584D01*
X341629Y444761D01*
X341629Y470208D01*
X352752Y481331D01*
X384864Y481331D01*
X387245Y478950D01*
X402651Y463544D01*
X402657Y463540D01*
X402662Y463534D01*
X402741Y463485D01*
X402818Y463433D01*
X402826Y463432D01*
X402832Y463428D01*
X403010Y463396D01*
X404991Y463396D01*
X407315Y462433D01*
X409093Y460655D01*
X410056Y458331D01*
X410056Y456350D01*
X410057Y456342D01*
X410056Y456334D01*
X410077Y456244D01*
X410095Y456153D01*
X410100Y456147D01*
X410102Y456139D01*
X410204Y455991D01*
X414006Y452189D01*
X414012Y452185D01*
X414017Y452178D01*
X414096Y452130D01*
X414173Y452078D01*
X414181Y452077D01*
X414187Y452073D01*
X414365Y452041D01*
X422624Y452041D01*
X425577Y449088D01*
X425577Y439912D01*
X422624Y436959D01*
X407448Y436959D01*
X404495Y439912D01*
X404495Y449088D01*
X405053Y449646D01*
X405056Y449650D01*
X405061Y449653D01*
X405111Y449733D01*
X405164Y449813D01*
X405165Y449818D01*
X405168Y449823D01*
X405184Y449916D01*
X405202Y450010D01*
X405201Y450015D01*
X405202Y450020D01*
X405180Y450112D01*
X405160Y450206D01*
X405157Y450210D01*
X405156Y450215D01*
X405053Y450363D01*
X404815Y450602D01*
X404809Y450606D01*
X404804Y450612D01*
X404725Y450662D01*
X404648Y450713D01*
X404640Y450714D01*
X404634Y450718D01*
X404456Y450750D01*
X402475Y450750D01*
X400151Y451713D01*
X398373Y453491D01*
X397410Y455815D01*
X397410Y457796D01*
X397409Y457804D01*
X397410Y457812D01*
X397389Y457902D01*
X397371Y457993D01*
X397366Y457999D01*
X397364Y458007D01*
X397262Y458155D01*
X381856Y473561D01*
X381850Y473565D01*
X381845Y473571D01*
X381766Y473620D01*
X381689Y473672D01*
X381681Y473673D01*
X381675Y473677D01*
X381497Y473709D01*
X356119Y473709D01*
X356111Y473708D01*
X356103Y473709D01*
X356013Y473688D01*
X355922Y473670D01*
X355916Y473665D01*
X355908Y473663D01*
X355760Y473561D01*
X349399Y467200D01*
X349395Y467194D01*
X349389Y467189D01*
X349340Y467110D01*
X349288Y467033D01*
X349287Y467025D01*
X349283Y467019D01*
X349251Y466841D01*
X349251Y444761D01*
X349252Y444753D01*
X349251Y444746D01*
X349272Y444656D01*
X349290Y444565D01*
X349295Y444558D01*
X349297Y444550D01*
X349399Y444402D01*
X350800Y443002D01*
X351763Y440678D01*
X351763Y438162D01*
X350800Y435838D01*
X350168Y435207D01*
X350167Y435204D01*
X350165Y435203D01*
X350113Y435123D01*
X350057Y435040D01*
X350057Y435037D01*
X350055Y435035D01*
X350038Y434939D01*
X350020Y434843D01*
X350020Y434840D01*
X350020Y434838D01*
X350041Y434741D01*
X350061Y434647D01*
X350063Y434645D01*
X350063Y434642D01*
X350120Y434562D01*
X350176Y434482D01*
X350178Y434481D01*
X350179Y434479D01*
X350263Y434427D01*
X350345Y434375D01*
X350347Y434374D01*
X350350Y434373D01*
X350527Y434341D01*
X435349Y434341D01*
X435357Y434342D01*
X435364Y434341D01*
X435454Y434362D01*
X435545Y434380D01*
X435552Y434385D01*
X435560Y434387D01*
X435708Y434489D01*
X437108Y435890D01*
X437779Y436168D01*
X437780Y436168D01*
X439004Y436675D01*
X439432Y436853D01*
X441948Y436853D01*
X444272Y435890D01*
X446050Y434112D01*
X447026Y431755D01*
X447034Y431722D01*
X447052Y431629D01*
X447056Y431624D01*
X447057Y431619D01*
X447112Y431542D01*
X447165Y431464D01*
X447170Y431460D01*
X447174Y431455D01*
X447254Y431406D01*
X447333Y431354D01*
X447339Y431353D01*
X447344Y431350D01*
X447437Y431336D01*
X447530Y431319D01*
X447536Y431320D01*
X447542Y431319D01*
X447633Y431342D01*
X447726Y431362D01*
X447731Y431366D01*
X447737Y431367D01*
X447812Y431424D01*
X447889Y431478D01*
X447893Y431484D01*
X447897Y431487D01*
X447992Y431640D01*
X448509Y432956D01*
X448521Y433026D01*
X448542Y433093D01*
X448539Y433126D01*
X448544Y433154D01*
X448533Y433204D01*
X448527Y433273D01*
X448503Y433362D01*
X449000Y434222D01*
X449011Y434255D01*
X449033Y434290D01*
X449396Y435215D01*
X449481Y435252D01*
X449539Y435292D01*
X449601Y435326D01*
X449622Y435351D01*
X449645Y435367D01*
X449673Y435410D01*
X449717Y435463D01*
X450569Y436938D01*
X450592Y437004D01*
X450622Y437068D01*
X450624Y437101D01*
X450633Y437127D01*
X450629Y437179D01*
X450634Y437248D01*
X450624Y437339D01*
X451243Y438116D01*
X451259Y438147D01*
X451286Y438179D01*
X451783Y439039D01*
X451872Y439063D01*
X451935Y439094D01*
X452002Y439118D01*
X452027Y439139D01*
X452052Y439152D01*
X452085Y439191D01*
X452137Y439236D01*
X453200Y440567D01*
X453232Y440630D01*
X453271Y440689D01*
X453278Y440721D01*
X453291Y440746D01*
X453295Y440797D01*
X453310Y440865D01*
X453313Y440956D01*
X454042Y441632D01*
X454062Y441660D01*
X454094Y441688D01*
X454713Y442464D01*
X454805Y442475D01*
X454872Y442496D01*
X454941Y442510D01*
X454969Y442527D01*
X454996Y442536D01*
X455035Y442569D01*
X455093Y442607D01*
X456342Y443764D01*
X456383Y443822D01*
X456431Y443874D01*
X456442Y443904D01*
X456459Y443927D01*
X456470Y443977D01*
X456495Y444042D01*
X456512Y444132D01*
X457333Y444692D01*
X457357Y444716D01*
X457393Y444739D01*
X458144Y445436D01*
X458173Y445476D01*
X458210Y445509D01*
X458231Y445557D01*
X458261Y445599D01*
X458273Y445647D01*
X458293Y445692D01*
X458295Y445743D01*
X458306Y445794D01*
X458298Y445843D01*
X458300Y445892D01*
X458280Y445946D01*
X458272Y445991D01*
X458253Y446021D01*
X458239Y446062D01*
X439815Y477973D01*
X442516Y479251D01*
X442538Y479268D01*
X442565Y479278D01*
X442617Y479327D01*
X442675Y479370D01*
X442689Y479395D01*
X442710Y479414D01*
X442739Y479480D01*
X442775Y479542D01*
X442778Y479570D01*
X442790Y479596D01*
X442791Y479668D01*
X442800Y479739D01*
X442792Y479766D01*
X442793Y479795D01*
X442757Y479890D01*
X442746Y479930D01*
X442739Y479939D01*
X442735Y479951D01*
X433235Y496451D01*
X433183Y496510D01*
X433137Y496572D01*
X433118Y496583D01*
X433103Y496600D01*
X433033Y496634D01*
X432966Y496674D01*
X432942Y496678D01*
X432924Y496686D01*
X432879Y496688D01*
X432802Y496701D01*
X413802Y496701D01*
X413774Y496696D01*
X413746Y496698D01*
X413678Y496676D01*
X413607Y496662D01*
X413584Y496646D01*
X413557Y496637D01*
X413502Y496590D01*
X413443Y496549D01*
X413428Y496525D01*
X413407Y496507D01*
X413375Y496442D01*
X413336Y496382D01*
X413331Y496354D01*
X413319Y496328D01*
X413310Y496227D01*
X413303Y496185D01*
X413305Y496175D01*
X413304Y496162D01*
X413543Y493161D01*
X278861Y493161D01*
X279100Y496162D01*
X279096Y496191D01*
X279101Y496219D01*
X279084Y496288D01*
X279076Y496360D01*
X279062Y496384D01*
X279055Y496412D01*
X279012Y496470D01*
X278977Y496532D01*
X278954Y496549D01*
X278937Y496572D01*
X278875Y496609D01*
X278818Y496652D01*
X278790Y496659D01*
X278766Y496674D01*
X278666Y496690D01*
X278625Y496701D01*
X278615Y496699D01*
X278602Y496701D01*
X259602Y496701D01*
X259526Y496686D01*
X259448Y496677D01*
X259429Y496666D01*
X259407Y496662D01*
X259343Y496618D01*
X259275Y496579D01*
X259259Y496560D01*
X259243Y496549D01*
X259219Y496511D01*
X259169Y496451D01*
X249669Y479951D01*
X249660Y479924D01*
X249644Y479900D01*
X249629Y479830D01*
X249606Y479762D01*
X249609Y479734D01*
X249603Y479706D01*
X249617Y479636D01*
X249622Y479564D01*
X249635Y479539D01*
X249641Y479511D01*
X249681Y479451D01*
X249714Y479388D01*
X249736Y479370D01*
X249752Y479346D01*
X249835Y479288D01*
X249867Y479261D01*
X249878Y479258D01*
X249889Y479251D01*
X252589Y477973D01*
X234165Y446062D01*
X234150Y446015D01*
X234125Y445972D01*
X234118Y445921D01*
X234101Y445872D01*
X234105Y445822D01*
X234099Y445773D01*
X234112Y445723D01*
X234116Y445672D01*
X234138Y445628D01*
X234151Y445580D01*
X234186Y445534D01*
X234207Y445493D01*
X234234Y445470D01*
X234260Y445436D01*
X235011Y444739D01*
X235041Y444721D01*
X235071Y444692D01*
X235892Y444132D01*
X235909Y444042D01*
X235935Y443977D01*
X235954Y443908D01*
X235974Y443882D01*
X235984Y443856D01*
X236021Y443820D01*
X236062Y443764D01*
X237311Y442607D01*
X237371Y442570D01*
X237427Y442526D01*
X237458Y442517D01*
X237482Y442502D01*
X237533Y442494D01*
X237599Y442475D01*
X237691Y442464D01*
X238310Y441688D01*
X238337Y441665D01*
X238362Y441632D01*
X239091Y440956D01*
X239094Y440865D01*
X239111Y440796D01*
X239119Y440726D01*
X239134Y440697D01*
X239141Y440670D01*
X239172Y440628D01*
X239204Y440567D01*
X240267Y439236D01*
X240321Y439191D01*
X240369Y439140D01*
X240399Y439126D01*
X240420Y439108D01*
X240469Y439092D01*
X240532Y439063D01*
X240621Y439039D01*
X241118Y438179D01*
X241141Y438153D01*
X241161Y438116D01*
X241780Y437339D01*
X241770Y437248D01*
X241776Y437178D01*
X241774Y437107D01*
X241785Y437076D01*
X241787Y437048D01*
X241811Y437003D01*
X241835Y436938D01*
X242687Y435463D01*
X242733Y435410D01*
X242773Y435352D01*
X242801Y435334D01*
X242819Y435313D01*
X242866Y435291D01*
X242923Y435252D01*
X243008Y435215D01*
X243371Y434290D01*
X243390Y434261D01*
X243404Y434222D01*
X243901Y433362D01*
X243877Y433273D01*
X243873Y433203D01*
X243860Y433133D01*
X243866Y433101D01*
X243865Y433073D01*
X243882Y433024D01*
X243895Y432956D01*
X244518Y431372D01*
X244522Y431365D01*
X244524Y431357D01*
X244556Y431311D01*
X244587Y431249D01*
X244611Y431227D01*
X244626Y431203D01*
X244639Y431194D01*
X244640Y431194D01*
X244643Y431192D01*
X244669Y431174D01*
X244720Y431127D01*
X244798Y431079D01*
X245019Y430110D01*
X245034Y430078D01*
X245042Y430038D01*
X245405Y429113D01*
X245368Y429028D01*
X245353Y428959D01*
X245330Y428892D01*
X245332Y428860D01*
X245326Y428832D01*
X245335Y428782D01*
X245339Y428713D01*
X245718Y427053D01*
X245747Y426988D01*
X245768Y426921D01*
X245789Y426895D01*
X245800Y426870D01*
X245838Y426835D01*
X245882Y426781D01*
X245952Y426721D01*
X246026Y425730D01*
X246036Y425697D01*
X246037Y425655D01*
X246259Y424687D01*
X246210Y424609D01*
X246185Y424543D01*
X246152Y424480D01*
X246149Y424448D01*
X246139Y424421D01*
X246141Y424370D01*
X246134Y424301D01*
X246262Y422603D01*
X246281Y422535D01*
X246292Y422465D01*
X246308Y422437D01*
X246316Y422410D01*
X246348Y422370D01*
X246383Y422310D01*
X246443Y422240D01*
X246369Y421249D01*
X246373Y421215D01*
X246369Y421174D01*
X246444Y420183D01*
X246384Y420113D01*
X246349Y420052D01*
X246308Y419995D01*
X246299Y419963D01*
X246286Y419938D01*
X246280Y419887D01*
X246262Y419820D01*
X246136Y418122D01*
X246144Y418052D01*
X246145Y417982D01*
X246157Y417951D01*
X246161Y417923D01*
X246186Y417879D01*
X246212Y417814D01*
X246261Y417737D01*
X246040Y416768D01*
X246039Y416733D01*
X246029Y416693D01*
X245955Y415702D01*
X245885Y415642D01*
X245842Y415586D01*
X245792Y415536D01*
X245780Y415506D01*
X245762Y415484D01*
X245749Y415434D01*
X245722Y415370D01*
X245343Y413710D01*
X245342Y413640D01*
X245332Y413570D01*
X245339Y413538D01*
X245338Y413510D01*
X245357Y413462D01*
X245373Y413394D01*
X245410Y413310D01*
X245047Y412385D01*
X245041Y412351D01*
X245025Y412313D01*
X244804Y411344D01*
X244726Y411295D01*
X244675Y411246D01*
X244619Y411204D01*
X244601Y411176D01*
X244581Y411157D01*
X244560Y411109D01*
X244524Y411051D01*
X243903Y409465D01*
X243890Y409396D01*
X243870Y409328D01*
X243873Y409296D01*
X243868Y409268D01*
X243879Y409218D01*
X243885Y409149D01*
X243909Y409060D01*
X243412Y408199D01*
X243401Y408166D01*
X243379Y408131D01*
X243017Y407206D01*
X242932Y407169D01*
X242874Y407129D01*
X242812Y407095D01*
X242791Y407070D01*
X242768Y407054D01*
X242741Y407011D01*
X242696Y406958D01*
X241845Y405483D01*
X241822Y405416D01*
X241792Y405352D01*
X241790Y405319D01*
X241781Y405293D01*
X241785Y405241D01*
X241780Y405172D01*
X241791Y405081D01*
X241171Y404304D01*
X241156Y404273D01*
X241129Y404241D01*
X240632Y403381D01*
X240543Y403357D01*
X240480Y403325D01*
X240414Y403302D01*
X240389Y403280D01*
X240364Y403268D01*
X240330Y403228D01*
X240278Y403183D01*
X239217Y401851D01*
X239185Y401789D01*
X239145Y401730D01*
X239138Y401698D01*
X239125Y401673D01*
X239121Y401622D01*
X239107Y401554D01*
X239103Y401462D01*
X238375Y400786D01*
X238355Y400758D01*
X238323Y400730D01*
X237704Y399953D01*
X237613Y399943D01*
X237546Y399921D01*
X237476Y399908D01*
X237449Y399890D01*
X237422Y399882D01*
X237383Y399848D01*
X237325Y399811D01*
X236077Y398652D01*
X236036Y398595D01*
X235988Y398543D01*
X235976Y398512D01*
X235960Y398490D01*
X235948Y398439D01*
X235924Y398375D01*
X235906Y398284D01*
X235086Y397724D01*
X235061Y397699D01*
X235026Y397677D01*
X234298Y397001D01*
X234206Y397004D01*
X234137Y396993D01*
X234066Y396990D01*
X234036Y396977D01*
X234008Y396972D01*
X233965Y396945D01*
X233902Y396916D01*
X232495Y395957D01*
X232460Y395921D01*
X232434Y395903D01*
X232426Y395890D01*
X232391Y395862D01*
X232375Y395833D01*
X232355Y395813D01*
X232336Y395765D01*
X232302Y395705D01*
X232272Y395618D01*
X231377Y395187D01*
X231349Y395166D01*
X231311Y395149D01*
X230490Y394589D01*
X230400Y394606D01*
X230329Y394605D01*
X230259Y394613D01*
X230228Y394604D01*
X230199Y394604D01*
X230152Y394583D01*
X230085Y394565D01*
X228888Y393987D01*
X228814Y393932D01*
X228739Y393878D01*
X228734Y393871D01*
X228728Y393866D01*
X228681Y393786D01*
X228633Y393708D01*
X228631Y393699D01*
X228627Y393693D01*
X228621Y393643D01*
X228601Y393530D01*
X228601Y382789D01*
X228602Y382781D01*
X228601Y382773D01*
X228622Y382683D01*
X228640Y382592D01*
X228645Y382586D01*
X228647Y382578D01*
X228749Y382430D01*
X245270Y365909D01*
X245276Y365905D01*
X245281Y365899D01*
X245360Y365850D01*
X245437Y365798D01*
X245445Y365797D01*
X245451Y365793D01*
X245629Y365761D01*
X261928Y365761D01*
X275028Y352661D01*
X275034Y352657D01*
X275039Y352651D01*
X275118Y352602D01*
X275195Y352550D01*
X275203Y352549D01*
X275209Y352545D01*
X275387Y352513D01*
X313399Y352513D01*
X313511Y352493D01*
X315888Y352493D01*
X317743Y350638D01*
X317743Y346766D01*
X317538Y346561D01*
X317535Y346556D01*
X317530Y346553D01*
X317480Y346473D01*
X317427Y346394D01*
X317426Y346389D01*
X317423Y346384D01*
X317407Y346290D01*
X317389Y346197D01*
X317390Y346192D01*
X317389Y346186D01*
X317411Y346095D01*
X317431Y346001D01*
X317434Y345996D01*
X317435Y345991D01*
X317538Y345843D01*
X317743Y345638D01*
X317743Y341766D01*
X317538Y341561D01*
X317535Y341556D01*
X317530Y341553D01*
X317480Y341473D01*
X317427Y341394D01*
X317426Y341389D01*
X317423Y341384D01*
X317407Y341290D01*
X317389Y341197D01*
X317390Y341192D01*
X317389Y341186D01*
X317411Y341095D01*
X317431Y341001D01*
X317434Y340996D01*
X317435Y340991D01*
X317538Y340843D01*
X317743Y340638D01*
X317743Y336766D01*
X317538Y336561D01*
X317535Y336556D01*
X317530Y336553D01*
X317480Y336473D01*
X317427Y336394D01*
X317426Y336389D01*
X317423Y336384D01*
X317407Y336290D01*
X317389Y336197D01*
X317390Y336192D01*
X317389Y336186D01*
X317411Y336095D01*
X317431Y336001D01*
X317434Y335996D01*
X317435Y335991D01*
X317538Y335843D01*
X317743Y335638D01*
X317743Y331766D01*
X317538Y331561D01*
X317535Y331556D01*
X317530Y331553D01*
X317480Y331473D01*
X317427Y331394D01*
X317426Y331389D01*
X317423Y331384D01*
X317407Y331290D01*
X317389Y331197D01*
X317390Y331192D01*
X317389Y331186D01*
X317411Y331095D01*
X317431Y331001D01*
X317434Y330996D01*
X317435Y330991D01*
X317538Y330843D01*
X317743Y330638D01*
X317743Y326766D01*
X317538Y326561D01*
X317535Y326556D01*
X317530Y326553D01*
X317480Y326473D01*
X317427Y326394D01*
X317426Y326389D01*
X317423Y326384D01*
X317407Y326290D01*
X317389Y326197D01*
X317390Y326192D01*
X317389Y326186D01*
X317411Y326095D01*
X317431Y326001D01*
X317434Y325996D01*
X317435Y325991D01*
X317538Y325843D01*
X317743Y325638D01*
X317743Y321766D01*
X317538Y321561D01*
X317535Y321556D01*
X317530Y321553D01*
X317480Y321473D01*
X317427Y321394D01*
X317426Y321389D01*
X317423Y321384D01*
X317407Y321290D01*
X317389Y321197D01*
X317390Y321192D01*
X317389Y321186D01*
X317411Y321095D01*
X317431Y321001D01*
X317434Y320996D01*
X317435Y320991D01*
X317538Y320843D01*
X317743Y320638D01*
X317743Y318250D01*
X317744Y318245D01*
X317743Y318240D01*
X317764Y318147D01*
X317782Y318053D01*
X317785Y318049D01*
X317786Y318044D01*
X317842Y317966D01*
X317895Y317888D01*
X317899Y317885D01*
X317902Y317880D01*
X317984Y317830D01*
X318063Y317778D01*
X318068Y317777D01*
X318073Y317775D01*
X318250Y317743D01*
X320638Y317743D01*
X322493Y315888D01*
X322493Y313511D01*
X322494Y313503D01*
X322493Y313495D01*
X322513Y313410D01*
X322513Y310004D01*
X322493Y309893D01*
X322493Y307516D01*
X320638Y305661D01*
X318261Y305661D01*
X318253Y305660D01*
X318245Y305661D01*
X318155Y305640D01*
X318064Y305622D01*
X318058Y305617D01*
X318050Y305615D01*
X317902Y305513D01*
X310933Y298544D01*
X310929Y298537D01*
X310922Y298533D01*
X310873Y298454D01*
X310822Y298377D01*
X310821Y298369D01*
X310816Y298362D01*
X310784Y298185D01*
X310784Y291351D01*
X309296Y289863D01*
X296191Y289863D01*
X294703Y291351D01*
X294703Y297330D01*
X294701Y297338D01*
X294703Y297346D01*
X294682Y297436D01*
X294663Y297527D01*
X294659Y297533D01*
X294657Y297541D01*
X294554Y297689D01*
X291172Y301072D01*
X290321Y303126D01*
X290321Y304209D01*
X290319Y304218D01*
X290321Y304227D01*
X290283Y304404D01*
X289587Y306082D01*
X289587Y308598D01*
X289955Y309486D01*
X289956Y309490D01*
X289958Y309493D01*
X289975Y309588D01*
X289994Y309682D01*
X289993Y309686D01*
X289994Y309690D01*
X289973Y309784D01*
X289953Y309879D01*
X289951Y309882D01*
X289950Y309886D01*
X289894Y309965D01*
X289840Y310044D01*
X289836Y310046D01*
X289834Y310049D01*
X289752Y310101D01*
X289671Y310152D01*
X289667Y310153D01*
X289664Y310155D01*
X289487Y310187D01*
X288830Y310187D01*
X287342Y311676D01*
X287342Y328780D01*
X288830Y330269D01*
X303935Y330269D01*
X304795Y329409D01*
X304797Y329407D01*
X304799Y329405D01*
X304879Y329353D01*
X304962Y329298D01*
X304965Y329297D01*
X304967Y329296D01*
X305063Y329278D01*
X305159Y329260D01*
X305162Y329261D01*
X305164Y329260D01*
X305261Y329282D01*
X305355Y329302D01*
X305357Y329303D01*
X305360Y329304D01*
X305440Y329360D01*
X305520Y329416D01*
X305521Y329418D01*
X305523Y329420D01*
X305575Y329503D01*
X305627Y329585D01*
X305628Y329588D01*
X305629Y329590D01*
X305661Y329767D01*
X305661Y330638D01*
X305866Y330843D01*
X305869Y330848D01*
X305874Y330851D01*
X305925Y330931D01*
X305977Y331010D01*
X305978Y331015D01*
X305981Y331020D01*
X305997Y331113D01*
X306015Y331207D01*
X306014Y331212D01*
X306015Y331217D01*
X305993Y331310D01*
X305973Y331403D01*
X305970Y331407D01*
X305969Y331413D01*
X305866Y331561D01*
X305661Y331766D01*
X305661Y334384D01*
X305660Y334389D01*
X305661Y334394D01*
X305640Y334487D01*
X305622Y334581D01*
X305619Y334585D01*
X305618Y334590D01*
X305562Y334668D01*
X305509Y334746D01*
X305505Y334749D01*
X305502Y334753D01*
X305420Y334804D01*
X305341Y334856D01*
X305336Y334856D01*
X305331Y334859D01*
X305154Y334891D01*
X260430Y334891D01*
X258892Y336429D01*
X258886Y336433D01*
X258881Y336439D01*
X258802Y336488D01*
X258725Y336540D01*
X258717Y336541D01*
X258711Y336545D01*
X258533Y336577D01*
X256552Y336577D01*
X254228Y337540D01*
X252450Y339318D01*
X251487Y341642D01*
X251487Y344158D01*
X252450Y346482D01*
X254228Y348260D01*
X254599Y348414D01*
X254600Y348414D01*
X255824Y348921D01*
X256552Y349223D01*
X258843Y349223D01*
X258846Y349223D01*
X258849Y349223D01*
X258944Y349243D01*
X259040Y349262D01*
X259042Y349264D01*
X259045Y349264D01*
X259125Y349320D01*
X259206Y349375D01*
X259207Y349377D01*
X259209Y349379D01*
X259263Y349462D01*
X259315Y349543D01*
X259315Y349546D01*
X259317Y349548D01*
X259333Y349644D01*
X259351Y349740D01*
X259350Y349743D01*
X259350Y349745D01*
X259329Y349839D01*
X259307Y349936D01*
X259306Y349938D01*
X259305Y349941D01*
X259202Y350089D01*
X256380Y352911D01*
X256374Y352915D01*
X256369Y352921D01*
X256290Y352970D01*
X256213Y353022D01*
X256205Y353023D01*
X256199Y353027D01*
X256021Y353059D01*
X238452Y353059D01*
X213359Y378152D01*
X213359Y379469D01*
X213358Y379477D01*
X213359Y379484D01*
X213338Y379574D01*
X213320Y379665D01*
X213315Y379672D01*
X213313Y379680D01*
X213211Y379828D01*
X211810Y381228D01*
X210847Y383552D01*
X210847Y386068D01*
X211810Y388392D01*
X213588Y390170D01*
X213769Y390245D01*
X213770Y390246D01*
X213772Y390246D01*
X213856Y390303D01*
X213936Y390357D01*
X213936Y390358D01*
X213938Y390359D01*
X213991Y390441D01*
X214046Y390524D01*
X214046Y390526D01*
X214047Y390527D01*
X214064Y390623D01*
X214082Y390721D01*
X214082Y390723D01*
X214082Y390724D01*
X214061Y390822D01*
X214040Y390917D01*
X214039Y390918D01*
X214039Y390920D01*
X213983Y390999D01*
X213925Y391081D01*
X213923Y391082D01*
X213923Y391083D01*
X213840Y391135D01*
X213755Y391188D01*
X213754Y391188D01*
X213752Y391189D01*
X213575Y391221D01*
X213033Y391221D01*
X212968Y391286D01*
X212909Y391325D01*
X212856Y391371D01*
X212825Y391381D01*
X212801Y391397D01*
X212750Y391406D01*
X212685Y391429D01*
X211001Y391682D01*
X210931Y391678D01*
X210860Y391683D01*
X210829Y391673D01*
X210801Y391672D01*
X210755Y391650D01*
X210689Y391629D01*
X210607Y391586D01*
X209658Y391878D01*
X209623Y391882D01*
X209584Y391895D01*
X208601Y392043D01*
X208547Y392117D01*
X208494Y392164D01*
X208448Y392217D01*
X208419Y392232D01*
X208398Y392251D01*
X208349Y392269D01*
X208288Y392300D01*
X206661Y392802D01*
X206591Y392809D01*
X206522Y392824D01*
X206489Y392819D01*
X206461Y392822D01*
X206412Y392806D01*
X206344Y392796D01*
X206257Y392765D01*
X205362Y393196D01*
X205328Y393205D01*
X205291Y393224D01*
X204293Y393531D01*
X204244Y393536D01*
X204197Y393551D01*
X204145Y393546D01*
X204094Y393551D01*
X204046Y393537D01*
X203997Y393532D01*
X203952Y393508D01*
X203902Y393492D01*
X203864Y393461D01*
X203821Y393438D01*
X203783Y393393D01*
X203748Y393364D01*
X203732Y393332D01*
X203704Y393300D01*
X185282Y361390D01*
X182786Y363113D01*
X182759Y363124D01*
X182737Y363143D01*
X182668Y363163D01*
X182603Y363191D01*
X182574Y363191D01*
X182546Y363199D01*
X182475Y363191D01*
X182404Y363192D01*
X182377Y363180D01*
X182348Y363177D01*
X182286Y363142D01*
X182221Y363114D01*
X182200Y363094D01*
X182175Y363079D01*
X182112Y363002D01*
X182082Y362972D01*
X182078Y362962D01*
X182069Y362951D01*
X172569Y346451D01*
X172545Y346378D01*
X172514Y346308D01*
X172514Y346284D01*
X172506Y346262D01*
X172513Y346186D01*
X172512Y346109D01*
X172521Y346085D01*
X172522Y346064D01*
X172543Y346025D01*
X172562Y345973D01*
X172563Y345967D01*
X172565Y345965D01*
X172569Y345953D01*
X182069Y329453D01*
X182088Y329431D01*
X182101Y329405D01*
X182154Y329357D01*
X182201Y329304D01*
X182227Y329291D01*
X182249Y329272D01*
X182316Y329249D01*
X182380Y329218D01*
X182409Y329217D01*
X182436Y329207D01*
X182508Y329212D01*
X182579Y329209D01*
X182606Y329219D01*
X182635Y329221D01*
X182725Y329263D01*
X182765Y329278D01*
X182773Y329285D01*
X182786Y329291D01*
X185282Y331014D01*
X203704Y299104D01*
X203737Y299067D01*
X203761Y299024D01*
X203803Y298993D01*
X203837Y298954D01*
X203881Y298932D01*
X203920Y298902D01*
X203971Y298889D01*
X204017Y298866D01*
X204066Y298864D01*
X204114Y298851D01*
X204172Y298858D01*
X204218Y298856D01*
X204251Y298868D01*
X204293Y298873D01*
X205291Y299180D01*
X205322Y299197D01*
X205362Y299208D01*
X206257Y299639D01*
X206344Y299608D01*
X206414Y299599D01*
X206482Y299581D01*
X206514Y299585D01*
X206542Y299581D01*
X206592Y299594D01*
X206661Y299602D01*
X208288Y300104D01*
X208350Y300137D01*
X208416Y300164D01*
X208439Y300186D01*
X208464Y300199D01*
X208496Y300240D01*
X208547Y300287D01*
X208601Y300361D01*
X209584Y300509D01*
X209617Y300521D01*
X209658Y300526D01*
X210607Y300818D01*
X210689Y300775D01*
X210756Y300755D01*
X210821Y300727D01*
X210854Y300726D01*
X210881Y300718D01*
X210932Y300724D01*
X211001Y300722D01*
X212685Y300975D01*
X212751Y300999D01*
X212820Y301015D01*
X212847Y301034D01*
X212873Y301044D01*
X212911Y301079D01*
X212968Y301118D01*
X213033Y301183D01*
X214027Y301183D01*
X214061Y301190D01*
X214103Y301189D01*
X215085Y301336D01*
X215159Y301282D01*
X215223Y301252D01*
X215283Y301215D01*
X215315Y301209D01*
X215341Y301197D01*
X215392Y301195D01*
X215460Y301182D01*
X217163Y301182D01*
X217232Y301196D01*
X217303Y301201D01*
X217332Y301216D01*
X217359Y301221D01*
X217402Y301250D01*
X217464Y301281D01*
X217538Y301336D01*
X218521Y301187D01*
X218556Y301189D01*
X218596Y301181D01*
X219590Y301181D01*
X219655Y301116D01*
X219714Y301077D01*
X219767Y301031D01*
X219799Y301021D01*
X219822Y301005D01*
X219873Y300995D01*
X219938Y300973D01*
X221622Y300719D01*
X221692Y300722D01*
X221763Y300717D01*
X221794Y300727D01*
X221822Y300729D01*
X221868Y300751D01*
X221934Y300772D01*
X222016Y300815D01*
X222965Y300522D01*
X223000Y300518D01*
X223039Y300505D01*
X224021Y300356D01*
X224076Y300282D01*
X224128Y300235D01*
X224175Y300181D01*
X224204Y300166D01*
X224224Y300148D01*
X224273Y300130D01*
X224335Y300099D01*
X225961Y299596D01*
X226032Y299589D01*
X226101Y299574D01*
X226133Y299579D01*
X226161Y299576D01*
X226210Y299591D01*
X226278Y299602D01*
X226365Y299632D01*
X227260Y299201D01*
X227294Y299192D01*
X227331Y299173D01*
X228280Y298880D01*
X228323Y298799D01*
X228368Y298744D01*
X228406Y298684D01*
X228432Y298665D01*
X228450Y298643D01*
X228496Y298619D01*
X228552Y298579D01*
X230085Y297839D01*
X230154Y297822D01*
X230220Y297796D01*
X230252Y297797D01*
X230280Y297790D01*
X230331Y297797D01*
X230400Y297798D01*
X230490Y297815D01*
X231311Y297255D01*
X231343Y297242D01*
X231377Y297217D01*
X232272Y296786D01*
X232302Y296699D01*
X232338Y296638D01*
X232367Y296574D01*
X232390Y296550D01*
X232404Y296526D01*
X232446Y296496D01*
X232495Y296447D01*
X233902Y295488D01*
X233967Y295460D01*
X234028Y295425D01*
X234060Y295420D01*
X234086Y295410D01*
X234138Y295409D01*
X234206Y295400D01*
X234298Y295403D01*
X235026Y294727D01*
X235056Y294709D01*
X235086Y294680D01*
X235906Y294120D01*
X235924Y294029D01*
X235950Y293964D01*
X235969Y293896D01*
X235988Y293870D01*
X235999Y293844D01*
X236035Y293807D01*
X236077Y293752D01*
X237325Y292593D01*
X237385Y292556D01*
X237440Y292513D01*
X237472Y292503D01*
X237496Y292489D01*
X237547Y292481D01*
X237613Y292461D01*
X237704Y292451D01*
X238323Y291674D01*
X238350Y291651D01*
X238375Y291618D01*
X239103Y290942D01*
X239107Y290850D01*
X239123Y290781D01*
X239131Y290711D01*
X239147Y290682D01*
X239153Y290655D01*
X239184Y290613D01*
X239217Y290553D01*
X240278Y289221D01*
X240332Y289176D01*
X240338Y289169D01*
X240342Y289164D01*
X240345Y289162D01*
X240380Y289124D01*
X240410Y289110D01*
X240431Y289092D01*
X240481Y289077D01*
X240486Y289074D01*
X240512Y289058D01*
X240526Y289056D01*
X240543Y289047D01*
X240632Y289023D01*
X241129Y288163D01*
X241152Y288137D01*
X241171Y288100D01*
X241791Y287323D01*
X241780Y287232D01*
X241786Y287161D01*
X241784Y287091D01*
X241795Y287060D01*
X241798Y287032D01*
X241822Y286986D01*
X241845Y286921D01*
X242696Y285446D01*
X242742Y285393D01*
X242783Y285335D01*
X242810Y285317D01*
X242828Y285296D01*
X242875Y285273D01*
X242932Y285235D01*
X243017Y285198D01*
X243379Y284273D01*
X243385Y284264D01*
X243387Y284255D01*
X243402Y284234D01*
X243412Y284205D01*
X243909Y283344D01*
X243885Y283255D01*
X243880Y283185D01*
X243868Y283115D01*
X243874Y283083D01*
X243872Y283055D01*
X243889Y283006D01*
X243902Y282939D01*
X244524Y281353D01*
X244562Y281294D01*
X244593Y281231D01*
X244617Y281209D01*
X244633Y281185D01*
X244675Y281156D01*
X244726Y281109D01*
X244804Y281060D01*
X245025Y280091D01*
X245039Y280060D01*
X245047Y280019D01*
X245410Y279094D01*
X245373Y279010D01*
X245358Y278941D01*
X245335Y278874D01*
X245337Y278841D01*
X245331Y278814D01*
X245340Y278763D01*
X245343Y278694D01*
X245382Y278525D01*
X245402Y278480D01*
X245413Y278432D01*
X245443Y278390D01*
X245464Y278342D01*
X245500Y278309D01*
X245529Y278269D01*
X245573Y278241D01*
X245611Y278206D01*
X245657Y278189D01*
X245699Y278163D01*
X245756Y278152D01*
X245799Y278137D01*
X245835Y278138D01*
X245876Y278131D01*
X301741Y278131D01*
X301749Y278132D01*
X301757Y278131D01*
X301847Y278152D01*
X301938Y278170D01*
X301944Y278175D01*
X301952Y278177D01*
X302100Y278279D01*
X324743Y300922D01*
X324747Y300928D01*
X324753Y300933D01*
X324802Y301011D01*
X324854Y301089D01*
X324855Y301097D01*
X324859Y301103D01*
X324891Y301281D01*
X324891Y313399D01*
X324911Y313511D01*
X324911Y315888D01*
X326766Y317743D01*
X330638Y317743D01*
X330843Y317538D01*
X330848Y317535D01*
X330851Y317530D01*
X330931Y317480D01*
X331010Y317427D01*
X331015Y317426D01*
X331020Y317423D01*
X331114Y317407D01*
X331207Y317389D01*
X331212Y317390D01*
X331218Y317389D01*
X331309Y317411D01*
X331403Y317431D01*
X331408Y317434D01*
X331413Y317435D01*
X331561Y317538D01*
X331766Y317743D01*
X335638Y317743D01*
X337493Y315888D01*
X337493Y313511D01*
X337494Y313503D01*
X337493Y313495D01*
X337513Y313410D01*
X337513Y294024D01*
X306378Y262889D01*
X256801Y262889D01*
X256793Y262888D01*
X256786Y262889D01*
X256696Y262868D01*
X256605Y262850D01*
X256598Y262845D01*
X256590Y262843D01*
X256442Y262741D01*
X255042Y261340D01*
X254433Y261088D01*
X253208Y260580D01*
X252718Y260377D01*
X250202Y260377D01*
X247878Y261340D01*
X246100Y263119D01*
X246093Y263123D01*
X246088Y263130D01*
X246010Y263178D01*
X245933Y263229D01*
X245924Y263231D01*
X245917Y263236D01*
X245826Y263250D01*
X245736Y263267D01*
X245727Y263265D01*
X245719Y263267D01*
X245630Y263245D01*
X245540Y263225D01*
X245533Y263221D01*
X245524Y263218D01*
X245451Y263164D01*
X245375Y263111D01*
X245371Y263104D01*
X245364Y263099D01*
X245269Y262945D01*
X245042Y262366D01*
X245036Y262332D01*
X245033Y262329D01*
X245033Y262325D01*
X245019Y262294D01*
X244798Y261326D01*
X244720Y261277D01*
X244669Y261228D01*
X244612Y261186D01*
X244595Y261158D01*
X244575Y261139D01*
X244554Y261091D01*
X244518Y261032D01*
X243895Y259448D01*
X243883Y259378D01*
X243862Y259311D01*
X243865Y259278D01*
X243860Y259250D01*
X243871Y259200D01*
X243877Y259131D01*
X243901Y259042D01*
X243404Y258182D01*
X243393Y258149D01*
X243371Y258114D01*
X243008Y257189D01*
X242923Y257152D01*
X242865Y257112D01*
X242803Y257078D01*
X242782Y257053D01*
X242759Y257037D01*
X242731Y256994D01*
X242687Y256941D01*
X241835Y255466D01*
X241812Y255400D01*
X241782Y255336D01*
X241780Y255303D01*
X241771Y255276D01*
X241775Y255225D01*
X241770Y255156D01*
X241780Y255065D01*
X241161Y254288D01*
X241145Y254257D01*
X241118Y254225D01*
X240621Y253365D01*
X240532Y253341D01*
X240469Y253310D01*
X240402Y253286D01*
X240377Y253265D01*
X240352Y253252D01*
X240319Y253213D01*
X240267Y253168D01*
X239204Y251837D01*
X239172Y251774D01*
X239133Y251715D01*
X239126Y251683D01*
X239113Y251658D01*
X239109Y251607D01*
X239094Y251539D01*
X239091Y251448D01*
X238362Y250772D01*
X238342Y250744D01*
X238310Y250716D01*
X237691Y249940D01*
X237599Y249929D01*
X237532Y249908D01*
X237463Y249894D01*
X237435Y249877D01*
X237408Y249868D01*
X237369Y249835D01*
X237311Y249797D01*
X236062Y248640D01*
X236021Y248582D01*
X235973Y248530D01*
X235962Y248500D01*
X235945Y248477D01*
X235934Y248427D01*
X235909Y248362D01*
X235892Y248272D01*
X235071Y247712D01*
X235047Y247688D01*
X235011Y247665D01*
X234260Y246968D01*
X234231Y246928D01*
X234194Y246895D01*
X234173Y246847D01*
X234143Y246805D01*
X234131Y246757D01*
X234111Y246712D01*
X234109Y246661D01*
X234098Y246610D01*
X234106Y246561D01*
X234104Y246512D01*
X234124Y246458D01*
X234132Y246413D01*
X234151Y246383D01*
X234165Y246342D01*
X252589Y214431D01*
X249889Y213153D01*
X249866Y213136D01*
X249839Y213126D01*
X249787Y213077D01*
X249729Y213034D01*
X249715Y213009D01*
X249694Y212990D01*
X249665Y212924D01*
X249629Y212862D01*
X249626Y212834D01*
X249614Y212808D01*
X249613Y212736D01*
X249604Y212665D01*
X249612Y212638D01*
X249612Y212609D01*
X249647Y212514D01*
X249658Y212474D01*
X249665Y212465D01*
X249669Y212453D01*
X259169Y195953D01*
X259221Y195895D01*
X259267Y195832D01*
X259286Y195821D01*
X259301Y195804D01*
X259371Y195770D01*
X259438Y195730D01*
X259463Y195726D01*
X259480Y195718D01*
X259525Y195716D01*
X259602Y195703D01*
X278602Y195703D01*
X278630Y195708D01*
G37*
%LPC*%
G36*
X278610Y359891D02*
X278610Y359891D01*
X266699Y371802D01*
X266699Y414328D01*
X268484Y416113D01*
X268488Y416119D01*
X268494Y416124D01*
X268543Y416203D01*
X268595Y416280D01*
X268596Y416288D01*
X268600Y416294D01*
X268632Y416472D01*
X268632Y418453D01*
X269595Y420777D01*
X271373Y422555D01*
X272398Y422980D01*
X273623Y423487D01*
X273697Y423518D01*
X275464Y423518D01*
X275469Y423519D01*
X275474Y423518D01*
X275567Y423539D01*
X275661Y423557D01*
X275665Y423560D01*
X275670Y423561D01*
X275748Y423617D01*
X275826Y423670D01*
X275829Y423674D01*
X275834Y423677D01*
X275884Y423759D01*
X275936Y423838D01*
X275937Y423843D01*
X275939Y423848D01*
X275971Y424025D01*
X275971Y424196D01*
X278924Y427149D01*
X294100Y427149D01*
X297053Y424196D01*
X297053Y415020D01*
X294100Y412067D01*
X278979Y412067D01*
X278971Y412066D01*
X278964Y412067D01*
X278874Y412046D01*
X278783Y412028D01*
X278776Y412023D01*
X278768Y412021D01*
X278620Y411919D01*
X278537Y411835D01*
X278310Y411741D01*
X277085Y411234D01*
X276213Y410872D01*
X274828Y410872D01*
X274823Y410871D01*
X274818Y410872D01*
X274725Y410851D01*
X274631Y410833D01*
X274627Y410830D01*
X274622Y410829D01*
X274544Y410773D01*
X274466Y410720D01*
X274463Y410716D01*
X274459Y410713D01*
X274408Y410631D01*
X274356Y410552D01*
X274356Y410547D01*
X274353Y410542D01*
X274321Y410365D01*
X274321Y392087D01*
X274322Y392081D01*
X274321Y392076D01*
X274342Y391983D01*
X274360Y391890D01*
X274363Y391886D01*
X274364Y391881D01*
X274420Y391803D01*
X274473Y391724D01*
X274477Y391721D01*
X274480Y391717D01*
X274562Y391666D01*
X274641Y391615D01*
X274646Y391614D01*
X274651Y391611D01*
X274828Y391579D01*
X291315Y391579D01*
X292804Y390091D01*
X292804Y389100D01*
X292805Y389095D01*
X292804Y389090D01*
X292825Y388997D01*
X292843Y388903D01*
X292846Y388899D01*
X292847Y388894D01*
X292903Y388816D01*
X292956Y388738D01*
X292960Y388735D01*
X292963Y388731D01*
X293045Y388680D01*
X293124Y388628D01*
X293129Y388628D01*
X293134Y388625D01*
X293311Y388593D01*
X295048Y388593D01*
X295053Y388594D01*
X295058Y388593D01*
X295151Y388614D01*
X295244Y388632D01*
X295248Y388635D01*
X295254Y388636D01*
X295331Y388692D01*
X295410Y388745D01*
X295413Y388749D01*
X295417Y388752D01*
X295468Y388834D01*
X295519Y388913D01*
X295520Y388918D01*
X295523Y388923D01*
X295555Y389100D01*
X295555Y393828D01*
X297043Y395316D01*
X309148Y395316D01*
X310636Y393828D01*
X310636Y380723D01*
X309148Y379234D01*
X308277Y379234D01*
X308274Y379234D01*
X308272Y379234D01*
X308176Y379214D01*
X308080Y379195D01*
X308078Y379193D01*
X308076Y379193D01*
X307995Y379137D01*
X307915Y379082D01*
X307913Y379080D01*
X307911Y379078D01*
X307858Y378995D01*
X307805Y378914D01*
X307805Y378912D01*
X307803Y378909D01*
X307787Y378813D01*
X307770Y378717D01*
X307770Y378714D01*
X307770Y378712D01*
X307792Y378617D01*
X307813Y378521D01*
X307815Y378519D01*
X307815Y378516D01*
X307918Y378368D01*
X308625Y377661D01*
X308632Y377657D01*
X308637Y377651D01*
X308715Y377602D01*
X308792Y377550D01*
X308800Y377549D01*
X308807Y377545D01*
X308984Y377513D01*
X313399Y377513D01*
X313511Y377493D01*
X314404Y377493D01*
X314409Y377494D01*
X314414Y377493D01*
X314507Y377514D01*
X314601Y377532D01*
X314605Y377535D01*
X314610Y377536D01*
X314688Y377592D01*
X314766Y377645D01*
X314769Y377649D01*
X314774Y377652D01*
X314824Y377734D01*
X314876Y377813D01*
X314877Y377818D01*
X314879Y377823D01*
X314911Y378000D01*
X314911Y378893D01*
X314910Y378901D01*
X314911Y378909D01*
X314891Y378994D01*
X314891Y423729D01*
X314890Y423737D01*
X314891Y423745D01*
X314870Y423835D01*
X314852Y423926D01*
X314847Y423932D01*
X314845Y423940D01*
X314743Y424088D01*
X300294Y438537D01*
X300288Y438541D01*
X300283Y438547D01*
X300204Y438596D01*
X300127Y438648D01*
X300119Y438649D01*
X300113Y438653D01*
X299935Y438685D01*
X297954Y438685D01*
X296403Y439328D01*
X296397Y439329D01*
X296391Y439333D01*
X296299Y439348D01*
X296207Y439366D01*
X296200Y439365D01*
X296194Y439366D01*
X296103Y439345D01*
X296010Y439326D01*
X296005Y439322D01*
X295998Y439321D01*
X295850Y439218D01*
X294100Y437467D01*
X278924Y437467D01*
X275971Y440420D01*
X275971Y449596D01*
X278924Y452549D01*
X294100Y452549D01*
X295850Y450798D01*
X295856Y450795D01*
X295860Y450789D01*
X295939Y450739D01*
X296017Y450687D01*
X296024Y450686D01*
X296029Y450683D01*
X296122Y450667D01*
X296214Y450650D01*
X296221Y450651D01*
X296227Y450650D01*
X296403Y450688D01*
X296862Y450878D01*
X297954Y451331D01*
X300470Y451331D01*
X302794Y450368D01*
X304572Y448590D01*
X305535Y446266D01*
X305535Y444285D01*
X305536Y444277D01*
X305535Y444269D01*
X305556Y444179D01*
X305574Y444088D01*
X305579Y444082D01*
X305581Y444074D01*
X305683Y443926D01*
X322513Y427096D01*
X322513Y379005D01*
X322493Y378893D01*
X322493Y376516D01*
X320638Y374661D01*
X318250Y374661D01*
X318245Y374660D01*
X318240Y374661D01*
X318147Y374640D01*
X318053Y374622D01*
X318049Y374619D01*
X318044Y374618D01*
X317966Y374562D01*
X317888Y374509D01*
X317885Y374505D01*
X317880Y374502D01*
X317830Y374420D01*
X317778Y374341D01*
X317777Y374336D01*
X317775Y374331D01*
X317743Y374154D01*
X317743Y371766D01*
X315888Y369911D01*
X313511Y369911D01*
X313503Y369910D01*
X313495Y369911D01*
X313410Y369891D01*
X305617Y369891D01*
X298976Y376533D01*
X298969Y376537D01*
X298965Y376543D01*
X298886Y376592D01*
X298809Y376644D01*
X298801Y376645D01*
X298794Y376649D01*
X298617Y376681D01*
X297771Y376681D01*
X297762Y376679D01*
X297753Y376681D01*
X297576Y376643D01*
X297574Y376642D01*
X296589Y376233D01*
X296588Y376233D01*
X295898Y375947D01*
X293311Y375947D01*
X293306Y375946D01*
X293301Y375947D01*
X293208Y375926D01*
X293115Y375908D01*
X293110Y375905D01*
X293105Y375904D01*
X293027Y375848D01*
X292949Y375795D01*
X292946Y375791D01*
X292942Y375788D01*
X292891Y375706D01*
X292839Y375627D01*
X292839Y375622D01*
X292836Y375617D01*
X292804Y375440D01*
X292804Y374986D01*
X291315Y373498D01*
X277006Y373498D01*
X277003Y373497D01*
X277001Y373498D01*
X276906Y373478D01*
X276809Y373458D01*
X276807Y373457D01*
X276805Y373456D01*
X276724Y373400D01*
X276644Y373346D01*
X276642Y373343D01*
X276640Y373342D01*
X276587Y373258D01*
X276534Y373177D01*
X276534Y373175D01*
X276533Y373173D01*
X276516Y373076D01*
X276499Y372980D01*
X276499Y372978D01*
X276499Y372975D01*
X276521Y372881D01*
X276542Y372785D01*
X276544Y372782D01*
X276545Y372780D01*
X276647Y372632D01*
X281618Y367661D01*
X281624Y367657D01*
X281629Y367651D01*
X281708Y367602D01*
X281785Y367550D01*
X281793Y367549D01*
X281799Y367545D01*
X281977Y367513D01*
X313399Y367513D01*
X313511Y367493D01*
X315888Y367493D01*
X317743Y365638D01*
X317743Y361766D01*
X315888Y359911D01*
X313511Y359911D01*
X313503Y359910D01*
X313495Y359911D01*
X313410Y359891D01*
X278610Y359891D01*
G37*
%LPD*%
G36*
X478143Y393769D02*
X478143Y393769D01*
X478186Y393768D01*
X482179Y394369D01*
X482209Y394380D01*
X482252Y394385D01*
X486111Y395574D01*
X486139Y395589D01*
X486180Y395601D01*
X489818Y397352D01*
X489840Y397369D01*
X489866Y397378D01*
X489919Y397428D01*
X489977Y397472D01*
X489990Y397496D01*
X490010Y397515D01*
X490040Y397581D01*
X490076Y397645D01*
X490079Y397672D01*
X490090Y397697D01*
X490091Y397770D01*
X490100Y397842D01*
X490092Y397868D01*
X490092Y397896D01*
X490056Y397994D01*
X490044Y398033D01*
X490038Y398041D01*
X490034Y398052D01*
X463034Y444852D01*
X463016Y444872D01*
X463005Y444897D01*
X462951Y444946D01*
X462903Y445001D01*
X462878Y445012D01*
X462858Y445031D01*
X462789Y445055D01*
X462723Y445086D01*
X462696Y445088D01*
X462671Y445097D01*
X462598Y445092D01*
X462525Y445095D01*
X462499Y445086D01*
X462472Y445084D01*
X462376Y445040D01*
X462338Y445026D01*
X462331Y445019D01*
X462321Y445015D01*
X458984Y442741D01*
X458962Y442718D01*
X458926Y442695D01*
X455965Y439949D01*
X455946Y439923D01*
X455914Y439895D01*
X453396Y436739D01*
X453381Y436710D01*
X453354Y436677D01*
X451334Y433181D01*
X451324Y433151D01*
X451301Y433114D01*
X449825Y429356D01*
X449820Y429324D01*
X449803Y429284D01*
X448903Y425348D01*
X448903Y425316D01*
X448892Y425274D01*
X448589Y421248D01*
X448592Y421225D01*
X448589Y421205D01*
X448591Y421195D01*
X448589Y421174D01*
X448890Y417147D01*
X448898Y417116D01*
X448901Y417073D01*
X449798Y413137D01*
X449811Y413108D01*
X449820Y413065D01*
X451294Y409306D01*
X451311Y409279D01*
X451326Y409239D01*
X453344Y405742D01*
X453365Y405718D01*
X453386Y405680D01*
X455902Y402522D01*
X455927Y402502D01*
X455953Y402468D01*
X458912Y399720D01*
X458939Y399704D01*
X458970Y399674D01*
X462306Y397398D01*
X462335Y397386D01*
X462370Y397361D01*
X466008Y395608D01*
X466038Y395600D01*
X466077Y395581D01*
X469935Y394389D01*
X469967Y394386D01*
X470008Y394373D01*
X474000Y393770D01*
X474032Y393771D01*
X474074Y393764D01*
X478112Y393763D01*
X478143Y393769D01*
G37*
G36*
X218330Y393764D02*
X218330Y393764D01*
X218361Y393770D01*
X218404Y393770D01*
X222396Y394373D01*
X222426Y394384D01*
X222469Y394389D01*
X226327Y395581D01*
X226355Y395596D01*
X226397Y395608D01*
X230034Y397361D01*
X230059Y397380D01*
X230098Y397398D01*
X233434Y399674D01*
X233456Y399697D01*
X233492Y399720D01*
X236451Y402468D01*
X236470Y402493D01*
X236502Y402522D01*
X239018Y405680D01*
X239033Y405708D01*
X239060Y405742D01*
X241078Y409239D01*
X241088Y409269D01*
X241110Y409306D01*
X242584Y413065D01*
X242590Y413097D01*
X242606Y413137D01*
X243503Y417073D01*
X243504Y417105D01*
X243514Y417147D01*
X243815Y421174D01*
X243811Y421205D01*
X243812Y421221D01*
X243815Y421238D01*
X243814Y421242D01*
X243815Y421248D01*
X243512Y425274D01*
X243503Y425305D01*
X243501Y425348D01*
X242601Y429284D01*
X242588Y429313D01*
X242579Y429356D01*
X241103Y433114D01*
X241085Y433141D01*
X241070Y433181D01*
X239050Y436677D01*
X239029Y436701D01*
X239008Y436739D01*
X236490Y439895D01*
X236465Y439915D01*
X236439Y439949D01*
X233478Y442695D01*
X233451Y442711D01*
X233420Y442741D01*
X230083Y445015D01*
X230058Y445025D01*
X230037Y445042D01*
X229967Y445063D01*
X229900Y445092D01*
X229872Y445092D01*
X229846Y445099D01*
X229774Y445091D01*
X229701Y445091D01*
X229676Y445080D01*
X229649Y445077D01*
X229585Y445041D01*
X229518Y445013D01*
X229499Y444993D01*
X229476Y444980D01*
X229409Y444899D01*
X229380Y444869D01*
X229377Y444860D01*
X229370Y444852D01*
X202370Y398052D01*
X202361Y398026D01*
X202345Y398003D01*
X202330Y397932D01*
X202306Y397863D01*
X202309Y397836D01*
X202303Y397809D01*
X202316Y397738D01*
X202322Y397665D01*
X202335Y397640D01*
X202340Y397614D01*
X202380Y397553D01*
X202414Y397488D01*
X202435Y397471D01*
X202450Y397448D01*
X202536Y397387D01*
X202567Y397362D01*
X202576Y397359D01*
X202586Y397352D01*
X206224Y395601D01*
X206255Y395594D01*
X206293Y395574D01*
X210152Y394385D01*
X210184Y394382D01*
X210225Y394369D01*
X214218Y393768D01*
X214249Y393770D01*
X214292Y393763D01*
X218330Y393764D01*
G37*
G36*
X462630Y247313D02*
X462630Y247313D01*
X462703Y247313D01*
X462728Y247324D01*
X462755Y247327D01*
X462819Y247363D01*
X462886Y247391D01*
X462905Y247411D01*
X462928Y247424D01*
X462996Y247505D01*
X463024Y247535D01*
X463027Y247544D01*
X463034Y247553D01*
X490034Y294353D01*
X490043Y294378D01*
X490059Y294401D01*
X490074Y294472D01*
X490098Y294541D01*
X490095Y294568D01*
X490101Y294595D01*
X490088Y294666D01*
X490082Y294739D01*
X490069Y294764D01*
X490064Y294790D01*
X490024Y294851D01*
X489990Y294916D01*
X489969Y294933D01*
X489954Y294956D01*
X489868Y295017D01*
X489837Y295042D01*
X489828Y295045D01*
X489818Y295052D01*
X486180Y296803D01*
X486149Y296810D01*
X486111Y296830D01*
X482252Y298019D01*
X482220Y298022D01*
X482179Y298035D01*
X478186Y298636D01*
X478155Y298634D01*
X478112Y298641D01*
X474074Y298640D01*
X474043Y298634D01*
X474000Y298634D01*
X470008Y298031D01*
X469978Y298020D01*
X469935Y298015D01*
X466077Y296823D01*
X466049Y296808D01*
X466008Y296796D01*
X462370Y295043D01*
X462345Y295024D01*
X462306Y295006D01*
X458970Y292730D01*
X458948Y292707D01*
X458912Y292684D01*
X455953Y289936D01*
X455934Y289911D01*
X455902Y289882D01*
X453386Y286724D01*
X453371Y286696D01*
X453344Y286662D01*
X451326Y283165D01*
X451316Y283135D01*
X451294Y283098D01*
X449820Y279339D01*
X449814Y279307D01*
X449798Y279267D01*
X448901Y275331D01*
X448900Y275299D01*
X448890Y275257D01*
X448589Y271231D01*
X448593Y271199D01*
X448589Y271156D01*
X448892Y267130D01*
X448901Y267099D01*
X448903Y267056D01*
X449803Y263120D01*
X449816Y263091D01*
X449825Y263048D01*
X451301Y259290D01*
X451319Y259263D01*
X451334Y259223D01*
X453354Y255727D01*
X453375Y255703D01*
X453396Y255665D01*
X455914Y252509D01*
X455939Y252489D01*
X455965Y252455D01*
X458926Y249709D01*
X458953Y249693D01*
X458984Y249663D01*
X462321Y247389D01*
X462346Y247379D01*
X462367Y247362D01*
X462437Y247341D01*
X462504Y247312D01*
X462532Y247313D01*
X462558Y247305D01*
X462630Y247313D01*
G37*
G36*
X229806Y247312D02*
X229806Y247312D01*
X229879Y247309D01*
X229905Y247318D01*
X229932Y247320D01*
X230028Y247364D01*
X230066Y247378D01*
X230073Y247385D01*
X230083Y247389D01*
X233420Y249663D01*
X233442Y249686D01*
X233478Y249709D01*
X236439Y252455D01*
X236458Y252481D01*
X236490Y252509D01*
X239008Y255665D01*
X239023Y255694D01*
X239050Y255727D01*
X241070Y259223D01*
X241080Y259253D01*
X241103Y259290D01*
X242579Y263048D01*
X242584Y263080D01*
X242601Y263120D01*
X243501Y267056D01*
X243501Y267088D01*
X243512Y267130D01*
X243815Y271156D01*
X243811Y271187D01*
X243815Y271231D01*
X243514Y275257D01*
X243506Y275288D01*
X243503Y275331D01*
X242606Y279267D01*
X242593Y279296D01*
X242584Y279339D01*
X241110Y283098D01*
X241093Y283125D01*
X241078Y283165D01*
X239060Y286662D01*
X239039Y286686D01*
X239018Y286724D01*
X236502Y289882D01*
X236477Y289902D01*
X236451Y289936D01*
X233492Y292684D01*
X233465Y292700D01*
X233434Y292730D01*
X230098Y295006D01*
X230069Y295018D01*
X230034Y295043D01*
X226397Y296796D01*
X226366Y296804D01*
X226327Y296823D01*
X222469Y298015D01*
X222437Y298018D01*
X222396Y298031D01*
X218404Y298634D01*
X218372Y298633D01*
X218330Y298640D01*
X214292Y298641D01*
X214261Y298635D01*
X214218Y298636D01*
X210225Y298035D01*
X210195Y298024D01*
X210152Y298019D01*
X206293Y296830D01*
X206265Y296815D01*
X206224Y296803D01*
X202586Y295052D01*
X202564Y295035D01*
X202538Y295026D01*
X202485Y294976D01*
X202427Y294932D01*
X202414Y294908D01*
X202394Y294889D01*
X202364Y294823D01*
X202328Y294759D01*
X202325Y294732D01*
X202314Y294707D01*
X202313Y294634D01*
X202304Y294562D01*
X202312Y294536D01*
X202312Y294508D01*
X202348Y294410D01*
X202360Y294371D01*
X202366Y294363D01*
X202370Y294353D01*
X229370Y247553D01*
X229388Y247532D01*
X229399Y247507D01*
X229453Y247458D01*
X229501Y247404D01*
X229526Y247392D01*
X229546Y247373D01*
X229615Y247349D01*
X229681Y247318D01*
X229708Y247317D01*
X229733Y247307D01*
X229806Y247312D01*
G37*
%LPC*%
G36*
X331380Y200402D02*
X331380Y200402D01*
X329892Y201890D01*
X329892Y214995D01*
X331390Y216493D01*
X331440Y216504D01*
X331533Y216523D01*
X331538Y216526D01*
X331543Y216527D01*
X331621Y216582D01*
X331699Y216636D01*
X331702Y216640D01*
X331706Y216643D01*
X331757Y216724D01*
X331808Y216804D01*
X331809Y216809D01*
X331812Y216813D01*
X331844Y216991D01*
X331844Y223245D01*
X332695Y225299D01*
X335705Y228309D01*
X335709Y228314D01*
X335714Y228318D01*
X335764Y228397D01*
X335816Y228476D01*
X335817Y228482D01*
X335821Y228488D01*
X335836Y228580D01*
X335854Y228673D01*
X335852Y228679D01*
X335853Y228686D01*
X335815Y228862D01*
X335669Y229214D01*
X335669Y233606D01*
X337350Y237664D01*
X340456Y240770D01*
X340714Y240877D01*
X341939Y241384D01*
X343163Y241891D01*
X344388Y242399D01*
X344514Y242451D01*
X348906Y242451D01*
X352964Y240770D01*
X356070Y237664D01*
X357751Y233606D01*
X357751Y229214D01*
X356070Y225156D01*
X352964Y222050D01*
X352914Y222029D01*
X351690Y221522D01*
X351689Y221522D01*
X350465Y221015D01*
X349240Y220508D01*
X348906Y220369D01*
X344514Y220369D01*
X344162Y220515D01*
X344155Y220516D01*
X344150Y220520D01*
X344057Y220536D01*
X343965Y220554D01*
X343959Y220552D01*
X343952Y220554D01*
X343861Y220532D01*
X343769Y220513D01*
X343763Y220509D01*
X343757Y220508D01*
X343609Y220405D01*
X343170Y219966D01*
X343166Y219960D01*
X343159Y219955D01*
X343110Y219876D01*
X343059Y219799D01*
X343058Y219792D01*
X343054Y219785D01*
X343022Y219608D01*
X343022Y216991D01*
X343022Y216988D01*
X343022Y216986D01*
X343022Y216983D01*
X343022Y216980D01*
X343042Y216887D01*
X343061Y216794D01*
X343064Y216790D01*
X343065Y216785D01*
X343120Y216707D01*
X343174Y216628D01*
X343178Y216625D01*
X343181Y216621D01*
X343263Y216570D01*
X343342Y216519D01*
X343347Y216518D01*
X343351Y216515D01*
X343476Y216493D01*
X344974Y214995D01*
X344974Y201890D01*
X343485Y200402D01*
X331380Y200402D01*
G37*
%LPD*%
%LPC*%
G36*
X379514Y220369D02*
X379514Y220369D01*
X375456Y222050D01*
X372350Y225156D01*
X370669Y229214D01*
X370669Y233606D01*
X372350Y237664D01*
X375456Y240770D01*
X375714Y240877D01*
X376939Y241384D01*
X378163Y241891D01*
X379388Y242399D01*
X379514Y242451D01*
X383906Y242451D01*
X387964Y240770D01*
X391070Y237664D01*
X392751Y233606D01*
X392751Y229214D01*
X391070Y225156D01*
X387964Y222050D01*
X387914Y222029D01*
X386690Y221522D01*
X386689Y221522D01*
X385465Y221015D01*
X384240Y220508D01*
X383906Y220369D01*
X379514Y220369D01*
G37*
%LPD*%
%LPC*%
G36*
X309514Y220369D02*
X309514Y220369D01*
X305456Y222050D01*
X302350Y225156D01*
X300669Y229214D01*
X300669Y233606D01*
X302350Y237664D01*
X305456Y240770D01*
X305714Y240877D01*
X306939Y241384D01*
X308163Y241891D01*
X309388Y242399D01*
X309514Y242451D01*
X313906Y242451D01*
X317964Y240770D01*
X321070Y237664D01*
X322751Y233606D01*
X322751Y229214D01*
X321070Y225156D01*
X317964Y222050D01*
X317914Y222029D01*
X316690Y221522D01*
X316689Y221522D01*
X315465Y221015D01*
X314240Y220508D01*
X313906Y220369D01*
X309514Y220369D01*
G37*
%LPD*%
%LPC*%
G36*
X362014Y449699D02*
X362014Y449699D01*
X357956Y451380D01*
X354850Y454486D01*
X353169Y458544D01*
X353169Y462936D01*
X354850Y466994D01*
X357956Y470100D01*
X358086Y470154D01*
X359311Y470661D01*
X360535Y471168D01*
X361760Y471676D01*
X362014Y471781D01*
X366406Y471781D01*
X370464Y470100D01*
X373570Y466994D01*
X375251Y462936D01*
X375251Y458544D01*
X373570Y454486D01*
X370464Y451380D01*
X370286Y451306D01*
X369062Y450799D01*
X369061Y450799D01*
X367837Y450292D01*
X366612Y449785D01*
X366406Y449699D01*
X362014Y449699D01*
G37*
%LPD*%
%LPC*%
G36*
X327014Y449699D02*
X327014Y449699D01*
X322956Y451380D01*
X319850Y454486D01*
X318169Y458544D01*
X318169Y462936D01*
X319850Y466994D01*
X322956Y470100D01*
X323086Y470154D01*
X324311Y470661D01*
X325535Y471168D01*
X326760Y471676D01*
X327014Y471781D01*
X331406Y471781D01*
X335464Y470100D01*
X338570Y466994D01*
X340251Y462936D01*
X340251Y458544D01*
X338570Y454486D01*
X335464Y451380D01*
X335286Y451306D01*
X334062Y450799D01*
X334061Y450799D01*
X332837Y450292D01*
X331612Y449785D01*
X331406Y449699D01*
X327014Y449699D01*
G37*
%LPD*%
%LPC*%
G36*
X477931Y319604D02*
X477931Y319604D01*
X476443Y321092D01*
X476443Y334197D01*
X477931Y335686D01*
X490036Y335686D01*
X491590Y334131D01*
X491597Y334127D01*
X491601Y334121D01*
X491680Y334072D01*
X491757Y334020D01*
X491765Y334019D01*
X491772Y334015D01*
X491949Y333983D01*
X494018Y333983D01*
X496342Y333020D01*
X498120Y331242D01*
X499083Y328918D01*
X499083Y326402D01*
X498120Y324078D01*
X496342Y322300D01*
X495515Y321958D01*
X494291Y321450D01*
X494018Y321337D01*
X491979Y321337D01*
X491972Y321336D01*
X491964Y321337D01*
X491874Y321316D01*
X491783Y321298D01*
X491776Y321293D01*
X491769Y321291D01*
X491621Y321189D01*
X490036Y319604D01*
X477931Y319604D01*
G37*
%LPD*%
D10*
X432090Y369521D03*
X432090Y386521D03*
D11*
X433587Y307328D03*
X433587Y326328D03*
D10*
X466984Y327645D03*
X483984Y327645D03*
D12*
X377827Y373077D02*
X377827Y374327D01*
X383577Y374327D01*
X383577Y373077D01*
X377827Y373077D01*
X377827Y374264D02*
X383577Y374264D01*
X377827Y369327D02*
X377827Y368077D01*
X377827Y369327D02*
X383577Y369327D01*
X383577Y368077D01*
X377827Y368077D01*
X377827Y369264D02*
X383577Y369264D01*
X377827Y364327D02*
X377827Y363077D01*
X377827Y364327D02*
X383577Y364327D01*
X383577Y363077D01*
X377827Y363077D01*
X377827Y364264D02*
X383577Y364264D01*
X377827Y359327D02*
X377827Y358077D01*
X377827Y359327D02*
X383577Y359327D01*
X383577Y358077D01*
X377827Y358077D01*
X377827Y359264D02*
X383577Y359264D01*
X377827Y354327D02*
X377827Y353077D01*
X377827Y354327D02*
X383577Y354327D01*
X383577Y353077D01*
X377827Y353077D01*
X377827Y354264D02*
X383577Y354264D01*
X377827Y349327D02*
X377827Y348077D01*
X377827Y349327D02*
X383577Y349327D01*
X383577Y348077D01*
X377827Y348077D01*
X377827Y349264D02*
X383577Y349264D01*
X377827Y344327D02*
X377827Y343077D01*
X377827Y344327D02*
X383577Y344327D01*
X383577Y343077D01*
X377827Y343077D01*
X377827Y344264D02*
X383577Y344264D01*
X377827Y339327D02*
X377827Y338077D01*
X377827Y339327D02*
X383577Y339327D01*
X383577Y338077D01*
X377827Y338077D01*
X377827Y339264D02*
X383577Y339264D01*
X377827Y334327D02*
X377827Y333077D01*
X377827Y334327D02*
X383577Y334327D01*
X383577Y333077D01*
X377827Y333077D01*
X377827Y334264D02*
X383577Y334264D01*
X377827Y329327D02*
X377827Y328077D01*
X377827Y329327D02*
X383577Y329327D01*
X383577Y328077D01*
X377827Y328077D01*
X377827Y329264D02*
X383577Y329264D01*
X377827Y324327D02*
X377827Y323077D01*
X377827Y324327D02*
X383577Y324327D01*
X383577Y323077D01*
X377827Y323077D01*
X377827Y324264D02*
X383577Y324264D01*
X377827Y319327D02*
X377827Y318077D01*
X377827Y319327D02*
X383577Y319327D01*
X383577Y318077D01*
X377827Y318077D01*
X377827Y319264D02*
X383577Y319264D01*
X374327Y314577D02*
X373077Y314577D01*
X374327Y314577D02*
X374327Y308827D01*
X373077Y308827D01*
X373077Y314577D01*
X373077Y310014D02*
X374327Y310014D01*
X374327Y311201D02*
X373077Y311201D01*
X373077Y312388D02*
X374327Y312388D01*
X374327Y313575D02*
X373077Y313575D01*
X369327Y314577D02*
X368077Y314577D01*
X369327Y314577D02*
X369327Y308827D01*
X368077Y308827D01*
X368077Y314577D01*
X368077Y310014D02*
X369327Y310014D01*
X369327Y311201D02*
X368077Y311201D01*
X368077Y312388D02*
X369327Y312388D01*
X369327Y313575D02*
X368077Y313575D01*
X364327Y314577D02*
X363077Y314577D01*
X364327Y314577D02*
X364327Y308827D01*
X363077Y308827D01*
X363077Y314577D01*
X363077Y310014D02*
X364327Y310014D01*
X364327Y311201D02*
X363077Y311201D01*
X363077Y312388D02*
X364327Y312388D01*
X364327Y313575D02*
X363077Y313575D01*
X359327Y314577D02*
X358077Y314577D01*
X359327Y314577D02*
X359327Y308827D01*
X358077Y308827D01*
X358077Y314577D01*
X358077Y310014D02*
X359327Y310014D01*
X359327Y311201D02*
X358077Y311201D01*
X358077Y312388D02*
X359327Y312388D01*
X359327Y313575D02*
X358077Y313575D01*
X354327Y314577D02*
X353077Y314577D01*
X354327Y314577D02*
X354327Y308827D01*
X353077Y308827D01*
X353077Y314577D01*
X353077Y310014D02*
X354327Y310014D01*
X354327Y311201D02*
X353077Y311201D01*
X353077Y312388D02*
X354327Y312388D01*
X354327Y313575D02*
X353077Y313575D01*
X349327Y314577D02*
X348077Y314577D01*
X349327Y314577D02*
X349327Y308827D01*
X348077Y308827D01*
X348077Y314577D01*
X348077Y310014D02*
X349327Y310014D01*
X349327Y311201D02*
X348077Y311201D01*
X348077Y312388D02*
X349327Y312388D01*
X349327Y313575D02*
X348077Y313575D01*
X344327Y314577D02*
X343077Y314577D01*
X344327Y314577D02*
X344327Y308827D01*
X343077Y308827D01*
X343077Y314577D01*
X343077Y310014D02*
X344327Y310014D01*
X344327Y311201D02*
X343077Y311201D01*
X343077Y312388D02*
X344327Y312388D01*
X344327Y313575D02*
X343077Y313575D01*
X339327Y314577D02*
X338077Y314577D01*
X339327Y314577D02*
X339327Y308827D01*
X338077Y308827D01*
X338077Y314577D01*
X338077Y310014D02*
X339327Y310014D01*
X339327Y311201D02*
X338077Y311201D01*
X338077Y312388D02*
X339327Y312388D01*
X339327Y313575D02*
X338077Y313575D01*
X334327Y314577D02*
X333077Y314577D01*
X334327Y314577D02*
X334327Y308827D01*
X333077Y308827D01*
X333077Y314577D01*
X333077Y310014D02*
X334327Y310014D01*
X334327Y311201D02*
X333077Y311201D01*
X333077Y312388D02*
X334327Y312388D01*
X334327Y313575D02*
X333077Y313575D01*
X329327Y314577D02*
X328077Y314577D01*
X329327Y314577D02*
X329327Y308827D01*
X328077Y308827D01*
X328077Y314577D01*
X328077Y310014D02*
X329327Y310014D01*
X329327Y311201D02*
X328077Y311201D01*
X328077Y312388D02*
X329327Y312388D01*
X329327Y313575D02*
X328077Y313575D01*
X324327Y314577D02*
X323077Y314577D01*
X324327Y314577D02*
X324327Y308827D01*
X323077Y308827D01*
X323077Y314577D01*
X323077Y310014D02*
X324327Y310014D01*
X324327Y311201D02*
X323077Y311201D01*
X323077Y312388D02*
X324327Y312388D01*
X324327Y313575D02*
X323077Y313575D01*
X319327Y314577D02*
X318077Y314577D01*
X319327Y314577D02*
X319327Y308827D01*
X318077Y308827D01*
X318077Y314577D01*
X318077Y310014D02*
X319327Y310014D01*
X319327Y311201D02*
X318077Y311201D01*
X318077Y312388D02*
X319327Y312388D01*
X319327Y313575D02*
X318077Y313575D01*
X314577Y318077D02*
X314577Y319327D01*
X314577Y318077D02*
X308827Y318077D01*
X308827Y319327D01*
X314577Y319327D01*
X314577Y319264D02*
X308827Y319264D01*
X314577Y323077D02*
X314577Y324327D01*
X314577Y323077D02*
X308827Y323077D01*
X308827Y324327D01*
X314577Y324327D01*
X314577Y324264D02*
X308827Y324264D01*
X314577Y328077D02*
X314577Y329327D01*
X314577Y328077D02*
X308827Y328077D01*
X308827Y329327D01*
X314577Y329327D01*
X314577Y329264D02*
X308827Y329264D01*
X314577Y333077D02*
X314577Y334327D01*
X314577Y333077D02*
X308827Y333077D01*
X308827Y334327D01*
X314577Y334327D01*
X314577Y334264D02*
X308827Y334264D01*
X314577Y338077D02*
X314577Y339327D01*
X314577Y338077D02*
X308827Y338077D01*
X308827Y339327D01*
X314577Y339327D01*
X314577Y339264D02*
X308827Y339264D01*
X314577Y343077D02*
X314577Y344327D01*
X314577Y343077D02*
X308827Y343077D01*
X308827Y344327D01*
X314577Y344327D01*
X314577Y344264D02*
X308827Y344264D01*
X314577Y348077D02*
X314577Y349327D01*
X314577Y348077D02*
X308827Y348077D01*
X308827Y349327D01*
X314577Y349327D01*
X314577Y349264D02*
X308827Y349264D01*
X314577Y353077D02*
X314577Y354327D01*
X314577Y353077D02*
X308827Y353077D01*
X308827Y354327D01*
X314577Y354327D01*
X314577Y354264D02*
X308827Y354264D01*
X314577Y358077D02*
X314577Y359327D01*
X314577Y358077D02*
X308827Y358077D01*
X308827Y359327D01*
X314577Y359327D01*
X314577Y359264D02*
X308827Y359264D01*
X314577Y363077D02*
X314577Y364327D01*
X314577Y363077D02*
X308827Y363077D01*
X308827Y364327D01*
X314577Y364327D01*
X314577Y364264D02*
X308827Y364264D01*
X314577Y368077D02*
X314577Y369327D01*
X314577Y368077D02*
X308827Y368077D01*
X308827Y369327D01*
X314577Y369327D01*
X314577Y369264D02*
X308827Y369264D01*
X314577Y373077D02*
X314577Y374327D01*
X314577Y373077D02*
X308827Y373077D01*
X308827Y374327D01*
X314577Y374327D01*
X314577Y374264D02*
X308827Y374264D01*
X318077Y377827D02*
X319327Y377827D01*
X318077Y377827D02*
X318077Y383577D01*
X319327Y383577D01*
X319327Y377827D01*
X319327Y379014D02*
X318077Y379014D01*
X318077Y380201D02*
X319327Y380201D01*
X319327Y381388D02*
X318077Y381388D01*
X318077Y382575D02*
X319327Y382575D01*
X323077Y377827D02*
X324327Y377827D01*
X323077Y377827D02*
X323077Y383577D01*
X324327Y383577D01*
X324327Y377827D01*
X324327Y379014D02*
X323077Y379014D01*
X323077Y380201D02*
X324327Y380201D01*
X324327Y381388D02*
X323077Y381388D01*
X323077Y382575D02*
X324327Y382575D01*
X328077Y377827D02*
X329327Y377827D01*
X328077Y377827D02*
X328077Y383577D01*
X329327Y383577D01*
X329327Y377827D01*
X329327Y379014D02*
X328077Y379014D01*
X328077Y380201D02*
X329327Y380201D01*
X329327Y381388D02*
X328077Y381388D01*
X328077Y382575D02*
X329327Y382575D01*
X333077Y377827D02*
X334327Y377827D01*
X333077Y377827D02*
X333077Y383577D01*
X334327Y383577D01*
X334327Y377827D01*
X334327Y379014D02*
X333077Y379014D01*
X333077Y380201D02*
X334327Y380201D01*
X334327Y381388D02*
X333077Y381388D01*
X333077Y382575D02*
X334327Y382575D01*
X338077Y377827D02*
X339327Y377827D01*
X338077Y377827D02*
X338077Y383577D01*
X339327Y383577D01*
X339327Y377827D01*
X339327Y379014D02*
X338077Y379014D01*
X338077Y380201D02*
X339327Y380201D01*
X339327Y381388D02*
X338077Y381388D01*
X338077Y382575D02*
X339327Y382575D01*
X343077Y377827D02*
X344327Y377827D01*
X343077Y377827D02*
X343077Y383577D01*
X344327Y383577D01*
X344327Y377827D01*
X344327Y379014D02*
X343077Y379014D01*
X343077Y380201D02*
X344327Y380201D01*
X344327Y381388D02*
X343077Y381388D01*
X343077Y382575D02*
X344327Y382575D01*
X348077Y377827D02*
X349327Y377827D01*
X348077Y377827D02*
X348077Y383577D01*
X349327Y383577D01*
X349327Y377827D01*
X349327Y379014D02*
X348077Y379014D01*
X348077Y380201D02*
X349327Y380201D01*
X349327Y381388D02*
X348077Y381388D01*
X348077Y382575D02*
X349327Y382575D01*
X353077Y377827D02*
X354327Y377827D01*
X353077Y377827D02*
X353077Y383577D01*
X354327Y383577D01*
X354327Y377827D01*
X354327Y379014D02*
X353077Y379014D01*
X353077Y380201D02*
X354327Y380201D01*
X354327Y381388D02*
X353077Y381388D01*
X353077Y382575D02*
X354327Y382575D01*
X358077Y377827D02*
X359327Y377827D01*
X358077Y377827D02*
X358077Y383577D01*
X359327Y383577D01*
X359327Y377827D01*
X359327Y379014D02*
X358077Y379014D01*
X358077Y380201D02*
X359327Y380201D01*
X359327Y381388D02*
X358077Y381388D01*
X358077Y382575D02*
X359327Y382575D01*
X363077Y377827D02*
X364327Y377827D01*
X363077Y377827D02*
X363077Y383577D01*
X364327Y383577D01*
X364327Y377827D01*
X364327Y379014D02*
X363077Y379014D01*
X363077Y380201D02*
X364327Y380201D01*
X364327Y381388D02*
X363077Y381388D01*
X363077Y382575D02*
X364327Y382575D01*
X368077Y377827D02*
X369327Y377827D01*
X368077Y377827D02*
X368077Y383577D01*
X369327Y383577D01*
X369327Y377827D01*
X369327Y379014D02*
X368077Y379014D01*
X368077Y380201D02*
X369327Y380201D01*
X369327Y381388D02*
X368077Y381388D01*
X368077Y382575D02*
X369327Y382575D01*
X373077Y377827D02*
X374327Y377827D01*
X373077Y377827D02*
X373077Y383577D01*
X374327Y383577D01*
X374327Y377827D01*
X374327Y379014D02*
X373077Y379014D01*
X373077Y380201D02*
X374327Y380201D01*
X374327Y381388D02*
X373077Y381388D01*
X373077Y382575D02*
X374327Y382575D01*
D13*
X346202Y346202D03*
D14*
X404335Y366820D03*
X404335Y354820D03*
X404335Y342820D03*
D15*
X352100Y411972D03*
X352100Y394972D03*
D16*
X296383Y320228D03*
X277383Y320228D03*
D11*
X282763Y382539D03*
X282763Y401539D03*
D10*
X407266Y309424D03*
X407266Y326424D03*
X373883Y395124D03*
X373883Y412124D03*
X303096Y387275D03*
X303096Y404275D03*
D15*
X302744Y297404D03*
X285744Y297404D03*
X397659Y386474D03*
X414659Y386474D03*
D10*
X354433Y208443D03*
X337433Y208443D03*
D17*
X292012Y417108D02*
X281012Y417108D01*
X281012Y422108D01*
X292012Y422108D01*
X292012Y417108D01*
X292012Y421858D02*
X281012Y421858D01*
X281012Y447508D02*
X292012Y447508D01*
X292012Y442508D01*
X281012Y442508D01*
X281012Y447508D01*
X281012Y447258D02*
X292012Y447258D01*
X409536Y447000D02*
X420536Y447000D01*
X420536Y442000D01*
X409536Y442000D01*
X409536Y447000D01*
X409536Y446750D02*
X420536Y446750D01*
X463542Y376083D02*
X474542Y376083D01*
X474542Y371083D01*
X463542Y371083D01*
X463542Y376083D01*
X463542Y375833D02*
X474542Y375833D01*
D18*
X428802Y489302D03*
X511402Y346202D03*
X428802Y203102D03*
X263602Y203102D03*
X181002Y346202D03*
X263602Y489302D03*
X470102Y417702D03*
X470102Y274702D03*
X222302Y274702D03*
X222302Y417702D03*
D19*
X364210Y460740D03*
X329210Y460740D03*
X311710Y231410D03*
X346710Y231410D03*
X381710Y231410D03*
D20*
X259080Y320040D03*
D21*
X373702Y394943D02*
X373883Y395124D01*
X373702Y394943D02*
X373702Y380702D01*
X380702Y373702D02*
X384887Y373702D01*
X397659Y386474D01*
D22*
X389009Y395124D02*
X373883Y395124D01*
X389009Y395124D02*
X397659Y386474D01*
X483984Y327645D02*
X483999Y327660D01*
X492760Y327660D01*
D20*
X492760Y327660D03*
D21*
X318702Y311702D02*
X304404Y297404D01*
X302744Y297404D01*
D22*
X298359Y382539D02*
X303096Y387275D01*
D21*
X307196Y373702D02*
X311702Y373702D01*
X307196Y373702D02*
X298359Y382539D01*
D20*
X294640Y382270D03*
X295910Y307340D03*
D22*
X389009Y395124D02*
X407905Y414020D01*
X431800Y414020D01*
D20*
X431800Y414020D03*
D22*
X303096Y387275D02*
X298090Y382270D01*
X294640Y382270D01*
X283032Y382270D01*
X282763Y382539D01*
X295910Y307340D02*
X295910Y304237D01*
X302744Y297404D01*
X295910Y307340D02*
X295910Y319755D01*
X296383Y320228D01*
D21*
X333702Y311702D02*
X333702Y295602D01*
X304800Y266700D01*
X251460Y266700D01*
D20*
X251460Y266700D03*
D21*
X270978Y343702D02*
X311702Y343702D01*
X270978Y343702D02*
X257810Y356870D01*
X240030Y356870D01*
X217170Y379730D01*
X217170Y384810D01*
D20*
X217170Y384810D03*
D21*
X328702Y311702D02*
X328702Y299492D01*
X303530Y274320D01*
X222684Y274320D01*
X222302Y274702D01*
X273598Y348702D02*
X311702Y348702D01*
X273598Y348702D02*
X260350Y361950D01*
X243840Y361950D01*
X224790Y381000D01*
X224790Y415214D01*
X222302Y417702D01*
X262008Y338702D02*
X311702Y338702D01*
X262008Y338702D02*
X257810Y342900D01*
D20*
X257810Y342900D03*
D21*
X380702Y333702D02*
X385118Y333702D01*
X394970Y323850D02*
X394970Y318770D01*
X404316Y309424D01*
X407266Y309424D01*
X394970Y323850D02*
X385118Y333702D01*
D22*
X407266Y309424D02*
X409362Y307328D01*
X433587Y307328D01*
D20*
X448310Y317500D03*
D22*
X438138Y307328D01*
X433587Y307328D01*
X448310Y317500D02*
X458455Y327645D01*
X466984Y327645D01*
D21*
X328702Y380702D02*
X328702Y415062D01*
X344170Y430530D01*
X440690Y430530D01*
D20*
X440690Y430530D03*
D21*
X333702Y411172D02*
X333702Y380702D01*
X333702Y411172D02*
X345440Y422910D01*
X464894Y422910D01*
X470102Y417702D01*
X387992Y353702D02*
X380702Y353702D01*
X401110Y366820D02*
X404335Y366820D01*
X401110Y366820D02*
X387992Y353702D01*
X392978Y348702D02*
X380702Y348702D01*
X398860Y342820D02*
X404335Y342820D01*
X398860Y342820D02*
X392978Y348702D01*
X353702Y380702D02*
X353702Y393369D01*
X352100Y394972D01*
X415036Y444500D02*
X415036Y445770D01*
X403733Y457073D01*
X383286Y477520D01*
X354330Y477520D01*
X345440Y468630D01*
X345440Y439420D01*
X341632Y394972D02*
X352100Y394972D01*
X341632Y394972D02*
X341630Y394970D01*
D20*
X341630Y394970D03*
X345440Y439420D03*
X403733Y457073D03*
D21*
X389088Y343702D02*
X380702Y343702D01*
X389088Y343702D02*
X396240Y336550D01*
X416560Y336550D01*
X432090Y352080D02*
X432090Y369521D01*
X432090Y352080D02*
X416560Y336550D01*
X445043Y382473D02*
X459740Y382473D01*
X445043Y382473D02*
X432090Y369521D01*
X468630Y373583D02*
X469042Y373583D01*
X468630Y373583D02*
X459740Y382473D01*
D20*
X459740Y382473D03*
D22*
X337433Y222133D02*
X337433Y208443D01*
X337433Y222133D02*
X346710Y231410D01*
D21*
X380702Y338702D02*
X387738Y338702D01*
X400016Y326424D02*
X407266Y326424D01*
X400016Y326424D02*
X387738Y338702D01*
D22*
X407266Y326424D02*
X433492Y326424D01*
X433587Y326328D01*
X433587Y328177D01*
X452120Y346710D01*
D20*
X452120Y346710D03*
D21*
X380702Y318702D02*
X380702Y310178D01*
X412750Y278130D01*
X443230Y278130D01*
D20*
X443230Y278130D03*
D21*
X373702Y308288D02*
X373702Y311702D01*
X466292Y270892D02*
X470102Y274702D01*
X466292Y270892D02*
X411098Y270892D01*
X373702Y308288D01*
X311702Y363702D02*
X280188Y363702D01*
X270510Y373380D01*
X270510Y412750D01*
X274955Y417195D01*
X277368Y419608D01*
X286512Y419608D01*
D20*
X274955Y417195D03*
D21*
X318702Y425518D02*
X318702Y380702D01*
X299212Y445008D02*
X286512Y445008D01*
X299212Y445008D02*
X318702Y425518D01*
D20*
X299212Y445008D03*
X370840Y299720D03*
D23*
X368702Y301858D01*
X368702Y311702D01*
M02*
