G04 EAGLE Gerber RS-274X export*
G75*
%MOMM*%
%FSLAX34Y34*%
%LPD*%
%INSilkscreen Top*%
%IPPOS*%
%AMOC8*
5,1,8,0,0,1.08239X$1,22.5*%
G01*
%ADD10C,0.101600*%
%ADD11C,0.152400*%
%ADD12R,0.014731X0.014731*%
%ADD13R,0.147319X0.014731*%
%ADD14R,0.265175X0.014731*%
%ADD15R,0.383031X0.014731*%
%ADD16R,0.515619X0.014731*%
%ADD17R,0.633475X0.014731*%
%ADD18R,0.751331X0.014731*%
%ADD19R,0.883919X0.014731*%
%ADD20R,1.001775X0.014731*%
%ADD21R,1.119631X0.014731*%
%ADD22R,1.134363X0.014731*%
%ADD23R,1.149094X0.014731*%
%ADD24R,1.163825X0.014731*%
%ADD25R,1.178556X0.014731*%
%ADD26R,1.193288X0.014731*%
%ADD27R,1.222756X0.014731*%
%ADD28R,1.237488X0.014731*%
%ADD29R,1.266950X0.014731*%
%ADD30R,1.281681X0.014731*%
%ADD31R,1.311144X0.014731*%
%ADD32R,1.325881X0.014731*%
%ADD33R,1.355344X0.014731*%
%ADD34R,1.370075X0.014731*%
%ADD35R,1.384806X0.014731*%
%ADD36R,1.399538X0.014731*%
%ADD37R,1.414275X0.014731*%
%ADD38R,1.443738X0.014731*%
%ADD39R,1.458469X0.014731*%
%ADD40R,1.487931X0.014731*%
%ADD41R,1.502663X0.014731*%
%ADD42R,1.517394X0.014731*%
%ADD43R,1.532125X0.014731*%
%ADD44R,1.546856X0.014731*%
%ADD45R,1.576319X0.014731*%
%ADD46R,1.605788X0.014731*%
%ADD47R,1.620519X0.014731*%
%ADD48R,1.649981X0.014731*%
%ADD49R,1.664713X0.014731*%
%ADD50R,1.694175X0.014731*%
%ADD51R,1.708913X0.014731*%
%ADD52R,1.738375X0.014731*%
%ADD53R,1.753106X0.014731*%
%ADD54R,1.767838X0.014731*%
%ADD55R,1.782569X0.014731*%
%ADD56R,1.797306X0.014731*%
%ADD57R,0.117856X0.014731*%
%ADD58R,1.826769X0.014731*%
%ADD59R,0.235713X0.014731*%
%ADD60R,0.353569X0.014731*%
%ADD61R,1.856231X0.014731*%
%ADD62R,0.486156X0.014731*%
%ADD63R,1.870963X0.014731*%
%ADD64R,0.604013X0.014731*%
%ADD65R,0.721869X0.014731*%
%ADD66R,1.885694X0.014731*%
%ADD67R,0.839719X0.014731*%
%ADD68R,0.972306X0.014731*%
%ADD69R,1.090169X0.014731*%
%ADD70R,1.208025X0.014731*%
%ADD71R,1.252219X0.014731*%
%ADD72R,1.296412X0.014731*%
%ADD73R,1.340612X0.014731*%
%ADD74R,1.826763X0.014731*%
%ADD75R,1.414269X0.014731*%
%ADD76R,1.812031X0.014731*%
%ADD77R,1.429000X0.014731*%
%ADD78R,1.458462X0.014731*%
%ADD79R,1.473200X0.014731*%
%ADD80R,1.723644X0.014731*%
%ADD81R,1.694181X0.014731*%
%ADD82R,1.679450X0.014731*%
%ADD83R,1.561594X0.014731*%
%ADD84R,1.576325X0.014731*%
%ADD85R,1.591056X0.014731*%
%ADD86R,1.635250X0.014731*%
%ADD87R,1.561588X0.014731*%
%ADD88R,1.443731X0.014731*%
%ADD89R,1.797300X0.014731*%
%ADD90R,1.841500X0.014731*%
%ADD91R,1.311150X0.014731*%
%ADD92R,1.296419X0.014731*%
%ADD93R,1.193294X0.014731*%
%ADD94R,0.957575X0.014731*%
%ADD95R,0.589281X0.014731*%
%ADD96R,0.471425X0.014731*%
%ADD97R,0.220975X0.014731*%
%ADD98R,1.812038X0.014731*%
%ADD99R,0.103119X0.014731*%
%ADD100R,0.029463X0.014731*%
%ADD101R,0.162050X0.014731*%
%ADD102R,0.397763X0.014731*%
%ADD103R,0.648206X0.014731*%
%ADD104R,1.679444X0.014731*%
%ADD105R,1.016506X0.014731*%
%ADD106R,1.104900X0.014731*%
%ADD107R,1.222750X0.014731*%
%ADD108R,1.429006X0.014731*%
%ADD109R,1.208019X0.014731*%
%ADD110R,0.987044X0.014731*%
%ADD111R,0.854456X0.014731*%
%ADD112R,0.618744X0.014731*%
%ADD113R,0.500888X0.014731*%
%ADD114R,0.368300X0.014731*%
%ADD115R,0.132587X0.014731*%
%ADD116R,1.664719X0.014731*%
%ADD117R,1.075438X0.014731*%
%ADD118R,0.942844X0.014731*%
%ADD119R,0.707131X0.014731*%
%ADD120R,0.456694X0.014731*%
%ADD121R,0.088388X0.014731*%
%ADD122C,0.127000*%
%ADD123C,0.076200*%
%ADD124C,0.203200*%

G36*
X381432Y481462D02*
X381432Y481462D01*
X381454Y481460D01*
X381529Y481482D01*
X381607Y481497D01*
X381625Y481510D01*
X381646Y481516D01*
X381707Y481566D01*
X381772Y481610D01*
X381784Y481629D01*
X381802Y481643D01*
X381839Y481712D01*
X381882Y481778D01*
X381885Y481800D01*
X381896Y481819D01*
X381903Y481898D01*
X381917Y481975D01*
X381912Y481997D01*
X381914Y482019D01*
X381885Y482118D01*
X381874Y482171D01*
X381867Y482180D01*
X381864Y482192D01*
X378689Y488542D01*
X378647Y488595D01*
X378613Y488653D01*
X378586Y488673D01*
X378565Y488700D01*
X378507Y488733D01*
X378453Y488773D01*
X378420Y488781D01*
X378391Y488798D01*
X378324Y488805D01*
X378258Y488822D01*
X378225Y488817D01*
X378191Y488820D01*
X378127Y488801D01*
X378060Y488791D01*
X378031Y488773D01*
X377999Y488764D01*
X377947Y488721D01*
X377889Y488686D01*
X377867Y488657D01*
X377843Y488638D01*
X377820Y488594D01*
X377781Y488542D01*
X374606Y482192D01*
X374601Y482170D01*
X374588Y482152D01*
X374574Y482074D01*
X374554Y481998D01*
X374557Y481976D01*
X374553Y481955D01*
X374570Y481878D01*
X374580Y481800D01*
X374592Y481781D01*
X374596Y481759D01*
X374642Y481695D01*
X374682Y481627D01*
X374700Y481614D01*
X374712Y481596D01*
X374779Y481554D01*
X374842Y481507D01*
X374864Y481501D01*
X374883Y481490D01*
X374984Y481471D01*
X375037Y481458D01*
X375048Y481460D01*
X375060Y481458D01*
X381410Y481458D01*
X381432Y481462D01*
G37*
G36*
X297695Y203333D02*
X297695Y203333D01*
X297729Y203330D01*
X297794Y203349D01*
X297860Y203359D01*
X297889Y203377D01*
X297921Y203386D01*
X297973Y203429D01*
X298031Y203464D01*
X298053Y203493D01*
X298077Y203513D01*
X298100Y203556D01*
X298139Y203608D01*
X301314Y209958D01*
X301319Y209980D01*
X301332Y209998D01*
X301346Y210076D01*
X301366Y210152D01*
X301363Y210174D01*
X301367Y210195D01*
X301350Y210272D01*
X301340Y210350D01*
X301328Y210369D01*
X301324Y210391D01*
X301278Y210455D01*
X301238Y210523D01*
X301220Y210536D01*
X301208Y210554D01*
X301141Y210596D01*
X301078Y210643D01*
X301056Y210649D01*
X301037Y210660D01*
X300936Y210679D01*
X300883Y210692D01*
X300872Y210690D01*
X300860Y210692D01*
X294510Y210692D01*
X294488Y210688D01*
X294466Y210690D01*
X294391Y210668D01*
X294314Y210653D01*
X294295Y210640D01*
X294274Y210634D01*
X294213Y210584D01*
X294148Y210540D01*
X294136Y210521D01*
X294118Y210508D01*
X294081Y210438D01*
X294038Y210372D01*
X294035Y210350D01*
X294024Y210331D01*
X294017Y210252D01*
X294003Y210175D01*
X294008Y210153D01*
X294006Y210131D01*
X294035Y210032D01*
X294046Y209979D01*
X294053Y209970D01*
X294056Y209958D01*
X297231Y203608D01*
X297273Y203555D01*
X297307Y203497D01*
X297334Y203477D01*
X297355Y203450D01*
X297413Y203417D01*
X297467Y203377D01*
X297500Y203369D01*
X297530Y203352D01*
X297597Y203345D01*
X297662Y203328D01*
X297695Y203333D01*
G37*
D10*
X403428Y475532D02*
X406086Y473670D01*
X406180Y473607D01*
X406276Y473547D01*
X406374Y473490D01*
X406474Y473437D01*
X406576Y473387D01*
X406680Y473341D01*
X406785Y473299D01*
X406891Y473260D01*
X406999Y473225D01*
X407108Y473194D01*
X407218Y473166D01*
X407329Y473143D01*
X407440Y473123D01*
X407552Y473107D01*
X407665Y473095D01*
X407778Y473087D01*
X407891Y473083D01*
X408005Y473083D01*
X408118Y473087D01*
X408231Y473095D01*
X408344Y473107D01*
X408456Y473123D01*
X408567Y473143D01*
X408678Y473166D01*
X408788Y473194D01*
X408897Y473225D01*
X409005Y473260D01*
X409111Y473299D01*
X409216Y473341D01*
X409320Y473387D01*
X409422Y473437D01*
X409522Y473490D01*
X409620Y473547D01*
X409716Y473607D01*
X409810Y473670D01*
X409901Y473737D01*
X409991Y473806D01*
X410078Y473879D01*
X410162Y473955D01*
X410243Y474034D01*
X410322Y474115D01*
X410398Y474199D01*
X410471Y474286D01*
X410540Y474376D01*
X410607Y474467D01*
X410670Y474561D01*
X410730Y474657D01*
X410787Y474755D01*
X410840Y474855D01*
X410890Y474957D01*
X410936Y475061D01*
X410978Y475166D01*
X411017Y475272D01*
X411052Y475380D01*
X411083Y475489D01*
X411111Y475599D01*
X411134Y475710D01*
X411154Y475821D01*
X411170Y475933D01*
X411182Y476046D01*
X411190Y476159D01*
X411194Y476272D01*
X411194Y476386D01*
X411190Y476499D01*
X411182Y476612D01*
X411170Y476725D01*
X411154Y476837D01*
X411134Y476948D01*
X411111Y477059D01*
X411083Y477169D01*
X411052Y477278D01*
X411017Y477386D01*
X410978Y477492D01*
X410936Y477597D01*
X410890Y477701D01*
X410840Y477803D01*
X410787Y477903D01*
X410730Y478001D01*
X410670Y478097D01*
X410607Y478191D01*
X410540Y478282D01*
X410471Y478372D01*
X410398Y478459D01*
X410322Y478543D01*
X410243Y478624D01*
X410162Y478703D01*
X410078Y478779D01*
X409991Y478852D01*
X409902Y478921D01*
X409810Y478988D01*
X413320Y482869D02*
X410129Y485103D01*
X413319Y482869D02*
X413400Y482809D01*
X413479Y482747D01*
X413556Y482681D01*
X413630Y482613D01*
X413701Y482542D01*
X413769Y482468D01*
X413835Y482391D01*
X413897Y482312D01*
X413957Y482231D01*
X414013Y482147D01*
X414066Y482062D01*
X414115Y481974D01*
X414161Y481885D01*
X414204Y481793D01*
X414243Y481700D01*
X414278Y481606D01*
X414310Y481511D01*
X414338Y481414D01*
X414362Y481316D01*
X414382Y481218D01*
X414399Y481118D01*
X414411Y481018D01*
X414420Y480918D01*
X414425Y480818D01*
X414426Y480717D01*
X414423Y480616D01*
X414416Y480516D01*
X414405Y480416D01*
X414391Y480316D01*
X414372Y480217D01*
X414350Y480119D01*
X414324Y480022D01*
X414294Y479925D01*
X414261Y479831D01*
X414224Y479737D01*
X414183Y479645D01*
X414138Y479554D01*
X414091Y479466D01*
X414039Y479379D01*
X413985Y479295D01*
X413927Y479212D01*
X413866Y479132D01*
X413802Y479054D01*
X413735Y478979D01*
X413666Y478906D01*
X413593Y478837D01*
X413518Y478770D01*
X413440Y478706D01*
X413360Y478645D01*
X413277Y478587D01*
X413193Y478533D01*
X413106Y478481D01*
X413018Y478434D01*
X412927Y478389D01*
X412835Y478348D01*
X412741Y478311D01*
X412647Y478278D01*
X412550Y478248D01*
X412453Y478222D01*
X412355Y478200D01*
X412256Y478181D01*
X412156Y478167D01*
X412056Y478156D01*
X411956Y478149D01*
X411855Y478146D01*
X411754Y478147D01*
X411654Y478152D01*
X411554Y478161D01*
X411454Y478173D01*
X411354Y478190D01*
X411256Y478210D01*
X411158Y478234D01*
X411061Y478262D01*
X410966Y478294D01*
X410872Y478329D01*
X410779Y478368D01*
X410687Y478411D01*
X410598Y478457D01*
X410510Y478506D01*
X410425Y478559D01*
X410341Y478615D01*
X408214Y480105D01*
X418960Y478919D02*
X415449Y467114D01*
X425341Y474452D01*
X422153Y462420D02*
X424812Y460558D01*
X424906Y460495D01*
X425002Y460435D01*
X425100Y460378D01*
X425200Y460325D01*
X425302Y460275D01*
X425406Y460229D01*
X425511Y460187D01*
X425617Y460148D01*
X425725Y460113D01*
X425834Y460082D01*
X425944Y460054D01*
X426055Y460031D01*
X426166Y460011D01*
X426278Y459995D01*
X426391Y459983D01*
X426504Y459975D01*
X426617Y459971D01*
X426731Y459971D01*
X426844Y459975D01*
X426957Y459983D01*
X427070Y459995D01*
X427182Y460011D01*
X427293Y460031D01*
X427404Y460054D01*
X427514Y460082D01*
X427623Y460113D01*
X427731Y460148D01*
X427837Y460187D01*
X427942Y460229D01*
X428046Y460275D01*
X428148Y460325D01*
X428248Y460378D01*
X428346Y460435D01*
X428442Y460495D01*
X428536Y460558D01*
X428627Y460625D01*
X428717Y460694D01*
X428804Y460767D01*
X428888Y460843D01*
X428969Y460922D01*
X429048Y461003D01*
X429124Y461087D01*
X429197Y461174D01*
X429266Y461264D01*
X429333Y461355D01*
X429396Y461449D01*
X429456Y461545D01*
X429513Y461643D01*
X429566Y461743D01*
X429616Y461845D01*
X429662Y461949D01*
X429704Y462054D01*
X429743Y462160D01*
X429778Y462268D01*
X429809Y462377D01*
X429837Y462487D01*
X429860Y462598D01*
X429880Y462709D01*
X429896Y462821D01*
X429908Y462934D01*
X429916Y463047D01*
X429920Y463160D01*
X429920Y463274D01*
X429916Y463387D01*
X429908Y463500D01*
X429896Y463613D01*
X429880Y463725D01*
X429860Y463836D01*
X429837Y463947D01*
X429809Y464057D01*
X429778Y464166D01*
X429743Y464274D01*
X429704Y464380D01*
X429662Y464485D01*
X429616Y464589D01*
X429566Y464691D01*
X429513Y464791D01*
X429456Y464889D01*
X429396Y464985D01*
X429333Y465079D01*
X429266Y465170D01*
X429197Y465260D01*
X429124Y465347D01*
X429048Y465431D01*
X428969Y465512D01*
X428888Y465591D01*
X428804Y465667D01*
X428717Y465740D01*
X428628Y465809D01*
X428536Y465876D01*
X432045Y469757D02*
X428855Y471991D01*
X432045Y469757D02*
X432126Y469697D01*
X432205Y469635D01*
X432282Y469569D01*
X432356Y469501D01*
X432427Y469430D01*
X432495Y469356D01*
X432561Y469279D01*
X432623Y469200D01*
X432683Y469119D01*
X432739Y469035D01*
X432792Y468950D01*
X432841Y468862D01*
X432887Y468773D01*
X432930Y468681D01*
X432969Y468588D01*
X433004Y468494D01*
X433036Y468399D01*
X433064Y468302D01*
X433088Y468204D01*
X433108Y468106D01*
X433125Y468006D01*
X433137Y467906D01*
X433146Y467806D01*
X433151Y467706D01*
X433152Y467605D01*
X433149Y467504D01*
X433142Y467404D01*
X433131Y467304D01*
X433117Y467204D01*
X433098Y467105D01*
X433076Y467007D01*
X433050Y466910D01*
X433020Y466813D01*
X432987Y466719D01*
X432950Y466625D01*
X432909Y466533D01*
X432864Y466442D01*
X432817Y466354D01*
X432765Y466267D01*
X432711Y466183D01*
X432653Y466100D01*
X432592Y466020D01*
X432528Y465942D01*
X432461Y465867D01*
X432392Y465794D01*
X432319Y465725D01*
X432244Y465658D01*
X432166Y465594D01*
X432086Y465533D01*
X432003Y465475D01*
X431919Y465421D01*
X431832Y465369D01*
X431744Y465322D01*
X431653Y465277D01*
X431561Y465236D01*
X431467Y465199D01*
X431373Y465166D01*
X431276Y465136D01*
X431179Y465110D01*
X431081Y465088D01*
X430982Y465069D01*
X430882Y465055D01*
X430782Y465044D01*
X430682Y465037D01*
X430581Y465034D01*
X430480Y465035D01*
X430380Y465040D01*
X430280Y465049D01*
X430180Y465061D01*
X430080Y465078D01*
X429982Y465098D01*
X429884Y465122D01*
X429787Y465150D01*
X429692Y465182D01*
X429598Y465217D01*
X429505Y465256D01*
X429413Y465299D01*
X429324Y465345D01*
X429236Y465394D01*
X429151Y465447D01*
X429067Y465503D01*
X426940Y466993D01*
X497242Y334770D02*
X497242Y331524D01*
X497242Y334770D02*
X497240Y334883D01*
X497234Y334996D01*
X497224Y335109D01*
X497210Y335222D01*
X497193Y335334D01*
X497171Y335445D01*
X497146Y335555D01*
X497116Y335665D01*
X497083Y335773D01*
X497046Y335880D01*
X497006Y335986D01*
X496961Y336090D01*
X496913Y336193D01*
X496862Y336294D01*
X496807Y336393D01*
X496749Y336490D01*
X496687Y336585D01*
X496622Y336678D01*
X496554Y336768D01*
X496483Y336856D01*
X496408Y336942D01*
X496331Y337025D01*
X496251Y337105D01*
X496168Y337182D01*
X496082Y337257D01*
X495994Y337328D01*
X495904Y337396D01*
X495811Y337461D01*
X495716Y337523D01*
X495619Y337581D01*
X495520Y337636D01*
X495419Y337687D01*
X495316Y337735D01*
X495212Y337780D01*
X495106Y337820D01*
X494999Y337857D01*
X494891Y337890D01*
X494781Y337920D01*
X494671Y337945D01*
X494560Y337967D01*
X494448Y337984D01*
X494335Y337998D01*
X494222Y338008D01*
X494109Y338014D01*
X493996Y338016D01*
X493883Y338014D01*
X493770Y338008D01*
X493657Y337998D01*
X493544Y337984D01*
X493432Y337967D01*
X493321Y337945D01*
X493211Y337920D01*
X493101Y337890D01*
X492993Y337857D01*
X492886Y337820D01*
X492780Y337780D01*
X492676Y337735D01*
X492573Y337687D01*
X492472Y337636D01*
X492373Y337581D01*
X492276Y337523D01*
X492181Y337461D01*
X492088Y337396D01*
X491998Y337328D01*
X491910Y337257D01*
X491824Y337182D01*
X491741Y337105D01*
X491661Y337025D01*
X491584Y336942D01*
X491509Y336856D01*
X491438Y336768D01*
X491370Y336678D01*
X491305Y336585D01*
X491243Y336490D01*
X491185Y336393D01*
X491130Y336294D01*
X491079Y336193D01*
X491031Y336090D01*
X490986Y335986D01*
X490946Y335880D01*
X490909Y335773D01*
X490876Y335665D01*
X490846Y335555D01*
X490821Y335445D01*
X490799Y335334D01*
X490782Y335222D01*
X490768Y335109D01*
X490758Y334996D01*
X490752Y334883D01*
X490750Y334770D01*
X485558Y335419D02*
X485558Y331524D01*
X485558Y335419D02*
X485560Y335520D01*
X485566Y335620D01*
X485576Y335720D01*
X485589Y335820D01*
X485607Y335919D01*
X485628Y336018D01*
X485653Y336115D01*
X485682Y336212D01*
X485715Y336307D01*
X485751Y336401D01*
X485791Y336493D01*
X485834Y336584D01*
X485881Y336673D01*
X485931Y336760D01*
X485985Y336846D01*
X486042Y336929D01*
X486102Y337009D01*
X486165Y337088D01*
X486232Y337164D01*
X486301Y337237D01*
X486373Y337307D01*
X486447Y337375D01*
X486524Y337440D01*
X486604Y337501D01*
X486686Y337560D01*
X486770Y337615D01*
X486856Y337667D01*
X486944Y337716D01*
X487034Y337761D01*
X487126Y337803D01*
X487219Y337841D01*
X487314Y337875D01*
X487409Y337906D01*
X487506Y337933D01*
X487604Y337956D01*
X487703Y337976D01*
X487803Y337991D01*
X487903Y338003D01*
X488003Y338011D01*
X488104Y338015D01*
X488204Y338015D01*
X488305Y338011D01*
X488405Y338003D01*
X488505Y337991D01*
X488605Y337976D01*
X488704Y337956D01*
X488802Y337933D01*
X488899Y337906D01*
X488994Y337875D01*
X489089Y337841D01*
X489182Y337803D01*
X489274Y337761D01*
X489364Y337716D01*
X489452Y337667D01*
X489538Y337615D01*
X489622Y337560D01*
X489704Y337501D01*
X489784Y337440D01*
X489861Y337375D01*
X489935Y337307D01*
X490007Y337237D01*
X490076Y337164D01*
X490143Y337088D01*
X490206Y337009D01*
X490266Y336929D01*
X490323Y336846D01*
X490377Y336760D01*
X490427Y336673D01*
X490474Y336584D01*
X490517Y336493D01*
X490557Y336401D01*
X490593Y336307D01*
X490626Y336212D01*
X490655Y336115D01*
X490680Y336018D01*
X490701Y335919D01*
X490719Y335820D01*
X490732Y335720D01*
X490742Y335620D01*
X490748Y335520D01*
X490750Y335419D01*
X490751Y335419D02*
X490751Y332823D01*
X485558Y342305D02*
X497242Y346200D01*
X485558Y350095D01*
X497242Y354384D02*
X497242Y357630D01*
X497240Y357743D01*
X497234Y357856D01*
X497224Y357969D01*
X497210Y358082D01*
X497193Y358194D01*
X497171Y358305D01*
X497146Y358415D01*
X497116Y358525D01*
X497083Y358633D01*
X497046Y358740D01*
X497006Y358846D01*
X496961Y358950D01*
X496913Y359053D01*
X496862Y359154D01*
X496807Y359253D01*
X496749Y359350D01*
X496687Y359445D01*
X496622Y359538D01*
X496554Y359628D01*
X496483Y359716D01*
X496408Y359802D01*
X496331Y359885D01*
X496251Y359965D01*
X496168Y360042D01*
X496082Y360117D01*
X495994Y360188D01*
X495904Y360256D01*
X495811Y360321D01*
X495716Y360383D01*
X495619Y360441D01*
X495520Y360496D01*
X495419Y360547D01*
X495316Y360595D01*
X495212Y360640D01*
X495106Y360680D01*
X494999Y360717D01*
X494891Y360750D01*
X494781Y360780D01*
X494671Y360805D01*
X494560Y360827D01*
X494448Y360844D01*
X494335Y360858D01*
X494222Y360868D01*
X494109Y360874D01*
X493996Y360876D01*
X493883Y360874D01*
X493770Y360868D01*
X493657Y360858D01*
X493544Y360844D01*
X493432Y360827D01*
X493321Y360805D01*
X493211Y360780D01*
X493101Y360750D01*
X492993Y360717D01*
X492886Y360680D01*
X492780Y360640D01*
X492676Y360595D01*
X492573Y360547D01*
X492472Y360496D01*
X492373Y360441D01*
X492276Y360383D01*
X492181Y360321D01*
X492088Y360256D01*
X491998Y360188D01*
X491910Y360117D01*
X491824Y360042D01*
X491741Y359965D01*
X491661Y359885D01*
X491584Y359802D01*
X491509Y359716D01*
X491438Y359628D01*
X491370Y359538D01*
X491305Y359445D01*
X491243Y359350D01*
X491185Y359253D01*
X491130Y359154D01*
X491079Y359053D01*
X491031Y358950D01*
X490986Y358846D01*
X490946Y358740D01*
X490909Y358633D01*
X490876Y358525D01*
X490846Y358415D01*
X490821Y358305D01*
X490799Y358194D01*
X490782Y358082D01*
X490768Y357969D01*
X490758Y357856D01*
X490752Y357743D01*
X490750Y357630D01*
X485558Y358279D02*
X485558Y354384D01*
X485558Y358279D02*
X485560Y358380D01*
X485566Y358480D01*
X485576Y358580D01*
X485589Y358680D01*
X485607Y358779D01*
X485628Y358878D01*
X485653Y358975D01*
X485682Y359072D01*
X485715Y359167D01*
X485751Y359261D01*
X485791Y359353D01*
X485834Y359444D01*
X485881Y359533D01*
X485931Y359620D01*
X485985Y359706D01*
X486042Y359789D01*
X486102Y359869D01*
X486165Y359948D01*
X486232Y360024D01*
X486301Y360097D01*
X486373Y360167D01*
X486447Y360235D01*
X486524Y360300D01*
X486604Y360361D01*
X486686Y360420D01*
X486770Y360475D01*
X486856Y360527D01*
X486944Y360576D01*
X487034Y360621D01*
X487126Y360663D01*
X487219Y360701D01*
X487314Y360735D01*
X487409Y360766D01*
X487506Y360793D01*
X487604Y360816D01*
X487703Y360836D01*
X487803Y360851D01*
X487903Y360863D01*
X488003Y360871D01*
X488104Y360875D01*
X488204Y360875D01*
X488305Y360871D01*
X488405Y360863D01*
X488505Y360851D01*
X488605Y360836D01*
X488704Y360816D01*
X488802Y360793D01*
X488899Y360766D01*
X488994Y360735D01*
X489089Y360701D01*
X489182Y360663D01*
X489274Y360621D01*
X489364Y360576D01*
X489452Y360527D01*
X489538Y360475D01*
X489622Y360420D01*
X489704Y360361D01*
X489784Y360300D01*
X489861Y360235D01*
X489935Y360167D01*
X490007Y360097D01*
X490076Y360024D01*
X490143Y359948D01*
X490206Y359869D01*
X490266Y359789D01*
X490323Y359706D01*
X490377Y359620D01*
X490427Y359533D01*
X490474Y359444D01*
X490517Y359353D01*
X490557Y359261D01*
X490593Y359167D01*
X490626Y359072D01*
X490655Y358975D01*
X490680Y358878D01*
X490701Y358779D01*
X490719Y358680D01*
X490732Y358580D01*
X490742Y358480D01*
X490748Y358380D01*
X490750Y358279D01*
X490751Y358279D02*
X490751Y355683D01*
X412788Y209159D02*
X410129Y207297D01*
X412788Y209158D02*
X412879Y209225D01*
X412969Y209294D01*
X413056Y209367D01*
X413140Y209443D01*
X413221Y209522D01*
X413300Y209603D01*
X413376Y209687D01*
X413449Y209774D01*
X413518Y209864D01*
X413585Y209955D01*
X413648Y210049D01*
X413708Y210145D01*
X413765Y210243D01*
X413818Y210343D01*
X413868Y210445D01*
X413914Y210549D01*
X413956Y210654D01*
X413995Y210760D01*
X414030Y210868D01*
X414061Y210977D01*
X414089Y211087D01*
X414112Y211198D01*
X414132Y211309D01*
X414148Y211421D01*
X414160Y211534D01*
X414168Y211647D01*
X414172Y211760D01*
X414172Y211874D01*
X414168Y211987D01*
X414160Y212100D01*
X414148Y212213D01*
X414132Y212325D01*
X414112Y212436D01*
X414089Y212547D01*
X414061Y212657D01*
X414030Y212766D01*
X413995Y212874D01*
X413956Y212980D01*
X413914Y213085D01*
X413868Y213189D01*
X413818Y213291D01*
X413765Y213391D01*
X413708Y213489D01*
X413648Y213585D01*
X413585Y213679D01*
X413518Y213770D01*
X413449Y213860D01*
X413376Y213947D01*
X413300Y214031D01*
X413221Y214112D01*
X413140Y214191D01*
X413056Y214267D01*
X412969Y214340D01*
X412880Y214409D01*
X412788Y214476D01*
X412694Y214539D01*
X412598Y214599D01*
X412500Y214656D01*
X412400Y214709D01*
X412298Y214759D01*
X412194Y214805D01*
X412089Y214847D01*
X411983Y214886D01*
X411875Y214921D01*
X411766Y214952D01*
X411656Y214980D01*
X411545Y215003D01*
X411434Y215023D01*
X411322Y215039D01*
X411209Y215051D01*
X411096Y215059D01*
X410983Y215063D01*
X410869Y215063D01*
X410756Y215059D01*
X410643Y215051D01*
X410530Y215039D01*
X410418Y215023D01*
X410307Y215003D01*
X410196Y214980D01*
X410086Y214952D01*
X409977Y214921D01*
X409869Y214886D01*
X409763Y214847D01*
X409658Y214805D01*
X409554Y214759D01*
X409452Y214709D01*
X409352Y214656D01*
X409254Y214599D01*
X409158Y214539D01*
X409064Y214476D01*
X406618Y219102D02*
X403428Y216868D01*
X406618Y219102D02*
X406702Y219158D01*
X406787Y219211D01*
X406875Y219260D01*
X406964Y219306D01*
X407056Y219349D01*
X407149Y219388D01*
X407243Y219423D01*
X407338Y219455D01*
X407435Y219483D01*
X407533Y219507D01*
X407631Y219527D01*
X407731Y219544D01*
X407831Y219556D01*
X407931Y219565D01*
X408032Y219570D01*
X408132Y219571D01*
X408233Y219568D01*
X408333Y219561D01*
X408433Y219550D01*
X408533Y219536D01*
X408632Y219517D01*
X408730Y219495D01*
X408827Y219469D01*
X408924Y219439D01*
X409019Y219406D01*
X409112Y219369D01*
X409204Y219328D01*
X409295Y219283D01*
X409383Y219236D01*
X409470Y219184D01*
X409554Y219130D01*
X409637Y219072D01*
X409717Y219011D01*
X409795Y218947D01*
X409870Y218880D01*
X409943Y218811D01*
X410012Y218738D01*
X410079Y218663D01*
X410143Y218585D01*
X410204Y218505D01*
X410262Y218422D01*
X410316Y218338D01*
X410368Y218251D01*
X410415Y218163D01*
X410460Y218072D01*
X410501Y217980D01*
X410538Y217886D01*
X410571Y217792D01*
X410601Y217695D01*
X410627Y217598D01*
X410649Y217500D01*
X410668Y217401D01*
X410682Y217301D01*
X410693Y217201D01*
X410700Y217101D01*
X410703Y217000D01*
X410702Y216900D01*
X410697Y216799D01*
X410688Y216699D01*
X410676Y216599D01*
X410659Y216499D01*
X410639Y216401D01*
X410615Y216303D01*
X410587Y216206D01*
X410555Y216111D01*
X410520Y216017D01*
X410481Y215924D01*
X410438Y215832D01*
X410392Y215743D01*
X410343Y215655D01*
X410290Y215570D01*
X410234Y215486D01*
X410174Y215405D01*
X410112Y215326D01*
X410046Y215249D01*
X409978Y215175D01*
X409907Y215104D01*
X409833Y215036D01*
X409756Y214970D01*
X409677Y214908D01*
X409596Y214848D01*
X407470Y213359D01*
X412259Y223052D02*
X422151Y215714D01*
X418639Y227519D01*
X428855Y220409D02*
X431514Y222270D01*
X431605Y222337D01*
X431695Y222406D01*
X431782Y222479D01*
X431866Y222555D01*
X431947Y222634D01*
X432026Y222715D01*
X432102Y222799D01*
X432175Y222886D01*
X432244Y222976D01*
X432311Y223067D01*
X432374Y223161D01*
X432434Y223257D01*
X432491Y223355D01*
X432544Y223455D01*
X432594Y223557D01*
X432640Y223661D01*
X432682Y223766D01*
X432721Y223872D01*
X432756Y223980D01*
X432787Y224089D01*
X432815Y224199D01*
X432838Y224310D01*
X432858Y224421D01*
X432874Y224533D01*
X432886Y224646D01*
X432894Y224759D01*
X432898Y224872D01*
X432898Y224986D01*
X432894Y225099D01*
X432886Y225212D01*
X432874Y225325D01*
X432858Y225437D01*
X432838Y225548D01*
X432815Y225659D01*
X432787Y225769D01*
X432756Y225878D01*
X432721Y225986D01*
X432682Y226092D01*
X432640Y226197D01*
X432594Y226301D01*
X432544Y226403D01*
X432491Y226503D01*
X432434Y226601D01*
X432374Y226697D01*
X432311Y226791D01*
X432244Y226882D01*
X432175Y226972D01*
X432102Y227059D01*
X432026Y227143D01*
X431947Y227224D01*
X431866Y227303D01*
X431782Y227379D01*
X431695Y227452D01*
X431606Y227521D01*
X431514Y227588D01*
X431420Y227651D01*
X431324Y227711D01*
X431226Y227768D01*
X431126Y227821D01*
X431024Y227871D01*
X430920Y227917D01*
X430815Y227959D01*
X430709Y227998D01*
X430601Y228033D01*
X430492Y228064D01*
X430382Y228092D01*
X430271Y228115D01*
X430160Y228135D01*
X430048Y228151D01*
X429935Y228163D01*
X429822Y228171D01*
X429709Y228175D01*
X429595Y228175D01*
X429482Y228171D01*
X429369Y228163D01*
X429256Y228151D01*
X429144Y228135D01*
X429033Y228115D01*
X428922Y228092D01*
X428812Y228064D01*
X428703Y228033D01*
X428595Y227998D01*
X428489Y227959D01*
X428384Y227917D01*
X428280Y227871D01*
X428178Y227821D01*
X428078Y227768D01*
X427980Y227711D01*
X427884Y227651D01*
X427790Y227588D01*
X425344Y232214D02*
X422153Y229980D01*
X425344Y232214D02*
X425428Y232270D01*
X425513Y232323D01*
X425601Y232372D01*
X425690Y232418D01*
X425782Y232461D01*
X425875Y232500D01*
X425969Y232535D01*
X426064Y232567D01*
X426161Y232595D01*
X426259Y232619D01*
X426357Y232639D01*
X426457Y232656D01*
X426557Y232668D01*
X426657Y232677D01*
X426758Y232682D01*
X426858Y232683D01*
X426959Y232680D01*
X427059Y232673D01*
X427159Y232662D01*
X427259Y232648D01*
X427358Y232629D01*
X427456Y232607D01*
X427553Y232581D01*
X427650Y232551D01*
X427745Y232518D01*
X427838Y232481D01*
X427930Y232440D01*
X428021Y232395D01*
X428109Y232348D01*
X428196Y232296D01*
X428280Y232242D01*
X428363Y232184D01*
X428443Y232123D01*
X428521Y232059D01*
X428596Y231992D01*
X428669Y231923D01*
X428738Y231850D01*
X428805Y231775D01*
X428869Y231697D01*
X428930Y231617D01*
X428988Y231534D01*
X429042Y231450D01*
X429094Y231363D01*
X429141Y231275D01*
X429186Y231184D01*
X429227Y231092D01*
X429264Y230998D01*
X429297Y230904D01*
X429327Y230807D01*
X429353Y230710D01*
X429375Y230612D01*
X429394Y230513D01*
X429408Y230413D01*
X429419Y230313D01*
X429426Y230213D01*
X429429Y230112D01*
X429428Y230012D01*
X429423Y229911D01*
X429414Y229811D01*
X429402Y229711D01*
X429385Y229611D01*
X429365Y229513D01*
X429341Y229415D01*
X429313Y229318D01*
X429281Y229223D01*
X429246Y229129D01*
X429207Y229036D01*
X429164Y228944D01*
X429118Y228855D01*
X429069Y228767D01*
X429016Y228682D01*
X428960Y228598D01*
X428900Y228517D01*
X428838Y228438D01*
X428772Y228361D01*
X428704Y228287D01*
X428633Y228216D01*
X428559Y228148D01*
X428482Y228082D01*
X428403Y228020D01*
X428322Y227960D01*
X426195Y226471D01*
X260886Y222270D02*
X258228Y224132D01*
X260886Y222270D02*
X260980Y222207D01*
X261076Y222147D01*
X261174Y222090D01*
X261274Y222037D01*
X261376Y221987D01*
X261480Y221941D01*
X261585Y221899D01*
X261691Y221860D01*
X261799Y221825D01*
X261908Y221794D01*
X262018Y221766D01*
X262129Y221743D01*
X262240Y221723D01*
X262352Y221707D01*
X262465Y221695D01*
X262578Y221687D01*
X262691Y221683D01*
X262805Y221683D01*
X262918Y221687D01*
X263031Y221695D01*
X263144Y221707D01*
X263256Y221723D01*
X263367Y221743D01*
X263478Y221766D01*
X263588Y221794D01*
X263697Y221825D01*
X263805Y221860D01*
X263911Y221899D01*
X264016Y221941D01*
X264120Y221987D01*
X264222Y222037D01*
X264322Y222090D01*
X264420Y222147D01*
X264516Y222207D01*
X264610Y222270D01*
X264701Y222337D01*
X264791Y222406D01*
X264878Y222479D01*
X264962Y222555D01*
X265043Y222634D01*
X265122Y222715D01*
X265198Y222799D01*
X265271Y222886D01*
X265340Y222976D01*
X265407Y223067D01*
X265470Y223161D01*
X265530Y223257D01*
X265587Y223355D01*
X265640Y223455D01*
X265690Y223557D01*
X265736Y223661D01*
X265778Y223766D01*
X265817Y223872D01*
X265852Y223980D01*
X265883Y224089D01*
X265911Y224199D01*
X265934Y224310D01*
X265954Y224421D01*
X265970Y224533D01*
X265982Y224646D01*
X265990Y224759D01*
X265994Y224872D01*
X265994Y224986D01*
X265990Y225099D01*
X265982Y225212D01*
X265970Y225325D01*
X265954Y225437D01*
X265934Y225548D01*
X265911Y225659D01*
X265883Y225769D01*
X265852Y225878D01*
X265817Y225986D01*
X265778Y226092D01*
X265736Y226197D01*
X265690Y226301D01*
X265640Y226403D01*
X265587Y226503D01*
X265530Y226601D01*
X265470Y226697D01*
X265407Y226791D01*
X265340Y226882D01*
X265271Y226972D01*
X265198Y227059D01*
X265122Y227143D01*
X265043Y227224D01*
X264962Y227303D01*
X264878Y227379D01*
X264791Y227452D01*
X264702Y227521D01*
X264610Y227588D01*
X268120Y231469D02*
X264929Y233703D01*
X268119Y231469D02*
X268200Y231409D01*
X268279Y231347D01*
X268356Y231281D01*
X268430Y231213D01*
X268501Y231142D01*
X268569Y231068D01*
X268635Y230991D01*
X268697Y230912D01*
X268757Y230831D01*
X268813Y230747D01*
X268866Y230662D01*
X268915Y230574D01*
X268961Y230485D01*
X269004Y230393D01*
X269043Y230300D01*
X269078Y230206D01*
X269110Y230111D01*
X269138Y230014D01*
X269162Y229916D01*
X269182Y229818D01*
X269199Y229718D01*
X269211Y229618D01*
X269220Y229518D01*
X269225Y229418D01*
X269226Y229317D01*
X269223Y229216D01*
X269216Y229116D01*
X269205Y229016D01*
X269191Y228916D01*
X269172Y228817D01*
X269150Y228719D01*
X269124Y228622D01*
X269094Y228525D01*
X269061Y228431D01*
X269024Y228337D01*
X268983Y228245D01*
X268938Y228154D01*
X268891Y228066D01*
X268839Y227979D01*
X268785Y227895D01*
X268727Y227812D01*
X268666Y227732D01*
X268602Y227654D01*
X268535Y227579D01*
X268466Y227506D01*
X268393Y227437D01*
X268318Y227370D01*
X268240Y227306D01*
X268160Y227245D01*
X268077Y227187D01*
X267993Y227133D01*
X267906Y227081D01*
X267818Y227034D01*
X267727Y226989D01*
X267635Y226948D01*
X267541Y226911D01*
X267447Y226878D01*
X267350Y226848D01*
X267253Y226822D01*
X267155Y226800D01*
X267056Y226781D01*
X266956Y226767D01*
X266856Y226756D01*
X266756Y226749D01*
X266655Y226746D01*
X266554Y226747D01*
X266454Y226752D01*
X266354Y226761D01*
X266254Y226773D01*
X266154Y226790D01*
X266056Y226810D01*
X265958Y226834D01*
X265861Y226862D01*
X265766Y226894D01*
X265672Y226929D01*
X265579Y226968D01*
X265487Y227011D01*
X265398Y227057D01*
X265310Y227106D01*
X265225Y227159D01*
X265141Y227215D01*
X263014Y228705D01*
X273760Y227519D02*
X270249Y215714D01*
X280141Y223052D01*
X276953Y211020D02*
X279612Y209158D01*
X279706Y209095D01*
X279802Y209035D01*
X279900Y208978D01*
X280000Y208925D01*
X280102Y208875D01*
X280206Y208829D01*
X280311Y208787D01*
X280417Y208748D01*
X280525Y208713D01*
X280634Y208682D01*
X280744Y208654D01*
X280855Y208631D01*
X280966Y208611D01*
X281078Y208595D01*
X281191Y208583D01*
X281304Y208575D01*
X281417Y208571D01*
X281531Y208571D01*
X281644Y208575D01*
X281757Y208583D01*
X281870Y208595D01*
X281982Y208611D01*
X282093Y208631D01*
X282204Y208654D01*
X282314Y208682D01*
X282423Y208713D01*
X282531Y208748D01*
X282637Y208787D01*
X282742Y208829D01*
X282846Y208875D01*
X282948Y208925D01*
X283048Y208978D01*
X283146Y209035D01*
X283242Y209095D01*
X283336Y209158D01*
X283427Y209225D01*
X283517Y209294D01*
X283604Y209367D01*
X283688Y209443D01*
X283769Y209522D01*
X283848Y209603D01*
X283924Y209687D01*
X283997Y209774D01*
X284066Y209864D01*
X284133Y209955D01*
X284196Y210049D01*
X284256Y210145D01*
X284313Y210243D01*
X284366Y210343D01*
X284416Y210445D01*
X284462Y210549D01*
X284504Y210654D01*
X284543Y210760D01*
X284578Y210868D01*
X284609Y210977D01*
X284637Y211087D01*
X284660Y211198D01*
X284680Y211309D01*
X284696Y211421D01*
X284708Y211534D01*
X284716Y211647D01*
X284720Y211760D01*
X284720Y211874D01*
X284716Y211987D01*
X284708Y212100D01*
X284696Y212213D01*
X284680Y212325D01*
X284660Y212436D01*
X284637Y212547D01*
X284609Y212657D01*
X284578Y212766D01*
X284543Y212874D01*
X284504Y212980D01*
X284462Y213085D01*
X284416Y213189D01*
X284366Y213291D01*
X284313Y213391D01*
X284256Y213489D01*
X284196Y213585D01*
X284133Y213679D01*
X284066Y213770D01*
X283997Y213860D01*
X283924Y213947D01*
X283848Y214031D01*
X283769Y214112D01*
X283688Y214191D01*
X283604Y214267D01*
X283517Y214340D01*
X283428Y214409D01*
X283336Y214476D01*
X286845Y218357D02*
X283655Y220591D01*
X286845Y218357D02*
X286926Y218297D01*
X287005Y218235D01*
X287082Y218169D01*
X287156Y218101D01*
X287227Y218030D01*
X287295Y217956D01*
X287361Y217879D01*
X287423Y217800D01*
X287483Y217719D01*
X287539Y217635D01*
X287592Y217550D01*
X287641Y217462D01*
X287687Y217373D01*
X287730Y217281D01*
X287769Y217188D01*
X287804Y217094D01*
X287836Y216999D01*
X287864Y216902D01*
X287888Y216804D01*
X287908Y216706D01*
X287925Y216606D01*
X287937Y216506D01*
X287946Y216406D01*
X287951Y216306D01*
X287952Y216205D01*
X287949Y216104D01*
X287942Y216004D01*
X287931Y215904D01*
X287917Y215804D01*
X287898Y215705D01*
X287876Y215607D01*
X287850Y215510D01*
X287820Y215413D01*
X287787Y215319D01*
X287750Y215225D01*
X287709Y215133D01*
X287664Y215042D01*
X287617Y214954D01*
X287565Y214867D01*
X287511Y214783D01*
X287453Y214700D01*
X287392Y214620D01*
X287328Y214542D01*
X287261Y214467D01*
X287192Y214394D01*
X287119Y214325D01*
X287044Y214258D01*
X286966Y214194D01*
X286886Y214133D01*
X286803Y214075D01*
X286719Y214021D01*
X286632Y213969D01*
X286544Y213922D01*
X286453Y213877D01*
X286361Y213836D01*
X286267Y213799D01*
X286173Y213766D01*
X286076Y213736D01*
X285979Y213710D01*
X285881Y213688D01*
X285782Y213669D01*
X285682Y213655D01*
X285582Y213644D01*
X285482Y213637D01*
X285381Y213634D01*
X285280Y213635D01*
X285180Y213640D01*
X285080Y213649D01*
X284980Y213661D01*
X284880Y213678D01*
X284782Y213698D01*
X284684Y213722D01*
X284587Y213750D01*
X284492Y213782D01*
X284398Y213817D01*
X284305Y213856D01*
X284213Y213899D01*
X284124Y213945D01*
X284036Y213994D01*
X283951Y214047D01*
X283867Y214103D01*
X281740Y215593D01*
X206842Y331524D02*
X206842Y334770D01*
X206840Y334883D01*
X206834Y334996D01*
X206824Y335109D01*
X206810Y335222D01*
X206793Y335334D01*
X206771Y335445D01*
X206746Y335555D01*
X206716Y335665D01*
X206683Y335773D01*
X206646Y335880D01*
X206606Y335986D01*
X206561Y336090D01*
X206513Y336193D01*
X206462Y336294D01*
X206407Y336393D01*
X206349Y336490D01*
X206287Y336585D01*
X206222Y336678D01*
X206154Y336768D01*
X206083Y336856D01*
X206008Y336942D01*
X205931Y337025D01*
X205851Y337105D01*
X205768Y337182D01*
X205682Y337257D01*
X205594Y337328D01*
X205504Y337396D01*
X205411Y337461D01*
X205316Y337523D01*
X205219Y337581D01*
X205120Y337636D01*
X205019Y337687D01*
X204916Y337735D01*
X204812Y337780D01*
X204706Y337820D01*
X204599Y337857D01*
X204491Y337890D01*
X204381Y337920D01*
X204271Y337945D01*
X204160Y337967D01*
X204048Y337984D01*
X203935Y337998D01*
X203822Y338008D01*
X203709Y338014D01*
X203596Y338016D01*
X203483Y338014D01*
X203370Y338008D01*
X203257Y337998D01*
X203144Y337984D01*
X203032Y337967D01*
X202921Y337945D01*
X202811Y337920D01*
X202701Y337890D01*
X202593Y337857D01*
X202486Y337820D01*
X202380Y337780D01*
X202276Y337735D01*
X202173Y337687D01*
X202072Y337636D01*
X201973Y337581D01*
X201876Y337523D01*
X201781Y337461D01*
X201688Y337396D01*
X201598Y337328D01*
X201510Y337257D01*
X201424Y337182D01*
X201341Y337105D01*
X201261Y337025D01*
X201184Y336942D01*
X201109Y336856D01*
X201038Y336768D01*
X200970Y336678D01*
X200905Y336585D01*
X200843Y336490D01*
X200785Y336393D01*
X200730Y336294D01*
X200679Y336193D01*
X200631Y336090D01*
X200586Y335986D01*
X200546Y335880D01*
X200509Y335773D01*
X200476Y335665D01*
X200446Y335555D01*
X200421Y335445D01*
X200399Y335334D01*
X200382Y335222D01*
X200368Y335109D01*
X200358Y334996D01*
X200352Y334883D01*
X200350Y334770D01*
X195158Y335419D02*
X195158Y331524D01*
X195158Y335419D02*
X195160Y335520D01*
X195166Y335620D01*
X195176Y335720D01*
X195189Y335820D01*
X195207Y335919D01*
X195228Y336018D01*
X195253Y336115D01*
X195282Y336212D01*
X195315Y336307D01*
X195351Y336401D01*
X195391Y336493D01*
X195434Y336584D01*
X195481Y336673D01*
X195531Y336760D01*
X195585Y336846D01*
X195642Y336929D01*
X195702Y337009D01*
X195765Y337088D01*
X195832Y337164D01*
X195901Y337237D01*
X195973Y337307D01*
X196047Y337375D01*
X196124Y337440D01*
X196204Y337501D01*
X196286Y337560D01*
X196370Y337615D01*
X196456Y337667D01*
X196544Y337716D01*
X196634Y337761D01*
X196726Y337803D01*
X196819Y337841D01*
X196914Y337875D01*
X197009Y337906D01*
X197106Y337933D01*
X197204Y337956D01*
X197303Y337976D01*
X197403Y337991D01*
X197503Y338003D01*
X197603Y338011D01*
X197704Y338015D01*
X197804Y338015D01*
X197905Y338011D01*
X198005Y338003D01*
X198105Y337991D01*
X198205Y337976D01*
X198304Y337956D01*
X198402Y337933D01*
X198499Y337906D01*
X198594Y337875D01*
X198689Y337841D01*
X198782Y337803D01*
X198874Y337761D01*
X198964Y337716D01*
X199052Y337667D01*
X199138Y337615D01*
X199222Y337560D01*
X199304Y337501D01*
X199384Y337440D01*
X199461Y337375D01*
X199535Y337307D01*
X199607Y337237D01*
X199676Y337164D01*
X199743Y337088D01*
X199806Y337009D01*
X199866Y336929D01*
X199923Y336846D01*
X199977Y336760D01*
X200027Y336673D01*
X200074Y336584D01*
X200117Y336493D01*
X200157Y336401D01*
X200193Y336307D01*
X200226Y336212D01*
X200255Y336115D01*
X200280Y336018D01*
X200301Y335919D01*
X200319Y335820D01*
X200332Y335720D01*
X200342Y335620D01*
X200348Y335520D01*
X200350Y335419D01*
X200351Y335419D02*
X200351Y332823D01*
X195158Y342305D02*
X206842Y346200D01*
X195158Y350095D01*
X206842Y354384D02*
X206842Y357630D01*
X206840Y357743D01*
X206834Y357856D01*
X206824Y357969D01*
X206810Y358082D01*
X206793Y358194D01*
X206771Y358305D01*
X206746Y358415D01*
X206716Y358525D01*
X206683Y358633D01*
X206646Y358740D01*
X206606Y358846D01*
X206561Y358950D01*
X206513Y359053D01*
X206462Y359154D01*
X206407Y359253D01*
X206349Y359350D01*
X206287Y359445D01*
X206222Y359538D01*
X206154Y359628D01*
X206083Y359716D01*
X206008Y359802D01*
X205931Y359885D01*
X205851Y359965D01*
X205768Y360042D01*
X205682Y360117D01*
X205594Y360188D01*
X205504Y360256D01*
X205411Y360321D01*
X205316Y360383D01*
X205219Y360441D01*
X205120Y360496D01*
X205019Y360547D01*
X204916Y360595D01*
X204812Y360640D01*
X204706Y360680D01*
X204599Y360717D01*
X204491Y360750D01*
X204381Y360780D01*
X204271Y360805D01*
X204160Y360827D01*
X204048Y360844D01*
X203935Y360858D01*
X203822Y360868D01*
X203709Y360874D01*
X203596Y360876D01*
X203483Y360874D01*
X203370Y360868D01*
X203257Y360858D01*
X203144Y360844D01*
X203032Y360827D01*
X202921Y360805D01*
X202811Y360780D01*
X202701Y360750D01*
X202593Y360717D01*
X202486Y360680D01*
X202380Y360640D01*
X202276Y360595D01*
X202173Y360547D01*
X202072Y360496D01*
X201973Y360441D01*
X201876Y360383D01*
X201781Y360321D01*
X201688Y360256D01*
X201598Y360188D01*
X201510Y360117D01*
X201424Y360042D01*
X201341Y359965D01*
X201261Y359885D01*
X201184Y359802D01*
X201109Y359716D01*
X201038Y359628D01*
X200970Y359538D01*
X200905Y359445D01*
X200843Y359350D01*
X200785Y359253D01*
X200730Y359154D01*
X200679Y359053D01*
X200631Y358950D01*
X200586Y358846D01*
X200546Y358740D01*
X200509Y358633D01*
X200476Y358525D01*
X200446Y358415D01*
X200421Y358305D01*
X200399Y358194D01*
X200382Y358082D01*
X200368Y357969D01*
X200358Y357856D01*
X200352Y357743D01*
X200350Y357630D01*
X195158Y358279D02*
X195158Y354384D01*
X195158Y358279D02*
X195160Y358380D01*
X195166Y358480D01*
X195176Y358580D01*
X195189Y358680D01*
X195207Y358779D01*
X195228Y358878D01*
X195253Y358975D01*
X195282Y359072D01*
X195315Y359167D01*
X195351Y359261D01*
X195391Y359353D01*
X195434Y359444D01*
X195481Y359533D01*
X195531Y359620D01*
X195585Y359706D01*
X195642Y359789D01*
X195702Y359869D01*
X195765Y359948D01*
X195832Y360024D01*
X195901Y360097D01*
X195973Y360167D01*
X196047Y360235D01*
X196124Y360300D01*
X196204Y360361D01*
X196286Y360420D01*
X196370Y360475D01*
X196456Y360527D01*
X196544Y360576D01*
X196634Y360621D01*
X196726Y360663D01*
X196819Y360701D01*
X196914Y360735D01*
X197009Y360766D01*
X197106Y360793D01*
X197204Y360816D01*
X197303Y360836D01*
X197403Y360851D01*
X197503Y360863D01*
X197603Y360871D01*
X197704Y360875D01*
X197804Y360875D01*
X197905Y360871D01*
X198005Y360863D01*
X198105Y360851D01*
X198205Y360836D01*
X198304Y360816D01*
X198402Y360793D01*
X198499Y360766D01*
X198594Y360735D01*
X198689Y360701D01*
X198782Y360663D01*
X198874Y360621D01*
X198964Y360576D01*
X199052Y360527D01*
X199138Y360475D01*
X199222Y360420D01*
X199304Y360361D01*
X199384Y360300D01*
X199461Y360235D01*
X199535Y360167D01*
X199607Y360097D01*
X199676Y360024D01*
X199743Y359948D01*
X199806Y359869D01*
X199866Y359789D01*
X199923Y359706D01*
X199977Y359620D01*
X200027Y359533D01*
X200074Y359444D01*
X200117Y359353D01*
X200157Y359261D01*
X200193Y359167D01*
X200226Y359072D01*
X200255Y358975D01*
X200280Y358878D01*
X200301Y358779D01*
X200319Y358680D01*
X200332Y358580D01*
X200342Y358480D01*
X200348Y358380D01*
X200350Y358279D01*
X200351Y358279D02*
X200351Y355683D01*
X264929Y458697D02*
X267588Y460559D01*
X267588Y460558D02*
X267679Y460625D01*
X267769Y460694D01*
X267856Y460767D01*
X267940Y460843D01*
X268021Y460922D01*
X268100Y461003D01*
X268176Y461087D01*
X268249Y461174D01*
X268318Y461264D01*
X268385Y461355D01*
X268448Y461449D01*
X268508Y461545D01*
X268565Y461643D01*
X268618Y461743D01*
X268668Y461845D01*
X268714Y461949D01*
X268756Y462054D01*
X268795Y462160D01*
X268830Y462268D01*
X268861Y462377D01*
X268889Y462487D01*
X268912Y462598D01*
X268932Y462709D01*
X268948Y462821D01*
X268960Y462934D01*
X268968Y463047D01*
X268972Y463160D01*
X268972Y463274D01*
X268968Y463387D01*
X268960Y463500D01*
X268948Y463613D01*
X268932Y463725D01*
X268912Y463836D01*
X268889Y463947D01*
X268861Y464057D01*
X268830Y464166D01*
X268795Y464274D01*
X268756Y464380D01*
X268714Y464485D01*
X268668Y464589D01*
X268618Y464691D01*
X268565Y464791D01*
X268508Y464889D01*
X268448Y464985D01*
X268385Y465079D01*
X268318Y465170D01*
X268249Y465260D01*
X268176Y465347D01*
X268100Y465431D01*
X268021Y465512D01*
X267940Y465591D01*
X267856Y465667D01*
X267769Y465740D01*
X267680Y465809D01*
X267588Y465876D01*
X267494Y465939D01*
X267398Y465999D01*
X267300Y466056D01*
X267200Y466109D01*
X267098Y466159D01*
X266994Y466205D01*
X266889Y466247D01*
X266783Y466286D01*
X266675Y466321D01*
X266566Y466352D01*
X266456Y466380D01*
X266345Y466403D01*
X266234Y466423D01*
X266122Y466439D01*
X266009Y466451D01*
X265896Y466459D01*
X265783Y466463D01*
X265669Y466463D01*
X265556Y466459D01*
X265443Y466451D01*
X265330Y466439D01*
X265218Y466423D01*
X265107Y466403D01*
X264996Y466380D01*
X264886Y466352D01*
X264777Y466321D01*
X264669Y466286D01*
X264563Y466247D01*
X264458Y466205D01*
X264354Y466159D01*
X264252Y466109D01*
X264152Y466056D01*
X264054Y465999D01*
X263958Y465939D01*
X263864Y465876D01*
X261418Y470502D02*
X258228Y468268D01*
X261418Y470502D02*
X261502Y470558D01*
X261587Y470611D01*
X261675Y470660D01*
X261764Y470706D01*
X261856Y470749D01*
X261949Y470788D01*
X262043Y470823D01*
X262138Y470855D01*
X262235Y470883D01*
X262333Y470907D01*
X262431Y470927D01*
X262531Y470944D01*
X262631Y470956D01*
X262731Y470965D01*
X262832Y470970D01*
X262932Y470971D01*
X263033Y470968D01*
X263133Y470961D01*
X263233Y470950D01*
X263333Y470936D01*
X263432Y470917D01*
X263530Y470895D01*
X263627Y470869D01*
X263724Y470839D01*
X263819Y470806D01*
X263912Y470769D01*
X264004Y470728D01*
X264095Y470683D01*
X264183Y470636D01*
X264270Y470584D01*
X264354Y470530D01*
X264437Y470472D01*
X264517Y470411D01*
X264595Y470347D01*
X264670Y470280D01*
X264743Y470211D01*
X264812Y470138D01*
X264879Y470063D01*
X264943Y469985D01*
X265004Y469905D01*
X265062Y469822D01*
X265116Y469738D01*
X265168Y469651D01*
X265215Y469563D01*
X265260Y469472D01*
X265301Y469380D01*
X265338Y469286D01*
X265371Y469192D01*
X265401Y469095D01*
X265427Y468998D01*
X265449Y468900D01*
X265468Y468801D01*
X265482Y468701D01*
X265493Y468601D01*
X265500Y468501D01*
X265503Y468400D01*
X265502Y468300D01*
X265497Y468199D01*
X265488Y468099D01*
X265476Y467999D01*
X265459Y467899D01*
X265439Y467801D01*
X265415Y467703D01*
X265387Y467606D01*
X265355Y467511D01*
X265320Y467417D01*
X265281Y467324D01*
X265238Y467232D01*
X265192Y467143D01*
X265143Y467055D01*
X265090Y466970D01*
X265034Y466886D01*
X264974Y466805D01*
X264912Y466726D01*
X264846Y466649D01*
X264778Y466575D01*
X264707Y466504D01*
X264633Y466436D01*
X264556Y466370D01*
X264477Y466308D01*
X264396Y466248D01*
X262270Y464759D01*
X267059Y474452D02*
X276951Y467114D01*
X273439Y478919D01*
X283655Y471809D02*
X286314Y473670D01*
X286405Y473737D01*
X286495Y473806D01*
X286582Y473879D01*
X286666Y473955D01*
X286747Y474034D01*
X286826Y474115D01*
X286902Y474199D01*
X286975Y474286D01*
X287044Y474376D01*
X287111Y474467D01*
X287174Y474561D01*
X287234Y474657D01*
X287291Y474755D01*
X287344Y474855D01*
X287394Y474957D01*
X287440Y475061D01*
X287482Y475166D01*
X287521Y475272D01*
X287556Y475380D01*
X287587Y475489D01*
X287615Y475599D01*
X287638Y475710D01*
X287658Y475821D01*
X287674Y475933D01*
X287686Y476046D01*
X287694Y476159D01*
X287698Y476272D01*
X287698Y476386D01*
X287694Y476499D01*
X287686Y476612D01*
X287674Y476725D01*
X287658Y476837D01*
X287638Y476948D01*
X287615Y477059D01*
X287587Y477169D01*
X287556Y477278D01*
X287521Y477386D01*
X287482Y477492D01*
X287440Y477597D01*
X287394Y477701D01*
X287344Y477803D01*
X287291Y477903D01*
X287234Y478001D01*
X287174Y478097D01*
X287111Y478191D01*
X287044Y478282D01*
X286975Y478372D01*
X286902Y478459D01*
X286826Y478543D01*
X286747Y478624D01*
X286666Y478703D01*
X286582Y478779D01*
X286495Y478852D01*
X286406Y478921D01*
X286314Y478988D01*
X286220Y479051D01*
X286124Y479111D01*
X286026Y479168D01*
X285926Y479221D01*
X285824Y479271D01*
X285720Y479317D01*
X285615Y479359D01*
X285509Y479398D01*
X285401Y479433D01*
X285292Y479464D01*
X285182Y479492D01*
X285071Y479515D01*
X284960Y479535D01*
X284848Y479551D01*
X284735Y479563D01*
X284622Y479571D01*
X284509Y479575D01*
X284395Y479575D01*
X284282Y479571D01*
X284169Y479563D01*
X284056Y479551D01*
X283944Y479535D01*
X283833Y479515D01*
X283722Y479492D01*
X283612Y479464D01*
X283503Y479433D01*
X283395Y479398D01*
X283289Y479359D01*
X283184Y479317D01*
X283080Y479271D01*
X282978Y479221D01*
X282878Y479168D01*
X282780Y479111D01*
X282684Y479051D01*
X282590Y478988D01*
X280144Y483614D02*
X276953Y481380D01*
X280144Y483614D02*
X280228Y483670D01*
X280313Y483723D01*
X280401Y483772D01*
X280490Y483818D01*
X280582Y483861D01*
X280675Y483900D01*
X280769Y483935D01*
X280864Y483967D01*
X280961Y483995D01*
X281059Y484019D01*
X281157Y484039D01*
X281257Y484056D01*
X281357Y484068D01*
X281457Y484077D01*
X281558Y484082D01*
X281658Y484083D01*
X281759Y484080D01*
X281859Y484073D01*
X281959Y484062D01*
X282059Y484048D01*
X282158Y484029D01*
X282256Y484007D01*
X282353Y483981D01*
X282450Y483951D01*
X282545Y483918D01*
X282638Y483881D01*
X282730Y483840D01*
X282821Y483795D01*
X282909Y483748D01*
X282996Y483696D01*
X283080Y483642D01*
X283163Y483584D01*
X283243Y483523D01*
X283321Y483459D01*
X283396Y483392D01*
X283469Y483323D01*
X283538Y483250D01*
X283605Y483175D01*
X283669Y483097D01*
X283730Y483017D01*
X283788Y482934D01*
X283842Y482850D01*
X283894Y482763D01*
X283941Y482675D01*
X283986Y482584D01*
X284027Y482492D01*
X284064Y482398D01*
X284097Y482304D01*
X284127Y482207D01*
X284153Y482110D01*
X284175Y482012D01*
X284194Y481913D01*
X284208Y481813D01*
X284219Y481713D01*
X284226Y481613D01*
X284229Y481512D01*
X284228Y481412D01*
X284223Y481311D01*
X284214Y481211D01*
X284202Y481111D01*
X284185Y481011D01*
X284165Y480913D01*
X284141Y480815D01*
X284113Y480718D01*
X284081Y480623D01*
X284046Y480529D01*
X284007Y480436D01*
X283964Y480344D01*
X283918Y480255D01*
X283869Y480167D01*
X283816Y480082D01*
X283760Y479998D01*
X283700Y479917D01*
X283638Y479838D01*
X283572Y479761D01*
X283504Y479687D01*
X283433Y479616D01*
X283359Y479548D01*
X283282Y479482D01*
X283203Y479420D01*
X283122Y479360D01*
X280995Y477871D01*
D11*
X430394Y416970D02*
X430394Y399190D01*
X430394Y416970D02*
X435333Y416970D01*
X435473Y416968D01*
X435612Y416962D01*
X435752Y416952D01*
X435891Y416938D01*
X436030Y416921D01*
X436168Y416899D01*
X436305Y416873D01*
X436442Y416844D01*
X436578Y416811D01*
X436712Y416774D01*
X436846Y416733D01*
X436978Y416688D01*
X437110Y416639D01*
X437239Y416587D01*
X437367Y416532D01*
X437494Y416472D01*
X437619Y416409D01*
X437742Y416343D01*
X437863Y416273D01*
X437982Y416200D01*
X438099Y416123D01*
X438213Y416043D01*
X438326Y415960D01*
X438436Y415874D01*
X438543Y415784D01*
X438648Y415692D01*
X438750Y415597D01*
X438850Y415499D01*
X438947Y415398D01*
X439041Y415294D01*
X439131Y415188D01*
X439219Y415079D01*
X439304Y414968D01*
X439385Y414854D01*
X439464Y414739D01*
X439539Y414621D01*
X439610Y414501D01*
X439678Y414378D01*
X439743Y414255D01*
X439804Y414129D01*
X439862Y414001D01*
X439916Y413873D01*
X439966Y413742D01*
X440013Y413610D01*
X440056Y413477D01*
X440095Y413343D01*
X440130Y413208D01*
X440161Y413072D01*
X440189Y412934D01*
X440212Y412797D01*
X440232Y412658D01*
X440248Y412519D01*
X440260Y412380D01*
X440268Y412241D01*
X440272Y412101D01*
X440272Y411961D01*
X440268Y411821D01*
X440260Y411682D01*
X440248Y411543D01*
X440232Y411404D01*
X440212Y411265D01*
X440189Y411128D01*
X440161Y410990D01*
X440130Y410854D01*
X440095Y410719D01*
X440056Y410585D01*
X440013Y410452D01*
X439966Y410320D01*
X439916Y410189D01*
X439862Y410061D01*
X439804Y409933D01*
X439743Y409807D01*
X439678Y409684D01*
X439610Y409562D01*
X439539Y409441D01*
X439464Y409323D01*
X439385Y409208D01*
X439304Y409094D01*
X439219Y408983D01*
X439131Y408874D01*
X439041Y408768D01*
X438947Y408664D01*
X438850Y408563D01*
X438750Y408465D01*
X438648Y408370D01*
X438543Y408278D01*
X438436Y408188D01*
X438326Y408102D01*
X438213Y408019D01*
X438099Y407939D01*
X437982Y407862D01*
X437863Y407789D01*
X437742Y407719D01*
X437619Y407653D01*
X437494Y407590D01*
X437367Y407530D01*
X437239Y407475D01*
X437110Y407423D01*
X436978Y407374D01*
X436846Y407329D01*
X436712Y407288D01*
X436578Y407251D01*
X436442Y407218D01*
X436305Y407189D01*
X436168Y407163D01*
X436030Y407141D01*
X435891Y407124D01*
X435752Y407110D01*
X435612Y407100D01*
X435473Y407094D01*
X435333Y407092D01*
X430394Y407092D01*
X446389Y413019D02*
X451328Y416970D01*
X451328Y399190D01*
X456266Y399190D02*
X446389Y399190D01*
X417682Y302100D02*
X417682Y284320D01*
X417682Y302100D02*
X422621Y302100D01*
X422761Y302098D01*
X422900Y302092D01*
X423040Y302082D01*
X423179Y302068D01*
X423318Y302051D01*
X423456Y302029D01*
X423593Y302003D01*
X423730Y301974D01*
X423866Y301941D01*
X424000Y301904D01*
X424134Y301863D01*
X424266Y301818D01*
X424398Y301769D01*
X424527Y301717D01*
X424655Y301662D01*
X424782Y301602D01*
X424907Y301539D01*
X425030Y301473D01*
X425151Y301403D01*
X425270Y301330D01*
X425387Y301253D01*
X425501Y301173D01*
X425614Y301090D01*
X425724Y301004D01*
X425831Y300914D01*
X425936Y300822D01*
X426038Y300727D01*
X426138Y300629D01*
X426235Y300528D01*
X426329Y300424D01*
X426419Y300318D01*
X426507Y300209D01*
X426592Y300098D01*
X426673Y299984D01*
X426752Y299869D01*
X426827Y299751D01*
X426898Y299631D01*
X426966Y299508D01*
X427031Y299385D01*
X427092Y299259D01*
X427150Y299131D01*
X427204Y299003D01*
X427254Y298872D01*
X427301Y298740D01*
X427344Y298607D01*
X427383Y298473D01*
X427418Y298338D01*
X427449Y298202D01*
X427477Y298064D01*
X427500Y297927D01*
X427520Y297788D01*
X427536Y297649D01*
X427548Y297510D01*
X427556Y297371D01*
X427560Y297231D01*
X427560Y297091D01*
X427556Y296951D01*
X427548Y296812D01*
X427536Y296673D01*
X427520Y296534D01*
X427500Y296395D01*
X427477Y296258D01*
X427449Y296120D01*
X427418Y295984D01*
X427383Y295849D01*
X427344Y295715D01*
X427301Y295582D01*
X427254Y295450D01*
X427204Y295319D01*
X427150Y295191D01*
X427092Y295063D01*
X427031Y294937D01*
X426966Y294814D01*
X426898Y294692D01*
X426827Y294571D01*
X426752Y294453D01*
X426673Y294338D01*
X426592Y294224D01*
X426507Y294113D01*
X426419Y294004D01*
X426329Y293898D01*
X426235Y293794D01*
X426138Y293693D01*
X426038Y293595D01*
X425936Y293500D01*
X425831Y293408D01*
X425724Y293318D01*
X425614Y293232D01*
X425501Y293149D01*
X425387Y293069D01*
X425270Y292992D01*
X425151Y292919D01*
X425030Y292849D01*
X424907Y292783D01*
X424782Y292720D01*
X424655Y292660D01*
X424527Y292605D01*
X424398Y292553D01*
X424266Y292504D01*
X424134Y292459D01*
X424000Y292418D01*
X423866Y292381D01*
X423730Y292348D01*
X423593Y292319D01*
X423456Y292293D01*
X423318Y292271D01*
X423179Y292254D01*
X423040Y292240D01*
X422900Y292230D01*
X422761Y292224D01*
X422621Y292222D01*
X417682Y292222D01*
X439110Y302100D02*
X439242Y302098D01*
X439373Y302092D01*
X439505Y302082D01*
X439636Y302069D01*
X439766Y302051D01*
X439896Y302030D01*
X440026Y302005D01*
X440154Y301976D01*
X440282Y301943D01*
X440408Y301906D01*
X440534Y301866D01*
X440658Y301822D01*
X440781Y301774D01*
X440902Y301723D01*
X441022Y301668D01*
X441140Y301610D01*
X441256Y301548D01*
X441370Y301482D01*
X441483Y301414D01*
X441593Y301342D01*
X441701Y301267D01*
X441807Y301188D01*
X441911Y301107D01*
X442012Y301022D01*
X442110Y300935D01*
X442206Y300844D01*
X442299Y300751D01*
X442390Y300655D01*
X442477Y300557D01*
X442562Y300456D01*
X442643Y300352D01*
X442722Y300246D01*
X442797Y300138D01*
X442869Y300028D01*
X442937Y299915D01*
X443003Y299801D01*
X443065Y299685D01*
X443123Y299567D01*
X443178Y299447D01*
X443229Y299326D01*
X443277Y299203D01*
X443321Y299079D01*
X443361Y298953D01*
X443398Y298827D01*
X443431Y298699D01*
X443460Y298571D01*
X443485Y298441D01*
X443506Y298311D01*
X443524Y298181D01*
X443537Y298050D01*
X443547Y297918D01*
X443553Y297787D01*
X443555Y297655D01*
X439110Y302100D02*
X438960Y302098D01*
X438811Y302092D01*
X438662Y302082D01*
X438513Y302069D01*
X438364Y302051D01*
X438216Y302030D01*
X438068Y302004D01*
X437922Y301975D01*
X437776Y301942D01*
X437631Y301905D01*
X437487Y301864D01*
X437344Y301820D01*
X437202Y301772D01*
X437062Y301720D01*
X436923Y301665D01*
X436785Y301606D01*
X436650Y301543D01*
X436515Y301477D01*
X436383Y301407D01*
X436253Y301334D01*
X436124Y301257D01*
X435997Y301177D01*
X435873Y301094D01*
X435751Y301008D01*
X435631Y300918D01*
X435514Y300825D01*
X435399Y300730D01*
X435286Y300631D01*
X435176Y300529D01*
X435069Y300425D01*
X434965Y300318D01*
X434863Y300208D01*
X434765Y300095D01*
X434669Y299980D01*
X434577Y299862D01*
X434487Y299742D01*
X434401Y299620D01*
X434318Y299496D01*
X434238Y299369D01*
X434162Y299241D01*
X434089Y299110D01*
X434019Y298977D01*
X433953Y298843D01*
X433891Y298707D01*
X433832Y298570D01*
X433776Y298431D01*
X433725Y298290D01*
X433677Y298149D01*
X442073Y294198D02*
X442169Y294291D01*
X442261Y294387D01*
X442351Y294486D01*
X442438Y294587D01*
X442523Y294690D01*
X442604Y294795D01*
X442682Y294903D01*
X442757Y295013D01*
X442830Y295125D01*
X442899Y295239D01*
X442965Y295355D01*
X443027Y295473D01*
X443086Y295592D01*
X443142Y295713D01*
X443195Y295836D01*
X443244Y295960D01*
X443289Y296085D01*
X443332Y296212D01*
X443370Y296339D01*
X443405Y296468D01*
X443436Y296597D01*
X443464Y296728D01*
X443488Y296859D01*
X443509Y296991D01*
X443525Y297123D01*
X443538Y297256D01*
X443548Y297389D01*
X443553Y297522D01*
X443555Y297655D01*
X442073Y294198D02*
X433677Y284320D01*
X443555Y284320D01*
X455925Y291234D02*
X455925Y297161D01*
X455925Y291234D02*
X459382Y286789D01*
X455925Y291234D02*
X452468Y286789D01*
X455925Y291234D02*
X461358Y293210D01*
X455925Y291234D02*
X450492Y293210D01*
X233594Y284320D02*
X233594Y302100D01*
X238533Y302100D01*
X238673Y302098D01*
X238812Y302092D01*
X238952Y302082D01*
X239091Y302068D01*
X239230Y302051D01*
X239368Y302029D01*
X239505Y302003D01*
X239642Y301974D01*
X239778Y301941D01*
X239912Y301904D01*
X240046Y301863D01*
X240178Y301818D01*
X240310Y301769D01*
X240439Y301717D01*
X240567Y301662D01*
X240694Y301602D01*
X240819Y301539D01*
X240942Y301473D01*
X241063Y301403D01*
X241182Y301330D01*
X241299Y301253D01*
X241413Y301173D01*
X241526Y301090D01*
X241636Y301004D01*
X241743Y300914D01*
X241848Y300822D01*
X241950Y300727D01*
X242050Y300629D01*
X242147Y300528D01*
X242241Y300424D01*
X242331Y300318D01*
X242419Y300209D01*
X242504Y300098D01*
X242585Y299984D01*
X242664Y299869D01*
X242739Y299751D01*
X242810Y299631D01*
X242878Y299508D01*
X242943Y299385D01*
X243004Y299259D01*
X243062Y299131D01*
X243116Y299003D01*
X243166Y298872D01*
X243213Y298740D01*
X243256Y298607D01*
X243295Y298473D01*
X243330Y298338D01*
X243361Y298202D01*
X243389Y298064D01*
X243412Y297927D01*
X243432Y297788D01*
X243448Y297649D01*
X243460Y297510D01*
X243468Y297371D01*
X243472Y297231D01*
X243472Y297091D01*
X243468Y296951D01*
X243460Y296812D01*
X243448Y296673D01*
X243432Y296534D01*
X243412Y296395D01*
X243389Y296258D01*
X243361Y296120D01*
X243330Y295984D01*
X243295Y295849D01*
X243256Y295715D01*
X243213Y295582D01*
X243166Y295450D01*
X243116Y295319D01*
X243062Y295191D01*
X243004Y295063D01*
X242943Y294937D01*
X242878Y294814D01*
X242810Y294692D01*
X242739Y294571D01*
X242664Y294453D01*
X242585Y294338D01*
X242504Y294224D01*
X242419Y294113D01*
X242331Y294004D01*
X242241Y293898D01*
X242147Y293794D01*
X242050Y293693D01*
X241950Y293595D01*
X241848Y293500D01*
X241743Y293408D01*
X241636Y293318D01*
X241526Y293232D01*
X241413Y293149D01*
X241299Y293069D01*
X241182Y292992D01*
X241063Y292919D01*
X240942Y292849D01*
X240819Y292783D01*
X240694Y292720D01*
X240567Y292660D01*
X240439Y292605D01*
X240310Y292553D01*
X240178Y292504D01*
X240046Y292459D01*
X239912Y292418D01*
X239778Y292381D01*
X239642Y292348D01*
X239505Y292319D01*
X239368Y292293D01*
X239230Y292271D01*
X239091Y292254D01*
X238952Y292240D01*
X238812Y292230D01*
X238673Y292224D01*
X238533Y292222D01*
X233594Y292222D01*
X249589Y284320D02*
X254528Y284320D01*
X254668Y284322D01*
X254807Y284328D01*
X254947Y284338D01*
X255086Y284352D01*
X255225Y284369D01*
X255363Y284391D01*
X255500Y284417D01*
X255637Y284446D01*
X255773Y284479D01*
X255907Y284516D01*
X256041Y284557D01*
X256173Y284602D01*
X256305Y284651D01*
X256434Y284703D01*
X256562Y284758D01*
X256689Y284818D01*
X256814Y284881D01*
X256937Y284947D01*
X257058Y285017D01*
X257177Y285090D01*
X257294Y285167D01*
X257408Y285247D01*
X257521Y285330D01*
X257631Y285416D01*
X257738Y285506D01*
X257843Y285598D01*
X257945Y285693D01*
X258045Y285791D01*
X258142Y285892D01*
X258236Y285996D01*
X258326Y286102D01*
X258414Y286211D01*
X258499Y286322D01*
X258580Y286436D01*
X258659Y286551D01*
X258734Y286669D01*
X258805Y286790D01*
X258873Y286912D01*
X258938Y287035D01*
X258999Y287161D01*
X259057Y287289D01*
X259111Y287417D01*
X259161Y287548D01*
X259208Y287680D01*
X259251Y287813D01*
X259290Y287947D01*
X259325Y288082D01*
X259356Y288218D01*
X259384Y288356D01*
X259407Y288493D01*
X259427Y288632D01*
X259443Y288771D01*
X259455Y288910D01*
X259463Y289049D01*
X259467Y289189D01*
X259467Y289329D01*
X259463Y289469D01*
X259455Y289608D01*
X259443Y289747D01*
X259427Y289886D01*
X259407Y290025D01*
X259384Y290162D01*
X259356Y290300D01*
X259325Y290436D01*
X259290Y290571D01*
X259251Y290705D01*
X259208Y290838D01*
X259161Y290970D01*
X259111Y291101D01*
X259057Y291229D01*
X258999Y291357D01*
X258938Y291483D01*
X258873Y291606D01*
X258805Y291729D01*
X258734Y291849D01*
X258659Y291967D01*
X258580Y292082D01*
X258499Y292196D01*
X258414Y292307D01*
X258326Y292416D01*
X258236Y292522D01*
X258142Y292626D01*
X258045Y292727D01*
X257945Y292825D01*
X257843Y292920D01*
X257738Y293012D01*
X257631Y293102D01*
X257521Y293188D01*
X257408Y293271D01*
X257294Y293351D01*
X257177Y293428D01*
X257058Y293501D01*
X256937Y293571D01*
X256814Y293637D01*
X256689Y293700D01*
X256562Y293760D01*
X256434Y293815D01*
X256305Y293867D01*
X256173Y293916D01*
X256041Y293961D01*
X255907Y294002D01*
X255773Y294039D01*
X255637Y294072D01*
X255500Y294101D01*
X255363Y294127D01*
X255225Y294149D01*
X255086Y294166D01*
X254947Y294180D01*
X254807Y294190D01*
X254668Y294196D01*
X254528Y294198D01*
X255515Y302100D02*
X249589Y302100D01*
X255515Y302100D02*
X255639Y302098D01*
X255763Y302092D01*
X255887Y302082D01*
X256010Y302069D01*
X256133Y302051D01*
X256255Y302030D01*
X256377Y302005D01*
X256498Y301976D01*
X256617Y301943D01*
X256736Y301907D01*
X256853Y301866D01*
X256969Y301823D01*
X257084Y301775D01*
X257197Y301724D01*
X257309Y301669D01*
X257418Y301611D01*
X257526Y301550D01*
X257632Y301485D01*
X257736Y301417D01*
X257837Y301345D01*
X257937Y301271D01*
X258033Y301193D01*
X258128Y301113D01*
X258220Y301029D01*
X258309Y300943D01*
X258395Y300854D01*
X258479Y300762D01*
X258559Y300667D01*
X258637Y300571D01*
X258711Y300471D01*
X258783Y300370D01*
X258851Y300266D01*
X258916Y300160D01*
X258977Y300052D01*
X259035Y299943D01*
X259090Y299831D01*
X259141Y299718D01*
X259189Y299603D01*
X259232Y299487D01*
X259273Y299370D01*
X259309Y299251D01*
X259342Y299132D01*
X259371Y299011D01*
X259396Y298889D01*
X259417Y298767D01*
X259435Y298644D01*
X259448Y298521D01*
X259458Y298397D01*
X259464Y298273D01*
X259466Y298149D01*
X259464Y298025D01*
X259458Y297901D01*
X259448Y297777D01*
X259435Y297654D01*
X259417Y297531D01*
X259396Y297409D01*
X259371Y297287D01*
X259342Y297166D01*
X259309Y297047D01*
X259273Y296928D01*
X259232Y296811D01*
X259189Y296695D01*
X259141Y296580D01*
X259090Y296467D01*
X259035Y296355D01*
X258977Y296246D01*
X258916Y296138D01*
X258851Y296032D01*
X258783Y295928D01*
X258711Y295827D01*
X258637Y295727D01*
X258559Y295631D01*
X258479Y295536D01*
X258395Y295444D01*
X258309Y295355D01*
X258220Y295269D01*
X258128Y295185D01*
X258033Y295105D01*
X257937Y295027D01*
X257837Y294953D01*
X257736Y294881D01*
X257632Y294813D01*
X257526Y294748D01*
X257418Y294687D01*
X257309Y294629D01*
X257197Y294574D01*
X257084Y294523D01*
X256969Y294475D01*
X256853Y294432D01*
X256736Y294391D01*
X256617Y294355D01*
X256498Y294322D01*
X256377Y294293D01*
X256255Y294268D01*
X256133Y294247D01*
X256010Y294229D01*
X255887Y294216D01*
X255763Y294206D01*
X255639Y294200D01*
X255515Y294198D01*
X251564Y294198D01*
X224692Y382680D02*
X224692Y400460D01*
X229631Y400460D01*
X229771Y400458D01*
X229910Y400452D01*
X230050Y400442D01*
X230189Y400428D01*
X230328Y400411D01*
X230466Y400389D01*
X230603Y400363D01*
X230740Y400334D01*
X230876Y400301D01*
X231010Y400264D01*
X231144Y400223D01*
X231276Y400178D01*
X231408Y400129D01*
X231537Y400077D01*
X231665Y400022D01*
X231792Y399962D01*
X231917Y399899D01*
X232040Y399833D01*
X232161Y399763D01*
X232280Y399690D01*
X232397Y399613D01*
X232511Y399533D01*
X232624Y399450D01*
X232734Y399364D01*
X232841Y399274D01*
X232946Y399182D01*
X233048Y399087D01*
X233148Y398989D01*
X233245Y398888D01*
X233339Y398784D01*
X233429Y398678D01*
X233517Y398569D01*
X233602Y398458D01*
X233683Y398344D01*
X233762Y398229D01*
X233837Y398111D01*
X233908Y397991D01*
X233976Y397868D01*
X234041Y397745D01*
X234102Y397619D01*
X234160Y397491D01*
X234214Y397363D01*
X234264Y397232D01*
X234311Y397100D01*
X234354Y396967D01*
X234393Y396833D01*
X234428Y396698D01*
X234459Y396562D01*
X234487Y396424D01*
X234510Y396287D01*
X234530Y396148D01*
X234546Y396009D01*
X234558Y395870D01*
X234566Y395731D01*
X234570Y395591D01*
X234570Y395451D01*
X234566Y395311D01*
X234558Y395172D01*
X234546Y395033D01*
X234530Y394894D01*
X234510Y394755D01*
X234487Y394618D01*
X234459Y394480D01*
X234428Y394344D01*
X234393Y394209D01*
X234354Y394075D01*
X234311Y393942D01*
X234264Y393810D01*
X234214Y393679D01*
X234160Y393551D01*
X234102Y393423D01*
X234041Y393297D01*
X233976Y393174D01*
X233908Y393052D01*
X233837Y392931D01*
X233762Y392813D01*
X233683Y392698D01*
X233602Y392584D01*
X233517Y392473D01*
X233429Y392364D01*
X233339Y392258D01*
X233245Y392154D01*
X233148Y392053D01*
X233048Y391955D01*
X232946Y391860D01*
X232841Y391768D01*
X232734Y391678D01*
X232624Y391592D01*
X232511Y391509D01*
X232397Y391429D01*
X232280Y391352D01*
X232161Y391279D01*
X232040Y391209D01*
X231917Y391143D01*
X231792Y391080D01*
X231665Y391020D01*
X231537Y390965D01*
X231408Y390913D01*
X231276Y390864D01*
X231144Y390819D01*
X231010Y390778D01*
X230876Y390741D01*
X230740Y390708D01*
X230603Y390679D01*
X230466Y390653D01*
X230328Y390631D01*
X230189Y390614D01*
X230050Y390600D01*
X229910Y390590D01*
X229771Y390584D01*
X229631Y390582D01*
X224692Y390582D01*
X240687Y386631D02*
X244638Y400460D01*
X240687Y386631D02*
X250565Y386631D01*
X247602Y390582D02*
X247602Y382680D01*
X262935Y389594D02*
X262935Y395521D01*
X262935Y389594D02*
X266392Y385149D01*
X262935Y389594D02*
X259478Y385149D01*
X262935Y389594D02*
X268368Y391570D01*
X262935Y389594D02*
X257502Y391570D01*
D12*
X277962Y329799D03*
D13*
X277447Y329946D03*
D14*
X276857Y330093D03*
D15*
X276416Y330241D03*
D16*
X275900Y330388D03*
D17*
X275458Y330535D03*
D18*
X274869Y330683D03*
D19*
X274353Y330830D03*
D20*
X273911Y330977D03*
D21*
X273469Y331125D03*
D22*
X273395Y331272D03*
D23*
X273469Y331419D03*
D24*
X273543Y331567D03*
D25*
X273469Y331714D03*
D26*
X273543Y331861D03*
D27*
X273543Y332008D03*
D28*
X273616Y332156D03*
X273616Y332303D03*
D29*
X273616Y332450D03*
D30*
X273690Y332598D03*
D31*
X273690Y332745D03*
X273690Y332892D03*
D32*
X273764Y333040D03*
D33*
X273764Y333187D03*
D34*
X273837Y333334D03*
D35*
X273764Y333482D03*
D36*
X273837Y333629D03*
D37*
X273911Y333776D03*
D38*
X273911Y333924D03*
X273911Y334071D03*
D39*
X273985Y334218D03*
D40*
X273985Y334366D03*
D41*
X274058Y334513D03*
D42*
X273985Y334660D03*
D43*
X274058Y334808D03*
D44*
X274132Y334955D03*
D45*
X274132Y335102D03*
X274132Y335250D03*
D46*
X274132Y335397D03*
D47*
X274206Y335544D03*
X274206Y335691D03*
D48*
X274206Y335839D03*
D49*
X274279Y335986D03*
D50*
X274279Y336133D03*
X274279Y336281D03*
D51*
X274353Y336428D03*
D52*
X274353Y336575D03*
D53*
X274427Y336723D03*
D54*
X274353Y336870D03*
D55*
X274427Y337017D03*
D56*
X274500Y337165D03*
D57*
X294978Y337165D03*
D58*
X274500Y337312D03*
D59*
X294389Y337312D03*
D58*
X274500Y337459D03*
D60*
X293947Y337459D03*
D61*
X274500Y337607D03*
D62*
X293431Y337607D03*
D63*
X274574Y337754D03*
D64*
X292989Y337754D03*
D63*
X274574Y337901D03*
D65*
X292400Y337901D03*
D66*
X274500Y338049D03*
D67*
X291958Y338049D03*
D66*
X274500Y338196D03*
D68*
X291442Y338196D03*
D63*
X274427Y338343D03*
D69*
X291000Y338343D03*
D66*
X274353Y338491D03*
D21*
X290853Y338491D03*
D66*
X274353Y338638D03*
D23*
X290853Y338638D03*
D66*
X274206Y338785D03*
D24*
X290927Y338785D03*
D66*
X274206Y338933D03*
D25*
X291000Y338933D03*
D63*
X274132Y339080D03*
D26*
X290927Y339080D03*
D66*
X274058Y339227D03*
D70*
X291000Y339227D03*
D66*
X274058Y339374D03*
D28*
X291000Y339374D03*
D66*
X273911Y339522D03*
D71*
X291074Y339522D03*
D66*
X273911Y339669D03*
D71*
X291074Y339669D03*
D63*
X273837Y339816D03*
D30*
X291074Y339816D03*
D66*
X273764Y339964D03*
D72*
X291148Y339964D03*
D66*
X273764Y340111D03*
D32*
X291148Y340111D03*
D66*
X273616Y340258D03*
D32*
X291148Y340258D03*
D66*
X273616Y340406D03*
D73*
X291221Y340406D03*
D63*
X273543Y340553D03*
D34*
X291221Y340553D03*
D61*
X273616Y340700D03*
D35*
X291295Y340700D03*
D61*
X273616Y340848D03*
D36*
X291221Y340848D03*
D74*
X273616Y340995D03*
D75*
X291295Y340995D03*
D76*
X273690Y341142D03*
D77*
X291368Y341142D03*
D55*
X273690Y341290D03*
D78*
X291368Y341290D03*
D55*
X273690Y341437D03*
D78*
X291368Y341437D03*
D54*
X273764Y341584D03*
D79*
X291442Y341584D03*
D52*
X273764Y341732D03*
D41*
X291442Y341732D03*
D80*
X273837Y341879D03*
D41*
X291442Y341879D03*
D51*
X273764Y342026D03*
D43*
X291442Y342026D03*
D81*
X273837Y342174D03*
D44*
X291516Y342174D03*
D82*
X273911Y342321D03*
D83*
X291589Y342321D03*
D48*
X273911Y342468D03*
D84*
X291516Y342468D03*
D48*
X273911Y342616D03*
D85*
X291589Y342616D03*
D86*
X273985Y342763D03*
D47*
X291589Y342763D03*
D46*
X273985Y342910D03*
D86*
X291663Y342910D03*
D46*
X273985Y343057D03*
D86*
X291663Y343057D03*
D84*
X273985Y343205D03*
D49*
X291663Y343205D03*
D87*
X274058Y343352D03*
D82*
X291737Y343352D03*
D44*
X274132Y343499D03*
D51*
X291737Y343499D03*
D43*
X274058Y343647D03*
D51*
X291737Y343647D03*
D42*
X274132Y343794D03*
D80*
X291810Y343794D03*
D40*
X274132Y343941D03*
D53*
X291810Y343941D03*
D79*
X274206Y344089D03*
D54*
X291884Y344089D03*
D79*
X274206Y344236D03*
D55*
X291810Y344236D03*
D88*
X274206Y344383D03*
D89*
X291884Y344383D03*
D77*
X274279Y344531D03*
D76*
X291958Y344531D03*
D36*
X274279Y344678D03*
D90*
X291958Y344678D03*
D36*
X274279Y344825D03*
D90*
X291958Y344825D03*
D35*
X274353Y344973D03*
D63*
X291958Y344973D03*
D33*
X274353Y345120D03*
D66*
X292031Y345120D03*
D73*
X274427Y345267D03*
D63*
X291958Y345267D03*
D32*
X274353Y345415D03*
D66*
X291884Y345415D03*
D91*
X274427Y345562D03*
D66*
X291884Y345562D03*
D92*
X274500Y345709D03*
D63*
X291810Y345709D03*
D29*
X274500Y345857D03*
D66*
X291737Y345857D03*
D29*
X274500Y346004D03*
D66*
X291737Y346004D03*
D71*
X274574Y346151D03*
D66*
X291589Y346151D03*
D27*
X274574Y346299D03*
D66*
X291589Y346299D03*
D70*
X274648Y346446D03*
D63*
X291516Y346446D03*
D93*
X274574Y346593D03*
D66*
X291442Y346593D03*
D25*
X274648Y346740D03*
D66*
X291442Y346740D03*
D24*
X274721Y346888D03*
D66*
X291295Y346888D03*
D23*
X274648Y347035D03*
D66*
X291295Y347035D03*
D22*
X274721Y347182D03*
D63*
X291221Y347182D03*
D69*
X274648Y347330D03*
D66*
X291148Y347330D03*
D94*
X274132Y347477D03*
D66*
X291148Y347477D03*
D67*
X273543Y347624D03*
D66*
X291000Y347624D03*
D65*
X273101Y347772D03*
D66*
X291000Y347772D03*
D95*
X272585Y347919D03*
D61*
X291000Y347919D03*
D96*
X272143Y348066D03*
D90*
X291074Y348066D03*
D60*
X271554Y348214D03*
D90*
X291074Y348214D03*
D97*
X271038Y348361D03*
D98*
X291074Y348361D03*
D99*
X270596Y348508D03*
D56*
X291148Y348508D03*
D100*
X280393Y348656D03*
D55*
X291074Y348656D03*
D101*
X279878Y348803D03*
D54*
X291148Y348803D03*
D14*
X279362Y348950D03*
D53*
X291221Y348950D03*
D102*
X278846Y349098D03*
D80*
X291221Y349098D03*
D16*
X278404Y349245D03*
D80*
X291221Y349245D03*
D103*
X277889Y349392D03*
D81*
X291221Y349392D03*
D18*
X277373Y349540D03*
D104*
X291295Y349540D03*
D19*
X276857Y349687D03*
D49*
X291368Y349687D03*
D105*
X276342Y349834D03*
D48*
X291295Y349834D03*
D106*
X275900Y349982D03*
D86*
X291368Y349982D03*
D22*
X275900Y350129D03*
D47*
X291442Y350129D03*
D23*
X275974Y350276D03*
D85*
X291442Y350276D03*
D24*
X276047Y350423D03*
D85*
X291442Y350423D03*
D25*
X275974Y350571D03*
D87*
X291442Y350571D03*
D26*
X276047Y350718D03*
D44*
X291516Y350718D03*
D107*
X276047Y350865D03*
D43*
X291589Y350865D03*
D28*
X276121Y351013D03*
D42*
X291516Y351013D03*
D28*
X276121Y351160D03*
D41*
X291589Y351160D03*
D29*
X276121Y351307D03*
D79*
X291589Y351307D03*
D30*
X276195Y351455D03*
D39*
X291663Y351455D03*
D31*
X276195Y351602D03*
D39*
X291663Y351602D03*
D31*
X276195Y351749D03*
D108*
X291663Y351749D03*
D32*
X276268Y351897D03*
D75*
X291737Y351897D03*
D33*
X276268Y352044D03*
D35*
X291737Y352044D03*
D34*
X276342Y352191D03*
D35*
X291737Y352191D03*
X276268Y352339D03*
D34*
X291810Y352339D03*
D36*
X276342Y352486D03*
D73*
X291810Y352486D03*
D75*
X276416Y352633D03*
D73*
X291810Y352633D03*
D38*
X276416Y352781D03*
D91*
X291810Y352781D03*
D38*
X276416Y352928D03*
D72*
X291884Y352928D03*
D79*
X276416Y353075D03*
D30*
X291958Y353075D03*
D40*
X276489Y353223D03*
D29*
X291884Y353223D03*
D41*
X276563Y353370D03*
D71*
X291958Y353370D03*
D42*
X276489Y353517D03*
D27*
X291958Y353517D03*
D43*
X276563Y353665D03*
D109*
X292031Y353665D03*
D87*
X276563Y353812D03*
D109*
X292031Y353812D03*
D45*
X276636Y353959D03*
D25*
X292031Y353959D03*
D45*
X276636Y354106D03*
D24*
X292105Y354106D03*
D46*
X276636Y354254D03*
D23*
X292179Y354254D03*
D47*
X276710Y354401D03*
D22*
X292105Y354401D03*
D47*
X276710Y354548D03*
D106*
X292105Y354548D03*
D48*
X276710Y354696D03*
D110*
X291663Y354696D03*
D49*
X276784Y354843D03*
D111*
X291148Y354843D03*
D50*
X276784Y354990D03*
D18*
X290632Y354990D03*
D50*
X276784Y355138D03*
D112*
X290116Y355138D03*
D51*
X276857Y355285D03*
D113*
X289674Y355285D03*
D52*
X276857Y355432D03*
D114*
X289159Y355432D03*
D53*
X276931Y355580D03*
D14*
X288643Y355580D03*
D54*
X276857Y355727D03*
D115*
X288127Y355727D03*
D55*
X276931Y355874D03*
D12*
X287685Y355874D03*
D56*
X277005Y356022D03*
D58*
X277005Y356169D03*
X277005Y356316D03*
D61*
X277005Y356464D03*
D63*
X277078Y356611D03*
X277078Y356758D03*
D66*
X277005Y356906D03*
X277005Y357053D03*
X276857Y357200D03*
X276857Y357348D03*
D63*
X276784Y357495D03*
D66*
X276710Y357642D03*
X276710Y357789D03*
X276563Y357937D03*
X276563Y358084D03*
D63*
X276489Y358231D03*
D66*
X276416Y358379D03*
X276416Y358526D03*
D63*
X276342Y358673D03*
D66*
X276268Y358821D03*
X276268Y358968D03*
X276121Y359115D03*
X276121Y359263D03*
D63*
X276047Y359410D03*
D61*
X276121Y359557D03*
X276121Y359705D03*
D74*
X276121Y359852D03*
D76*
X276195Y359999D03*
D55*
X276195Y360147D03*
X276195Y360294D03*
D54*
X276268Y360441D03*
D52*
X276268Y360589D03*
D80*
X276342Y360736D03*
D51*
X276268Y360883D03*
D81*
X276342Y361031D03*
D82*
X276416Y361178D03*
D116*
X276342Y361325D03*
D48*
X276416Y361472D03*
D47*
X276416Y361620D03*
D46*
X276489Y361767D03*
X276489Y361914D03*
D84*
X276489Y362062D03*
D87*
X276563Y362209D03*
D43*
X276563Y362356D03*
X276563Y362504D03*
D42*
X276636Y362651D03*
D40*
X276636Y362798D03*
D79*
X276710Y362946D03*
X276710Y363093D03*
D88*
X276710Y363240D03*
D77*
X276784Y363388D03*
D36*
X276784Y363535D03*
X276784Y363682D03*
D35*
X276857Y363830D03*
D33*
X276857Y363977D03*
D73*
X276931Y364124D03*
D32*
X276857Y364272D03*
D91*
X276931Y364419D03*
D92*
X277005Y364566D03*
D29*
X277005Y364714D03*
X277005Y364861D03*
D28*
X277005Y365008D03*
D27*
X277078Y365155D03*
D70*
X277152Y365303D03*
D93*
X277078Y365450D03*
D25*
X277152Y365597D03*
D23*
X277152Y365745D03*
X277152Y365892D03*
D22*
X277226Y366039D03*
D117*
X277078Y366187D03*
D118*
X276563Y366334D03*
D67*
X276047Y366481D03*
D119*
X275532Y366629D03*
D95*
X275090Y366776D03*
D120*
X274574Y366923D03*
D60*
X274058Y367071D03*
D97*
X273543Y367218D03*
D121*
X273027Y367365D03*
D122*
X254232Y312611D02*
X254232Y310111D01*
X254232Y312611D02*
X254232Y315111D01*
X254232Y312611D02*
X249232Y310111D01*
X249232Y315111D02*
X254232Y312611D01*
X249232Y315111D02*
X249232Y310111D01*
X239232Y307611D02*
X239232Y317611D01*
X264232Y317611D01*
X264232Y307611D01*
X239232Y307611D01*
D123*
X270294Y308124D02*
X270294Y317522D01*
X272905Y317522D01*
X273005Y317520D01*
X273105Y317514D01*
X273204Y317505D01*
X273304Y317491D01*
X273402Y317474D01*
X273500Y317453D01*
X273597Y317429D01*
X273693Y317400D01*
X273788Y317368D01*
X273881Y317333D01*
X273973Y317294D01*
X274064Y317251D01*
X274152Y317205D01*
X274239Y317155D01*
X274324Y317103D01*
X274407Y317047D01*
X274488Y316988D01*
X274566Y316925D01*
X274642Y316860D01*
X274716Y316792D01*
X274786Y316722D01*
X274854Y316648D01*
X274919Y316572D01*
X274982Y316494D01*
X275041Y316413D01*
X275097Y316330D01*
X275149Y316245D01*
X275199Y316158D01*
X275245Y316070D01*
X275288Y315979D01*
X275327Y315887D01*
X275362Y315794D01*
X275394Y315699D01*
X275423Y315603D01*
X275447Y315506D01*
X275468Y315408D01*
X275485Y315310D01*
X275499Y315210D01*
X275508Y315111D01*
X275514Y315011D01*
X275516Y314911D01*
X275515Y314911D02*
X275515Y310734D01*
X275516Y310734D02*
X275514Y310634D01*
X275508Y310534D01*
X275499Y310435D01*
X275485Y310335D01*
X275468Y310237D01*
X275447Y310139D01*
X275423Y310042D01*
X275394Y309946D01*
X275362Y309851D01*
X275327Y309758D01*
X275288Y309666D01*
X275245Y309575D01*
X275199Y309487D01*
X275149Y309400D01*
X275097Y309315D01*
X275041Y309232D01*
X274982Y309151D01*
X274919Y309073D01*
X274854Y308997D01*
X274786Y308923D01*
X274716Y308853D01*
X274642Y308785D01*
X274566Y308720D01*
X274488Y308657D01*
X274407Y308598D01*
X274324Y308542D01*
X274239Y308490D01*
X274152Y308440D01*
X274064Y308394D01*
X273973Y308351D01*
X273881Y308312D01*
X273788Y308277D01*
X273693Y308245D01*
X273597Y308216D01*
X273500Y308192D01*
X273402Y308171D01*
X273304Y308154D01*
X273204Y308140D01*
X273105Y308131D01*
X273005Y308125D01*
X272905Y308123D01*
X272905Y308124D02*
X270294Y308124D01*
X279743Y315433D02*
X282353Y317522D01*
X282353Y308124D01*
X279743Y308124D02*
X284964Y308124D01*
X248682Y356413D02*
X239284Y356413D01*
X239284Y359023D01*
X239286Y359124D01*
X239292Y359225D01*
X239302Y359326D01*
X239315Y359426D01*
X239333Y359526D01*
X239354Y359625D01*
X239380Y359723D01*
X239409Y359820D01*
X239441Y359916D01*
X239478Y360010D01*
X239518Y360103D01*
X239562Y360195D01*
X239609Y360284D01*
X239660Y360372D01*
X239714Y360458D01*
X239771Y360541D01*
X239831Y360623D01*
X239895Y360701D01*
X239961Y360778D01*
X240031Y360851D01*
X240103Y360922D01*
X240178Y360990D01*
X240256Y361055D01*
X240336Y361117D01*
X240418Y361176D01*
X240503Y361232D01*
X240590Y361284D01*
X240678Y361333D01*
X240769Y361379D01*
X240861Y361420D01*
X240955Y361459D01*
X241050Y361493D01*
X241146Y361524D01*
X241244Y361551D01*
X241342Y361575D01*
X241442Y361594D01*
X241542Y361610D01*
X241642Y361622D01*
X241743Y361630D01*
X241844Y361634D01*
X241946Y361634D01*
X242047Y361630D01*
X242148Y361622D01*
X242248Y361610D01*
X242348Y361594D01*
X242448Y361575D01*
X242546Y361551D01*
X242644Y361524D01*
X242740Y361493D01*
X242835Y361459D01*
X242929Y361420D01*
X243021Y361379D01*
X243112Y361333D01*
X243201Y361284D01*
X243287Y361232D01*
X243372Y361176D01*
X243454Y361117D01*
X243534Y361055D01*
X243612Y360990D01*
X243687Y360922D01*
X243759Y360851D01*
X243829Y360778D01*
X243895Y360701D01*
X243959Y360623D01*
X244019Y360541D01*
X244076Y360458D01*
X244130Y360372D01*
X244181Y360284D01*
X244228Y360195D01*
X244272Y360103D01*
X244312Y360010D01*
X244349Y359916D01*
X244381Y359820D01*
X244410Y359723D01*
X244436Y359625D01*
X244457Y359526D01*
X244475Y359426D01*
X244488Y359326D01*
X244498Y359225D01*
X244504Y359124D01*
X244506Y359023D01*
X244505Y359023D02*
X244505Y356413D01*
X244505Y359545D02*
X248682Y361634D01*
X241373Y365500D02*
X239284Y368110D01*
X248682Y368110D01*
X248682Y365500D02*
X248682Y370721D01*
D11*
X263005Y412100D02*
X263005Y429880D01*
X267943Y429880D01*
X268082Y429878D01*
X268220Y429872D01*
X268358Y429863D01*
X268496Y429849D01*
X268633Y429832D01*
X268770Y429810D01*
X268907Y429785D01*
X269042Y429756D01*
X269177Y429723D01*
X269310Y429687D01*
X269443Y429647D01*
X269574Y429603D01*
X269704Y429555D01*
X269833Y429504D01*
X269960Y429449D01*
X270086Y429391D01*
X270210Y429329D01*
X270332Y429264D01*
X270452Y429195D01*
X270571Y429123D01*
X270687Y429048D01*
X270801Y428969D01*
X270913Y428887D01*
X271022Y428802D01*
X271130Y428715D01*
X271234Y428624D01*
X271336Y428530D01*
X271435Y428433D01*
X271532Y428334D01*
X271626Y428232D01*
X271717Y428128D01*
X271804Y428020D01*
X271889Y427911D01*
X271971Y427799D01*
X272050Y427685D01*
X272125Y427569D01*
X272197Y427450D01*
X272266Y427330D01*
X272331Y427208D01*
X272393Y427084D01*
X272451Y426958D01*
X272506Y426831D01*
X272557Y426702D01*
X272605Y426572D01*
X272649Y426441D01*
X272689Y426308D01*
X272725Y426175D01*
X272758Y426040D01*
X272787Y425905D01*
X272812Y425768D01*
X272834Y425631D01*
X272851Y425494D01*
X272865Y425356D01*
X272874Y425218D01*
X272880Y425080D01*
X272882Y424941D01*
X272882Y417039D01*
X272880Y416900D01*
X272874Y416762D01*
X272865Y416624D01*
X272851Y416486D01*
X272834Y416349D01*
X272812Y416212D01*
X272787Y416075D01*
X272758Y415940D01*
X272725Y415805D01*
X272689Y415672D01*
X272649Y415539D01*
X272605Y415408D01*
X272557Y415278D01*
X272506Y415149D01*
X272451Y415022D01*
X272393Y414896D01*
X272331Y414772D01*
X272266Y414650D01*
X272197Y414530D01*
X272125Y414411D01*
X272050Y414295D01*
X271971Y414181D01*
X271889Y414069D01*
X271804Y413960D01*
X271717Y413852D01*
X271626Y413748D01*
X271532Y413646D01*
X271435Y413547D01*
X271336Y413450D01*
X271234Y413356D01*
X271130Y413265D01*
X271022Y413178D01*
X270913Y413093D01*
X270801Y413011D01*
X270687Y412932D01*
X270571Y412857D01*
X270452Y412785D01*
X270332Y412716D01*
X270210Y412651D01*
X270086Y412589D01*
X269960Y412531D01*
X269833Y412476D01*
X269704Y412425D01*
X269574Y412377D01*
X269443Y412333D01*
X269310Y412293D01*
X269177Y412257D01*
X269042Y412224D01*
X268907Y412195D01*
X268770Y412170D01*
X268633Y412148D01*
X268496Y412131D01*
X268358Y412117D01*
X268220Y412108D01*
X268082Y412102D01*
X267943Y412100D01*
X263005Y412100D01*
X266584Y436590D02*
X270535Y436590D01*
X266584Y436591D02*
X266460Y436593D01*
X266336Y436599D01*
X266212Y436609D01*
X266089Y436622D01*
X265966Y436640D01*
X265844Y436661D01*
X265722Y436686D01*
X265601Y436715D01*
X265482Y436748D01*
X265363Y436784D01*
X265246Y436825D01*
X265130Y436868D01*
X265015Y436916D01*
X264902Y436967D01*
X264790Y437022D01*
X264681Y437080D01*
X264573Y437141D01*
X264467Y437206D01*
X264363Y437274D01*
X264262Y437346D01*
X264162Y437420D01*
X264066Y437498D01*
X263971Y437578D01*
X263879Y437662D01*
X263790Y437748D01*
X263704Y437837D01*
X263620Y437929D01*
X263540Y438024D01*
X263462Y438120D01*
X263388Y438220D01*
X263316Y438321D01*
X263248Y438425D01*
X263183Y438531D01*
X263122Y438639D01*
X263064Y438748D01*
X263009Y438860D01*
X262958Y438973D01*
X262910Y439088D01*
X262867Y439204D01*
X262826Y439321D01*
X262790Y439440D01*
X262757Y439559D01*
X262728Y439680D01*
X262703Y439802D01*
X262682Y439924D01*
X262664Y440047D01*
X262651Y440170D01*
X262641Y440294D01*
X262635Y440418D01*
X262633Y440542D01*
X262633Y450419D01*
X262635Y450543D01*
X262641Y450667D01*
X262651Y450791D01*
X262664Y450914D01*
X262682Y451037D01*
X262703Y451159D01*
X262728Y451281D01*
X262757Y451402D01*
X262790Y451521D01*
X262826Y451640D01*
X262867Y451757D01*
X262910Y451873D01*
X262958Y451988D01*
X263009Y452101D01*
X263064Y452213D01*
X263122Y452322D01*
X263183Y452430D01*
X263248Y452536D01*
X263316Y452640D01*
X263388Y452741D01*
X263462Y452841D01*
X263540Y452937D01*
X263620Y453032D01*
X263704Y453124D01*
X263790Y453213D01*
X263879Y453299D01*
X263971Y453383D01*
X264066Y453463D01*
X264162Y453541D01*
X264262Y453615D01*
X264363Y453687D01*
X264467Y453755D01*
X264573Y453820D01*
X264681Y453881D01*
X264790Y453939D01*
X264902Y453994D01*
X265015Y454045D01*
X265130Y454093D01*
X265246Y454136D01*
X265363Y454177D01*
X265482Y454213D01*
X265601Y454246D01*
X265722Y454275D01*
X265844Y454300D01*
X265966Y454321D01*
X266089Y454339D01*
X266212Y454352D01*
X266336Y454362D01*
X266460Y454368D01*
X266584Y454370D01*
X270535Y454370D01*
X429956Y445922D02*
X434895Y445922D01*
X435035Y445920D01*
X435174Y445914D01*
X435314Y445904D01*
X435453Y445890D01*
X435592Y445873D01*
X435730Y445851D01*
X435867Y445825D01*
X436004Y445796D01*
X436140Y445763D01*
X436274Y445726D01*
X436408Y445685D01*
X436540Y445640D01*
X436672Y445591D01*
X436801Y445539D01*
X436929Y445484D01*
X437056Y445424D01*
X437181Y445361D01*
X437304Y445295D01*
X437425Y445225D01*
X437544Y445152D01*
X437661Y445075D01*
X437775Y444995D01*
X437888Y444912D01*
X437998Y444826D01*
X438105Y444736D01*
X438210Y444644D01*
X438312Y444549D01*
X438412Y444451D01*
X438509Y444350D01*
X438603Y444246D01*
X438693Y444140D01*
X438781Y444031D01*
X438866Y443920D01*
X438947Y443806D01*
X439026Y443691D01*
X439101Y443573D01*
X439172Y443453D01*
X439240Y443330D01*
X439305Y443207D01*
X439366Y443081D01*
X439424Y442953D01*
X439478Y442825D01*
X439528Y442694D01*
X439575Y442562D01*
X439618Y442429D01*
X439657Y442295D01*
X439692Y442160D01*
X439723Y442024D01*
X439751Y441886D01*
X439774Y441749D01*
X439794Y441610D01*
X439810Y441471D01*
X439822Y441332D01*
X439830Y441193D01*
X439834Y441053D01*
X439834Y440913D01*
X439830Y440773D01*
X439822Y440634D01*
X439810Y440495D01*
X439794Y440356D01*
X439774Y440217D01*
X439751Y440080D01*
X439723Y439942D01*
X439692Y439806D01*
X439657Y439671D01*
X439618Y439537D01*
X439575Y439404D01*
X439528Y439272D01*
X439478Y439141D01*
X439424Y439013D01*
X439366Y438885D01*
X439305Y438759D01*
X439240Y438636D01*
X439172Y438514D01*
X439101Y438393D01*
X439026Y438275D01*
X438947Y438160D01*
X438866Y438046D01*
X438781Y437935D01*
X438693Y437826D01*
X438603Y437720D01*
X438509Y437616D01*
X438412Y437515D01*
X438312Y437417D01*
X438210Y437322D01*
X438105Y437230D01*
X437998Y437140D01*
X437888Y437054D01*
X437775Y436971D01*
X437661Y436891D01*
X437544Y436814D01*
X437425Y436741D01*
X437304Y436671D01*
X437181Y436605D01*
X437056Y436542D01*
X436929Y436482D01*
X436801Y436427D01*
X436672Y436375D01*
X436540Y436326D01*
X436408Y436281D01*
X436274Y436240D01*
X436140Y436203D01*
X436004Y436170D01*
X435867Y436141D01*
X435730Y436115D01*
X435592Y436093D01*
X435453Y436076D01*
X435314Y436062D01*
X435174Y436052D01*
X435035Y436046D01*
X434895Y436044D01*
X429956Y436044D01*
X429956Y453824D01*
X434895Y453824D01*
X435019Y453822D01*
X435143Y453816D01*
X435267Y453806D01*
X435390Y453793D01*
X435513Y453775D01*
X435635Y453754D01*
X435757Y453729D01*
X435878Y453700D01*
X435997Y453667D01*
X436116Y453631D01*
X436233Y453590D01*
X436349Y453547D01*
X436464Y453499D01*
X436577Y453448D01*
X436689Y453393D01*
X436798Y453335D01*
X436906Y453274D01*
X437012Y453209D01*
X437116Y453141D01*
X437217Y453069D01*
X437317Y452995D01*
X437413Y452917D01*
X437508Y452837D01*
X437600Y452753D01*
X437689Y452667D01*
X437775Y452578D01*
X437859Y452486D01*
X437939Y452391D01*
X438017Y452295D01*
X438091Y452195D01*
X438163Y452094D01*
X438231Y451990D01*
X438296Y451884D01*
X438357Y451776D01*
X438415Y451667D01*
X438470Y451555D01*
X438521Y451442D01*
X438569Y451327D01*
X438612Y451211D01*
X438653Y451094D01*
X438689Y450975D01*
X438722Y450856D01*
X438751Y450735D01*
X438776Y450613D01*
X438797Y450491D01*
X438815Y450368D01*
X438828Y450245D01*
X438838Y450121D01*
X438844Y449997D01*
X438846Y449873D01*
X438844Y449749D01*
X438838Y449625D01*
X438828Y449501D01*
X438815Y449378D01*
X438797Y449255D01*
X438776Y449133D01*
X438751Y449011D01*
X438722Y448890D01*
X438689Y448771D01*
X438653Y448652D01*
X438612Y448535D01*
X438569Y448419D01*
X438521Y448304D01*
X438470Y448191D01*
X438415Y448079D01*
X438357Y447970D01*
X438296Y447862D01*
X438231Y447756D01*
X438163Y447652D01*
X438091Y447551D01*
X438017Y447451D01*
X437939Y447355D01*
X437859Y447260D01*
X437775Y447168D01*
X437689Y447079D01*
X437600Y446993D01*
X437508Y446909D01*
X437413Y446829D01*
X437317Y446751D01*
X437217Y446677D01*
X437116Y446605D01*
X437012Y446537D01*
X436906Y446472D01*
X436798Y446411D01*
X436689Y446353D01*
X436577Y446298D01*
X436464Y446247D01*
X436349Y446199D01*
X436233Y446156D01*
X436116Y446115D01*
X435997Y446079D01*
X435878Y446046D01*
X435757Y446017D01*
X435635Y445992D01*
X435513Y445971D01*
X435390Y445953D01*
X435267Y445940D01*
X435143Y445930D01*
X435019Y445924D01*
X434895Y445922D01*
X481234Y382981D02*
X481234Y365201D01*
X481234Y382981D02*
X486172Y382981D01*
X486312Y382979D01*
X486451Y382973D01*
X486591Y382963D01*
X486730Y382949D01*
X486869Y382932D01*
X487007Y382910D01*
X487144Y382884D01*
X487281Y382855D01*
X487417Y382822D01*
X487551Y382785D01*
X487685Y382744D01*
X487817Y382699D01*
X487949Y382650D01*
X488078Y382598D01*
X488206Y382543D01*
X488333Y382483D01*
X488458Y382420D01*
X488581Y382354D01*
X488702Y382284D01*
X488821Y382211D01*
X488938Y382134D01*
X489052Y382054D01*
X489165Y381971D01*
X489275Y381885D01*
X489382Y381795D01*
X489487Y381703D01*
X489589Y381608D01*
X489689Y381510D01*
X489786Y381409D01*
X489880Y381305D01*
X489970Y381199D01*
X490058Y381090D01*
X490143Y380979D01*
X490224Y380865D01*
X490303Y380750D01*
X490378Y380632D01*
X490449Y380512D01*
X490517Y380389D01*
X490582Y380266D01*
X490643Y380140D01*
X490701Y380012D01*
X490755Y379884D01*
X490805Y379753D01*
X490852Y379621D01*
X490895Y379488D01*
X490934Y379354D01*
X490969Y379219D01*
X491000Y379083D01*
X491028Y378945D01*
X491051Y378808D01*
X491071Y378669D01*
X491087Y378530D01*
X491099Y378391D01*
X491107Y378252D01*
X491111Y378112D01*
X491111Y377972D01*
X491107Y377832D01*
X491099Y377693D01*
X491087Y377554D01*
X491071Y377415D01*
X491051Y377276D01*
X491028Y377139D01*
X491000Y377001D01*
X490969Y376865D01*
X490934Y376730D01*
X490895Y376596D01*
X490852Y376463D01*
X490805Y376331D01*
X490755Y376200D01*
X490701Y376072D01*
X490643Y375944D01*
X490582Y375818D01*
X490517Y375695D01*
X490449Y375573D01*
X490378Y375452D01*
X490303Y375334D01*
X490224Y375219D01*
X490143Y375105D01*
X490058Y374994D01*
X489970Y374885D01*
X489880Y374779D01*
X489786Y374675D01*
X489689Y374574D01*
X489589Y374476D01*
X489487Y374381D01*
X489382Y374289D01*
X489275Y374199D01*
X489165Y374113D01*
X489052Y374030D01*
X488938Y373950D01*
X488821Y373873D01*
X488702Y373800D01*
X488581Y373730D01*
X488458Y373664D01*
X488333Y373601D01*
X488206Y373541D01*
X488078Y373486D01*
X487949Y373434D01*
X487817Y373385D01*
X487685Y373340D01*
X487551Y373299D01*
X487417Y373262D01*
X487281Y373229D01*
X487144Y373200D01*
X487007Y373174D01*
X486869Y373152D01*
X486730Y373135D01*
X486591Y373121D01*
X486451Y373111D01*
X486312Y373105D01*
X486172Y373103D01*
X481234Y373103D01*
X487160Y373103D02*
X491111Y365201D01*
D124*
X396240Y328676D02*
X388366Y328676D01*
X382524Y359664D02*
X402336Y359664D01*
D123*
X377825Y324739D02*
X377825Y317952D01*
X377827Y317851D01*
X377833Y317750D01*
X377843Y317649D01*
X377856Y317549D01*
X377874Y317449D01*
X377895Y317350D01*
X377921Y317252D01*
X377950Y317155D01*
X377982Y317059D01*
X378019Y316965D01*
X378059Y316872D01*
X378103Y316780D01*
X378150Y316691D01*
X378201Y316603D01*
X378255Y316517D01*
X378312Y316434D01*
X378372Y316352D01*
X378436Y316274D01*
X378502Y316197D01*
X378572Y316124D01*
X378644Y316053D01*
X378719Y315985D01*
X378797Y315920D01*
X378877Y315858D01*
X378959Y315799D01*
X379044Y315743D01*
X379131Y315691D01*
X379219Y315642D01*
X379310Y315596D01*
X379402Y315555D01*
X379496Y315516D01*
X379591Y315482D01*
X379687Y315451D01*
X379785Y315424D01*
X379883Y315400D01*
X379983Y315381D01*
X380083Y315365D01*
X380183Y315353D01*
X380284Y315345D01*
X380385Y315341D01*
X380487Y315341D01*
X380588Y315345D01*
X380689Y315353D01*
X380789Y315365D01*
X380889Y315381D01*
X380989Y315400D01*
X381087Y315424D01*
X381185Y315451D01*
X381281Y315482D01*
X381376Y315516D01*
X381470Y315555D01*
X381562Y315596D01*
X381653Y315642D01*
X381741Y315691D01*
X381828Y315743D01*
X381913Y315799D01*
X381995Y315858D01*
X382075Y315920D01*
X382153Y315985D01*
X382228Y316053D01*
X382300Y316124D01*
X382370Y316197D01*
X382436Y316274D01*
X382500Y316352D01*
X382560Y316434D01*
X382617Y316517D01*
X382671Y316603D01*
X382722Y316691D01*
X382769Y316780D01*
X382813Y316872D01*
X382853Y316965D01*
X382890Y317059D01*
X382922Y317155D01*
X382951Y317252D01*
X382977Y317350D01*
X382998Y317449D01*
X383016Y317549D01*
X383029Y317649D01*
X383039Y317750D01*
X383045Y317851D01*
X383047Y317952D01*
X383046Y317952D02*
X383046Y324739D01*
X390145Y324740D02*
X390240Y324738D01*
X390334Y324732D01*
X390428Y324723D01*
X390522Y324710D01*
X390615Y324693D01*
X390707Y324672D01*
X390799Y324647D01*
X390889Y324619D01*
X390978Y324587D01*
X391066Y324552D01*
X391152Y324513D01*
X391237Y324471D01*
X391320Y324425D01*
X391401Y324376D01*
X391480Y324324D01*
X391557Y324269D01*
X391631Y324210D01*
X391703Y324149D01*
X391773Y324085D01*
X391840Y324018D01*
X391904Y323948D01*
X391965Y323876D01*
X392024Y323802D01*
X392079Y323725D01*
X392131Y323646D01*
X392180Y323565D01*
X392226Y323482D01*
X392268Y323397D01*
X392307Y323311D01*
X392342Y323223D01*
X392374Y323134D01*
X392402Y323044D01*
X392427Y322952D01*
X392448Y322860D01*
X392465Y322767D01*
X392478Y322673D01*
X392487Y322579D01*
X392493Y322485D01*
X392495Y322390D01*
X390145Y324739D02*
X390037Y324737D01*
X389928Y324731D01*
X389820Y324721D01*
X389713Y324708D01*
X389606Y324690D01*
X389499Y324669D01*
X389394Y324644D01*
X389289Y324615D01*
X389186Y324583D01*
X389084Y324546D01*
X388983Y324506D01*
X388884Y324463D01*
X388786Y324416D01*
X388690Y324365D01*
X388596Y324311D01*
X388504Y324254D01*
X388414Y324193D01*
X388326Y324129D01*
X388241Y324063D01*
X388158Y323993D01*
X388078Y323920D01*
X388000Y323844D01*
X387925Y323766D01*
X387853Y323685D01*
X387784Y323601D01*
X387718Y323515D01*
X387655Y323427D01*
X387596Y323336D01*
X387539Y323244D01*
X387486Y323149D01*
X387437Y323053D01*
X387391Y322954D01*
X387348Y322855D01*
X387309Y322753D01*
X387274Y322651D01*
X391712Y320562D02*
X391781Y320631D01*
X391847Y320702D01*
X391911Y320775D01*
X391972Y320851D01*
X392030Y320930D01*
X392084Y321010D01*
X392136Y321093D01*
X392184Y321177D01*
X392230Y321263D01*
X392271Y321351D01*
X392310Y321441D01*
X392345Y321532D01*
X392376Y321624D01*
X392404Y321717D01*
X392428Y321811D01*
X392448Y321906D01*
X392465Y322002D01*
X392478Y322099D01*
X392487Y322196D01*
X392493Y322293D01*
X392495Y322390D01*
X391712Y320562D02*
X387274Y315341D01*
X392495Y315341D01*
D10*
X349710Y460740D02*
X349714Y461096D01*
X349727Y461451D01*
X349749Y461807D01*
X349780Y462161D01*
X349819Y462515D01*
X349867Y462868D01*
X349923Y463219D01*
X349989Y463569D01*
X350062Y463917D01*
X350145Y464263D01*
X350235Y464607D01*
X350334Y464949D01*
X350442Y465288D01*
X350558Y465625D01*
X350682Y465958D01*
X350814Y466289D01*
X350954Y466616D01*
X351102Y466940D01*
X351258Y467259D01*
X351422Y467575D01*
X351594Y467887D01*
X351773Y468194D01*
X351960Y468497D01*
X352154Y468796D01*
X352355Y469089D01*
X352563Y469378D01*
X352779Y469661D01*
X353001Y469939D01*
X353230Y470211D01*
X353466Y470478D01*
X353708Y470738D01*
X353957Y470993D01*
X354212Y471242D01*
X354472Y471484D01*
X354739Y471720D01*
X355011Y471949D01*
X355289Y472171D01*
X355572Y472387D01*
X355861Y472595D01*
X356154Y472796D01*
X356453Y472990D01*
X356756Y473177D01*
X357063Y473356D01*
X357375Y473528D01*
X357691Y473692D01*
X358010Y473848D01*
X358334Y473996D01*
X358661Y474136D01*
X358992Y474268D01*
X359325Y474392D01*
X359662Y474508D01*
X360001Y474616D01*
X360343Y474715D01*
X360687Y474805D01*
X361033Y474888D01*
X361381Y474961D01*
X361731Y475027D01*
X362082Y475083D01*
X362435Y475131D01*
X362789Y475170D01*
X363143Y475201D01*
X363499Y475223D01*
X363854Y475236D01*
X364210Y475240D01*
X364566Y475236D01*
X364921Y475223D01*
X365277Y475201D01*
X365631Y475170D01*
X365985Y475131D01*
X366338Y475083D01*
X366689Y475027D01*
X367039Y474961D01*
X367387Y474888D01*
X367733Y474805D01*
X368077Y474715D01*
X368419Y474616D01*
X368758Y474508D01*
X369095Y474392D01*
X369428Y474268D01*
X369759Y474136D01*
X370086Y473996D01*
X370410Y473848D01*
X370729Y473692D01*
X371045Y473528D01*
X371357Y473356D01*
X371664Y473177D01*
X371967Y472990D01*
X372266Y472796D01*
X372559Y472595D01*
X372848Y472387D01*
X373131Y472171D01*
X373409Y471949D01*
X373681Y471720D01*
X373948Y471484D01*
X374208Y471242D01*
X374463Y470993D01*
X374712Y470738D01*
X374954Y470478D01*
X375190Y470211D01*
X375419Y469939D01*
X375641Y469661D01*
X375857Y469378D01*
X376065Y469089D01*
X376266Y468796D01*
X376460Y468497D01*
X376647Y468194D01*
X376826Y467887D01*
X376998Y467575D01*
X377162Y467259D01*
X377318Y466940D01*
X377466Y466616D01*
X377606Y466289D01*
X377738Y465958D01*
X377862Y465625D01*
X377978Y465288D01*
X378086Y464949D01*
X378185Y464607D01*
X378275Y464263D01*
X378358Y463917D01*
X378431Y463569D01*
X378497Y463219D01*
X378553Y462868D01*
X378601Y462515D01*
X378640Y462161D01*
X378671Y461807D01*
X378693Y461451D01*
X378706Y461096D01*
X378710Y460740D01*
X378706Y460384D01*
X378693Y460029D01*
X378671Y459673D01*
X378640Y459319D01*
X378601Y458965D01*
X378553Y458612D01*
X378497Y458261D01*
X378431Y457911D01*
X378358Y457563D01*
X378275Y457217D01*
X378185Y456873D01*
X378086Y456531D01*
X377978Y456192D01*
X377862Y455855D01*
X377738Y455522D01*
X377606Y455191D01*
X377466Y454864D01*
X377318Y454540D01*
X377162Y454221D01*
X376998Y453905D01*
X376826Y453593D01*
X376647Y453286D01*
X376460Y452983D01*
X376266Y452684D01*
X376065Y452391D01*
X375857Y452102D01*
X375641Y451819D01*
X375419Y451541D01*
X375190Y451269D01*
X374954Y451002D01*
X374712Y450742D01*
X374463Y450487D01*
X374208Y450238D01*
X373948Y449996D01*
X373681Y449760D01*
X373409Y449531D01*
X373131Y449309D01*
X372848Y449093D01*
X372559Y448885D01*
X372266Y448684D01*
X371967Y448490D01*
X371664Y448303D01*
X371357Y448124D01*
X371045Y447952D01*
X370729Y447788D01*
X370410Y447632D01*
X370086Y447484D01*
X369759Y447344D01*
X369428Y447212D01*
X369095Y447088D01*
X368758Y446972D01*
X368419Y446864D01*
X368077Y446765D01*
X367733Y446675D01*
X367387Y446592D01*
X367039Y446519D01*
X366689Y446453D01*
X366338Y446397D01*
X365985Y446349D01*
X365631Y446310D01*
X365277Y446279D01*
X364921Y446257D01*
X364566Y446244D01*
X364210Y446240D01*
X363854Y446244D01*
X363499Y446257D01*
X363143Y446279D01*
X362789Y446310D01*
X362435Y446349D01*
X362082Y446397D01*
X361731Y446453D01*
X361381Y446519D01*
X361033Y446592D01*
X360687Y446675D01*
X360343Y446765D01*
X360001Y446864D01*
X359662Y446972D01*
X359325Y447088D01*
X358992Y447212D01*
X358661Y447344D01*
X358334Y447484D01*
X358010Y447632D01*
X357691Y447788D01*
X357375Y447952D01*
X357063Y448124D01*
X356756Y448303D01*
X356453Y448490D01*
X356154Y448684D01*
X355861Y448885D01*
X355572Y449093D01*
X355289Y449309D01*
X355011Y449531D01*
X354739Y449760D01*
X354472Y449996D01*
X354212Y450238D01*
X353957Y450487D01*
X353708Y450742D01*
X353466Y451002D01*
X353230Y451269D01*
X353001Y451541D01*
X352779Y451819D01*
X352563Y452102D01*
X352355Y452391D01*
X352154Y452684D01*
X351960Y452983D01*
X351773Y453286D01*
X351594Y453593D01*
X351422Y453905D01*
X351258Y454221D01*
X351102Y454540D01*
X350954Y454864D01*
X350814Y455191D01*
X350682Y455522D01*
X350558Y455855D01*
X350442Y456192D01*
X350334Y456531D01*
X350235Y456873D01*
X350145Y457217D01*
X350062Y457563D01*
X349989Y457911D01*
X349923Y458261D01*
X349867Y458612D01*
X349819Y458965D01*
X349780Y459319D01*
X349749Y459673D01*
X349727Y460029D01*
X349714Y460384D01*
X349710Y460740D01*
X314710Y460740D02*
X314714Y461096D01*
X314727Y461451D01*
X314749Y461807D01*
X314780Y462161D01*
X314819Y462515D01*
X314867Y462868D01*
X314923Y463219D01*
X314989Y463569D01*
X315062Y463917D01*
X315145Y464263D01*
X315235Y464607D01*
X315334Y464949D01*
X315442Y465288D01*
X315558Y465625D01*
X315682Y465958D01*
X315814Y466289D01*
X315954Y466616D01*
X316102Y466940D01*
X316258Y467259D01*
X316422Y467575D01*
X316594Y467887D01*
X316773Y468194D01*
X316960Y468497D01*
X317154Y468796D01*
X317355Y469089D01*
X317563Y469378D01*
X317779Y469661D01*
X318001Y469939D01*
X318230Y470211D01*
X318466Y470478D01*
X318708Y470738D01*
X318957Y470993D01*
X319212Y471242D01*
X319472Y471484D01*
X319739Y471720D01*
X320011Y471949D01*
X320289Y472171D01*
X320572Y472387D01*
X320861Y472595D01*
X321154Y472796D01*
X321453Y472990D01*
X321756Y473177D01*
X322063Y473356D01*
X322375Y473528D01*
X322691Y473692D01*
X323010Y473848D01*
X323334Y473996D01*
X323661Y474136D01*
X323992Y474268D01*
X324325Y474392D01*
X324662Y474508D01*
X325001Y474616D01*
X325343Y474715D01*
X325687Y474805D01*
X326033Y474888D01*
X326381Y474961D01*
X326731Y475027D01*
X327082Y475083D01*
X327435Y475131D01*
X327789Y475170D01*
X328143Y475201D01*
X328499Y475223D01*
X328854Y475236D01*
X329210Y475240D01*
X329566Y475236D01*
X329921Y475223D01*
X330277Y475201D01*
X330631Y475170D01*
X330985Y475131D01*
X331338Y475083D01*
X331689Y475027D01*
X332039Y474961D01*
X332387Y474888D01*
X332733Y474805D01*
X333077Y474715D01*
X333419Y474616D01*
X333758Y474508D01*
X334095Y474392D01*
X334428Y474268D01*
X334759Y474136D01*
X335086Y473996D01*
X335410Y473848D01*
X335729Y473692D01*
X336045Y473528D01*
X336357Y473356D01*
X336664Y473177D01*
X336967Y472990D01*
X337266Y472796D01*
X337559Y472595D01*
X337848Y472387D01*
X338131Y472171D01*
X338409Y471949D01*
X338681Y471720D01*
X338948Y471484D01*
X339208Y471242D01*
X339463Y470993D01*
X339712Y470738D01*
X339954Y470478D01*
X340190Y470211D01*
X340419Y469939D01*
X340641Y469661D01*
X340857Y469378D01*
X341065Y469089D01*
X341266Y468796D01*
X341460Y468497D01*
X341647Y468194D01*
X341826Y467887D01*
X341998Y467575D01*
X342162Y467259D01*
X342318Y466940D01*
X342466Y466616D01*
X342606Y466289D01*
X342738Y465958D01*
X342862Y465625D01*
X342978Y465288D01*
X343086Y464949D01*
X343185Y464607D01*
X343275Y464263D01*
X343358Y463917D01*
X343431Y463569D01*
X343497Y463219D01*
X343553Y462868D01*
X343601Y462515D01*
X343640Y462161D01*
X343671Y461807D01*
X343693Y461451D01*
X343706Y461096D01*
X343710Y460740D01*
X343706Y460384D01*
X343693Y460029D01*
X343671Y459673D01*
X343640Y459319D01*
X343601Y458965D01*
X343553Y458612D01*
X343497Y458261D01*
X343431Y457911D01*
X343358Y457563D01*
X343275Y457217D01*
X343185Y456873D01*
X343086Y456531D01*
X342978Y456192D01*
X342862Y455855D01*
X342738Y455522D01*
X342606Y455191D01*
X342466Y454864D01*
X342318Y454540D01*
X342162Y454221D01*
X341998Y453905D01*
X341826Y453593D01*
X341647Y453286D01*
X341460Y452983D01*
X341266Y452684D01*
X341065Y452391D01*
X340857Y452102D01*
X340641Y451819D01*
X340419Y451541D01*
X340190Y451269D01*
X339954Y451002D01*
X339712Y450742D01*
X339463Y450487D01*
X339208Y450238D01*
X338948Y449996D01*
X338681Y449760D01*
X338409Y449531D01*
X338131Y449309D01*
X337848Y449093D01*
X337559Y448885D01*
X337266Y448684D01*
X336967Y448490D01*
X336664Y448303D01*
X336357Y448124D01*
X336045Y447952D01*
X335729Y447788D01*
X335410Y447632D01*
X335086Y447484D01*
X334759Y447344D01*
X334428Y447212D01*
X334095Y447088D01*
X333758Y446972D01*
X333419Y446864D01*
X333077Y446765D01*
X332733Y446675D01*
X332387Y446592D01*
X332039Y446519D01*
X331689Y446453D01*
X331338Y446397D01*
X330985Y446349D01*
X330631Y446310D01*
X330277Y446279D01*
X329921Y446257D01*
X329566Y446244D01*
X329210Y446240D01*
X328854Y446244D01*
X328499Y446257D01*
X328143Y446279D01*
X327789Y446310D01*
X327435Y446349D01*
X327082Y446397D01*
X326731Y446453D01*
X326381Y446519D01*
X326033Y446592D01*
X325687Y446675D01*
X325343Y446765D01*
X325001Y446864D01*
X324662Y446972D01*
X324325Y447088D01*
X323992Y447212D01*
X323661Y447344D01*
X323334Y447484D01*
X323010Y447632D01*
X322691Y447788D01*
X322375Y447952D01*
X322063Y448124D01*
X321756Y448303D01*
X321453Y448490D01*
X321154Y448684D01*
X320861Y448885D01*
X320572Y449093D01*
X320289Y449309D01*
X320011Y449531D01*
X319739Y449760D01*
X319472Y449996D01*
X319212Y450238D01*
X318957Y450487D01*
X318708Y450742D01*
X318466Y451002D01*
X318230Y451269D01*
X318001Y451541D01*
X317779Y451819D01*
X317563Y452102D01*
X317355Y452391D01*
X317154Y452684D01*
X316960Y452983D01*
X316773Y453286D01*
X316594Y453593D01*
X316422Y453905D01*
X316258Y454221D01*
X316102Y454540D01*
X315954Y454864D01*
X315814Y455191D01*
X315682Y455522D01*
X315558Y455855D01*
X315442Y456192D01*
X315334Y456531D01*
X315235Y456873D01*
X315145Y457217D01*
X315062Y457563D01*
X314989Y457911D01*
X314923Y458261D01*
X314867Y458612D01*
X314819Y458965D01*
X314780Y459319D01*
X314749Y459673D01*
X314727Y460029D01*
X314714Y460384D01*
X314710Y460740D01*
X309210Y423240D02*
X384210Y423240D01*
X384210Y440617D01*
X384210Y480733D02*
X309210Y480733D01*
X309210Y475903D01*
X309210Y445373D01*
X309210Y440617D01*
X309210Y480733D02*
X309210Y488850D01*
X309210Y440617D02*
X384210Y440617D01*
X384210Y445373D02*
X384210Y475903D01*
X384210Y445373D02*
X384210Y440617D01*
X384210Y445373D02*
X309210Y445373D01*
X309210Y475903D02*
X384210Y475903D01*
X309210Y440617D02*
X309210Y423240D01*
X384210Y475903D02*
X384210Y480733D01*
X384210Y488850D01*
X309210Y488850D01*
X309210Y496240D02*
X384210Y496240D01*
X309210Y496240D02*
X309210Y493240D01*
X384210Y493240D01*
X384210Y496240D01*
X384210Y493240D02*
X384210Y488850D01*
X309210Y488850D02*
X309210Y493240D01*
X352150Y453630D02*
X352210Y453690D01*
X317210Y453690D02*
X317150Y453630D01*
X361711Y434411D02*
X364956Y437007D01*
X364956Y425323D01*
X361711Y425323D02*
X368202Y425323D01*
X333277Y434086D02*
X333275Y434193D01*
X333269Y434299D01*
X333259Y434405D01*
X333246Y434511D01*
X333228Y434617D01*
X333207Y434721D01*
X333182Y434825D01*
X333153Y434928D01*
X333121Y435029D01*
X333084Y435129D01*
X333044Y435228D01*
X333001Y435326D01*
X332954Y435422D01*
X332903Y435516D01*
X332849Y435608D01*
X332792Y435698D01*
X332732Y435786D01*
X332668Y435871D01*
X332601Y435954D01*
X332531Y436035D01*
X332459Y436113D01*
X332383Y436189D01*
X332305Y436261D01*
X332224Y436331D01*
X332141Y436398D01*
X332056Y436462D01*
X331968Y436522D01*
X331878Y436579D01*
X331786Y436633D01*
X331692Y436684D01*
X331596Y436731D01*
X331498Y436774D01*
X331399Y436814D01*
X331299Y436851D01*
X331198Y436883D01*
X331095Y436912D01*
X330991Y436937D01*
X330887Y436958D01*
X330781Y436976D01*
X330675Y436989D01*
X330569Y436999D01*
X330463Y437005D01*
X330356Y437007D01*
X330235Y437005D01*
X330114Y436999D01*
X329994Y436989D01*
X329873Y436976D01*
X329754Y436958D01*
X329634Y436937D01*
X329516Y436912D01*
X329399Y436883D01*
X329282Y436850D01*
X329167Y436814D01*
X329053Y436773D01*
X328940Y436730D01*
X328828Y436682D01*
X328719Y436631D01*
X328611Y436576D01*
X328504Y436518D01*
X328400Y436457D01*
X328298Y436392D01*
X328198Y436324D01*
X328100Y436253D01*
X328004Y436179D01*
X327911Y436102D01*
X327821Y436021D01*
X327733Y435938D01*
X327648Y435852D01*
X327565Y435763D01*
X327486Y435672D01*
X327409Y435578D01*
X327336Y435482D01*
X327266Y435384D01*
X327199Y435283D01*
X327135Y435180D01*
X327075Y435075D01*
X327018Y434968D01*
X326964Y434860D01*
X326914Y434750D01*
X326868Y434638D01*
X326825Y434525D01*
X326786Y434410D01*
X332304Y431814D02*
X332383Y431891D01*
X332459Y431972D01*
X332532Y432055D01*
X332602Y432140D01*
X332669Y432228D01*
X332733Y432318D01*
X332793Y432410D01*
X332850Y432505D01*
X332904Y432601D01*
X332955Y432699D01*
X333002Y432799D01*
X333046Y432901D01*
X333086Y433004D01*
X333122Y433108D01*
X333154Y433214D01*
X333183Y433320D01*
X333208Y433428D01*
X333230Y433536D01*
X333247Y433646D01*
X333261Y433755D01*
X333270Y433865D01*
X333276Y433976D01*
X333278Y434086D01*
X332303Y431814D02*
X326786Y425323D01*
X333277Y425323D01*
D11*
X303234Y415192D02*
X297307Y397412D01*
X309160Y397412D02*
X303234Y415192D01*
X307679Y401857D02*
X298789Y401857D01*
X315045Y402351D02*
X315045Y410253D01*
X315047Y410393D01*
X315053Y410532D01*
X315063Y410672D01*
X315077Y410811D01*
X315094Y410950D01*
X315116Y411088D01*
X315142Y411225D01*
X315171Y411362D01*
X315204Y411498D01*
X315241Y411632D01*
X315282Y411766D01*
X315327Y411898D01*
X315376Y412030D01*
X315428Y412159D01*
X315483Y412287D01*
X315543Y412414D01*
X315606Y412539D01*
X315672Y412662D01*
X315742Y412783D01*
X315815Y412902D01*
X315892Y413019D01*
X315972Y413133D01*
X316055Y413246D01*
X316141Y413356D01*
X316231Y413463D01*
X316323Y413568D01*
X316418Y413670D01*
X316516Y413770D01*
X316617Y413867D01*
X316721Y413961D01*
X316827Y414051D01*
X316936Y414139D01*
X317047Y414224D01*
X317161Y414305D01*
X317276Y414384D01*
X317394Y414459D01*
X317515Y414530D01*
X317637Y414598D01*
X317760Y414663D01*
X317886Y414724D01*
X318014Y414782D01*
X318142Y414836D01*
X318273Y414886D01*
X318405Y414933D01*
X318538Y414976D01*
X318672Y415015D01*
X318807Y415050D01*
X318943Y415081D01*
X319081Y415109D01*
X319218Y415132D01*
X319357Y415152D01*
X319496Y415168D01*
X319635Y415180D01*
X319774Y415188D01*
X319914Y415192D01*
X320054Y415192D01*
X320194Y415188D01*
X320333Y415180D01*
X320472Y415168D01*
X320611Y415152D01*
X320750Y415132D01*
X320887Y415109D01*
X321025Y415081D01*
X321161Y415050D01*
X321296Y415015D01*
X321430Y414976D01*
X321563Y414933D01*
X321695Y414886D01*
X321826Y414836D01*
X321954Y414782D01*
X322082Y414724D01*
X322208Y414663D01*
X322331Y414598D01*
X322454Y414530D01*
X322574Y414459D01*
X322692Y414384D01*
X322807Y414305D01*
X322921Y414224D01*
X323032Y414139D01*
X323141Y414051D01*
X323247Y413961D01*
X323351Y413867D01*
X323452Y413770D01*
X323550Y413670D01*
X323645Y413568D01*
X323737Y413463D01*
X323827Y413356D01*
X323913Y413246D01*
X323996Y413133D01*
X324076Y413019D01*
X324153Y412902D01*
X324226Y412783D01*
X324296Y412662D01*
X324362Y412539D01*
X324425Y412414D01*
X324485Y412287D01*
X324540Y412159D01*
X324592Y412030D01*
X324641Y411898D01*
X324686Y411766D01*
X324727Y411632D01*
X324764Y411498D01*
X324797Y411362D01*
X324826Y411225D01*
X324852Y411088D01*
X324874Y410950D01*
X324891Y410811D01*
X324905Y410672D01*
X324915Y410532D01*
X324921Y410393D01*
X324923Y410253D01*
X324923Y402351D01*
X324921Y402211D01*
X324915Y402072D01*
X324905Y401932D01*
X324891Y401793D01*
X324874Y401654D01*
X324852Y401516D01*
X324826Y401379D01*
X324797Y401242D01*
X324764Y401106D01*
X324727Y400972D01*
X324686Y400838D01*
X324641Y400706D01*
X324592Y400574D01*
X324540Y400445D01*
X324485Y400317D01*
X324425Y400190D01*
X324362Y400065D01*
X324296Y399942D01*
X324226Y399821D01*
X324153Y399702D01*
X324076Y399585D01*
X323996Y399471D01*
X323913Y399358D01*
X323827Y399248D01*
X323737Y399141D01*
X323645Y399036D01*
X323550Y398934D01*
X323452Y398834D01*
X323351Y398737D01*
X323247Y398643D01*
X323141Y398553D01*
X323032Y398465D01*
X322921Y398380D01*
X322807Y398299D01*
X322692Y398220D01*
X322574Y398145D01*
X322454Y398074D01*
X322331Y398006D01*
X322208Y397941D01*
X322082Y397880D01*
X321954Y397822D01*
X321826Y397768D01*
X321695Y397718D01*
X321563Y397671D01*
X321430Y397628D01*
X321296Y397589D01*
X321161Y397554D01*
X321025Y397523D01*
X320887Y397495D01*
X320750Y397472D01*
X320611Y397452D01*
X320472Y397436D01*
X320333Y397424D01*
X320194Y397416D01*
X320054Y397412D01*
X319914Y397412D01*
X319774Y397416D01*
X319635Y397424D01*
X319496Y397436D01*
X319357Y397452D01*
X319218Y397472D01*
X319081Y397495D01*
X318943Y397523D01*
X318807Y397554D01*
X318672Y397589D01*
X318538Y397628D01*
X318405Y397671D01*
X318273Y397718D01*
X318142Y397768D01*
X318014Y397822D01*
X317886Y397880D01*
X317760Y397941D01*
X317637Y398006D01*
X317515Y398074D01*
X317394Y398145D01*
X317276Y398220D01*
X317161Y398299D01*
X317047Y398380D01*
X316936Y398465D01*
X316827Y398553D01*
X316721Y398643D01*
X316617Y398737D01*
X316516Y398834D01*
X316418Y398934D01*
X316323Y399036D01*
X316231Y399141D01*
X316141Y399248D01*
X316055Y399358D01*
X315972Y399471D01*
X315892Y399585D01*
X315815Y399702D01*
X315742Y399821D01*
X315672Y399942D01*
X315606Y400065D01*
X315543Y400190D01*
X315483Y400317D01*
X315428Y400445D01*
X315376Y400574D01*
X315327Y400706D01*
X315282Y400838D01*
X315241Y400972D01*
X315204Y401106D01*
X315171Y401242D01*
X315142Y401379D01*
X315116Y401516D01*
X315094Y401654D01*
X315077Y401793D01*
X315063Y401932D01*
X315053Y402072D01*
X315047Y402211D01*
X315045Y402351D01*
D10*
X291710Y268910D02*
X401710Y268910D01*
X291710Y268910D02*
X291710Y251533D01*
X291710Y211417D02*
X401710Y211417D01*
X401710Y216247D02*
X401710Y246777D01*
X401710Y211417D02*
X401710Y203300D01*
X401710Y211417D02*
X401710Y216247D01*
X291710Y246777D02*
X291710Y251533D01*
X401710Y251533D01*
X401710Y246777D01*
X291710Y246777D02*
X291710Y216247D01*
X291710Y246777D02*
X401710Y246777D01*
X401710Y216247D02*
X291710Y216247D01*
X401710Y251533D02*
X401710Y268910D01*
X291710Y216247D02*
X291710Y211417D01*
X291710Y203300D01*
X401710Y203300D01*
X401710Y195910D02*
X291710Y195910D01*
X401710Y195910D02*
X401710Y198910D01*
X291710Y198910D01*
X291710Y195910D01*
X291710Y198910D02*
X291710Y203300D01*
X401710Y203300D02*
X401710Y198910D01*
X323770Y238520D02*
X323710Y238460D01*
X358710Y238460D02*
X358770Y238520D01*
X393710Y238460D02*
X393770Y238520D01*
X297210Y231410D02*
X297214Y231766D01*
X297227Y232121D01*
X297249Y232477D01*
X297280Y232831D01*
X297319Y233185D01*
X297367Y233538D01*
X297423Y233889D01*
X297489Y234239D01*
X297562Y234587D01*
X297645Y234933D01*
X297735Y235277D01*
X297834Y235619D01*
X297942Y235958D01*
X298058Y236295D01*
X298182Y236628D01*
X298314Y236959D01*
X298454Y237286D01*
X298602Y237610D01*
X298758Y237929D01*
X298922Y238245D01*
X299094Y238557D01*
X299273Y238864D01*
X299460Y239167D01*
X299654Y239466D01*
X299855Y239759D01*
X300063Y240048D01*
X300279Y240331D01*
X300501Y240609D01*
X300730Y240881D01*
X300966Y241148D01*
X301208Y241408D01*
X301457Y241663D01*
X301712Y241912D01*
X301972Y242154D01*
X302239Y242390D01*
X302511Y242619D01*
X302789Y242841D01*
X303072Y243057D01*
X303361Y243265D01*
X303654Y243466D01*
X303953Y243660D01*
X304256Y243847D01*
X304563Y244026D01*
X304875Y244198D01*
X305191Y244362D01*
X305510Y244518D01*
X305834Y244666D01*
X306161Y244806D01*
X306492Y244938D01*
X306825Y245062D01*
X307162Y245178D01*
X307501Y245286D01*
X307843Y245385D01*
X308187Y245475D01*
X308533Y245558D01*
X308881Y245631D01*
X309231Y245697D01*
X309582Y245753D01*
X309935Y245801D01*
X310289Y245840D01*
X310643Y245871D01*
X310999Y245893D01*
X311354Y245906D01*
X311710Y245910D01*
X312066Y245906D01*
X312421Y245893D01*
X312777Y245871D01*
X313131Y245840D01*
X313485Y245801D01*
X313838Y245753D01*
X314189Y245697D01*
X314539Y245631D01*
X314887Y245558D01*
X315233Y245475D01*
X315577Y245385D01*
X315919Y245286D01*
X316258Y245178D01*
X316595Y245062D01*
X316928Y244938D01*
X317259Y244806D01*
X317586Y244666D01*
X317910Y244518D01*
X318229Y244362D01*
X318545Y244198D01*
X318857Y244026D01*
X319164Y243847D01*
X319467Y243660D01*
X319766Y243466D01*
X320059Y243265D01*
X320348Y243057D01*
X320631Y242841D01*
X320909Y242619D01*
X321181Y242390D01*
X321448Y242154D01*
X321708Y241912D01*
X321963Y241663D01*
X322212Y241408D01*
X322454Y241148D01*
X322690Y240881D01*
X322919Y240609D01*
X323141Y240331D01*
X323357Y240048D01*
X323565Y239759D01*
X323766Y239466D01*
X323960Y239167D01*
X324147Y238864D01*
X324326Y238557D01*
X324498Y238245D01*
X324662Y237929D01*
X324818Y237610D01*
X324966Y237286D01*
X325106Y236959D01*
X325238Y236628D01*
X325362Y236295D01*
X325478Y235958D01*
X325586Y235619D01*
X325685Y235277D01*
X325775Y234933D01*
X325858Y234587D01*
X325931Y234239D01*
X325997Y233889D01*
X326053Y233538D01*
X326101Y233185D01*
X326140Y232831D01*
X326171Y232477D01*
X326193Y232121D01*
X326206Y231766D01*
X326210Y231410D01*
X326206Y231054D01*
X326193Y230699D01*
X326171Y230343D01*
X326140Y229989D01*
X326101Y229635D01*
X326053Y229282D01*
X325997Y228931D01*
X325931Y228581D01*
X325858Y228233D01*
X325775Y227887D01*
X325685Y227543D01*
X325586Y227201D01*
X325478Y226862D01*
X325362Y226525D01*
X325238Y226192D01*
X325106Y225861D01*
X324966Y225534D01*
X324818Y225210D01*
X324662Y224891D01*
X324498Y224575D01*
X324326Y224263D01*
X324147Y223956D01*
X323960Y223653D01*
X323766Y223354D01*
X323565Y223061D01*
X323357Y222772D01*
X323141Y222489D01*
X322919Y222211D01*
X322690Y221939D01*
X322454Y221672D01*
X322212Y221412D01*
X321963Y221157D01*
X321708Y220908D01*
X321448Y220666D01*
X321181Y220430D01*
X320909Y220201D01*
X320631Y219979D01*
X320348Y219763D01*
X320059Y219555D01*
X319766Y219354D01*
X319467Y219160D01*
X319164Y218973D01*
X318857Y218794D01*
X318545Y218622D01*
X318229Y218458D01*
X317910Y218302D01*
X317586Y218154D01*
X317259Y218014D01*
X316928Y217882D01*
X316595Y217758D01*
X316258Y217642D01*
X315919Y217534D01*
X315577Y217435D01*
X315233Y217345D01*
X314887Y217262D01*
X314539Y217189D01*
X314189Y217123D01*
X313838Y217067D01*
X313485Y217019D01*
X313131Y216980D01*
X312777Y216949D01*
X312421Y216927D01*
X312066Y216914D01*
X311710Y216910D01*
X311354Y216914D01*
X310999Y216927D01*
X310643Y216949D01*
X310289Y216980D01*
X309935Y217019D01*
X309582Y217067D01*
X309231Y217123D01*
X308881Y217189D01*
X308533Y217262D01*
X308187Y217345D01*
X307843Y217435D01*
X307501Y217534D01*
X307162Y217642D01*
X306825Y217758D01*
X306492Y217882D01*
X306161Y218014D01*
X305834Y218154D01*
X305510Y218302D01*
X305191Y218458D01*
X304875Y218622D01*
X304563Y218794D01*
X304256Y218973D01*
X303953Y219160D01*
X303654Y219354D01*
X303361Y219555D01*
X303072Y219763D01*
X302789Y219979D01*
X302511Y220201D01*
X302239Y220430D01*
X301972Y220666D01*
X301712Y220908D01*
X301457Y221157D01*
X301208Y221412D01*
X300966Y221672D01*
X300730Y221939D01*
X300501Y222211D01*
X300279Y222489D01*
X300063Y222772D01*
X299855Y223061D01*
X299654Y223354D01*
X299460Y223653D01*
X299273Y223956D01*
X299094Y224263D01*
X298922Y224575D01*
X298758Y224891D01*
X298602Y225210D01*
X298454Y225534D01*
X298314Y225861D01*
X298182Y226192D01*
X298058Y226525D01*
X297942Y226862D01*
X297834Y227201D01*
X297735Y227543D01*
X297645Y227887D01*
X297562Y228233D01*
X297489Y228581D01*
X297423Y228931D01*
X297367Y229282D01*
X297319Y229635D01*
X297280Y229989D01*
X297249Y230343D01*
X297227Y230699D01*
X297214Y231054D01*
X297210Y231410D01*
X332210Y231410D02*
X332214Y231766D01*
X332227Y232121D01*
X332249Y232477D01*
X332280Y232831D01*
X332319Y233185D01*
X332367Y233538D01*
X332423Y233889D01*
X332489Y234239D01*
X332562Y234587D01*
X332645Y234933D01*
X332735Y235277D01*
X332834Y235619D01*
X332942Y235958D01*
X333058Y236295D01*
X333182Y236628D01*
X333314Y236959D01*
X333454Y237286D01*
X333602Y237610D01*
X333758Y237929D01*
X333922Y238245D01*
X334094Y238557D01*
X334273Y238864D01*
X334460Y239167D01*
X334654Y239466D01*
X334855Y239759D01*
X335063Y240048D01*
X335279Y240331D01*
X335501Y240609D01*
X335730Y240881D01*
X335966Y241148D01*
X336208Y241408D01*
X336457Y241663D01*
X336712Y241912D01*
X336972Y242154D01*
X337239Y242390D01*
X337511Y242619D01*
X337789Y242841D01*
X338072Y243057D01*
X338361Y243265D01*
X338654Y243466D01*
X338953Y243660D01*
X339256Y243847D01*
X339563Y244026D01*
X339875Y244198D01*
X340191Y244362D01*
X340510Y244518D01*
X340834Y244666D01*
X341161Y244806D01*
X341492Y244938D01*
X341825Y245062D01*
X342162Y245178D01*
X342501Y245286D01*
X342843Y245385D01*
X343187Y245475D01*
X343533Y245558D01*
X343881Y245631D01*
X344231Y245697D01*
X344582Y245753D01*
X344935Y245801D01*
X345289Y245840D01*
X345643Y245871D01*
X345999Y245893D01*
X346354Y245906D01*
X346710Y245910D01*
X347066Y245906D01*
X347421Y245893D01*
X347777Y245871D01*
X348131Y245840D01*
X348485Y245801D01*
X348838Y245753D01*
X349189Y245697D01*
X349539Y245631D01*
X349887Y245558D01*
X350233Y245475D01*
X350577Y245385D01*
X350919Y245286D01*
X351258Y245178D01*
X351595Y245062D01*
X351928Y244938D01*
X352259Y244806D01*
X352586Y244666D01*
X352910Y244518D01*
X353229Y244362D01*
X353545Y244198D01*
X353857Y244026D01*
X354164Y243847D01*
X354467Y243660D01*
X354766Y243466D01*
X355059Y243265D01*
X355348Y243057D01*
X355631Y242841D01*
X355909Y242619D01*
X356181Y242390D01*
X356448Y242154D01*
X356708Y241912D01*
X356963Y241663D01*
X357212Y241408D01*
X357454Y241148D01*
X357690Y240881D01*
X357919Y240609D01*
X358141Y240331D01*
X358357Y240048D01*
X358565Y239759D01*
X358766Y239466D01*
X358960Y239167D01*
X359147Y238864D01*
X359326Y238557D01*
X359498Y238245D01*
X359662Y237929D01*
X359818Y237610D01*
X359966Y237286D01*
X360106Y236959D01*
X360238Y236628D01*
X360362Y236295D01*
X360478Y235958D01*
X360586Y235619D01*
X360685Y235277D01*
X360775Y234933D01*
X360858Y234587D01*
X360931Y234239D01*
X360997Y233889D01*
X361053Y233538D01*
X361101Y233185D01*
X361140Y232831D01*
X361171Y232477D01*
X361193Y232121D01*
X361206Y231766D01*
X361210Y231410D01*
X361206Y231054D01*
X361193Y230699D01*
X361171Y230343D01*
X361140Y229989D01*
X361101Y229635D01*
X361053Y229282D01*
X360997Y228931D01*
X360931Y228581D01*
X360858Y228233D01*
X360775Y227887D01*
X360685Y227543D01*
X360586Y227201D01*
X360478Y226862D01*
X360362Y226525D01*
X360238Y226192D01*
X360106Y225861D01*
X359966Y225534D01*
X359818Y225210D01*
X359662Y224891D01*
X359498Y224575D01*
X359326Y224263D01*
X359147Y223956D01*
X358960Y223653D01*
X358766Y223354D01*
X358565Y223061D01*
X358357Y222772D01*
X358141Y222489D01*
X357919Y222211D01*
X357690Y221939D01*
X357454Y221672D01*
X357212Y221412D01*
X356963Y221157D01*
X356708Y220908D01*
X356448Y220666D01*
X356181Y220430D01*
X355909Y220201D01*
X355631Y219979D01*
X355348Y219763D01*
X355059Y219555D01*
X354766Y219354D01*
X354467Y219160D01*
X354164Y218973D01*
X353857Y218794D01*
X353545Y218622D01*
X353229Y218458D01*
X352910Y218302D01*
X352586Y218154D01*
X352259Y218014D01*
X351928Y217882D01*
X351595Y217758D01*
X351258Y217642D01*
X350919Y217534D01*
X350577Y217435D01*
X350233Y217345D01*
X349887Y217262D01*
X349539Y217189D01*
X349189Y217123D01*
X348838Y217067D01*
X348485Y217019D01*
X348131Y216980D01*
X347777Y216949D01*
X347421Y216927D01*
X347066Y216914D01*
X346710Y216910D01*
X346354Y216914D01*
X345999Y216927D01*
X345643Y216949D01*
X345289Y216980D01*
X344935Y217019D01*
X344582Y217067D01*
X344231Y217123D01*
X343881Y217189D01*
X343533Y217262D01*
X343187Y217345D01*
X342843Y217435D01*
X342501Y217534D01*
X342162Y217642D01*
X341825Y217758D01*
X341492Y217882D01*
X341161Y218014D01*
X340834Y218154D01*
X340510Y218302D01*
X340191Y218458D01*
X339875Y218622D01*
X339563Y218794D01*
X339256Y218973D01*
X338953Y219160D01*
X338654Y219354D01*
X338361Y219555D01*
X338072Y219763D01*
X337789Y219979D01*
X337511Y220201D01*
X337239Y220430D01*
X336972Y220666D01*
X336712Y220908D01*
X336457Y221157D01*
X336208Y221412D01*
X335966Y221672D01*
X335730Y221939D01*
X335501Y222211D01*
X335279Y222489D01*
X335063Y222772D01*
X334855Y223061D01*
X334654Y223354D01*
X334460Y223653D01*
X334273Y223956D01*
X334094Y224263D01*
X333922Y224575D01*
X333758Y224891D01*
X333602Y225210D01*
X333454Y225534D01*
X333314Y225861D01*
X333182Y226192D01*
X333058Y226525D01*
X332942Y226862D01*
X332834Y227201D01*
X332735Y227543D01*
X332645Y227887D01*
X332562Y228233D01*
X332489Y228581D01*
X332423Y228931D01*
X332367Y229282D01*
X332319Y229635D01*
X332280Y229989D01*
X332249Y230343D01*
X332227Y230699D01*
X332214Y231054D01*
X332210Y231410D01*
X367210Y231410D02*
X367214Y231766D01*
X367227Y232121D01*
X367249Y232477D01*
X367280Y232831D01*
X367319Y233185D01*
X367367Y233538D01*
X367423Y233889D01*
X367489Y234239D01*
X367562Y234587D01*
X367645Y234933D01*
X367735Y235277D01*
X367834Y235619D01*
X367942Y235958D01*
X368058Y236295D01*
X368182Y236628D01*
X368314Y236959D01*
X368454Y237286D01*
X368602Y237610D01*
X368758Y237929D01*
X368922Y238245D01*
X369094Y238557D01*
X369273Y238864D01*
X369460Y239167D01*
X369654Y239466D01*
X369855Y239759D01*
X370063Y240048D01*
X370279Y240331D01*
X370501Y240609D01*
X370730Y240881D01*
X370966Y241148D01*
X371208Y241408D01*
X371457Y241663D01*
X371712Y241912D01*
X371972Y242154D01*
X372239Y242390D01*
X372511Y242619D01*
X372789Y242841D01*
X373072Y243057D01*
X373361Y243265D01*
X373654Y243466D01*
X373953Y243660D01*
X374256Y243847D01*
X374563Y244026D01*
X374875Y244198D01*
X375191Y244362D01*
X375510Y244518D01*
X375834Y244666D01*
X376161Y244806D01*
X376492Y244938D01*
X376825Y245062D01*
X377162Y245178D01*
X377501Y245286D01*
X377843Y245385D01*
X378187Y245475D01*
X378533Y245558D01*
X378881Y245631D01*
X379231Y245697D01*
X379582Y245753D01*
X379935Y245801D01*
X380289Y245840D01*
X380643Y245871D01*
X380999Y245893D01*
X381354Y245906D01*
X381710Y245910D01*
X382066Y245906D01*
X382421Y245893D01*
X382777Y245871D01*
X383131Y245840D01*
X383485Y245801D01*
X383838Y245753D01*
X384189Y245697D01*
X384539Y245631D01*
X384887Y245558D01*
X385233Y245475D01*
X385577Y245385D01*
X385919Y245286D01*
X386258Y245178D01*
X386595Y245062D01*
X386928Y244938D01*
X387259Y244806D01*
X387586Y244666D01*
X387910Y244518D01*
X388229Y244362D01*
X388545Y244198D01*
X388857Y244026D01*
X389164Y243847D01*
X389467Y243660D01*
X389766Y243466D01*
X390059Y243265D01*
X390348Y243057D01*
X390631Y242841D01*
X390909Y242619D01*
X391181Y242390D01*
X391448Y242154D01*
X391708Y241912D01*
X391963Y241663D01*
X392212Y241408D01*
X392454Y241148D01*
X392690Y240881D01*
X392919Y240609D01*
X393141Y240331D01*
X393357Y240048D01*
X393565Y239759D01*
X393766Y239466D01*
X393960Y239167D01*
X394147Y238864D01*
X394326Y238557D01*
X394498Y238245D01*
X394662Y237929D01*
X394818Y237610D01*
X394966Y237286D01*
X395106Y236959D01*
X395238Y236628D01*
X395362Y236295D01*
X395478Y235958D01*
X395586Y235619D01*
X395685Y235277D01*
X395775Y234933D01*
X395858Y234587D01*
X395931Y234239D01*
X395997Y233889D01*
X396053Y233538D01*
X396101Y233185D01*
X396140Y232831D01*
X396171Y232477D01*
X396193Y232121D01*
X396206Y231766D01*
X396210Y231410D01*
X396206Y231054D01*
X396193Y230699D01*
X396171Y230343D01*
X396140Y229989D01*
X396101Y229635D01*
X396053Y229282D01*
X395997Y228931D01*
X395931Y228581D01*
X395858Y228233D01*
X395775Y227887D01*
X395685Y227543D01*
X395586Y227201D01*
X395478Y226862D01*
X395362Y226525D01*
X395238Y226192D01*
X395106Y225861D01*
X394966Y225534D01*
X394818Y225210D01*
X394662Y224891D01*
X394498Y224575D01*
X394326Y224263D01*
X394147Y223956D01*
X393960Y223653D01*
X393766Y223354D01*
X393565Y223061D01*
X393357Y222772D01*
X393141Y222489D01*
X392919Y222211D01*
X392690Y221939D01*
X392454Y221672D01*
X392212Y221412D01*
X391963Y221157D01*
X391708Y220908D01*
X391448Y220666D01*
X391181Y220430D01*
X390909Y220201D01*
X390631Y219979D01*
X390348Y219763D01*
X390059Y219555D01*
X389766Y219354D01*
X389467Y219160D01*
X389164Y218973D01*
X388857Y218794D01*
X388545Y218622D01*
X388229Y218458D01*
X387910Y218302D01*
X387586Y218154D01*
X387259Y218014D01*
X386928Y217882D01*
X386595Y217758D01*
X386258Y217642D01*
X385919Y217534D01*
X385577Y217435D01*
X385233Y217345D01*
X384887Y217262D01*
X384539Y217189D01*
X384189Y217123D01*
X383838Y217067D01*
X383485Y217019D01*
X383131Y216980D01*
X382777Y216949D01*
X382421Y216927D01*
X382066Y216914D01*
X381710Y216910D01*
X381354Y216914D01*
X380999Y216927D01*
X380643Y216949D01*
X380289Y216980D01*
X379935Y217019D01*
X379582Y217067D01*
X379231Y217123D01*
X378881Y217189D01*
X378533Y217262D01*
X378187Y217345D01*
X377843Y217435D01*
X377501Y217534D01*
X377162Y217642D01*
X376825Y217758D01*
X376492Y217882D01*
X376161Y218014D01*
X375834Y218154D01*
X375510Y218302D01*
X375191Y218458D01*
X374875Y218622D01*
X374563Y218794D01*
X374256Y218973D01*
X373953Y219160D01*
X373654Y219354D01*
X373361Y219555D01*
X373072Y219763D01*
X372789Y219979D01*
X372511Y220201D01*
X372239Y220430D01*
X371972Y220666D01*
X371712Y220908D01*
X371457Y221157D01*
X371208Y221412D01*
X370966Y221672D01*
X370730Y221939D01*
X370501Y222211D01*
X370279Y222489D01*
X370063Y222772D01*
X369855Y223061D01*
X369654Y223354D01*
X369460Y223653D01*
X369273Y223956D01*
X369094Y224263D01*
X368922Y224575D01*
X368758Y224891D01*
X368602Y225210D01*
X368454Y225534D01*
X368314Y225861D01*
X368182Y226192D01*
X368058Y226525D01*
X367942Y226862D01*
X367834Y227201D01*
X367735Y227543D01*
X367645Y227887D01*
X367562Y228233D01*
X367489Y228581D01*
X367423Y228931D01*
X367367Y229282D01*
X367319Y229635D01*
X367280Y229989D01*
X367249Y230343D01*
X367227Y230699D01*
X367214Y231054D01*
X367210Y231410D01*
X310964Y266827D02*
X307718Y264231D01*
X310964Y266827D02*
X310964Y255143D01*
X314209Y255143D02*
X307718Y255143D01*
X346213Y266827D02*
X346320Y266825D01*
X346426Y266819D01*
X346532Y266809D01*
X346638Y266796D01*
X346744Y266778D01*
X346848Y266757D01*
X346952Y266732D01*
X347055Y266703D01*
X347156Y266671D01*
X347256Y266634D01*
X347355Y266594D01*
X347453Y266551D01*
X347549Y266504D01*
X347643Y266453D01*
X347735Y266399D01*
X347825Y266342D01*
X347913Y266282D01*
X347998Y266218D01*
X348081Y266151D01*
X348162Y266081D01*
X348240Y266009D01*
X348316Y265933D01*
X348388Y265855D01*
X348458Y265774D01*
X348525Y265691D01*
X348589Y265606D01*
X348649Y265518D01*
X348706Y265428D01*
X348760Y265336D01*
X348811Y265242D01*
X348858Y265146D01*
X348901Y265048D01*
X348941Y264949D01*
X348978Y264849D01*
X349010Y264748D01*
X349039Y264645D01*
X349064Y264541D01*
X349085Y264437D01*
X349103Y264331D01*
X349116Y264225D01*
X349126Y264119D01*
X349132Y264013D01*
X349134Y263906D01*
X346213Y266827D02*
X346092Y266825D01*
X345971Y266819D01*
X345851Y266809D01*
X345730Y266796D01*
X345611Y266778D01*
X345491Y266757D01*
X345373Y266732D01*
X345256Y266703D01*
X345139Y266670D01*
X345024Y266634D01*
X344910Y266593D01*
X344797Y266550D01*
X344685Y266502D01*
X344576Y266451D01*
X344468Y266396D01*
X344361Y266338D01*
X344257Y266277D01*
X344155Y266212D01*
X344055Y266144D01*
X343957Y266073D01*
X343861Y265999D01*
X343768Y265922D01*
X343678Y265841D01*
X343590Y265758D01*
X343505Y265672D01*
X343422Y265583D01*
X343343Y265492D01*
X343266Y265398D01*
X343193Y265302D01*
X343123Y265204D01*
X343056Y265103D01*
X342992Y265000D01*
X342932Y264895D01*
X342875Y264788D01*
X342821Y264680D01*
X342771Y264570D01*
X342725Y264458D01*
X342682Y264345D01*
X342643Y264230D01*
X348161Y261634D02*
X348240Y261711D01*
X348316Y261792D01*
X348389Y261875D01*
X348459Y261960D01*
X348526Y262048D01*
X348590Y262138D01*
X348650Y262230D01*
X348707Y262325D01*
X348761Y262421D01*
X348812Y262519D01*
X348859Y262619D01*
X348903Y262721D01*
X348943Y262824D01*
X348979Y262928D01*
X349011Y263034D01*
X349040Y263140D01*
X349065Y263248D01*
X349087Y263356D01*
X349104Y263466D01*
X349118Y263575D01*
X349127Y263685D01*
X349133Y263796D01*
X349135Y263906D01*
X348160Y261634D02*
X342643Y255143D01*
X349134Y255143D01*
X377568Y255143D02*
X380814Y255143D01*
X380927Y255145D01*
X381040Y255151D01*
X381153Y255161D01*
X381266Y255175D01*
X381378Y255192D01*
X381489Y255214D01*
X381599Y255239D01*
X381709Y255269D01*
X381817Y255302D01*
X381924Y255339D01*
X382030Y255379D01*
X382134Y255424D01*
X382237Y255472D01*
X382338Y255523D01*
X382437Y255578D01*
X382534Y255636D01*
X382629Y255698D01*
X382722Y255763D01*
X382812Y255831D01*
X382900Y255902D01*
X382986Y255977D01*
X383069Y256054D01*
X383149Y256134D01*
X383226Y256217D01*
X383301Y256303D01*
X383372Y256391D01*
X383440Y256481D01*
X383505Y256574D01*
X383567Y256669D01*
X383625Y256766D01*
X383680Y256865D01*
X383731Y256966D01*
X383779Y257069D01*
X383824Y257173D01*
X383864Y257279D01*
X383901Y257386D01*
X383934Y257494D01*
X383964Y257604D01*
X383989Y257714D01*
X384011Y257825D01*
X384028Y257937D01*
X384042Y258050D01*
X384052Y258163D01*
X384058Y258276D01*
X384060Y258389D01*
X384058Y258502D01*
X384052Y258615D01*
X384042Y258728D01*
X384028Y258841D01*
X384011Y258953D01*
X383989Y259064D01*
X383964Y259174D01*
X383934Y259284D01*
X383901Y259392D01*
X383864Y259499D01*
X383824Y259605D01*
X383779Y259709D01*
X383731Y259812D01*
X383680Y259913D01*
X383625Y260012D01*
X383567Y260109D01*
X383505Y260204D01*
X383440Y260297D01*
X383372Y260387D01*
X383301Y260475D01*
X383226Y260561D01*
X383149Y260644D01*
X383069Y260724D01*
X382986Y260801D01*
X382900Y260876D01*
X382812Y260947D01*
X382722Y261015D01*
X382629Y261080D01*
X382534Y261142D01*
X382437Y261200D01*
X382338Y261255D01*
X382237Y261306D01*
X382134Y261354D01*
X382030Y261399D01*
X381924Y261439D01*
X381817Y261476D01*
X381709Y261509D01*
X381599Y261539D01*
X381489Y261564D01*
X381378Y261586D01*
X381266Y261603D01*
X381153Y261617D01*
X381040Y261627D01*
X380927Y261633D01*
X380814Y261635D01*
X381463Y266827D02*
X377568Y266827D01*
X381463Y266827D02*
X381564Y266825D01*
X381664Y266819D01*
X381764Y266809D01*
X381864Y266796D01*
X381963Y266778D01*
X382062Y266757D01*
X382159Y266732D01*
X382256Y266703D01*
X382351Y266670D01*
X382445Y266634D01*
X382537Y266594D01*
X382628Y266551D01*
X382717Y266504D01*
X382804Y266454D01*
X382890Y266400D01*
X382973Y266343D01*
X383053Y266283D01*
X383132Y266220D01*
X383208Y266153D01*
X383281Y266084D01*
X383351Y266012D01*
X383419Y265938D01*
X383484Y265861D01*
X383545Y265781D01*
X383604Y265699D01*
X383659Y265615D01*
X383711Y265529D01*
X383760Y265441D01*
X383805Y265351D01*
X383847Y265259D01*
X383885Y265166D01*
X383919Y265071D01*
X383950Y264976D01*
X383977Y264879D01*
X384000Y264781D01*
X384020Y264682D01*
X384035Y264582D01*
X384047Y264482D01*
X384055Y264382D01*
X384059Y264281D01*
X384059Y264181D01*
X384055Y264080D01*
X384047Y263980D01*
X384035Y263880D01*
X384020Y263780D01*
X384000Y263681D01*
X383977Y263583D01*
X383950Y263486D01*
X383919Y263391D01*
X383885Y263296D01*
X383847Y263203D01*
X383805Y263111D01*
X383760Y263021D01*
X383711Y262933D01*
X383659Y262847D01*
X383604Y262763D01*
X383545Y262681D01*
X383484Y262601D01*
X383419Y262524D01*
X383351Y262450D01*
X383281Y262378D01*
X383208Y262309D01*
X383132Y262242D01*
X383053Y262179D01*
X382973Y262119D01*
X382890Y262062D01*
X382804Y262008D01*
X382717Y261958D01*
X382628Y261911D01*
X382537Y261868D01*
X382445Y261828D01*
X382351Y261792D01*
X382256Y261759D01*
X382159Y261730D01*
X382062Y261705D01*
X381963Y261684D01*
X381864Y261666D01*
X381764Y261653D01*
X381664Y261643D01*
X381564Y261637D01*
X381463Y261635D01*
X381463Y261634D02*
X378866Y261634D01*
D11*
X286128Y240157D02*
X268348Y240157D01*
X268348Y245096D01*
X268350Y245236D01*
X268356Y245375D01*
X268366Y245515D01*
X268380Y245654D01*
X268397Y245793D01*
X268419Y245931D01*
X268445Y246068D01*
X268474Y246205D01*
X268507Y246341D01*
X268544Y246475D01*
X268585Y246609D01*
X268630Y246741D01*
X268679Y246873D01*
X268731Y247002D01*
X268786Y247130D01*
X268846Y247257D01*
X268909Y247382D01*
X268975Y247505D01*
X269045Y247626D01*
X269118Y247745D01*
X269195Y247862D01*
X269275Y247976D01*
X269358Y248089D01*
X269444Y248199D01*
X269534Y248306D01*
X269626Y248411D01*
X269721Y248513D01*
X269819Y248613D01*
X269920Y248710D01*
X270024Y248804D01*
X270130Y248894D01*
X270239Y248982D01*
X270350Y249067D01*
X270464Y249148D01*
X270579Y249227D01*
X270697Y249302D01*
X270818Y249373D01*
X270940Y249441D01*
X271063Y249506D01*
X271189Y249567D01*
X271317Y249625D01*
X271445Y249679D01*
X271576Y249729D01*
X271708Y249776D01*
X271841Y249819D01*
X271975Y249858D01*
X272110Y249893D01*
X272246Y249924D01*
X272384Y249952D01*
X272521Y249975D01*
X272660Y249995D01*
X272799Y250011D01*
X272938Y250023D01*
X273077Y250031D01*
X273217Y250035D01*
X273357Y250035D01*
X273497Y250031D01*
X273636Y250023D01*
X273775Y250011D01*
X273914Y249995D01*
X274053Y249975D01*
X274190Y249952D01*
X274328Y249924D01*
X274464Y249893D01*
X274599Y249858D01*
X274733Y249819D01*
X274866Y249776D01*
X274998Y249729D01*
X275129Y249679D01*
X275257Y249625D01*
X275385Y249567D01*
X275511Y249506D01*
X275634Y249441D01*
X275757Y249373D01*
X275877Y249302D01*
X275995Y249227D01*
X276110Y249148D01*
X276224Y249067D01*
X276335Y248982D01*
X276444Y248894D01*
X276550Y248804D01*
X276654Y248710D01*
X276755Y248613D01*
X276853Y248513D01*
X276948Y248411D01*
X277040Y248306D01*
X277130Y248199D01*
X277216Y248089D01*
X277299Y247976D01*
X277379Y247862D01*
X277456Y247745D01*
X277529Y247626D01*
X277599Y247505D01*
X277665Y247382D01*
X277728Y247257D01*
X277788Y247130D01*
X277843Y247002D01*
X277895Y246873D01*
X277944Y246741D01*
X277989Y246609D01*
X278030Y246475D01*
X278067Y246341D01*
X278100Y246205D01*
X278129Y246068D01*
X278155Y245931D01*
X278177Y245793D01*
X278194Y245654D01*
X278208Y245515D01*
X278218Y245375D01*
X278224Y245236D01*
X278226Y245096D01*
X278226Y240157D01*
X268348Y255422D02*
X286128Y259373D01*
X274275Y263324D01*
X286128Y267275D01*
X268348Y271227D01*
X268348Y278013D02*
X286128Y278013D01*
X268348Y278013D02*
X268348Y282952D01*
X268350Y283092D01*
X268356Y283231D01*
X268366Y283371D01*
X268380Y283510D01*
X268397Y283649D01*
X268419Y283787D01*
X268445Y283924D01*
X268474Y284061D01*
X268507Y284197D01*
X268544Y284331D01*
X268585Y284465D01*
X268630Y284597D01*
X268679Y284729D01*
X268731Y284858D01*
X268786Y284986D01*
X268846Y285113D01*
X268909Y285238D01*
X268975Y285361D01*
X269045Y285482D01*
X269118Y285601D01*
X269195Y285718D01*
X269275Y285832D01*
X269358Y285945D01*
X269444Y286055D01*
X269534Y286162D01*
X269626Y286267D01*
X269721Y286369D01*
X269819Y286469D01*
X269920Y286566D01*
X270024Y286660D01*
X270130Y286750D01*
X270239Y286838D01*
X270350Y286923D01*
X270464Y287004D01*
X270579Y287083D01*
X270697Y287158D01*
X270818Y287229D01*
X270940Y287297D01*
X271063Y287362D01*
X271189Y287423D01*
X271317Y287481D01*
X271445Y287535D01*
X271576Y287585D01*
X271708Y287632D01*
X271841Y287675D01*
X271975Y287714D01*
X272110Y287749D01*
X272246Y287780D01*
X272384Y287808D01*
X272521Y287831D01*
X272660Y287851D01*
X272799Y287867D01*
X272938Y287879D01*
X273077Y287887D01*
X273217Y287891D01*
X273357Y287891D01*
X273497Y287887D01*
X273636Y287879D01*
X273775Y287867D01*
X273914Y287851D01*
X274053Y287831D01*
X274190Y287808D01*
X274328Y287780D01*
X274464Y287749D01*
X274599Y287714D01*
X274733Y287675D01*
X274866Y287632D01*
X274998Y287585D01*
X275129Y287535D01*
X275257Y287481D01*
X275385Y287423D01*
X275511Y287362D01*
X275634Y287297D01*
X275757Y287229D01*
X275877Y287158D01*
X275995Y287083D01*
X276110Y287004D01*
X276224Y286923D01*
X276335Y286838D01*
X276444Y286750D01*
X276550Y286660D01*
X276654Y286566D01*
X276755Y286469D01*
X276853Y286369D01*
X276948Y286267D01*
X277040Y286162D01*
X277130Y286055D01*
X277216Y285945D01*
X277299Y285832D01*
X277379Y285718D01*
X277456Y285601D01*
X277529Y285482D01*
X277599Y285361D01*
X277665Y285238D01*
X277728Y285113D01*
X277788Y284986D01*
X277843Y284858D01*
X277895Y284729D01*
X277944Y284597D01*
X277989Y284465D01*
X278030Y284331D01*
X278067Y284197D01*
X278100Y284061D01*
X278129Y283924D01*
X278155Y283787D01*
X278177Y283649D01*
X278194Y283510D01*
X278208Y283371D01*
X278218Y283231D01*
X278224Y283092D01*
X278226Y282952D01*
X278226Y278013D01*
X278226Y283940D02*
X286128Y287891D01*
D123*
X422529Y398709D02*
X422529Y400798D01*
X422529Y398709D02*
X422527Y398620D01*
X422521Y398532D01*
X422512Y398444D01*
X422499Y398356D01*
X422482Y398269D01*
X422462Y398183D01*
X422437Y398098D01*
X422410Y398013D01*
X422378Y397930D01*
X422344Y397849D01*
X422305Y397769D01*
X422264Y397691D01*
X422219Y397614D01*
X422171Y397540D01*
X422120Y397467D01*
X422066Y397397D01*
X422008Y397330D01*
X421948Y397264D01*
X421886Y397202D01*
X421820Y397142D01*
X421753Y397084D01*
X421683Y397030D01*
X421610Y396979D01*
X421536Y396931D01*
X421459Y396886D01*
X421381Y396845D01*
X421301Y396806D01*
X421220Y396772D01*
X421137Y396740D01*
X421052Y396713D01*
X420967Y396688D01*
X420881Y396668D01*
X420794Y396651D01*
X420706Y396638D01*
X420618Y396629D01*
X420530Y396623D01*
X420441Y396621D01*
X415219Y396621D01*
X415128Y396623D01*
X415037Y396629D01*
X414946Y396639D01*
X414856Y396653D01*
X414767Y396671D01*
X414678Y396692D01*
X414591Y396718D01*
X414505Y396747D01*
X414420Y396780D01*
X414336Y396817D01*
X414254Y396857D01*
X414175Y396901D01*
X414097Y396948D01*
X414021Y396999D01*
X413947Y397053D01*
X413876Y397110D01*
X413808Y397170D01*
X413742Y397233D01*
X413679Y397299D01*
X413619Y397367D01*
X413562Y397438D01*
X413508Y397512D01*
X413457Y397588D01*
X413410Y397665D01*
X413366Y397745D01*
X413326Y397827D01*
X413289Y397911D01*
X413256Y397995D01*
X413227Y398082D01*
X413201Y398169D01*
X413180Y398258D01*
X413162Y398347D01*
X413148Y398437D01*
X413138Y398528D01*
X413132Y398619D01*
X413130Y398710D01*
X413131Y398709D02*
X413131Y400798D01*
X415219Y404267D02*
X413131Y406877D01*
X422529Y406877D01*
X422529Y404267D02*
X422529Y409488D01*
X415219Y413411D02*
X413131Y416021D01*
X422529Y416021D01*
X422529Y413411D02*
X422529Y418632D01*
X315795Y329311D02*
X313707Y329311D01*
X313618Y329313D01*
X313530Y329319D01*
X313442Y329328D01*
X313354Y329341D01*
X313267Y329358D01*
X313181Y329378D01*
X313096Y329403D01*
X313011Y329430D01*
X312928Y329462D01*
X312847Y329496D01*
X312767Y329535D01*
X312689Y329576D01*
X312612Y329621D01*
X312538Y329669D01*
X312465Y329720D01*
X312395Y329774D01*
X312328Y329832D01*
X312262Y329892D01*
X312200Y329954D01*
X312140Y330020D01*
X312082Y330087D01*
X312028Y330157D01*
X311977Y330230D01*
X311929Y330304D01*
X311884Y330381D01*
X311843Y330459D01*
X311804Y330539D01*
X311770Y330620D01*
X311738Y330703D01*
X311711Y330788D01*
X311686Y330873D01*
X311666Y330959D01*
X311649Y331046D01*
X311636Y331134D01*
X311627Y331222D01*
X311621Y331310D01*
X311619Y331399D01*
X311618Y331399D02*
X311618Y336621D01*
X311619Y336621D02*
X311621Y336712D01*
X311627Y336803D01*
X311637Y336894D01*
X311651Y336984D01*
X311668Y337073D01*
X311690Y337161D01*
X311716Y337249D01*
X311745Y337335D01*
X311778Y337420D01*
X311815Y337503D01*
X311855Y337585D01*
X311899Y337665D01*
X311946Y337743D01*
X311997Y337819D01*
X312050Y337892D01*
X312107Y337963D01*
X312168Y338032D01*
X312231Y338097D01*
X312296Y338160D01*
X312365Y338220D01*
X312436Y338278D01*
X312509Y338331D01*
X312585Y338382D01*
X312663Y338429D01*
X312743Y338473D01*
X312825Y338513D01*
X312908Y338550D01*
X312993Y338583D01*
X313079Y338612D01*
X313167Y338638D01*
X313255Y338660D01*
X313344Y338677D01*
X313434Y338691D01*
X313525Y338701D01*
X313616Y338707D01*
X313707Y338709D01*
X315795Y338709D01*
X319264Y336621D02*
X321874Y338709D01*
X321874Y329311D01*
X319264Y329311D02*
X324485Y329311D01*
X328408Y334010D02*
X328410Y334195D01*
X328417Y334380D01*
X328428Y334564D01*
X328443Y334748D01*
X328463Y334932D01*
X328487Y335116D01*
X328516Y335298D01*
X328549Y335480D01*
X328586Y335661D01*
X328628Y335841D01*
X328674Y336021D01*
X328724Y336199D01*
X328778Y336375D01*
X328837Y336551D01*
X328899Y336725D01*
X328966Y336897D01*
X329037Y337068D01*
X329112Y337237D01*
X329191Y337404D01*
X329190Y337404D02*
X329220Y337484D01*
X329253Y337563D01*
X329290Y337640D01*
X329330Y337716D01*
X329373Y337790D01*
X329419Y337862D01*
X329469Y337931D01*
X329521Y337999D01*
X329577Y338064D01*
X329635Y338127D01*
X329697Y338186D01*
X329760Y338244D01*
X329827Y338298D01*
X329895Y338349D01*
X329966Y338397D01*
X330039Y338442D01*
X330113Y338484D01*
X330190Y338522D01*
X330268Y338557D01*
X330347Y338589D01*
X330428Y338617D01*
X330510Y338641D01*
X330594Y338662D01*
X330677Y338679D01*
X330762Y338692D01*
X330847Y338701D01*
X330932Y338707D01*
X331018Y338709D01*
X331104Y338707D01*
X331189Y338701D01*
X331274Y338692D01*
X331359Y338679D01*
X331442Y338662D01*
X331526Y338641D01*
X331608Y338617D01*
X331689Y338589D01*
X331768Y338557D01*
X331846Y338522D01*
X331923Y338484D01*
X331997Y338442D01*
X332070Y338397D01*
X332141Y338349D01*
X332209Y338298D01*
X332276Y338244D01*
X332339Y338186D01*
X332401Y338127D01*
X332459Y338064D01*
X332515Y337999D01*
X332567Y337931D01*
X332617Y337862D01*
X332663Y337790D01*
X332706Y337716D01*
X332746Y337640D01*
X332783Y337563D01*
X332816Y337484D01*
X332846Y337404D01*
X332925Y337237D01*
X333000Y337068D01*
X333071Y336897D01*
X333138Y336725D01*
X333200Y336551D01*
X333259Y336375D01*
X333313Y336199D01*
X333363Y336021D01*
X333409Y335841D01*
X333451Y335661D01*
X333488Y335480D01*
X333521Y335298D01*
X333550Y335116D01*
X333574Y334932D01*
X333594Y334748D01*
X333609Y334564D01*
X333620Y334380D01*
X333627Y334195D01*
X333629Y334010D01*
X328408Y334010D02*
X328410Y333825D01*
X328417Y333640D01*
X328428Y333456D01*
X328443Y333272D01*
X328463Y333088D01*
X328487Y332904D01*
X328516Y332722D01*
X328549Y332540D01*
X328586Y332359D01*
X328628Y332179D01*
X328674Y331999D01*
X328724Y331821D01*
X328778Y331645D01*
X328837Y331469D01*
X328899Y331295D01*
X328966Y331123D01*
X329037Y330952D01*
X329112Y330783D01*
X329191Y330616D01*
X329190Y330616D02*
X329220Y330536D01*
X329253Y330457D01*
X329290Y330380D01*
X329330Y330304D01*
X329373Y330230D01*
X329419Y330158D01*
X329469Y330089D01*
X329522Y330021D01*
X329577Y329956D01*
X329636Y329893D01*
X329697Y329834D01*
X329760Y329776D01*
X329827Y329722D01*
X329895Y329671D01*
X329966Y329623D01*
X330039Y329578D01*
X330113Y329536D01*
X330190Y329498D01*
X330268Y329463D01*
X330347Y329431D01*
X330428Y329403D01*
X330510Y329379D01*
X330594Y329358D01*
X330677Y329341D01*
X330762Y329328D01*
X330847Y329319D01*
X330932Y329313D01*
X331018Y329311D01*
X332846Y330616D02*
X332925Y330783D01*
X333000Y330952D01*
X333071Y331123D01*
X333138Y331295D01*
X333200Y331469D01*
X333259Y331645D01*
X333313Y331821D01*
X333363Y331999D01*
X333409Y332179D01*
X333451Y332359D01*
X333488Y332540D01*
X333521Y332722D01*
X333550Y332904D01*
X333574Y333088D01*
X333594Y333272D01*
X333609Y333456D01*
X333620Y333640D01*
X333627Y333825D01*
X333629Y334010D01*
X332846Y330616D02*
X332816Y330536D01*
X332783Y330457D01*
X332746Y330380D01*
X332706Y330304D01*
X332663Y330230D01*
X332617Y330158D01*
X332567Y330089D01*
X332515Y330021D01*
X332459Y329956D01*
X332401Y329893D01*
X332339Y329834D01*
X332276Y329776D01*
X332209Y329722D01*
X332141Y329671D01*
X332070Y329623D01*
X331997Y329578D01*
X331923Y329536D01*
X331846Y329498D01*
X331768Y329463D01*
X331689Y329431D01*
X331608Y329403D01*
X331526Y329379D01*
X331442Y329358D01*
X331359Y329341D01*
X331274Y329328D01*
X331189Y329319D01*
X331104Y329313D01*
X331018Y329311D01*
X328930Y331399D02*
X333107Y336621D01*
X315795Y349631D02*
X313707Y349631D01*
X313618Y349633D01*
X313530Y349639D01*
X313442Y349648D01*
X313354Y349661D01*
X313267Y349678D01*
X313181Y349698D01*
X313096Y349723D01*
X313011Y349750D01*
X312928Y349782D01*
X312847Y349816D01*
X312767Y349855D01*
X312689Y349896D01*
X312612Y349941D01*
X312538Y349989D01*
X312465Y350040D01*
X312395Y350094D01*
X312328Y350152D01*
X312262Y350212D01*
X312200Y350274D01*
X312140Y350340D01*
X312082Y350407D01*
X312028Y350477D01*
X311977Y350550D01*
X311929Y350624D01*
X311884Y350701D01*
X311843Y350779D01*
X311804Y350859D01*
X311770Y350940D01*
X311738Y351023D01*
X311711Y351108D01*
X311686Y351193D01*
X311666Y351279D01*
X311649Y351366D01*
X311636Y351454D01*
X311627Y351542D01*
X311621Y351630D01*
X311619Y351719D01*
X311618Y351719D02*
X311618Y356941D01*
X311619Y356941D02*
X311621Y357032D01*
X311627Y357123D01*
X311637Y357214D01*
X311651Y357304D01*
X311668Y357393D01*
X311690Y357481D01*
X311716Y357569D01*
X311745Y357655D01*
X311778Y357740D01*
X311815Y357823D01*
X311855Y357905D01*
X311899Y357985D01*
X311946Y358063D01*
X311997Y358139D01*
X312050Y358212D01*
X312107Y358283D01*
X312168Y358352D01*
X312231Y358417D01*
X312296Y358480D01*
X312365Y358540D01*
X312436Y358598D01*
X312509Y358651D01*
X312585Y358702D01*
X312663Y358749D01*
X312743Y358793D01*
X312825Y358833D01*
X312908Y358870D01*
X312993Y358903D01*
X313079Y358932D01*
X313167Y358958D01*
X313255Y358980D01*
X313344Y358997D01*
X313434Y359011D01*
X313525Y359021D01*
X313616Y359027D01*
X313707Y359029D01*
X315795Y359029D01*
X319264Y356941D02*
X321874Y359029D01*
X321874Y349631D01*
X319264Y349631D02*
X324485Y349631D01*
X333630Y356680D02*
X333628Y356775D01*
X333622Y356869D01*
X333613Y356963D01*
X333600Y357057D01*
X333583Y357150D01*
X333562Y357242D01*
X333537Y357334D01*
X333509Y357424D01*
X333477Y357513D01*
X333442Y357601D01*
X333403Y357687D01*
X333361Y357772D01*
X333315Y357855D01*
X333266Y357936D01*
X333214Y358015D01*
X333159Y358092D01*
X333100Y358166D01*
X333039Y358238D01*
X332975Y358308D01*
X332908Y358375D01*
X332838Y358439D01*
X332766Y358500D01*
X332692Y358559D01*
X332615Y358614D01*
X332536Y358666D01*
X332455Y358715D01*
X332372Y358761D01*
X332287Y358803D01*
X332201Y358842D01*
X332113Y358877D01*
X332024Y358909D01*
X331934Y358937D01*
X331842Y358962D01*
X331750Y358983D01*
X331657Y359000D01*
X331563Y359013D01*
X331469Y359022D01*
X331375Y359028D01*
X331280Y359030D01*
X331280Y359029D02*
X331172Y359027D01*
X331063Y359021D01*
X330955Y359011D01*
X330848Y358998D01*
X330741Y358980D01*
X330634Y358959D01*
X330529Y358934D01*
X330424Y358905D01*
X330321Y358873D01*
X330219Y358836D01*
X330118Y358796D01*
X330019Y358753D01*
X329921Y358706D01*
X329825Y358655D01*
X329731Y358601D01*
X329639Y358544D01*
X329549Y358483D01*
X329461Y358419D01*
X329376Y358353D01*
X329293Y358283D01*
X329213Y358210D01*
X329135Y358134D01*
X329060Y358056D01*
X328988Y357975D01*
X328919Y357891D01*
X328853Y357805D01*
X328790Y357717D01*
X328731Y357626D01*
X328674Y357534D01*
X328621Y357439D01*
X328572Y357343D01*
X328526Y357244D01*
X328483Y357145D01*
X328444Y357043D01*
X328409Y356941D01*
X332846Y354852D02*
X332915Y354921D01*
X332981Y354992D01*
X333045Y355065D01*
X333106Y355141D01*
X333164Y355220D01*
X333218Y355300D01*
X333270Y355383D01*
X333318Y355467D01*
X333364Y355553D01*
X333405Y355641D01*
X333444Y355731D01*
X333479Y355822D01*
X333510Y355914D01*
X333538Y356007D01*
X333562Y356101D01*
X333582Y356196D01*
X333599Y356292D01*
X333612Y356389D01*
X333621Y356486D01*
X333627Y356583D01*
X333629Y356680D01*
X332846Y354852D02*
X328408Y349631D01*
X333629Y349631D01*
X407289Y398709D02*
X407289Y400798D01*
X407289Y398709D02*
X407287Y398620D01*
X407281Y398532D01*
X407272Y398444D01*
X407259Y398356D01*
X407242Y398269D01*
X407222Y398183D01*
X407197Y398098D01*
X407170Y398013D01*
X407138Y397930D01*
X407104Y397849D01*
X407065Y397769D01*
X407024Y397691D01*
X406979Y397614D01*
X406931Y397540D01*
X406880Y397467D01*
X406826Y397397D01*
X406768Y397330D01*
X406708Y397264D01*
X406646Y397202D01*
X406580Y397142D01*
X406513Y397084D01*
X406443Y397030D01*
X406370Y396979D01*
X406296Y396931D01*
X406219Y396886D01*
X406141Y396845D01*
X406061Y396806D01*
X405980Y396772D01*
X405897Y396740D01*
X405812Y396713D01*
X405727Y396688D01*
X405641Y396668D01*
X405554Y396651D01*
X405466Y396638D01*
X405378Y396629D01*
X405290Y396623D01*
X405201Y396621D01*
X399979Y396621D01*
X399888Y396623D01*
X399797Y396629D01*
X399706Y396639D01*
X399616Y396653D01*
X399527Y396671D01*
X399438Y396692D01*
X399351Y396718D01*
X399265Y396747D01*
X399180Y396780D01*
X399096Y396817D01*
X399014Y396857D01*
X398935Y396901D01*
X398857Y396948D01*
X398781Y396999D01*
X398707Y397053D01*
X398636Y397110D01*
X398568Y397170D01*
X398502Y397233D01*
X398439Y397299D01*
X398379Y397367D01*
X398322Y397438D01*
X398268Y397512D01*
X398217Y397588D01*
X398170Y397665D01*
X398126Y397745D01*
X398086Y397827D01*
X398049Y397911D01*
X398016Y397995D01*
X397987Y398082D01*
X397961Y398169D01*
X397940Y398258D01*
X397922Y398347D01*
X397908Y398437D01*
X397898Y398528D01*
X397892Y398619D01*
X397890Y398710D01*
X397891Y398709D02*
X397891Y400798D01*
X399979Y404267D02*
X397891Y406877D01*
X407289Y406877D01*
X407289Y404267D02*
X407289Y409488D01*
X407289Y413411D02*
X407289Y416021D01*
X407287Y416122D01*
X407281Y416223D01*
X407271Y416324D01*
X407258Y416424D01*
X407240Y416524D01*
X407219Y416623D01*
X407193Y416721D01*
X407164Y416818D01*
X407132Y416914D01*
X407095Y417008D01*
X407055Y417101D01*
X407011Y417193D01*
X406964Y417282D01*
X406913Y417370D01*
X406859Y417456D01*
X406802Y417539D01*
X406742Y417621D01*
X406678Y417699D01*
X406612Y417776D01*
X406542Y417849D01*
X406470Y417920D01*
X406395Y417988D01*
X406317Y418053D01*
X406237Y418115D01*
X406155Y418174D01*
X406070Y418230D01*
X405984Y418282D01*
X405895Y418331D01*
X405804Y418377D01*
X405712Y418418D01*
X405618Y418457D01*
X405523Y418491D01*
X405427Y418522D01*
X405329Y418549D01*
X405231Y418573D01*
X405131Y418592D01*
X405031Y418608D01*
X404931Y418620D01*
X404830Y418628D01*
X404729Y418632D01*
X404627Y418632D01*
X404526Y418628D01*
X404425Y418620D01*
X404325Y418608D01*
X404225Y418592D01*
X404125Y418573D01*
X404027Y418549D01*
X403929Y418522D01*
X403833Y418491D01*
X403738Y418457D01*
X403644Y418418D01*
X403552Y418377D01*
X403461Y418331D01*
X403373Y418282D01*
X403286Y418230D01*
X403201Y418174D01*
X403119Y418115D01*
X403039Y418053D01*
X402961Y417988D01*
X402886Y417920D01*
X402814Y417849D01*
X402744Y417776D01*
X402678Y417699D01*
X402614Y417621D01*
X402554Y417539D01*
X402497Y417456D01*
X402443Y417370D01*
X402392Y417282D01*
X402345Y417193D01*
X402301Y417101D01*
X402261Y417008D01*
X402224Y416914D01*
X402192Y416818D01*
X402163Y416721D01*
X402137Y416623D01*
X402116Y416524D01*
X402098Y416424D01*
X402085Y416324D01*
X402075Y416223D01*
X402069Y416122D01*
X402067Y416021D01*
X397891Y416543D02*
X397891Y413411D01*
X397891Y416543D02*
X397893Y416633D01*
X397899Y416722D01*
X397908Y416812D01*
X397922Y416901D01*
X397939Y416989D01*
X397960Y417076D01*
X397985Y417163D01*
X398014Y417248D01*
X398046Y417332D01*
X398081Y417414D01*
X398121Y417495D01*
X398163Y417574D01*
X398209Y417651D01*
X398259Y417726D01*
X398311Y417799D01*
X398367Y417870D01*
X398425Y417938D01*
X398487Y418003D01*
X398551Y418066D01*
X398618Y418126D01*
X398687Y418183D01*
X398759Y418237D01*
X398833Y418288D01*
X398909Y418336D01*
X398987Y418380D01*
X399067Y418421D01*
X399149Y418459D01*
X399232Y418493D01*
X399317Y418523D01*
X399403Y418550D01*
X399489Y418573D01*
X399577Y418592D01*
X399666Y418607D01*
X399755Y418619D01*
X399844Y418627D01*
X399934Y418631D01*
X400024Y418631D01*
X400114Y418627D01*
X400203Y418619D01*
X400292Y418607D01*
X400381Y418592D01*
X400469Y418573D01*
X400555Y418550D01*
X400641Y418523D01*
X400726Y418493D01*
X400809Y418459D01*
X400891Y418421D01*
X400971Y418380D01*
X401049Y418336D01*
X401125Y418288D01*
X401199Y418237D01*
X401271Y418183D01*
X401340Y418126D01*
X401407Y418066D01*
X401471Y418003D01*
X401533Y417938D01*
X401591Y417870D01*
X401647Y417799D01*
X401699Y417726D01*
X401749Y417651D01*
X401795Y417574D01*
X401837Y417495D01*
X401877Y417414D01*
X401912Y417332D01*
X401944Y417248D01*
X401973Y417163D01*
X401998Y417076D01*
X402019Y416989D01*
X402036Y416901D01*
X402050Y416812D01*
X402059Y416722D01*
X402065Y416633D01*
X402067Y416543D01*
X402068Y416543D02*
X402068Y414455D01*
X424499Y257541D02*
X425975Y256065D01*
X424499Y257542D02*
X424437Y257606D01*
X424379Y257672D01*
X424323Y257741D01*
X424270Y257812D01*
X424221Y257886D01*
X424174Y257961D01*
X424131Y258039D01*
X424091Y258118D01*
X424055Y258199D01*
X424021Y258281D01*
X423992Y258364D01*
X423966Y258449D01*
X423944Y258535D01*
X423925Y258622D01*
X423910Y258709D01*
X423899Y258797D01*
X423891Y258885D01*
X423887Y258974D01*
X423887Y259062D01*
X423891Y259151D01*
X423899Y259239D01*
X423910Y259327D01*
X423925Y259414D01*
X423944Y259501D01*
X423966Y259587D01*
X423992Y259672D01*
X424021Y259755D01*
X424055Y259837D01*
X424091Y259918D01*
X424131Y259997D01*
X424174Y260075D01*
X424221Y260150D01*
X424270Y260224D01*
X424323Y260295D01*
X424379Y260364D01*
X424437Y260430D01*
X424499Y260494D01*
X424499Y260495D02*
X428190Y264187D01*
X428191Y264186D02*
X428256Y264249D01*
X428325Y264309D01*
X428396Y264367D01*
X428469Y264420D01*
X428545Y264471D01*
X428623Y264518D01*
X428703Y264562D01*
X428785Y264602D01*
X428868Y264639D01*
X428953Y264672D01*
X429039Y264701D01*
X429127Y264727D01*
X429215Y264749D01*
X429304Y264766D01*
X429394Y264780D01*
X429485Y264790D01*
X429576Y264796D01*
X429667Y264798D01*
X429758Y264796D01*
X429849Y264790D01*
X429940Y264780D01*
X430030Y264766D01*
X430119Y264749D01*
X430207Y264727D01*
X430295Y264701D01*
X430381Y264672D01*
X430466Y264639D01*
X430549Y264602D01*
X430631Y264562D01*
X430711Y264518D01*
X430789Y264471D01*
X430865Y264420D01*
X430938Y264367D01*
X431009Y264310D01*
X431078Y264249D01*
X431143Y264186D01*
X431144Y264187D02*
X432621Y262710D01*
X433597Y258780D02*
X436919Y258411D01*
X430274Y251766D01*
X428428Y253612D02*
X432120Y249920D01*
X436371Y248623D02*
X443016Y252315D01*
X436371Y248623D02*
X440062Y244931D01*
X440432Y247515D02*
X437478Y244562D01*
X328495Y305181D02*
X326407Y305181D01*
X326318Y305183D01*
X326230Y305189D01*
X326142Y305198D01*
X326054Y305211D01*
X325967Y305228D01*
X325881Y305248D01*
X325796Y305273D01*
X325711Y305300D01*
X325628Y305332D01*
X325547Y305366D01*
X325467Y305405D01*
X325389Y305446D01*
X325312Y305491D01*
X325238Y305539D01*
X325165Y305590D01*
X325095Y305644D01*
X325028Y305702D01*
X324962Y305762D01*
X324900Y305824D01*
X324840Y305890D01*
X324782Y305957D01*
X324728Y306027D01*
X324677Y306100D01*
X324629Y306174D01*
X324584Y306251D01*
X324543Y306329D01*
X324504Y306409D01*
X324470Y306490D01*
X324438Y306573D01*
X324411Y306658D01*
X324386Y306743D01*
X324366Y306829D01*
X324349Y306916D01*
X324336Y307004D01*
X324327Y307092D01*
X324321Y307180D01*
X324319Y307269D01*
X324318Y307269D02*
X324318Y312491D01*
X324319Y312491D02*
X324321Y312582D01*
X324327Y312673D01*
X324337Y312764D01*
X324351Y312854D01*
X324368Y312943D01*
X324390Y313031D01*
X324416Y313119D01*
X324445Y313205D01*
X324478Y313290D01*
X324515Y313373D01*
X324555Y313455D01*
X324599Y313535D01*
X324646Y313613D01*
X324697Y313689D01*
X324750Y313762D01*
X324807Y313833D01*
X324868Y313902D01*
X324931Y313967D01*
X324996Y314030D01*
X325065Y314090D01*
X325136Y314148D01*
X325209Y314201D01*
X325285Y314252D01*
X325363Y314299D01*
X325443Y314343D01*
X325525Y314383D01*
X325608Y314420D01*
X325693Y314453D01*
X325779Y314482D01*
X325867Y314508D01*
X325955Y314530D01*
X326044Y314547D01*
X326134Y314561D01*
X326225Y314571D01*
X326316Y314577D01*
X326407Y314579D01*
X328495Y314579D01*
X331964Y312491D02*
X334574Y314579D01*
X334574Y305181D01*
X331964Y305181D02*
X337185Y305181D01*
X341108Y305181D02*
X344241Y305181D01*
X344330Y305183D01*
X344418Y305189D01*
X344506Y305198D01*
X344594Y305211D01*
X344681Y305228D01*
X344767Y305248D01*
X344852Y305273D01*
X344937Y305300D01*
X345020Y305332D01*
X345101Y305366D01*
X345181Y305405D01*
X345259Y305446D01*
X345336Y305491D01*
X345410Y305539D01*
X345483Y305590D01*
X345553Y305644D01*
X345620Y305702D01*
X345686Y305762D01*
X345748Y305824D01*
X345808Y305890D01*
X345866Y305957D01*
X345920Y306027D01*
X345971Y306100D01*
X346019Y306174D01*
X346064Y306251D01*
X346105Y306329D01*
X346144Y306409D01*
X346178Y306490D01*
X346210Y306573D01*
X346237Y306658D01*
X346262Y306743D01*
X346282Y306829D01*
X346299Y306916D01*
X346312Y307004D01*
X346321Y307092D01*
X346327Y307180D01*
X346329Y307269D01*
X346329Y308314D01*
X346327Y308403D01*
X346321Y308491D01*
X346312Y308579D01*
X346299Y308667D01*
X346282Y308754D01*
X346262Y308840D01*
X346237Y308925D01*
X346210Y309010D01*
X346178Y309093D01*
X346144Y309174D01*
X346105Y309254D01*
X346064Y309332D01*
X346019Y309409D01*
X345971Y309483D01*
X345920Y309556D01*
X345866Y309626D01*
X345808Y309693D01*
X345748Y309759D01*
X345686Y309821D01*
X345620Y309881D01*
X345553Y309939D01*
X345483Y309993D01*
X345410Y310044D01*
X345336Y310092D01*
X345259Y310137D01*
X345181Y310178D01*
X345101Y310217D01*
X345020Y310251D01*
X344937Y310283D01*
X344852Y310310D01*
X344767Y310335D01*
X344681Y310355D01*
X344594Y310372D01*
X344506Y310385D01*
X344418Y310394D01*
X344330Y310400D01*
X344241Y310402D01*
X341108Y310402D01*
X341108Y314579D01*
X346329Y314579D01*
X341249Y398709D02*
X341249Y400798D01*
X341249Y398709D02*
X341247Y398620D01*
X341241Y398532D01*
X341232Y398444D01*
X341219Y398356D01*
X341202Y398269D01*
X341182Y398183D01*
X341157Y398098D01*
X341130Y398013D01*
X341098Y397930D01*
X341064Y397849D01*
X341025Y397769D01*
X340984Y397691D01*
X340939Y397614D01*
X340891Y397540D01*
X340840Y397467D01*
X340786Y397397D01*
X340728Y397330D01*
X340668Y397264D01*
X340606Y397202D01*
X340540Y397142D01*
X340473Y397084D01*
X340403Y397030D01*
X340330Y396979D01*
X340256Y396931D01*
X340179Y396886D01*
X340101Y396845D01*
X340021Y396806D01*
X339940Y396772D01*
X339857Y396740D01*
X339772Y396713D01*
X339687Y396688D01*
X339601Y396668D01*
X339514Y396651D01*
X339426Y396638D01*
X339338Y396629D01*
X339250Y396623D01*
X339161Y396621D01*
X333939Y396621D01*
X333848Y396623D01*
X333757Y396629D01*
X333666Y396639D01*
X333576Y396653D01*
X333487Y396671D01*
X333398Y396692D01*
X333311Y396718D01*
X333225Y396747D01*
X333140Y396780D01*
X333056Y396817D01*
X332974Y396857D01*
X332895Y396901D01*
X332817Y396948D01*
X332741Y396999D01*
X332667Y397053D01*
X332596Y397110D01*
X332528Y397170D01*
X332462Y397233D01*
X332399Y397299D01*
X332339Y397367D01*
X332282Y397438D01*
X332228Y397512D01*
X332177Y397588D01*
X332130Y397665D01*
X332086Y397745D01*
X332046Y397827D01*
X332009Y397911D01*
X331976Y397995D01*
X331947Y398082D01*
X331921Y398169D01*
X331900Y398258D01*
X331882Y398347D01*
X331868Y398437D01*
X331858Y398528D01*
X331852Y398619D01*
X331850Y398710D01*
X331851Y398709D02*
X331851Y400798D01*
X333939Y404267D02*
X331851Y406877D01*
X341249Y406877D01*
X341249Y404267D02*
X341249Y409488D01*
X336028Y413411D02*
X336028Y416543D01*
X336030Y416632D01*
X336036Y416720D01*
X336045Y416808D01*
X336058Y416896D01*
X336075Y416983D01*
X336095Y417069D01*
X336120Y417154D01*
X336147Y417239D01*
X336179Y417322D01*
X336213Y417403D01*
X336252Y417483D01*
X336293Y417561D01*
X336338Y417638D01*
X336386Y417712D01*
X336437Y417785D01*
X336491Y417855D01*
X336549Y417922D01*
X336609Y417988D01*
X336671Y418050D01*
X336737Y418110D01*
X336804Y418168D01*
X336874Y418222D01*
X336947Y418273D01*
X337021Y418321D01*
X337098Y418366D01*
X337176Y418407D01*
X337256Y418446D01*
X337337Y418480D01*
X337420Y418512D01*
X337505Y418539D01*
X337590Y418564D01*
X337676Y418584D01*
X337763Y418601D01*
X337851Y418614D01*
X337939Y418623D01*
X338027Y418629D01*
X338116Y418631D01*
X338116Y418632D02*
X338638Y418632D01*
X338739Y418630D01*
X338840Y418624D01*
X338941Y418614D01*
X339041Y418601D01*
X339141Y418583D01*
X339240Y418562D01*
X339338Y418536D01*
X339435Y418507D01*
X339531Y418475D01*
X339625Y418438D01*
X339718Y418398D01*
X339810Y418354D01*
X339899Y418307D01*
X339987Y418256D01*
X340073Y418202D01*
X340156Y418145D01*
X340238Y418085D01*
X340316Y418021D01*
X340393Y417955D01*
X340466Y417885D01*
X340537Y417813D01*
X340605Y417738D01*
X340670Y417660D01*
X340732Y417580D01*
X340791Y417498D01*
X340847Y417413D01*
X340899Y417326D01*
X340948Y417238D01*
X340994Y417147D01*
X341035Y417055D01*
X341074Y416961D01*
X341108Y416866D01*
X341139Y416770D01*
X341166Y416672D01*
X341190Y416574D01*
X341209Y416474D01*
X341225Y416374D01*
X341237Y416274D01*
X341245Y416173D01*
X341249Y416072D01*
X341249Y415970D01*
X341245Y415869D01*
X341237Y415768D01*
X341225Y415668D01*
X341209Y415568D01*
X341190Y415468D01*
X341166Y415370D01*
X341139Y415272D01*
X341108Y415176D01*
X341074Y415081D01*
X341035Y414987D01*
X340994Y414895D01*
X340948Y414804D01*
X340899Y414716D01*
X340847Y414629D01*
X340791Y414544D01*
X340732Y414462D01*
X340670Y414382D01*
X340605Y414304D01*
X340537Y414229D01*
X340466Y414157D01*
X340393Y414087D01*
X340316Y414021D01*
X340238Y413957D01*
X340156Y413897D01*
X340073Y413840D01*
X339987Y413786D01*
X339899Y413735D01*
X339810Y413688D01*
X339718Y413644D01*
X339625Y413604D01*
X339531Y413567D01*
X339435Y413535D01*
X339338Y413506D01*
X339240Y413480D01*
X339141Y413459D01*
X339041Y413441D01*
X338941Y413428D01*
X338840Y413418D01*
X338739Y413412D01*
X338638Y413410D01*
X338638Y413411D02*
X336028Y413411D01*
X335899Y413413D01*
X335771Y413419D01*
X335643Y413429D01*
X335515Y413443D01*
X335387Y413460D01*
X335260Y413482D01*
X335134Y413508D01*
X335009Y413537D01*
X334885Y413570D01*
X334762Y413608D01*
X334640Y413648D01*
X334519Y413693D01*
X334400Y413741D01*
X334282Y413793D01*
X334166Y413849D01*
X334052Y413908D01*
X333940Y413971D01*
X333829Y414037D01*
X333721Y414106D01*
X333615Y414179D01*
X333511Y414255D01*
X333409Y414334D01*
X333310Y414416D01*
X333214Y414501D01*
X333120Y414589D01*
X333029Y414680D01*
X332941Y414774D01*
X332856Y414870D01*
X332774Y414969D01*
X332695Y415071D01*
X332619Y415175D01*
X332546Y415281D01*
X332477Y415389D01*
X332411Y415499D01*
X332348Y415612D01*
X332289Y415726D01*
X332233Y415842D01*
X332181Y415960D01*
X332133Y416079D01*
X332088Y416200D01*
X332048Y416322D01*
X332010Y416445D01*
X331977Y416569D01*
X331948Y416694D01*
X331922Y416820D01*
X331900Y416947D01*
X331883Y417075D01*
X331869Y417203D01*
X331859Y417331D01*
X331853Y417459D01*
X331851Y417588D01*
X385313Y393865D02*
X394711Y393865D01*
X385313Y393865D02*
X385313Y396475D01*
X385312Y396475D02*
X385314Y396576D01*
X385320Y396677D01*
X385330Y396778D01*
X385343Y396878D01*
X385361Y396978D01*
X385382Y397077D01*
X385408Y397175D01*
X385437Y397272D01*
X385469Y397368D01*
X385506Y397462D01*
X385546Y397555D01*
X385590Y397647D01*
X385637Y397736D01*
X385688Y397824D01*
X385742Y397910D01*
X385799Y397993D01*
X385859Y398075D01*
X385923Y398153D01*
X385989Y398230D01*
X386059Y398303D01*
X386131Y398374D01*
X386206Y398442D01*
X386284Y398507D01*
X386364Y398569D01*
X386446Y398628D01*
X386531Y398684D01*
X386618Y398736D01*
X386706Y398785D01*
X386797Y398831D01*
X386889Y398872D01*
X386983Y398911D01*
X387078Y398945D01*
X387174Y398976D01*
X387272Y399003D01*
X387370Y399027D01*
X387470Y399046D01*
X387570Y399062D01*
X387670Y399074D01*
X387771Y399082D01*
X387872Y399086D01*
X387974Y399086D01*
X388075Y399082D01*
X388176Y399074D01*
X388276Y399062D01*
X388376Y399046D01*
X388476Y399027D01*
X388574Y399003D01*
X388672Y398976D01*
X388768Y398945D01*
X388863Y398911D01*
X388957Y398872D01*
X389049Y398831D01*
X389140Y398785D01*
X389229Y398736D01*
X389315Y398684D01*
X389400Y398628D01*
X389482Y398569D01*
X389562Y398507D01*
X389640Y398442D01*
X389715Y398374D01*
X389787Y398303D01*
X389857Y398230D01*
X389923Y398153D01*
X389987Y398075D01*
X390047Y397993D01*
X390104Y397910D01*
X390158Y397824D01*
X390209Y397736D01*
X390256Y397647D01*
X390300Y397555D01*
X390340Y397462D01*
X390377Y397368D01*
X390409Y397272D01*
X390438Y397175D01*
X390464Y397077D01*
X390485Y396978D01*
X390503Y396878D01*
X390516Y396778D01*
X390526Y396677D01*
X390532Y396576D01*
X390534Y396475D01*
X390534Y393865D01*
X390534Y396998D02*
X394711Y399086D01*
X392622Y402952D02*
X385313Y405040D01*
X392622Y402952D02*
X392622Y408173D01*
X390534Y406607D02*
X394711Y406607D01*
X434843Y335445D02*
X444241Y335445D01*
X434843Y335445D02*
X434843Y338055D01*
X434842Y338055D02*
X434844Y338156D01*
X434850Y338257D01*
X434860Y338358D01*
X434873Y338458D01*
X434891Y338558D01*
X434912Y338657D01*
X434938Y338755D01*
X434967Y338852D01*
X434999Y338948D01*
X435036Y339042D01*
X435076Y339135D01*
X435120Y339227D01*
X435167Y339316D01*
X435218Y339404D01*
X435272Y339490D01*
X435329Y339573D01*
X435389Y339655D01*
X435453Y339733D01*
X435519Y339810D01*
X435589Y339883D01*
X435661Y339954D01*
X435736Y340022D01*
X435814Y340087D01*
X435894Y340149D01*
X435976Y340208D01*
X436061Y340264D01*
X436148Y340316D01*
X436236Y340365D01*
X436327Y340411D01*
X436419Y340452D01*
X436513Y340491D01*
X436608Y340525D01*
X436704Y340556D01*
X436802Y340583D01*
X436900Y340607D01*
X437000Y340626D01*
X437100Y340642D01*
X437200Y340654D01*
X437301Y340662D01*
X437402Y340666D01*
X437504Y340666D01*
X437605Y340662D01*
X437706Y340654D01*
X437806Y340642D01*
X437906Y340626D01*
X438006Y340607D01*
X438104Y340583D01*
X438202Y340556D01*
X438298Y340525D01*
X438393Y340491D01*
X438487Y340452D01*
X438579Y340411D01*
X438670Y340365D01*
X438759Y340316D01*
X438845Y340264D01*
X438930Y340208D01*
X439012Y340149D01*
X439092Y340087D01*
X439170Y340022D01*
X439245Y339954D01*
X439317Y339883D01*
X439387Y339810D01*
X439453Y339733D01*
X439517Y339655D01*
X439577Y339573D01*
X439634Y339490D01*
X439688Y339404D01*
X439739Y339316D01*
X439786Y339227D01*
X439830Y339135D01*
X439870Y339042D01*
X439907Y338948D01*
X439939Y338852D01*
X439968Y338755D01*
X439994Y338657D01*
X440015Y338558D01*
X440033Y338458D01*
X440046Y338358D01*
X440056Y338257D01*
X440062Y338156D01*
X440064Y338055D01*
X440064Y335445D01*
X440064Y338578D02*
X444241Y340666D01*
X444241Y344532D02*
X444241Y347665D01*
X444240Y347665D02*
X444238Y347754D01*
X444232Y347842D01*
X444223Y347930D01*
X444210Y348018D01*
X444193Y348105D01*
X444173Y348191D01*
X444148Y348276D01*
X444121Y348361D01*
X444089Y348444D01*
X444055Y348525D01*
X444016Y348605D01*
X443975Y348683D01*
X443930Y348760D01*
X443882Y348834D01*
X443831Y348907D01*
X443777Y348977D01*
X443719Y349044D01*
X443659Y349110D01*
X443597Y349172D01*
X443531Y349232D01*
X443464Y349290D01*
X443394Y349344D01*
X443321Y349395D01*
X443247Y349443D01*
X443170Y349488D01*
X443092Y349529D01*
X443012Y349568D01*
X442931Y349602D01*
X442848Y349634D01*
X442763Y349661D01*
X442678Y349686D01*
X442592Y349706D01*
X442505Y349723D01*
X442417Y349736D01*
X442329Y349745D01*
X442241Y349751D01*
X442152Y349753D01*
X441108Y349753D01*
X441019Y349751D01*
X440931Y349745D01*
X440843Y349736D01*
X440755Y349723D01*
X440668Y349706D01*
X440582Y349686D01*
X440497Y349661D01*
X440412Y349634D01*
X440329Y349602D01*
X440248Y349568D01*
X440168Y349529D01*
X440090Y349488D01*
X440013Y349443D01*
X439939Y349395D01*
X439866Y349344D01*
X439796Y349290D01*
X439729Y349232D01*
X439663Y349172D01*
X439601Y349110D01*
X439541Y349044D01*
X439483Y348977D01*
X439429Y348907D01*
X439378Y348834D01*
X439330Y348760D01*
X439285Y348683D01*
X439244Y348605D01*
X439205Y348525D01*
X439171Y348444D01*
X439139Y348361D01*
X439112Y348276D01*
X439087Y348191D01*
X439067Y348105D01*
X439050Y348018D01*
X439037Y347930D01*
X439028Y347842D01*
X439022Y347754D01*
X439020Y347665D01*
X439020Y344532D01*
X434843Y344532D01*
X434843Y349753D01*
X451617Y323591D02*
X451617Y314193D01*
X451617Y323591D02*
X454228Y323591D01*
X454329Y323589D01*
X454430Y323583D01*
X454531Y323573D01*
X454631Y323560D01*
X454731Y323542D01*
X454830Y323521D01*
X454928Y323495D01*
X455025Y323466D01*
X455121Y323434D01*
X455215Y323397D01*
X455308Y323357D01*
X455400Y323313D01*
X455489Y323266D01*
X455577Y323215D01*
X455663Y323161D01*
X455746Y323104D01*
X455828Y323044D01*
X455906Y322980D01*
X455983Y322914D01*
X456056Y322844D01*
X456127Y322772D01*
X456195Y322697D01*
X456260Y322619D01*
X456322Y322539D01*
X456381Y322457D01*
X456437Y322372D01*
X456489Y322285D01*
X456538Y322197D01*
X456584Y322106D01*
X456625Y322014D01*
X456664Y321920D01*
X456698Y321825D01*
X456729Y321729D01*
X456756Y321631D01*
X456780Y321533D01*
X456799Y321433D01*
X456815Y321333D01*
X456827Y321233D01*
X456835Y321132D01*
X456839Y321031D01*
X456839Y320929D01*
X456835Y320828D01*
X456827Y320727D01*
X456815Y320627D01*
X456799Y320527D01*
X456780Y320427D01*
X456756Y320329D01*
X456729Y320231D01*
X456698Y320135D01*
X456664Y320040D01*
X456625Y319946D01*
X456584Y319854D01*
X456538Y319763D01*
X456489Y319675D01*
X456437Y319588D01*
X456381Y319503D01*
X456322Y319421D01*
X456260Y319341D01*
X456195Y319263D01*
X456127Y319188D01*
X456056Y319116D01*
X455983Y319046D01*
X455906Y318980D01*
X455828Y318916D01*
X455746Y318856D01*
X455663Y318799D01*
X455577Y318745D01*
X455489Y318694D01*
X455400Y318647D01*
X455308Y318603D01*
X455215Y318563D01*
X455121Y318526D01*
X455025Y318494D01*
X454928Y318465D01*
X454830Y318439D01*
X454731Y318418D01*
X454631Y318400D01*
X454531Y318387D01*
X454430Y318377D01*
X454329Y318371D01*
X454228Y318369D01*
X454228Y318370D02*
X451617Y318370D01*
X454750Y318370D02*
X456838Y314193D01*
X460704Y319414D02*
X463837Y319414D01*
X463926Y319412D01*
X464014Y319406D01*
X464102Y319397D01*
X464190Y319384D01*
X464277Y319367D01*
X464363Y319347D01*
X464448Y319322D01*
X464533Y319295D01*
X464616Y319263D01*
X464697Y319229D01*
X464777Y319190D01*
X464855Y319149D01*
X464932Y319104D01*
X465006Y319056D01*
X465079Y319005D01*
X465149Y318951D01*
X465216Y318893D01*
X465282Y318833D01*
X465344Y318771D01*
X465404Y318705D01*
X465462Y318638D01*
X465516Y318568D01*
X465567Y318495D01*
X465615Y318421D01*
X465660Y318344D01*
X465701Y318266D01*
X465740Y318186D01*
X465774Y318105D01*
X465806Y318022D01*
X465833Y317937D01*
X465858Y317852D01*
X465878Y317766D01*
X465895Y317679D01*
X465908Y317591D01*
X465917Y317503D01*
X465923Y317415D01*
X465925Y317326D01*
X465925Y316803D01*
X465926Y316803D02*
X465924Y316702D01*
X465918Y316601D01*
X465908Y316500D01*
X465895Y316400D01*
X465877Y316300D01*
X465856Y316201D01*
X465830Y316103D01*
X465801Y316006D01*
X465769Y315910D01*
X465732Y315816D01*
X465692Y315723D01*
X465648Y315631D01*
X465601Y315542D01*
X465550Y315454D01*
X465496Y315368D01*
X465439Y315285D01*
X465379Y315203D01*
X465315Y315125D01*
X465249Y315048D01*
X465179Y314975D01*
X465107Y314904D01*
X465032Y314836D01*
X464954Y314771D01*
X464874Y314709D01*
X464792Y314650D01*
X464707Y314594D01*
X464620Y314542D01*
X464532Y314493D01*
X464441Y314447D01*
X464349Y314406D01*
X464255Y314367D01*
X464160Y314333D01*
X464064Y314302D01*
X463966Y314275D01*
X463868Y314251D01*
X463768Y314232D01*
X463668Y314216D01*
X463568Y314204D01*
X463467Y314196D01*
X463366Y314192D01*
X463264Y314192D01*
X463163Y314196D01*
X463062Y314204D01*
X462962Y314216D01*
X462862Y314232D01*
X462762Y314251D01*
X462664Y314275D01*
X462566Y314302D01*
X462470Y314333D01*
X462375Y314367D01*
X462281Y314406D01*
X462189Y314447D01*
X462098Y314493D01*
X462010Y314542D01*
X461923Y314594D01*
X461838Y314650D01*
X461756Y314709D01*
X461676Y314771D01*
X461598Y314836D01*
X461523Y314904D01*
X461451Y314975D01*
X461381Y315048D01*
X461315Y315125D01*
X461251Y315203D01*
X461191Y315285D01*
X461134Y315368D01*
X461080Y315454D01*
X461029Y315542D01*
X460982Y315631D01*
X460938Y315723D01*
X460898Y315816D01*
X460861Y315910D01*
X460829Y316006D01*
X460800Y316103D01*
X460774Y316201D01*
X460753Y316300D01*
X460735Y316400D01*
X460722Y316500D01*
X460712Y316601D01*
X460706Y316702D01*
X460704Y316803D01*
X460704Y319414D01*
X460706Y319543D01*
X460712Y319671D01*
X460722Y319799D01*
X460736Y319927D01*
X460753Y320055D01*
X460775Y320182D01*
X460801Y320308D01*
X460830Y320433D01*
X460863Y320557D01*
X460901Y320680D01*
X460941Y320802D01*
X460986Y320923D01*
X461034Y321042D01*
X461086Y321160D01*
X461142Y321276D01*
X461201Y321390D01*
X461264Y321502D01*
X461330Y321613D01*
X461399Y321721D01*
X461472Y321827D01*
X461548Y321931D01*
X461627Y322033D01*
X461709Y322132D01*
X461794Y322228D01*
X461882Y322322D01*
X461973Y322413D01*
X462067Y322501D01*
X462163Y322586D01*
X462262Y322668D01*
X462364Y322747D01*
X462468Y322823D01*
X462574Y322896D01*
X462682Y322965D01*
X462792Y323031D01*
X462905Y323094D01*
X463019Y323153D01*
X463135Y323209D01*
X463253Y323261D01*
X463372Y323309D01*
X463493Y323354D01*
X463615Y323394D01*
X463738Y323432D01*
X463862Y323465D01*
X463987Y323494D01*
X464113Y323520D01*
X464240Y323542D01*
X464368Y323559D01*
X464496Y323573D01*
X464624Y323583D01*
X464752Y323589D01*
X464881Y323591D01*
X394711Y294805D02*
X385313Y294805D01*
X385313Y297415D01*
X385312Y297415D02*
X385314Y297516D01*
X385320Y297617D01*
X385330Y297718D01*
X385343Y297818D01*
X385361Y297918D01*
X385382Y298017D01*
X385408Y298115D01*
X385437Y298212D01*
X385469Y298308D01*
X385506Y298402D01*
X385546Y298495D01*
X385590Y298587D01*
X385637Y298676D01*
X385688Y298764D01*
X385742Y298850D01*
X385799Y298933D01*
X385859Y299015D01*
X385923Y299093D01*
X385989Y299170D01*
X386059Y299243D01*
X386131Y299314D01*
X386206Y299382D01*
X386284Y299447D01*
X386364Y299509D01*
X386446Y299568D01*
X386531Y299624D01*
X386618Y299676D01*
X386706Y299725D01*
X386797Y299771D01*
X386889Y299812D01*
X386983Y299851D01*
X387078Y299885D01*
X387174Y299916D01*
X387272Y299943D01*
X387370Y299967D01*
X387470Y299986D01*
X387570Y300002D01*
X387670Y300014D01*
X387771Y300022D01*
X387872Y300026D01*
X387974Y300026D01*
X388075Y300022D01*
X388176Y300014D01*
X388276Y300002D01*
X388376Y299986D01*
X388476Y299967D01*
X388574Y299943D01*
X388672Y299916D01*
X388768Y299885D01*
X388863Y299851D01*
X388957Y299812D01*
X389049Y299771D01*
X389140Y299725D01*
X389229Y299676D01*
X389315Y299624D01*
X389400Y299568D01*
X389482Y299509D01*
X389562Y299447D01*
X389640Y299382D01*
X389715Y299314D01*
X389787Y299243D01*
X389857Y299170D01*
X389923Y299093D01*
X389987Y299015D01*
X390047Y298933D01*
X390104Y298850D01*
X390158Y298764D01*
X390209Y298676D01*
X390256Y298587D01*
X390300Y298495D01*
X390340Y298402D01*
X390377Y298308D01*
X390409Y298212D01*
X390438Y298115D01*
X390464Y298017D01*
X390485Y297918D01*
X390503Y297818D01*
X390516Y297718D01*
X390526Y297617D01*
X390532Y297516D01*
X390534Y297415D01*
X390534Y294805D01*
X390534Y297938D02*
X394711Y300026D01*
X386357Y303892D02*
X385313Y303892D01*
X385313Y309113D01*
X394711Y306502D01*
X339925Y366141D02*
X337837Y366141D01*
X337748Y366143D01*
X337660Y366149D01*
X337572Y366158D01*
X337484Y366171D01*
X337397Y366188D01*
X337311Y366208D01*
X337226Y366233D01*
X337141Y366260D01*
X337058Y366292D01*
X336977Y366326D01*
X336897Y366365D01*
X336819Y366406D01*
X336742Y366451D01*
X336668Y366499D01*
X336595Y366550D01*
X336525Y366604D01*
X336458Y366662D01*
X336392Y366722D01*
X336330Y366784D01*
X336270Y366850D01*
X336212Y366917D01*
X336158Y366987D01*
X336107Y367060D01*
X336059Y367134D01*
X336014Y367211D01*
X335973Y367289D01*
X335934Y367369D01*
X335900Y367450D01*
X335868Y367533D01*
X335841Y367618D01*
X335816Y367703D01*
X335796Y367789D01*
X335779Y367876D01*
X335766Y367964D01*
X335757Y368052D01*
X335751Y368140D01*
X335749Y368229D01*
X335748Y368229D02*
X335748Y373451D01*
X335749Y373451D02*
X335751Y373542D01*
X335757Y373633D01*
X335767Y373724D01*
X335781Y373814D01*
X335798Y373903D01*
X335820Y373991D01*
X335846Y374079D01*
X335875Y374165D01*
X335908Y374250D01*
X335945Y374333D01*
X335985Y374415D01*
X336029Y374495D01*
X336076Y374573D01*
X336127Y374649D01*
X336180Y374722D01*
X336237Y374793D01*
X336298Y374862D01*
X336361Y374927D01*
X336426Y374990D01*
X336495Y375050D01*
X336566Y375108D01*
X336639Y375161D01*
X336715Y375212D01*
X336793Y375259D01*
X336873Y375303D01*
X336955Y375343D01*
X337038Y375380D01*
X337123Y375413D01*
X337209Y375442D01*
X337297Y375468D01*
X337385Y375490D01*
X337474Y375507D01*
X337564Y375521D01*
X337655Y375531D01*
X337746Y375537D01*
X337837Y375539D01*
X339925Y375539D01*
X343394Y373451D02*
X346004Y375539D01*
X346004Y366141D01*
X343394Y366141D02*
X348615Y366141D01*
X352538Y374495D02*
X352538Y375539D01*
X357759Y375539D01*
X355148Y366141D01*
M02*
