G04 EAGLE Gerber RS-274X export*
G75*
%MOMM*%
%FSLAX34Y34*%
%LPD*%
%INSilkscreen Bottom*%
%IPPOS*%
%AMOC8*
5,1,8,0,0,1.08239X$1,22.5*%
G01*
%ADD10C,0.152400*%
%ADD11C,0.101600*%
%ADD12C,0.127000*%
%ADD13C,0.076200*%
%ADD14C,0.254000*%


D10*
X400106Y445650D02*
X395167Y445650D01*
X395027Y445648D01*
X394888Y445642D01*
X394748Y445632D01*
X394609Y445618D01*
X394470Y445601D01*
X394332Y445579D01*
X394195Y445553D01*
X394058Y445524D01*
X393922Y445491D01*
X393788Y445454D01*
X393654Y445413D01*
X393522Y445368D01*
X393390Y445319D01*
X393261Y445267D01*
X393133Y445212D01*
X393006Y445152D01*
X392881Y445089D01*
X392758Y445023D01*
X392637Y444953D01*
X392518Y444880D01*
X392401Y444803D01*
X392287Y444723D01*
X392174Y444640D01*
X392064Y444554D01*
X391957Y444464D01*
X391852Y444372D01*
X391750Y444277D01*
X391650Y444179D01*
X391553Y444078D01*
X391459Y443974D01*
X391369Y443868D01*
X391281Y443759D01*
X391196Y443648D01*
X391115Y443534D01*
X391036Y443419D01*
X390961Y443301D01*
X390890Y443181D01*
X390822Y443058D01*
X390757Y442935D01*
X390696Y442809D01*
X390638Y442681D01*
X390584Y442553D01*
X390534Y442422D01*
X390487Y442290D01*
X390444Y442157D01*
X390405Y442023D01*
X390370Y441888D01*
X390339Y441752D01*
X390311Y441614D01*
X390288Y441477D01*
X390268Y441338D01*
X390252Y441199D01*
X390240Y441060D01*
X390232Y440921D01*
X390228Y440781D01*
X390228Y440641D01*
X390232Y440501D01*
X390240Y440362D01*
X390252Y440223D01*
X390268Y440084D01*
X390288Y439945D01*
X390311Y439808D01*
X390339Y439670D01*
X390370Y439534D01*
X390405Y439399D01*
X390444Y439265D01*
X390487Y439132D01*
X390534Y439000D01*
X390584Y438869D01*
X390638Y438741D01*
X390696Y438613D01*
X390757Y438487D01*
X390822Y438364D01*
X390890Y438242D01*
X390961Y438121D01*
X391036Y438003D01*
X391115Y437888D01*
X391196Y437774D01*
X391281Y437663D01*
X391369Y437554D01*
X391459Y437448D01*
X391553Y437344D01*
X391650Y437243D01*
X391750Y437145D01*
X391852Y437050D01*
X391957Y436958D01*
X392064Y436868D01*
X392174Y436782D01*
X392287Y436699D01*
X392401Y436619D01*
X392518Y436542D01*
X392637Y436469D01*
X392758Y436399D01*
X392881Y436333D01*
X393006Y436270D01*
X393133Y436210D01*
X393261Y436155D01*
X393390Y436103D01*
X393522Y436054D01*
X393654Y436009D01*
X393788Y435968D01*
X393922Y435931D01*
X394058Y435898D01*
X394195Y435869D01*
X394332Y435843D01*
X394470Y435821D01*
X394609Y435804D01*
X394748Y435790D01*
X394888Y435780D01*
X395027Y435774D01*
X395167Y435772D01*
X395167Y435773D02*
X400106Y435773D01*
X400106Y453553D01*
X395167Y453553D01*
X395167Y453552D02*
X395043Y453550D01*
X394919Y453544D01*
X394795Y453534D01*
X394672Y453521D01*
X394549Y453503D01*
X394427Y453482D01*
X394305Y453457D01*
X394184Y453428D01*
X394065Y453395D01*
X393946Y453359D01*
X393829Y453318D01*
X393713Y453275D01*
X393598Y453227D01*
X393485Y453176D01*
X393373Y453121D01*
X393264Y453063D01*
X393156Y453002D01*
X393050Y452937D01*
X392946Y452869D01*
X392845Y452797D01*
X392745Y452723D01*
X392649Y452645D01*
X392554Y452565D01*
X392462Y452481D01*
X392373Y452395D01*
X392287Y452306D01*
X392203Y452214D01*
X392123Y452119D01*
X392045Y452023D01*
X391971Y451923D01*
X391899Y451822D01*
X391831Y451718D01*
X391766Y451612D01*
X391705Y451504D01*
X391647Y451395D01*
X391592Y451283D01*
X391541Y451170D01*
X391493Y451055D01*
X391450Y450939D01*
X391409Y450822D01*
X391373Y450703D01*
X391340Y450584D01*
X391311Y450463D01*
X391286Y450341D01*
X391265Y450219D01*
X391247Y450096D01*
X391234Y449973D01*
X391224Y449849D01*
X391218Y449725D01*
X391216Y449601D01*
X391218Y449477D01*
X391224Y449353D01*
X391234Y449229D01*
X391247Y449106D01*
X391265Y448983D01*
X391286Y448861D01*
X391311Y448739D01*
X391340Y448618D01*
X391373Y448499D01*
X391409Y448380D01*
X391450Y448263D01*
X391493Y448147D01*
X391541Y448032D01*
X391592Y447919D01*
X391647Y447807D01*
X391705Y447698D01*
X391766Y447590D01*
X391831Y447484D01*
X391899Y447380D01*
X391971Y447279D01*
X392045Y447179D01*
X392123Y447083D01*
X392203Y446988D01*
X392287Y446896D01*
X392373Y446807D01*
X392462Y446721D01*
X392554Y446637D01*
X392649Y446557D01*
X392745Y446479D01*
X392845Y446405D01*
X392946Y446333D01*
X393050Y446265D01*
X393156Y446200D01*
X393264Y446139D01*
X393373Y446081D01*
X393485Y446026D01*
X393598Y445975D01*
X393713Y445927D01*
X393829Y445884D01*
X393946Y445843D01*
X394065Y445807D01*
X394184Y445774D01*
X394305Y445745D01*
X394427Y445720D01*
X394549Y445699D01*
X394672Y445681D01*
X394795Y445668D01*
X394919Y445658D01*
X395043Y445652D01*
X395167Y445650D01*
X491462Y382971D02*
X491462Y365191D01*
X491462Y382971D02*
X486523Y382971D01*
X486383Y382969D01*
X486244Y382963D01*
X486104Y382953D01*
X485965Y382939D01*
X485826Y382922D01*
X485688Y382900D01*
X485551Y382874D01*
X485414Y382845D01*
X485278Y382812D01*
X485144Y382775D01*
X485010Y382734D01*
X484878Y382689D01*
X484746Y382640D01*
X484617Y382588D01*
X484489Y382533D01*
X484362Y382473D01*
X484237Y382410D01*
X484114Y382344D01*
X483993Y382274D01*
X483874Y382201D01*
X483757Y382124D01*
X483643Y382044D01*
X483530Y381961D01*
X483420Y381875D01*
X483313Y381785D01*
X483208Y381693D01*
X483106Y381598D01*
X483006Y381500D01*
X482909Y381399D01*
X482815Y381295D01*
X482725Y381189D01*
X482637Y381080D01*
X482552Y380969D01*
X482471Y380855D01*
X482392Y380740D01*
X482317Y380622D01*
X482246Y380502D01*
X482178Y380379D01*
X482113Y380256D01*
X482052Y380130D01*
X481994Y380002D01*
X481940Y379874D01*
X481890Y379743D01*
X481843Y379611D01*
X481800Y379478D01*
X481761Y379344D01*
X481726Y379209D01*
X481695Y379073D01*
X481667Y378935D01*
X481644Y378798D01*
X481624Y378659D01*
X481608Y378520D01*
X481596Y378381D01*
X481588Y378242D01*
X481584Y378102D01*
X481584Y377962D01*
X481588Y377822D01*
X481596Y377683D01*
X481608Y377544D01*
X481624Y377405D01*
X481644Y377266D01*
X481667Y377129D01*
X481695Y376991D01*
X481726Y376855D01*
X481761Y376720D01*
X481800Y376586D01*
X481843Y376453D01*
X481890Y376321D01*
X481940Y376190D01*
X481994Y376062D01*
X482052Y375934D01*
X482113Y375808D01*
X482178Y375685D01*
X482246Y375563D01*
X482317Y375442D01*
X482392Y375324D01*
X482471Y375209D01*
X482552Y375095D01*
X482637Y374984D01*
X482725Y374875D01*
X482815Y374769D01*
X482909Y374665D01*
X483006Y374564D01*
X483106Y374466D01*
X483208Y374371D01*
X483313Y374279D01*
X483420Y374189D01*
X483530Y374103D01*
X483643Y374020D01*
X483757Y373940D01*
X483874Y373863D01*
X483993Y373790D01*
X484114Y373720D01*
X484237Y373654D01*
X484362Y373591D01*
X484489Y373531D01*
X484617Y373476D01*
X484746Y373424D01*
X484878Y373375D01*
X485010Y373330D01*
X485144Y373289D01*
X485278Y373252D01*
X485414Y373219D01*
X485551Y373190D01*
X485688Y373164D01*
X485826Y373142D01*
X485965Y373125D01*
X486104Y373111D01*
X486244Y373101D01*
X486383Y373095D01*
X486523Y373093D01*
X491462Y373093D01*
X485535Y373093D02*
X481584Y365191D01*
X271490Y410705D02*
X271490Y428485D01*
X266552Y428485D01*
X266413Y428483D01*
X266275Y428477D01*
X266137Y428468D01*
X265999Y428454D01*
X265862Y428437D01*
X265725Y428415D01*
X265588Y428390D01*
X265453Y428361D01*
X265318Y428328D01*
X265185Y428292D01*
X265052Y428252D01*
X264921Y428208D01*
X264791Y428160D01*
X264662Y428109D01*
X264535Y428054D01*
X264409Y427996D01*
X264285Y427934D01*
X264163Y427869D01*
X264043Y427800D01*
X263924Y427728D01*
X263808Y427653D01*
X263694Y427574D01*
X263582Y427492D01*
X263473Y427407D01*
X263365Y427320D01*
X263261Y427229D01*
X263159Y427135D01*
X263060Y427038D01*
X262963Y426939D01*
X262869Y426837D01*
X262778Y426733D01*
X262691Y426625D01*
X262606Y426516D01*
X262524Y426404D01*
X262445Y426290D01*
X262370Y426174D01*
X262298Y426055D01*
X262229Y425935D01*
X262164Y425813D01*
X262102Y425689D01*
X262044Y425563D01*
X261989Y425436D01*
X261938Y425307D01*
X261890Y425177D01*
X261846Y425046D01*
X261806Y424913D01*
X261770Y424780D01*
X261737Y424645D01*
X261708Y424510D01*
X261683Y424373D01*
X261661Y424236D01*
X261644Y424099D01*
X261630Y423961D01*
X261621Y423823D01*
X261615Y423685D01*
X261613Y423546D01*
X261613Y415644D01*
X261615Y415505D01*
X261621Y415367D01*
X261630Y415229D01*
X261644Y415091D01*
X261661Y414954D01*
X261683Y414817D01*
X261708Y414680D01*
X261737Y414545D01*
X261770Y414410D01*
X261806Y414277D01*
X261846Y414144D01*
X261890Y414013D01*
X261938Y413883D01*
X261989Y413754D01*
X262044Y413627D01*
X262102Y413501D01*
X262164Y413377D01*
X262229Y413255D01*
X262298Y413135D01*
X262370Y413016D01*
X262445Y412900D01*
X262524Y412786D01*
X262606Y412674D01*
X262691Y412565D01*
X262778Y412457D01*
X262869Y412353D01*
X262963Y412251D01*
X263060Y412152D01*
X263159Y412055D01*
X263261Y411961D01*
X263365Y411870D01*
X263473Y411783D01*
X263582Y411698D01*
X263694Y411616D01*
X263808Y411537D01*
X263924Y411462D01*
X264043Y411390D01*
X264163Y411321D01*
X264285Y411256D01*
X264409Y411194D01*
X264535Y411136D01*
X264662Y411081D01*
X264791Y411030D01*
X264921Y410982D01*
X265052Y410938D01*
X265185Y410898D01*
X265318Y410862D01*
X265453Y410829D01*
X265588Y410800D01*
X265725Y410775D01*
X265862Y410753D01*
X265999Y410736D01*
X266137Y410722D01*
X266275Y410713D01*
X266413Y410707D01*
X266552Y410705D01*
X271490Y410705D01*
X267821Y436583D02*
X263870Y436583D01*
X267821Y436583D02*
X267945Y436585D01*
X268069Y436591D01*
X268193Y436601D01*
X268316Y436614D01*
X268439Y436632D01*
X268561Y436653D01*
X268683Y436678D01*
X268804Y436707D01*
X268923Y436740D01*
X269042Y436776D01*
X269159Y436817D01*
X269275Y436860D01*
X269390Y436908D01*
X269503Y436959D01*
X269615Y437014D01*
X269724Y437072D01*
X269832Y437133D01*
X269938Y437198D01*
X270042Y437266D01*
X270143Y437338D01*
X270243Y437412D01*
X270339Y437490D01*
X270434Y437570D01*
X270526Y437654D01*
X270615Y437740D01*
X270701Y437829D01*
X270785Y437921D01*
X270865Y438016D01*
X270943Y438112D01*
X271017Y438212D01*
X271089Y438313D01*
X271157Y438417D01*
X271222Y438523D01*
X271283Y438631D01*
X271341Y438740D01*
X271396Y438852D01*
X271447Y438965D01*
X271495Y439080D01*
X271538Y439196D01*
X271579Y439313D01*
X271615Y439432D01*
X271648Y439551D01*
X271677Y439672D01*
X271702Y439794D01*
X271723Y439916D01*
X271741Y440039D01*
X271754Y440162D01*
X271764Y440286D01*
X271770Y440410D01*
X271772Y440534D01*
X271772Y450412D01*
X271770Y450536D01*
X271764Y450660D01*
X271754Y450784D01*
X271741Y450907D01*
X271723Y451030D01*
X271702Y451152D01*
X271677Y451274D01*
X271648Y451395D01*
X271615Y451514D01*
X271579Y451633D01*
X271538Y451750D01*
X271495Y451866D01*
X271447Y451981D01*
X271396Y452094D01*
X271341Y452206D01*
X271283Y452315D01*
X271222Y452423D01*
X271157Y452529D01*
X271089Y452633D01*
X271017Y452734D01*
X270943Y452834D01*
X270865Y452930D01*
X270785Y453025D01*
X270701Y453117D01*
X270615Y453206D01*
X270526Y453292D01*
X270434Y453376D01*
X270339Y453456D01*
X270243Y453534D01*
X270143Y453608D01*
X270042Y453680D01*
X269938Y453748D01*
X269832Y453813D01*
X269724Y453874D01*
X269615Y453932D01*
X269503Y453987D01*
X269390Y454038D01*
X269276Y454086D01*
X269159Y454129D01*
X269042Y454170D01*
X268923Y454206D01*
X268804Y454239D01*
X268683Y454268D01*
X268561Y454293D01*
X268439Y454314D01*
X268316Y454332D01*
X268193Y454345D01*
X268069Y454355D01*
X267945Y454361D01*
X267821Y454363D01*
X263870Y454363D01*
D11*
X446695Y450507D02*
X447669Y448820D01*
X446695Y450507D02*
X441074Y447261D01*
X443021Y443888D01*
X443022Y443888D02*
X443073Y443803D01*
X443128Y443720D01*
X443185Y443639D01*
X443246Y443560D01*
X443310Y443484D01*
X443377Y443410D01*
X443446Y443339D01*
X443518Y443270D01*
X443593Y443204D01*
X443670Y443142D01*
X443749Y443082D01*
X443831Y443025D01*
X443915Y442972D01*
X444001Y442921D01*
X444088Y442874D01*
X444178Y442831D01*
X444269Y442791D01*
X444361Y442754D01*
X444455Y442721D01*
X444550Y442692D01*
X444646Y442666D01*
X444743Y442644D01*
X444841Y442626D01*
X444939Y442611D01*
X445038Y442600D01*
X445137Y442593D01*
X445237Y442590D01*
X445336Y442591D01*
X445436Y442595D01*
X445535Y442604D01*
X445634Y442616D01*
X445732Y442631D01*
X445829Y442651D01*
X445926Y442674D01*
X446022Y442701D01*
X446116Y442732D01*
X446210Y442766D01*
X446302Y442804D01*
X446392Y442845D01*
X446481Y442890D01*
X446568Y442938D01*
X452190Y446183D01*
X452189Y446184D02*
X452274Y446235D01*
X452357Y446290D01*
X452438Y446347D01*
X452517Y446408D01*
X452593Y446472D01*
X452667Y446539D01*
X452738Y446608D01*
X452807Y446680D01*
X452873Y446755D01*
X452935Y446832D01*
X452995Y446911D01*
X453052Y446993D01*
X453105Y447077D01*
X453156Y447163D01*
X453203Y447250D01*
X453246Y447340D01*
X453286Y447431D01*
X453323Y447523D01*
X453356Y447617D01*
X453385Y447712D01*
X453411Y447808D01*
X453433Y447905D01*
X453451Y448003D01*
X453466Y448101D01*
X453477Y448200D01*
X453484Y448299D01*
X453487Y448399D01*
X453486Y448498D01*
X453482Y448598D01*
X453473Y448697D01*
X453461Y448795D01*
X453446Y448894D01*
X453426Y448991D01*
X453403Y449088D01*
X453376Y449184D01*
X453345Y449278D01*
X453311Y449372D01*
X453273Y449464D01*
X453232Y449554D01*
X453187Y449643D01*
X453139Y449730D01*
X453140Y449730D02*
X451193Y453103D01*
X448342Y458040D02*
X438224Y452198D01*
X434978Y457820D02*
X448342Y458040D01*
X445097Y463662D02*
X434978Y457820D01*
X432128Y462757D02*
X442246Y468599D01*
X440623Y471409D01*
X440624Y471410D02*
X440566Y471507D01*
X440504Y471602D01*
X440439Y471695D01*
X440371Y471785D01*
X440300Y471873D01*
X440225Y471959D01*
X440148Y472042D01*
X440068Y472122D01*
X439985Y472199D01*
X439899Y472274D01*
X439811Y472345D01*
X439721Y472413D01*
X439628Y472478D01*
X439533Y472540D01*
X439436Y472598D01*
X439337Y472653D01*
X439236Y472704D01*
X439133Y472752D01*
X439029Y472797D01*
X438923Y472837D01*
X438816Y472874D01*
X438708Y472907D01*
X438598Y472937D01*
X438488Y472962D01*
X438377Y472984D01*
X438265Y473001D01*
X438152Y473015D01*
X438039Y473025D01*
X437926Y473031D01*
X437813Y473033D01*
X437700Y473031D01*
X437587Y473025D01*
X437474Y473015D01*
X437361Y473001D01*
X437249Y472984D01*
X437138Y472962D01*
X437028Y472937D01*
X436918Y472907D01*
X436810Y472874D01*
X436703Y472837D01*
X436597Y472797D01*
X436493Y472752D01*
X436390Y472704D01*
X436289Y472653D01*
X436190Y472598D01*
X436190Y472597D02*
X431693Y470001D01*
X431596Y469943D01*
X431501Y469881D01*
X431408Y469816D01*
X431318Y469748D01*
X431230Y469677D01*
X431144Y469602D01*
X431061Y469525D01*
X430981Y469445D01*
X430904Y469362D01*
X430829Y469276D01*
X430758Y469188D01*
X430690Y469098D01*
X430625Y469005D01*
X430563Y468910D01*
X430505Y468813D01*
X430450Y468714D01*
X430399Y468613D01*
X430351Y468510D01*
X430306Y468406D01*
X430266Y468300D01*
X430229Y468193D01*
X430196Y468085D01*
X430166Y467975D01*
X430141Y467865D01*
X430119Y467754D01*
X430102Y467642D01*
X430088Y467529D01*
X430078Y467416D01*
X430072Y467303D01*
X430070Y467190D01*
X430072Y467077D01*
X430078Y466964D01*
X430088Y466851D01*
X430102Y466738D01*
X430119Y466626D01*
X430141Y466515D01*
X430166Y466405D01*
X430196Y466295D01*
X430229Y466187D01*
X430266Y466080D01*
X430306Y465974D01*
X430351Y465870D01*
X430399Y465767D01*
X430450Y465666D01*
X430505Y465567D01*
X432128Y462757D01*
X489516Y347269D02*
X491464Y347269D01*
X489516Y347269D02*
X489516Y340778D01*
X493411Y340778D01*
X493510Y340780D01*
X493610Y340786D01*
X493709Y340795D01*
X493807Y340808D01*
X493905Y340825D01*
X494003Y340846D01*
X494099Y340871D01*
X494194Y340899D01*
X494288Y340931D01*
X494381Y340966D01*
X494473Y341005D01*
X494563Y341048D01*
X494651Y341093D01*
X494738Y341143D01*
X494822Y341195D01*
X494905Y341251D01*
X494985Y341309D01*
X495063Y341371D01*
X495138Y341436D01*
X495211Y341504D01*
X495281Y341574D01*
X495349Y341647D01*
X495414Y341722D01*
X495476Y341800D01*
X495534Y341880D01*
X495590Y341963D01*
X495642Y342047D01*
X495692Y342134D01*
X495737Y342222D01*
X495780Y342312D01*
X495819Y342404D01*
X495854Y342497D01*
X495886Y342591D01*
X495914Y342686D01*
X495939Y342782D01*
X495960Y342880D01*
X495977Y342978D01*
X495990Y343076D01*
X495999Y343175D01*
X496005Y343275D01*
X496007Y343374D01*
X496008Y343374D02*
X496008Y349866D01*
X496007Y349866D02*
X496005Y349965D01*
X495999Y350065D01*
X495990Y350164D01*
X495977Y350262D01*
X495960Y350360D01*
X495939Y350458D01*
X495914Y350554D01*
X495886Y350649D01*
X495854Y350743D01*
X495819Y350836D01*
X495780Y350928D01*
X495737Y351018D01*
X495692Y351106D01*
X495642Y351193D01*
X495590Y351277D01*
X495534Y351360D01*
X495476Y351440D01*
X495414Y351518D01*
X495349Y351593D01*
X495281Y351666D01*
X495211Y351736D01*
X495138Y351804D01*
X495063Y351869D01*
X494985Y351931D01*
X494905Y351989D01*
X494822Y352045D01*
X494738Y352097D01*
X494651Y352147D01*
X494563Y352192D01*
X494473Y352235D01*
X494381Y352274D01*
X494288Y352309D01*
X494194Y352341D01*
X494099Y352369D01*
X494003Y352394D01*
X493905Y352415D01*
X493807Y352432D01*
X493709Y352445D01*
X493610Y352454D01*
X493510Y352460D01*
X493411Y352462D01*
X489516Y352462D01*
X483816Y352462D02*
X483816Y340778D01*
X477324Y340778D02*
X483816Y352462D01*
X477324Y352462D02*
X477324Y340778D01*
X471624Y340778D02*
X471624Y352462D01*
X468378Y352462D01*
X468265Y352460D01*
X468152Y352454D01*
X468039Y352444D01*
X467926Y352430D01*
X467814Y352413D01*
X467703Y352391D01*
X467593Y352366D01*
X467483Y352336D01*
X467375Y352303D01*
X467268Y352266D01*
X467162Y352226D01*
X467058Y352181D01*
X466955Y352133D01*
X466854Y352082D01*
X466755Y352027D01*
X466658Y351969D01*
X466563Y351907D01*
X466470Y351842D01*
X466380Y351774D01*
X466292Y351703D01*
X466206Y351628D01*
X466123Y351551D01*
X466043Y351471D01*
X465966Y351388D01*
X465891Y351302D01*
X465820Y351214D01*
X465752Y351124D01*
X465687Y351031D01*
X465625Y350936D01*
X465567Y350839D01*
X465512Y350740D01*
X465461Y350639D01*
X465413Y350536D01*
X465368Y350432D01*
X465328Y350326D01*
X465291Y350219D01*
X465258Y350111D01*
X465228Y350001D01*
X465203Y349891D01*
X465181Y349780D01*
X465164Y349668D01*
X465150Y349555D01*
X465140Y349442D01*
X465134Y349329D01*
X465132Y349216D01*
X465132Y344024D01*
X465134Y343911D01*
X465140Y343798D01*
X465150Y343685D01*
X465164Y343572D01*
X465181Y343460D01*
X465203Y343349D01*
X465228Y343239D01*
X465258Y343129D01*
X465291Y343021D01*
X465328Y342914D01*
X465368Y342808D01*
X465413Y342704D01*
X465461Y342601D01*
X465512Y342500D01*
X465567Y342401D01*
X465625Y342304D01*
X465687Y342209D01*
X465752Y342116D01*
X465820Y342026D01*
X465891Y341938D01*
X465966Y341852D01*
X466043Y341769D01*
X466123Y341689D01*
X466206Y341612D01*
X466292Y341537D01*
X466380Y341466D01*
X466470Y341398D01*
X466563Y341333D01*
X466658Y341271D01*
X466755Y341213D01*
X466854Y341158D01*
X466955Y341107D01*
X467058Y341059D01*
X467162Y341014D01*
X467268Y340974D01*
X467375Y340937D01*
X467483Y340904D01*
X467593Y340874D01*
X467703Y340849D01*
X467814Y340827D01*
X467926Y340810D01*
X468039Y340796D01*
X468152Y340786D01*
X468265Y340780D01*
X468378Y340778D01*
X471624Y340778D01*
X427351Y227280D02*
X425756Y226163D01*
X429479Y220846D01*
X432670Y223080D01*
X432669Y223080D02*
X432749Y223139D01*
X432827Y223201D01*
X432903Y223265D01*
X432976Y223333D01*
X433047Y223403D01*
X433114Y223476D01*
X433179Y223551D01*
X433241Y223629D01*
X433300Y223709D01*
X433356Y223791D01*
X433409Y223876D01*
X433458Y223962D01*
X433504Y224050D01*
X433547Y224140D01*
X433586Y224231D01*
X433621Y224324D01*
X433653Y224418D01*
X433682Y224514D01*
X433706Y224610D01*
X433727Y224707D01*
X433745Y224805D01*
X433758Y224904D01*
X433768Y225003D01*
X433774Y225102D01*
X433776Y225201D01*
X433774Y225301D01*
X433769Y225400D01*
X433759Y225499D01*
X433746Y225598D01*
X433730Y225696D01*
X433709Y225793D01*
X433685Y225890D01*
X433657Y225985D01*
X433625Y226079D01*
X433590Y226172D01*
X433551Y226264D01*
X433509Y226354D01*
X433463Y226442D01*
X433414Y226529D01*
X433362Y226613D01*
X433307Y226696D01*
X429584Y232013D01*
X429525Y232093D01*
X429463Y232171D01*
X429399Y232247D01*
X429331Y232320D01*
X429261Y232391D01*
X429188Y232458D01*
X429113Y232523D01*
X429035Y232585D01*
X428955Y232644D01*
X428873Y232700D01*
X428788Y232753D01*
X428702Y232802D01*
X428614Y232848D01*
X428524Y232891D01*
X428433Y232930D01*
X428340Y232965D01*
X428246Y232997D01*
X428150Y233026D01*
X428054Y233050D01*
X427957Y233071D01*
X427859Y233089D01*
X427760Y233102D01*
X427661Y233112D01*
X427562Y233118D01*
X427463Y233120D01*
X427363Y233118D01*
X427264Y233113D01*
X427165Y233104D01*
X427066Y233090D01*
X426968Y233074D01*
X426871Y233053D01*
X426774Y233029D01*
X426679Y233001D01*
X426585Y232969D01*
X426492Y232934D01*
X426400Y232895D01*
X426310Y232853D01*
X426222Y232807D01*
X426135Y232758D01*
X426051Y232706D01*
X425968Y232651D01*
X422778Y230417D01*
X418108Y227147D02*
X424809Y217576D01*
X419492Y213853D02*
X418108Y227147D01*
X412791Y223424D02*
X419492Y213853D01*
X414822Y210583D02*
X408121Y220154D01*
X405462Y218292D01*
X405462Y218293D02*
X405371Y218226D01*
X405281Y218157D01*
X405194Y218084D01*
X405110Y218008D01*
X405029Y217929D01*
X404950Y217848D01*
X404874Y217764D01*
X404801Y217677D01*
X404732Y217588D01*
X404665Y217496D01*
X404602Y217402D01*
X404542Y217306D01*
X404485Y217208D01*
X404432Y217108D01*
X404382Y217006D01*
X404336Y216902D01*
X404294Y216797D01*
X404255Y216691D01*
X404220Y216583D01*
X404189Y216474D01*
X404161Y216364D01*
X404138Y216253D01*
X404118Y216142D01*
X404102Y216030D01*
X404090Y215917D01*
X404082Y215804D01*
X404078Y215691D01*
X404078Y215577D01*
X404082Y215464D01*
X404090Y215351D01*
X404102Y215238D01*
X404118Y215126D01*
X404138Y215015D01*
X404161Y214904D01*
X404189Y214794D01*
X404220Y214685D01*
X404255Y214577D01*
X404294Y214471D01*
X404336Y214366D01*
X404382Y214262D01*
X404432Y214160D01*
X404485Y214060D01*
X404542Y213962D01*
X404602Y213866D01*
X404665Y213772D01*
X407644Y209518D01*
X407643Y209518D02*
X407710Y209427D01*
X407779Y209337D01*
X407852Y209250D01*
X407928Y209166D01*
X408007Y209085D01*
X408088Y209006D01*
X408172Y208930D01*
X408259Y208857D01*
X408349Y208788D01*
X408440Y208721D01*
X408534Y208658D01*
X408630Y208598D01*
X408728Y208541D01*
X408828Y208488D01*
X408930Y208438D01*
X409034Y208392D01*
X409139Y208350D01*
X409245Y208311D01*
X409353Y208276D01*
X409462Y208245D01*
X409572Y208217D01*
X409683Y208194D01*
X409794Y208174D01*
X409906Y208158D01*
X410019Y208146D01*
X410132Y208138D01*
X410245Y208134D01*
X410359Y208134D01*
X410472Y208138D01*
X410585Y208146D01*
X410698Y208158D01*
X410810Y208174D01*
X410921Y208194D01*
X411032Y208217D01*
X411142Y208245D01*
X411251Y208276D01*
X411359Y208311D01*
X411465Y208350D01*
X411570Y208392D01*
X411674Y208438D01*
X411776Y208488D01*
X411876Y208541D01*
X411974Y208598D01*
X412070Y208658D01*
X412164Y208721D01*
X414822Y210583D01*
X282896Y214783D02*
X281301Y215900D01*
X277578Y210583D01*
X280768Y208349D01*
X280851Y208294D01*
X280935Y208242D01*
X281022Y208193D01*
X281110Y208147D01*
X281200Y208105D01*
X281292Y208066D01*
X281385Y208031D01*
X281479Y207999D01*
X281574Y207971D01*
X281671Y207947D01*
X281768Y207926D01*
X281866Y207910D01*
X281965Y207896D01*
X282064Y207887D01*
X282163Y207882D01*
X282263Y207880D01*
X282362Y207882D01*
X282461Y207888D01*
X282560Y207898D01*
X282659Y207911D01*
X282757Y207929D01*
X282854Y207950D01*
X282950Y207974D01*
X283046Y208003D01*
X283140Y208035D01*
X283233Y208070D01*
X283324Y208109D01*
X283414Y208152D01*
X283502Y208198D01*
X283588Y208247D01*
X283673Y208300D01*
X283755Y208356D01*
X283835Y208415D01*
X283913Y208477D01*
X283988Y208542D01*
X284061Y208609D01*
X284131Y208680D01*
X284199Y208753D01*
X284263Y208829D01*
X284325Y208907D01*
X284384Y208987D01*
X288107Y214304D01*
X288162Y214387D01*
X288214Y214471D01*
X288263Y214558D01*
X288309Y214646D01*
X288351Y214736D01*
X288390Y214828D01*
X288425Y214921D01*
X288457Y215015D01*
X288485Y215110D01*
X288509Y215207D01*
X288530Y215304D01*
X288546Y215402D01*
X288560Y215501D01*
X288569Y215600D01*
X288574Y215699D01*
X288576Y215799D01*
X288574Y215898D01*
X288568Y215997D01*
X288558Y216096D01*
X288545Y216195D01*
X288527Y216293D01*
X288506Y216390D01*
X288482Y216486D01*
X288453Y216582D01*
X288421Y216676D01*
X288386Y216769D01*
X288347Y216860D01*
X288304Y216950D01*
X288258Y217038D01*
X288209Y217124D01*
X288156Y217209D01*
X288100Y217291D01*
X288041Y217371D01*
X287979Y217449D01*
X287914Y217524D01*
X287847Y217597D01*
X287776Y217667D01*
X287703Y217735D01*
X287627Y217799D01*
X287549Y217861D01*
X287469Y217920D01*
X287470Y217920D02*
X284279Y220154D01*
X279610Y223424D02*
X272908Y213853D01*
X267591Y217576D02*
X279610Y223424D01*
X274292Y227147D02*
X267591Y217576D01*
X262921Y220846D02*
X269622Y230417D01*
X266964Y232278D01*
X266964Y232279D02*
X266870Y232342D01*
X266774Y232402D01*
X266676Y232459D01*
X266576Y232512D01*
X266474Y232562D01*
X266370Y232608D01*
X266265Y232650D01*
X266159Y232689D01*
X266051Y232724D01*
X265942Y232755D01*
X265832Y232783D01*
X265721Y232806D01*
X265610Y232826D01*
X265498Y232842D01*
X265385Y232854D01*
X265272Y232862D01*
X265159Y232866D01*
X265045Y232866D01*
X264932Y232862D01*
X264819Y232854D01*
X264706Y232842D01*
X264594Y232826D01*
X264483Y232806D01*
X264372Y232783D01*
X264262Y232755D01*
X264153Y232724D01*
X264045Y232689D01*
X263939Y232650D01*
X263834Y232608D01*
X263730Y232562D01*
X263628Y232512D01*
X263528Y232459D01*
X263430Y232402D01*
X263334Y232342D01*
X263240Y232279D01*
X263149Y232212D01*
X263059Y232143D01*
X262972Y232070D01*
X262888Y231994D01*
X262807Y231915D01*
X262728Y231834D01*
X262652Y231750D01*
X262579Y231663D01*
X262510Y231574D01*
X262443Y231482D01*
X262444Y231481D02*
X259465Y227228D01*
X259402Y227134D01*
X259342Y227038D01*
X259285Y226940D01*
X259232Y226840D01*
X259182Y226738D01*
X259136Y226634D01*
X259094Y226529D01*
X259055Y226423D01*
X259020Y226315D01*
X258989Y226206D01*
X258961Y226096D01*
X258938Y225985D01*
X258918Y225874D01*
X258902Y225762D01*
X258890Y225649D01*
X258882Y225536D01*
X258878Y225423D01*
X258878Y225309D01*
X258882Y225196D01*
X258890Y225083D01*
X258902Y224970D01*
X258918Y224858D01*
X258938Y224747D01*
X258961Y224636D01*
X258989Y224526D01*
X259020Y224417D01*
X259055Y224309D01*
X259094Y224203D01*
X259136Y224098D01*
X259182Y223994D01*
X259232Y223892D01*
X259285Y223792D01*
X259342Y223694D01*
X259402Y223598D01*
X259465Y223504D01*
X259532Y223412D01*
X259601Y223323D01*
X259674Y223236D01*
X259750Y223152D01*
X259829Y223071D01*
X259910Y222992D01*
X259994Y222916D01*
X260081Y222843D01*
X260171Y222774D01*
X260262Y222707D01*
X262921Y220846D01*
X201649Y335306D02*
X201649Y337254D01*
X195158Y337254D01*
X195158Y333359D01*
X195160Y333260D01*
X195166Y333160D01*
X195175Y333061D01*
X195188Y332963D01*
X195205Y332865D01*
X195226Y332767D01*
X195251Y332671D01*
X195279Y332576D01*
X195311Y332482D01*
X195346Y332389D01*
X195385Y332297D01*
X195428Y332207D01*
X195473Y332119D01*
X195523Y332032D01*
X195575Y331948D01*
X195631Y331865D01*
X195689Y331785D01*
X195751Y331707D01*
X195816Y331632D01*
X195884Y331559D01*
X195954Y331489D01*
X196027Y331421D01*
X196102Y331356D01*
X196180Y331294D01*
X196260Y331236D01*
X196343Y331180D01*
X196427Y331128D01*
X196514Y331078D01*
X196602Y331033D01*
X196692Y330990D01*
X196784Y330951D01*
X196877Y330916D01*
X196971Y330884D01*
X197066Y330856D01*
X197162Y330831D01*
X197260Y330810D01*
X197358Y330793D01*
X197456Y330780D01*
X197555Y330771D01*
X197655Y330765D01*
X197754Y330763D01*
X204246Y330763D01*
X204345Y330765D01*
X204445Y330771D01*
X204544Y330780D01*
X204642Y330793D01*
X204740Y330810D01*
X204838Y330831D01*
X204934Y330856D01*
X205029Y330884D01*
X205123Y330916D01*
X205216Y330951D01*
X205308Y330990D01*
X205398Y331033D01*
X205486Y331078D01*
X205573Y331128D01*
X205657Y331180D01*
X205740Y331236D01*
X205820Y331294D01*
X205898Y331356D01*
X205973Y331421D01*
X206046Y331489D01*
X206116Y331559D01*
X206184Y331632D01*
X206249Y331707D01*
X206311Y331785D01*
X206369Y331865D01*
X206425Y331948D01*
X206477Y332032D01*
X206527Y332119D01*
X206572Y332207D01*
X206615Y332297D01*
X206654Y332389D01*
X206689Y332481D01*
X206721Y332576D01*
X206749Y332671D01*
X206774Y332767D01*
X206795Y332865D01*
X206812Y332963D01*
X206825Y333061D01*
X206834Y333160D01*
X206840Y333260D01*
X206842Y333359D01*
X206842Y337254D01*
X206842Y342954D02*
X195158Y342954D01*
X195158Y349446D02*
X206842Y342954D01*
X206842Y349446D02*
X195158Y349446D01*
X195158Y355146D02*
X206842Y355146D01*
X206842Y358392D01*
X206840Y358505D01*
X206834Y358618D01*
X206824Y358731D01*
X206810Y358844D01*
X206793Y358956D01*
X206771Y359067D01*
X206746Y359177D01*
X206716Y359287D01*
X206683Y359395D01*
X206646Y359502D01*
X206606Y359608D01*
X206561Y359712D01*
X206513Y359815D01*
X206462Y359916D01*
X206407Y360015D01*
X206349Y360112D01*
X206287Y360207D01*
X206222Y360300D01*
X206154Y360390D01*
X206083Y360478D01*
X206008Y360564D01*
X205931Y360647D01*
X205851Y360727D01*
X205768Y360804D01*
X205682Y360879D01*
X205594Y360950D01*
X205504Y361018D01*
X205411Y361083D01*
X205316Y361145D01*
X205219Y361203D01*
X205120Y361258D01*
X205019Y361309D01*
X204916Y361357D01*
X204812Y361402D01*
X204706Y361442D01*
X204599Y361479D01*
X204491Y361512D01*
X204381Y361542D01*
X204271Y361567D01*
X204160Y361589D01*
X204048Y361606D01*
X203935Y361620D01*
X203822Y361630D01*
X203709Y361636D01*
X203596Y361638D01*
X198404Y361638D01*
X198291Y361636D01*
X198178Y361630D01*
X198065Y361620D01*
X197952Y361606D01*
X197840Y361589D01*
X197729Y361567D01*
X197619Y361542D01*
X197509Y361512D01*
X197401Y361479D01*
X197294Y361442D01*
X197188Y361402D01*
X197084Y361357D01*
X196981Y361309D01*
X196880Y361258D01*
X196781Y361203D01*
X196684Y361145D01*
X196589Y361083D01*
X196496Y361018D01*
X196406Y360950D01*
X196318Y360879D01*
X196232Y360804D01*
X196149Y360727D01*
X196069Y360647D01*
X195992Y360564D01*
X195917Y360478D01*
X195846Y360390D01*
X195778Y360300D01*
X195713Y360207D01*
X195651Y360112D01*
X195593Y360015D01*
X195538Y359916D01*
X195487Y359815D01*
X195439Y359712D01*
X195394Y359608D01*
X195354Y359502D01*
X195317Y359395D01*
X195284Y359287D01*
X195254Y359177D01*
X195229Y359067D01*
X195207Y358956D01*
X195190Y358844D01*
X195176Y358731D01*
X195166Y358618D01*
X195160Y358505D01*
X195158Y358392D01*
X195158Y355146D01*
X254651Y466002D02*
X255625Y467689D01*
X254651Y466002D02*
X260273Y462757D01*
X262220Y466130D01*
X262219Y466130D02*
X262267Y466217D01*
X262312Y466306D01*
X262353Y466396D01*
X262391Y466488D01*
X262425Y466582D01*
X262456Y466676D01*
X262483Y466772D01*
X262506Y466869D01*
X262526Y466966D01*
X262541Y467065D01*
X262553Y467163D01*
X262562Y467262D01*
X262566Y467362D01*
X262567Y467461D01*
X262564Y467561D01*
X262557Y467660D01*
X262546Y467759D01*
X262531Y467857D01*
X262513Y467955D01*
X262491Y468052D01*
X262465Y468148D01*
X262436Y468243D01*
X262403Y468337D01*
X262366Y468429D01*
X262326Y468520D01*
X262283Y468609D01*
X262236Y468697D01*
X262185Y468783D01*
X262132Y468867D01*
X262075Y468948D01*
X262015Y469028D01*
X261953Y469105D01*
X261887Y469180D01*
X261818Y469252D01*
X261747Y469321D01*
X261673Y469388D01*
X261597Y469452D01*
X261518Y469512D01*
X261437Y469570D01*
X261354Y469625D01*
X261269Y469676D01*
X261270Y469676D02*
X255648Y472922D01*
X255648Y472921D02*
X255561Y472969D01*
X255472Y473014D01*
X255382Y473055D01*
X255290Y473093D01*
X255196Y473127D01*
X255102Y473158D01*
X255006Y473185D01*
X254909Y473208D01*
X254812Y473228D01*
X254713Y473243D01*
X254615Y473255D01*
X254516Y473264D01*
X254416Y473268D01*
X254317Y473269D01*
X254217Y473266D01*
X254118Y473259D01*
X254019Y473248D01*
X253921Y473233D01*
X253823Y473215D01*
X253726Y473193D01*
X253630Y473167D01*
X253535Y473138D01*
X253441Y473105D01*
X253349Y473068D01*
X253258Y473028D01*
X253169Y472985D01*
X253081Y472938D01*
X252995Y472887D01*
X252911Y472834D01*
X252830Y472777D01*
X252750Y472717D01*
X252673Y472655D01*
X252598Y472589D01*
X252526Y472520D01*
X252457Y472449D01*
X252390Y472375D01*
X252326Y472299D01*
X252266Y472220D01*
X252208Y472139D01*
X252153Y472056D01*
X252102Y471971D01*
X252101Y471972D02*
X250154Y468599D01*
X247304Y463662D02*
X257422Y457820D01*
X254177Y452198D02*
X247304Y463662D01*
X244058Y458040D02*
X254177Y452198D01*
X251326Y447261D02*
X241208Y453103D01*
X239585Y450292D01*
X239585Y450293D02*
X239530Y450194D01*
X239479Y450093D01*
X239431Y449990D01*
X239386Y449886D01*
X239346Y449780D01*
X239309Y449673D01*
X239276Y449565D01*
X239246Y449455D01*
X239221Y449345D01*
X239199Y449234D01*
X239182Y449122D01*
X239168Y449009D01*
X239158Y448896D01*
X239152Y448783D01*
X239150Y448670D01*
X239152Y448557D01*
X239158Y448444D01*
X239168Y448331D01*
X239182Y448218D01*
X239199Y448106D01*
X239221Y447995D01*
X239246Y447885D01*
X239276Y447775D01*
X239309Y447667D01*
X239346Y447560D01*
X239386Y447454D01*
X239431Y447350D01*
X239479Y447247D01*
X239530Y447146D01*
X239585Y447047D01*
X239643Y446950D01*
X239705Y446855D01*
X239770Y446762D01*
X239838Y446672D01*
X239909Y446584D01*
X239984Y446498D01*
X240061Y446415D01*
X240141Y446335D01*
X240224Y446258D01*
X240310Y446183D01*
X240398Y446112D01*
X240488Y446044D01*
X240581Y445979D01*
X240676Y445917D01*
X240773Y445859D01*
X245270Y443262D01*
X245369Y443207D01*
X245470Y443156D01*
X245573Y443108D01*
X245677Y443063D01*
X245783Y443023D01*
X245890Y442986D01*
X245998Y442953D01*
X246108Y442923D01*
X246218Y442898D01*
X246329Y442876D01*
X246441Y442859D01*
X246554Y442845D01*
X246667Y442835D01*
X246780Y442829D01*
X246893Y442827D01*
X247006Y442829D01*
X247119Y442835D01*
X247232Y442845D01*
X247345Y442859D01*
X247457Y442876D01*
X247568Y442898D01*
X247678Y442923D01*
X247788Y442953D01*
X247896Y442986D01*
X248003Y443023D01*
X248109Y443063D01*
X248213Y443108D01*
X248316Y443156D01*
X248417Y443207D01*
X248516Y443262D01*
X248613Y443320D01*
X248708Y443382D01*
X248801Y443447D01*
X248891Y443515D01*
X248980Y443586D01*
X249065Y443661D01*
X249148Y443738D01*
X249228Y443818D01*
X249305Y443901D01*
X249380Y443987D01*
X249451Y444075D01*
X249519Y444165D01*
X249584Y444258D01*
X249646Y444353D01*
X249704Y444450D01*
X249703Y444450D02*
X251326Y447261D01*
D10*
X466426Y401730D02*
X466426Y383950D01*
X466426Y401730D02*
X461488Y401730D01*
X461348Y401728D01*
X461209Y401722D01*
X461069Y401712D01*
X460930Y401698D01*
X460791Y401681D01*
X460653Y401659D01*
X460516Y401633D01*
X460379Y401604D01*
X460243Y401571D01*
X460109Y401534D01*
X459975Y401493D01*
X459843Y401448D01*
X459711Y401399D01*
X459582Y401347D01*
X459454Y401292D01*
X459327Y401232D01*
X459202Y401169D01*
X459079Y401103D01*
X458958Y401033D01*
X458839Y400960D01*
X458722Y400883D01*
X458608Y400803D01*
X458495Y400720D01*
X458385Y400634D01*
X458278Y400544D01*
X458173Y400452D01*
X458071Y400357D01*
X457971Y400259D01*
X457874Y400158D01*
X457780Y400054D01*
X457690Y399948D01*
X457602Y399839D01*
X457517Y399728D01*
X457436Y399614D01*
X457357Y399499D01*
X457282Y399381D01*
X457211Y399261D01*
X457143Y399138D01*
X457078Y399015D01*
X457017Y398889D01*
X456959Y398761D01*
X456905Y398633D01*
X456855Y398502D01*
X456808Y398370D01*
X456765Y398237D01*
X456726Y398103D01*
X456691Y397968D01*
X456660Y397832D01*
X456632Y397694D01*
X456609Y397557D01*
X456589Y397418D01*
X456573Y397279D01*
X456561Y397140D01*
X456553Y397001D01*
X456549Y396861D01*
X456549Y396721D01*
X456553Y396581D01*
X456561Y396442D01*
X456573Y396303D01*
X456589Y396164D01*
X456609Y396025D01*
X456632Y395888D01*
X456660Y395750D01*
X456691Y395614D01*
X456726Y395479D01*
X456765Y395345D01*
X456808Y395212D01*
X456855Y395080D01*
X456905Y394949D01*
X456959Y394821D01*
X457017Y394693D01*
X457078Y394567D01*
X457143Y394444D01*
X457211Y394322D01*
X457282Y394201D01*
X457357Y394083D01*
X457436Y393968D01*
X457517Y393854D01*
X457602Y393743D01*
X457690Y393634D01*
X457780Y393528D01*
X457874Y393424D01*
X457971Y393323D01*
X458071Y393225D01*
X458173Y393130D01*
X458278Y393038D01*
X458385Y392948D01*
X458495Y392862D01*
X458608Y392779D01*
X458722Y392699D01*
X458839Y392622D01*
X458958Y392549D01*
X459079Y392479D01*
X459202Y392413D01*
X459327Y392350D01*
X459454Y392290D01*
X459582Y392235D01*
X459711Y392183D01*
X459843Y392134D01*
X459975Y392089D01*
X460109Y392048D01*
X460243Y392011D01*
X460379Y391978D01*
X460516Y391949D01*
X460653Y391923D01*
X460791Y391901D01*
X460930Y391884D01*
X461069Y391870D01*
X461209Y391860D01*
X461348Y391854D01*
X461488Y391852D01*
X466426Y391852D01*
X450431Y397779D02*
X445492Y401730D01*
X445492Y383950D01*
X440554Y383950D02*
X450431Y383950D01*
X453738Y288130D02*
X453738Y270350D01*
X453738Y288130D02*
X448799Y288130D01*
X448659Y288128D01*
X448520Y288122D01*
X448380Y288112D01*
X448241Y288098D01*
X448102Y288081D01*
X447964Y288059D01*
X447827Y288033D01*
X447690Y288004D01*
X447554Y287971D01*
X447420Y287934D01*
X447286Y287893D01*
X447154Y287848D01*
X447022Y287799D01*
X446893Y287747D01*
X446765Y287692D01*
X446638Y287632D01*
X446513Y287569D01*
X446390Y287503D01*
X446269Y287433D01*
X446150Y287360D01*
X446033Y287283D01*
X445919Y287203D01*
X445806Y287120D01*
X445696Y287034D01*
X445589Y286944D01*
X445484Y286852D01*
X445382Y286757D01*
X445282Y286659D01*
X445185Y286558D01*
X445091Y286454D01*
X445001Y286348D01*
X444913Y286239D01*
X444828Y286128D01*
X444747Y286014D01*
X444668Y285899D01*
X444593Y285781D01*
X444522Y285661D01*
X444454Y285538D01*
X444389Y285415D01*
X444328Y285289D01*
X444270Y285161D01*
X444216Y285033D01*
X444166Y284902D01*
X444119Y284770D01*
X444076Y284637D01*
X444037Y284503D01*
X444002Y284368D01*
X443971Y284232D01*
X443943Y284094D01*
X443920Y283957D01*
X443900Y283818D01*
X443884Y283679D01*
X443872Y283540D01*
X443864Y283401D01*
X443860Y283261D01*
X443860Y283121D01*
X443864Y282981D01*
X443872Y282842D01*
X443884Y282703D01*
X443900Y282564D01*
X443920Y282425D01*
X443943Y282288D01*
X443971Y282150D01*
X444002Y282014D01*
X444037Y281879D01*
X444076Y281745D01*
X444119Y281612D01*
X444166Y281480D01*
X444216Y281349D01*
X444270Y281221D01*
X444328Y281093D01*
X444389Y280967D01*
X444454Y280844D01*
X444522Y280722D01*
X444593Y280601D01*
X444668Y280483D01*
X444747Y280368D01*
X444828Y280254D01*
X444913Y280143D01*
X445001Y280034D01*
X445091Y279928D01*
X445185Y279824D01*
X445282Y279723D01*
X445382Y279625D01*
X445484Y279530D01*
X445589Y279438D01*
X445696Y279348D01*
X445806Y279262D01*
X445919Y279179D01*
X446033Y279099D01*
X446150Y279022D01*
X446269Y278949D01*
X446390Y278879D01*
X446513Y278813D01*
X446638Y278750D01*
X446765Y278690D01*
X446893Y278635D01*
X447022Y278583D01*
X447154Y278534D01*
X447286Y278489D01*
X447420Y278448D01*
X447554Y278411D01*
X447690Y278378D01*
X447827Y278349D01*
X447964Y278323D01*
X448102Y278301D01*
X448241Y278284D01*
X448380Y278270D01*
X448520Y278260D01*
X448659Y278254D01*
X448799Y278252D01*
X453738Y278252D01*
X432310Y288130D02*
X432178Y288128D01*
X432047Y288122D01*
X431915Y288112D01*
X431784Y288099D01*
X431654Y288081D01*
X431524Y288060D01*
X431394Y288035D01*
X431266Y288006D01*
X431138Y287973D01*
X431012Y287936D01*
X430886Y287896D01*
X430762Y287852D01*
X430639Y287804D01*
X430518Y287753D01*
X430398Y287698D01*
X430280Y287640D01*
X430164Y287578D01*
X430050Y287512D01*
X429937Y287444D01*
X429827Y287372D01*
X429719Y287297D01*
X429613Y287218D01*
X429509Y287137D01*
X429408Y287052D01*
X429310Y286965D01*
X429214Y286874D01*
X429121Y286781D01*
X429030Y286685D01*
X428943Y286587D01*
X428858Y286486D01*
X428777Y286382D01*
X428698Y286276D01*
X428623Y286168D01*
X428551Y286058D01*
X428483Y285945D01*
X428417Y285831D01*
X428355Y285715D01*
X428297Y285597D01*
X428242Y285477D01*
X428191Y285356D01*
X428143Y285233D01*
X428099Y285109D01*
X428059Y284983D01*
X428022Y284857D01*
X427989Y284729D01*
X427960Y284601D01*
X427935Y284471D01*
X427914Y284341D01*
X427896Y284211D01*
X427883Y284080D01*
X427873Y283948D01*
X427867Y283817D01*
X427865Y283685D01*
X432310Y288130D02*
X432460Y288128D01*
X432609Y288122D01*
X432758Y288112D01*
X432907Y288099D01*
X433056Y288081D01*
X433204Y288060D01*
X433352Y288034D01*
X433498Y288005D01*
X433644Y287972D01*
X433789Y287935D01*
X433933Y287894D01*
X434076Y287850D01*
X434218Y287802D01*
X434358Y287750D01*
X434497Y287695D01*
X434635Y287636D01*
X434770Y287573D01*
X434905Y287507D01*
X435037Y287437D01*
X435167Y287364D01*
X435296Y287287D01*
X435423Y287207D01*
X435547Y287124D01*
X435669Y287038D01*
X435789Y286948D01*
X435906Y286855D01*
X436021Y286760D01*
X436134Y286661D01*
X436244Y286559D01*
X436351Y286455D01*
X436455Y286348D01*
X436557Y286238D01*
X436655Y286125D01*
X436751Y286010D01*
X436843Y285892D01*
X436933Y285772D01*
X437019Y285650D01*
X437102Y285526D01*
X437182Y285399D01*
X437258Y285271D01*
X437331Y285140D01*
X437401Y285007D01*
X437467Y284873D01*
X437529Y284737D01*
X437588Y284600D01*
X437644Y284461D01*
X437695Y284320D01*
X437743Y284179D01*
X429347Y280228D02*
X429251Y280321D01*
X429159Y280417D01*
X429069Y280516D01*
X428982Y280617D01*
X428898Y280720D01*
X428816Y280825D01*
X428738Y280933D01*
X428663Y281043D01*
X428590Y281155D01*
X428521Y281269D01*
X428455Y281385D01*
X428393Y281503D01*
X428334Y281622D01*
X428278Y281743D01*
X428225Y281866D01*
X428176Y281990D01*
X428131Y282115D01*
X428088Y282242D01*
X428050Y282369D01*
X428015Y282498D01*
X427984Y282627D01*
X427956Y282758D01*
X427932Y282889D01*
X427911Y283021D01*
X427895Y283153D01*
X427882Y283286D01*
X427872Y283419D01*
X427867Y283552D01*
X427865Y283685D01*
X429347Y280228D02*
X437743Y270350D01*
X427865Y270350D01*
X415495Y277264D02*
X415495Y283191D01*
X415495Y277264D02*
X412038Y272819D01*
X415495Y277264D02*
X418952Y272819D01*
X415495Y277264D02*
X410062Y279240D01*
X415495Y277264D02*
X420928Y279240D01*
X267086Y286860D02*
X267086Y269080D01*
X267086Y286860D02*
X262148Y286860D01*
X262008Y286858D01*
X261869Y286852D01*
X261729Y286842D01*
X261590Y286828D01*
X261451Y286811D01*
X261313Y286789D01*
X261176Y286763D01*
X261039Y286734D01*
X260903Y286701D01*
X260769Y286664D01*
X260635Y286623D01*
X260503Y286578D01*
X260371Y286529D01*
X260242Y286477D01*
X260114Y286422D01*
X259987Y286362D01*
X259862Y286299D01*
X259739Y286233D01*
X259618Y286163D01*
X259499Y286090D01*
X259382Y286013D01*
X259268Y285933D01*
X259155Y285850D01*
X259045Y285764D01*
X258938Y285674D01*
X258833Y285582D01*
X258731Y285487D01*
X258631Y285389D01*
X258534Y285288D01*
X258440Y285184D01*
X258350Y285078D01*
X258262Y284969D01*
X258177Y284858D01*
X258096Y284744D01*
X258017Y284629D01*
X257942Y284511D01*
X257871Y284391D01*
X257803Y284268D01*
X257738Y284145D01*
X257677Y284019D01*
X257619Y283891D01*
X257565Y283763D01*
X257515Y283632D01*
X257468Y283500D01*
X257425Y283367D01*
X257386Y283233D01*
X257351Y283098D01*
X257320Y282962D01*
X257292Y282824D01*
X257269Y282687D01*
X257249Y282548D01*
X257233Y282409D01*
X257221Y282270D01*
X257213Y282131D01*
X257209Y281991D01*
X257209Y281851D01*
X257213Y281711D01*
X257221Y281572D01*
X257233Y281433D01*
X257249Y281294D01*
X257269Y281155D01*
X257292Y281018D01*
X257320Y280880D01*
X257351Y280744D01*
X257386Y280609D01*
X257425Y280475D01*
X257468Y280342D01*
X257515Y280210D01*
X257565Y280079D01*
X257619Y279951D01*
X257677Y279823D01*
X257738Y279697D01*
X257803Y279574D01*
X257871Y279452D01*
X257942Y279331D01*
X258017Y279213D01*
X258096Y279098D01*
X258177Y278984D01*
X258262Y278873D01*
X258350Y278764D01*
X258440Y278658D01*
X258534Y278554D01*
X258631Y278453D01*
X258731Y278355D01*
X258833Y278260D01*
X258938Y278168D01*
X259045Y278078D01*
X259155Y277992D01*
X259268Y277909D01*
X259382Y277829D01*
X259499Y277752D01*
X259618Y277679D01*
X259739Y277609D01*
X259862Y277543D01*
X259987Y277480D01*
X260114Y277420D01*
X260242Y277365D01*
X260371Y277313D01*
X260503Y277264D01*
X260635Y277219D01*
X260769Y277178D01*
X260903Y277141D01*
X261039Y277108D01*
X261176Y277079D01*
X261313Y277053D01*
X261451Y277031D01*
X261590Y277014D01*
X261729Y277000D01*
X261869Y276990D01*
X262008Y276984D01*
X262148Y276982D01*
X267086Y276982D01*
X251091Y269080D02*
X246152Y269080D01*
X246012Y269082D01*
X245873Y269088D01*
X245733Y269098D01*
X245594Y269112D01*
X245455Y269129D01*
X245317Y269151D01*
X245180Y269177D01*
X245043Y269206D01*
X244907Y269239D01*
X244773Y269276D01*
X244639Y269317D01*
X244507Y269362D01*
X244375Y269411D01*
X244246Y269463D01*
X244118Y269518D01*
X243991Y269578D01*
X243866Y269641D01*
X243743Y269707D01*
X243622Y269777D01*
X243503Y269850D01*
X243386Y269927D01*
X243272Y270007D01*
X243159Y270090D01*
X243049Y270176D01*
X242942Y270266D01*
X242837Y270358D01*
X242735Y270453D01*
X242635Y270551D01*
X242538Y270652D01*
X242444Y270756D01*
X242354Y270862D01*
X242266Y270971D01*
X242181Y271082D01*
X242100Y271196D01*
X242021Y271311D01*
X241946Y271429D01*
X241875Y271550D01*
X241807Y271672D01*
X241742Y271795D01*
X241681Y271921D01*
X241623Y272049D01*
X241569Y272177D01*
X241519Y272308D01*
X241472Y272440D01*
X241429Y272573D01*
X241390Y272707D01*
X241355Y272842D01*
X241324Y272978D01*
X241296Y273116D01*
X241273Y273253D01*
X241253Y273392D01*
X241237Y273531D01*
X241225Y273670D01*
X241217Y273809D01*
X241213Y273949D01*
X241213Y274089D01*
X241217Y274229D01*
X241225Y274368D01*
X241237Y274507D01*
X241253Y274646D01*
X241273Y274785D01*
X241296Y274922D01*
X241324Y275060D01*
X241355Y275196D01*
X241390Y275331D01*
X241429Y275465D01*
X241472Y275598D01*
X241519Y275730D01*
X241569Y275861D01*
X241623Y275989D01*
X241681Y276117D01*
X241742Y276243D01*
X241807Y276366D01*
X241875Y276489D01*
X241946Y276609D01*
X242021Y276727D01*
X242100Y276842D01*
X242181Y276956D01*
X242266Y277067D01*
X242354Y277176D01*
X242444Y277282D01*
X242538Y277386D01*
X242635Y277487D01*
X242735Y277585D01*
X242837Y277680D01*
X242942Y277772D01*
X243049Y277862D01*
X243159Y277948D01*
X243272Y278031D01*
X243386Y278111D01*
X243503Y278188D01*
X243622Y278261D01*
X243743Y278331D01*
X243866Y278397D01*
X243991Y278460D01*
X244118Y278520D01*
X244246Y278575D01*
X244375Y278627D01*
X244507Y278676D01*
X244639Y278721D01*
X244773Y278762D01*
X244907Y278799D01*
X245043Y278832D01*
X245180Y278861D01*
X245317Y278887D01*
X245455Y278909D01*
X245594Y278926D01*
X245733Y278940D01*
X245873Y278950D01*
X246012Y278956D01*
X246152Y278958D01*
X245165Y286860D02*
X251091Y286860D01*
X245165Y286860D02*
X245041Y286858D01*
X244917Y286852D01*
X244793Y286842D01*
X244670Y286829D01*
X244547Y286811D01*
X244425Y286790D01*
X244303Y286765D01*
X244182Y286736D01*
X244063Y286703D01*
X243944Y286667D01*
X243827Y286626D01*
X243711Y286583D01*
X243596Y286535D01*
X243483Y286484D01*
X243371Y286429D01*
X243262Y286371D01*
X243154Y286310D01*
X243048Y286245D01*
X242944Y286177D01*
X242843Y286105D01*
X242743Y286031D01*
X242647Y285953D01*
X242552Y285873D01*
X242460Y285789D01*
X242371Y285703D01*
X242285Y285614D01*
X242201Y285522D01*
X242121Y285427D01*
X242043Y285331D01*
X241969Y285231D01*
X241897Y285130D01*
X241829Y285026D01*
X241764Y284920D01*
X241703Y284812D01*
X241645Y284703D01*
X241590Y284591D01*
X241539Y284478D01*
X241491Y284363D01*
X241448Y284247D01*
X241407Y284130D01*
X241371Y284011D01*
X241338Y283892D01*
X241309Y283771D01*
X241284Y283649D01*
X241263Y283527D01*
X241245Y283404D01*
X241232Y283281D01*
X241222Y283157D01*
X241216Y283033D01*
X241214Y282909D01*
X241216Y282785D01*
X241222Y282661D01*
X241232Y282537D01*
X241245Y282414D01*
X241263Y282291D01*
X241284Y282169D01*
X241309Y282047D01*
X241338Y281926D01*
X241371Y281807D01*
X241407Y281688D01*
X241448Y281571D01*
X241491Y281455D01*
X241539Y281340D01*
X241590Y281227D01*
X241645Y281115D01*
X241703Y281006D01*
X241764Y280898D01*
X241829Y280792D01*
X241897Y280688D01*
X241969Y280587D01*
X242043Y280487D01*
X242121Y280391D01*
X242201Y280296D01*
X242285Y280204D01*
X242371Y280115D01*
X242460Y280029D01*
X242552Y279945D01*
X242647Y279865D01*
X242743Y279787D01*
X242843Y279713D01*
X242944Y279641D01*
X243048Y279573D01*
X243154Y279508D01*
X243262Y279447D01*
X243371Y279389D01*
X243483Y279334D01*
X243596Y279283D01*
X243711Y279235D01*
X243827Y279192D01*
X243944Y279151D01*
X244063Y279115D01*
X244182Y279082D01*
X244303Y279053D01*
X244425Y279028D01*
X244547Y279007D01*
X244670Y278989D01*
X244793Y278976D01*
X244917Y278966D01*
X245041Y278960D01*
X245165Y278958D01*
X249116Y278958D01*
X264558Y385220D02*
X264558Y403000D01*
X259619Y403000D01*
X259479Y402998D01*
X259340Y402992D01*
X259200Y402982D01*
X259061Y402968D01*
X258922Y402951D01*
X258784Y402929D01*
X258647Y402903D01*
X258510Y402874D01*
X258374Y402841D01*
X258240Y402804D01*
X258106Y402763D01*
X257974Y402718D01*
X257842Y402669D01*
X257713Y402617D01*
X257585Y402562D01*
X257458Y402502D01*
X257333Y402439D01*
X257210Y402373D01*
X257089Y402303D01*
X256970Y402230D01*
X256853Y402153D01*
X256739Y402073D01*
X256626Y401990D01*
X256516Y401904D01*
X256409Y401814D01*
X256304Y401722D01*
X256202Y401627D01*
X256102Y401529D01*
X256005Y401428D01*
X255911Y401324D01*
X255821Y401218D01*
X255733Y401109D01*
X255648Y400998D01*
X255567Y400884D01*
X255488Y400769D01*
X255413Y400651D01*
X255342Y400531D01*
X255274Y400408D01*
X255209Y400285D01*
X255148Y400159D01*
X255090Y400031D01*
X255036Y399903D01*
X254986Y399772D01*
X254939Y399640D01*
X254896Y399507D01*
X254857Y399373D01*
X254822Y399238D01*
X254791Y399102D01*
X254763Y398964D01*
X254740Y398827D01*
X254720Y398688D01*
X254704Y398549D01*
X254692Y398410D01*
X254684Y398271D01*
X254680Y398131D01*
X254680Y397991D01*
X254684Y397851D01*
X254692Y397712D01*
X254704Y397573D01*
X254720Y397434D01*
X254740Y397295D01*
X254763Y397158D01*
X254791Y397020D01*
X254822Y396884D01*
X254857Y396749D01*
X254896Y396615D01*
X254939Y396482D01*
X254986Y396350D01*
X255036Y396219D01*
X255090Y396091D01*
X255148Y395963D01*
X255209Y395837D01*
X255274Y395714D01*
X255342Y395592D01*
X255413Y395471D01*
X255488Y395353D01*
X255567Y395238D01*
X255648Y395124D01*
X255733Y395013D01*
X255821Y394904D01*
X255911Y394798D01*
X256005Y394694D01*
X256102Y394593D01*
X256202Y394495D01*
X256304Y394400D01*
X256409Y394308D01*
X256516Y394218D01*
X256626Y394132D01*
X256739Y394049D01*
X256853Y393969D01*
X256970Y393892D01*
X257089Y393819D01*
X257210Y393749D01*
X257333Y393683D01*
X257458Y393620D01*
X257585Y393560D01*
X257713Y393505D01*
X257842Y393453D01*
X257974Y393404D01*
X258106Y393359D01*
X258240Y393318D01*
X258374Y393281D01*
X258510Y393248D01*
X258647Y393219D01*
X258784Y393193D01*
X258922Y393171D01*
X259061Y393154D01*
X259200Y393140D01*
X259340Y393130D01*
X259479Y393124D01*
X259619Y393122D01*
X264558Y393122D01*
X248563Y389171D02*
X244612Y403000D01*
X248563Y389171D02*
X238685Y389171D01*
X241648Y393122D02*
X241648Y385220D01*
X226315Y392134D02*
X226315Y398061D01*
X226315Y392134D02*
X222858Y387689D01*
X226315Y392134D02*
X229772Y387689D01*
X226315Y392134D02*
X220882Y394110D01*
X226315Y392134D02*
X231748Y394110D01*
X393575Y286273D02*
X393575Y268493D01*
X393575Y278371D02*
X383698Y278371D01*
X383698Y286273D02*
X383698Y268493D01*
X376267Y282322D02*
X371328Y286273D01*
X371328Y268493D01*
X376267Y268493D02*
X366389Y268493D01*
X359516Y268493D02*
X353589Y268493D01*
X353465Y268495D01*
X353341Y268501D01*
X353217Y268511D01*
X353094Y268524D01*
X352971Y268542D01*
X352849Y268563D01*
X352727Y268588D01*
X352606Y268617D01*
X352487Y268650D01*
X352368Y268686D01*
X352251Y268727D01*
X352135Y268770D01*
X352020Y268818D01*
X351907Y268869D01*
X351795Y268924D01*
X351686Y268982D01*
X351578Y269043D01*
X351472Y269108D01*
X351368Y269176D01*
X351267Y269248D01*
X351167Y269322D01*
X351071Y269400D01*
X350976Y269480D01*
X350884Y269564D01*
X350795Y269650D01*
X350709Y269739D01*
X350625Y269831D01*
X350545Y269926D01*
X350467Y270022D01*
X350393Y270122D01*
X350321Y270223D01*
X350253Y270327D01*
X350188Y270433D01*
X350127Y270541D01*
X350069Y270650D01*
X350014Y270762D01*
X349963Y270875D01*
X349915Y270990D01*
X349872Y271106D01*
X349831Y271223D01*
X349795Y271342D01*
X349762Y271461D01*
X349733Y271582D01*
X349708Y271704D01*
X349687Y271826D01*
X349669Y271949D01*
X349656Y272072D01*
X349646Y272196D01*
X349640Y272320D01*
X349638Y272444D01*
X349638Y274420D01*
X349640Y274544D01*
X349646Y274668D01*
X349656Y274792D01*
X349669Y274915D01*
X349687Y275038D01*
X349708Y275160D01*
X349733Y275282D01*
X349762Y275403D01*
X349795Y275522D01*
X349831Y275641D01*
X349872Y275758D01*
X349915Y275874D01*
X349963Y275989D01*
X350014Y276102D01*
X350069Y276214D01*
X350127Y276323D01*
X350188Y276431D01*
X350253Y276537D01*
X350321Y276641D01*
X350393Y276742D01*
X350467Y276842D01*
X350545Y276938D01*
X350625Y277033D01*
X350709Y277125D01*
X350795Y277214D01*
X350884Y277300D01*
X350976Y277384D01*
X351071Y277464D01*
X351167Y277542D01*
X351267Y277616D01*
X351368Y277688D01*
X351472Y277756D01*
X351578Y277821D01*
X351686Y277882D01*
X351795Y277940D01*
X351907Y277995D01*
X352020Y278046D01*
X352135Y278094D01*
X352251Y278137D01*
X352368Y278178D01*
X352487Y278214D01*
X352606Y278247D01*
X352727Y278276D01*
X352849Y278301D01*
X352971Y278322D01*
X353094Y278340D01*
X353217Y278353D01*
X353341Y278363D01*
X353465Y278369D01*
X353589Y278371D01*
X359516Y278371D01*
X359516Y286273D01*
X349638Y286273D01*
X342122Y286273D02*
X342122Y268493D01*
X342122Y286273D02*
X337183Y286273D01*
X337043Y286271D01*
X336904Y286265D01*
X336764Y286255D01*
X336625Y286241D01*
X336486Y286224D01*
X336348Y286202D01*
X336211Y286176D01*
X336074Y286147D01*
X335938Y286114D01*
X335804Y286077D01*
X335670Y286036D01*
X335538Y285991D01*
X335406Y285942D01*
X335277Y285890D01*
X335149Y285835D01*
X335022Y285775D01*
X334897Y285712D01*
X334774Y285646D01*
X334653Y285576D01*
X334534Y285503D01*
X334417Y285426D01*
X334303Y285346D01*
X334190Y285263D01*
X334080Y285177D01*
X333973Y285087D01*
X333868Y284995D01*
X333766Y284900D01*
X333666Y284802D01*
X333569Y284701D01*
X333475Y284597D01*
X333385Y284491D01*
X333297Y284382D01*
X333212Y284271D01*
X333131Y284157D01*
X333052Y284042D01*
X332977Y283924D01*
X332906Y283804D01*
X332838Y283681D01*
X332773Y283558D01*
X332712Y283432D01*
X332654Y283304D01*
X332600Y283176D01*
X332550Y283045D01*
X332503Y282913D01*
X332460Y282780D01*
X332421Y282646D01*
X332386Y282511D01*
X332355Y282375D01*
X332327Y282237D01*
X332304Y282100D01*
X332284Y281961D01*
X332268Y281822D01*
X332256Y281683D01*
X332248Y281544D01*
X332244Y281404D01*
X332244Y281264D01*
X332248Y281124D01*
X332256Y280985D01*
X332268Y280846D01*
X332284Y280707D01*
X332304Y280568D01*
X332327Y280431D01*
X332355Y280293D01*
X332386Y280157D01*
X332421Y280022D01*
X332460Y279888D01*
X332503Y279755D01*
X332550Y279623D01*
X332600Y279492D01*
X332654Y279364D01*
X332712Y279236D01*
X332773Y279110D01*
X332838Y278987D01*
X332906Y278865D01*
X332977Y278744D01*
X333052Y278626D01*
X333131Y278511D01*
X333212Y278397D01*
X333297Y278286D01*
X333385Y278177D01*
X333475Y278071D01*
X333569Y277967D01*
X333666Y277866D01*
X333766Y277768D01*
X333868Y277673D01*
X333973Y277581D01*
X334080Y277491D01*
X334190Y277405D01*
X334303Y277322D01*
X334417Y277242D01*
X334534Y277165D01*
X334653Y277092D01*
X334774Y277022D01*
X334897Y276956D01*
X335022Y276893D01*
X335149Y276833D01*
X335277Y276778D01*
X335406Y276726D01*
X335538Y276677D01*
X335670Y276632D01*
X335804Y276591D01*
X335938Y276554D01*
X336074Y276521D01*
X336211Y276492D01*
X336348Y276466D01*
X336486Y276444D01*
X336625Y276427D01*
X336764Y276413D01*
X336904Y276403D01*
X337043Y276397D01*
X337183Y276395D01*
X342122Y276395D01*
X336195Y276395D02*
X332244Y268493D01*
X325457Y277383D02*
X325453Y277733D01*
X325440Y278082D01*
X325419Y278431D01*
X325390Y278780D01*
X325353Y279128D01*
X325307Y279475D01*
X325253Y279820D01*
X325191Y280164D01*
X325120Y280507D01*
X325041Y280848D01*
X324955Y281187D01*
X324860Y281523D01*
X324757Y281858D01*
X324646Y282189D01*
X324528Y282519D01*
X324401Y282845D01*
X324267Y283168D01*
X324125Y283487D01*
X323975Y283804D01*
X323935Y283917D01*
X323891Y284027D01*
X323843Y284137D01*
X323792Y284244D01*
X323737Y284350D01*
X323679Y284455D01*
X323617Y284557D01*
X323552Y284657D01*
X323484Y284755D01*
X323413Y284851D01*
X323338Y284944D01*
X323261Y285035D01*
X323181Y285123D01*
X323098Y285208D01*
X323012Y285291D01*
X322923Y285371D01*
X322832Y285448D01*
X322738Y285522D01*
X322642Y285593D01*
X322544Y285661D01*
X322444Y285725D01*
X322341Y285787D01*
X322237Y285844D01*
X322131Y285899D01*
X322023Y285950D01*
X321913Y285997D01*
X321802Y286041D01*
X321690Y286081D01*
X321576Y286117D01*
X321462Y286150D01*
X321346Y286179D01*
X321229Y286204D01*
X321112Y286225D01*
X320994Y286243D01*
X320875Y286256D01*
X320756Y286266D01*
X320637Y286272D01*
X320518Y286274D01*
X320518Y286273D02*
X320399Y286271D01*
X320280Y286265D01*
X320161Y286255D01*
X320042Y286242D01*
X319924Y286224D01*
X319807Y286203D01*
X319690Y286178D01*
X319574Y286149D01*
X319460Y286116D01*
X319346Y286080D01*
X319234Y286040D01*
X319123Y285996D01*
X319013Y285949D01*
X318905Y285898D01*
X318799Y285843D01*
X318695Y285786D01*
X318592Y285724D01*
X318492Y285660D01*
X318394Y285592D01*
X318298Y285521D01*
X318204Y285447D01*
X318113Y285370D01*
X318024Y285290D01*
X317939Y285207D01*
X317855Y285122D01*
X317775Y285034D01*
X317698Y284943D01*
X317623Y284850D01*
X317552Y284754D01*
X317484Y284656D01*
X317419Y284556D01*
X317357Y284454D01*
X317299Y284349D01*
X317244Y284244D01*
X317193Y284136D01*
X317145Y284026D01*
X317101Y283916D01*
X317061Y283803D01*
X317061Y283804D02*
X316911Y283487D01*
X316769Y283168D01*
X316635Y282845D01*
X316508Y282519D01*
X316390Y282189D01*
X316279Y281858D01*
X316176Y281523D01*
X316081Y281187D01*
X315995Y280848D01*
X315916Y280507D01*
X315845Y280164D01*
X315783Y279820D01*
X315729Y279475D01*
X315683Y279128D01*
X315646Y278780D01*
X315617Y278431D01*
X315596Y278082D01*
X315583Y277733D01*
X315579Y277383D01*
X325457Y277383D02*
X325453Y277033D01*
X325440Y276684D01*
X325419Y276335D01*
X325390Y275986D01*
X325353Y275638D01*
X325307Y275291D01*
X325253Y274946D01*
X325191Y274602D01*
X325120Y274259D01*
X325041Y273918D01*
X324955Y273579D01*
X324860Y273243D01*
X324757Y272908D01*
X324646Y272577D01*
X324528Y272248D01*
X324401Y271921D01*
X324267Y271598D01*
X324125Y271279D01*
X323975Y270963D01*
X323935Y270850D01*
X323891Y270740D01*
X323843Y270630D01*
X323792Y270523D01*
X323737Y270417D01*
X323679Y270312D01*
X323617Y270210D01*
X323552Y270110D01*
X323484Y270012D01*
X323413Y269916D01*
X323338Y269823D01*
X323261Y269732D01*
X323181Y269644D01*
X323098Y269559D01*
X323012Y269476D01*
X322923Y269396D01*
X322832Y269319D01*
X322738Y269245D01*
X322642Y269174D01*
X322544Y269106D01*
X322444Y269042D01*
X322341Y268980D01*
X322237Y268923D01*
X322131Y268868D01*
X322023Y268817D01*
X321913Y268770D01*
X321802Y268726D01*
X321690Y268686D01*
X321576Y268650D01*
X321462Y268617D01*
X321346Y268588D01*
X321229Y268563D01*
X321112Y268542D01*
X320994Y268524D01*
X320875Y268511D01*
X320756Y268501D01*
X320637Y268495D01*
X320518Y268493D01*
X317061Y270963D02*
X316911Y271279D01*
X316769Y271598D01*
X316635Y271921D01*
X316508Y272248D01*
X316390Y272577D01*
X316279Y272908D01*
X316176Y273243D01*
X316081Y273579D01*
X315995Y273918D01*
X315916Y274259D01*
X315845Y274602D01*
X315783Y274946D01*
X315729Y275291D01*
X315683Y275638D01*
X315646Y275986D01*
X315617Y276335D01*
X315596Y276684D01*
X315583Y277033D01*
X315579Y277383D01*
X317061Y270963D02*
X317101Y270850D01*
X317145Y270740D01*
X317193Y270630D01*
X317244Y270522D01*
X317299Y270416D01*
X317357Y270312D01*
X317419Y270210D01*
X317484Y270110D01*
X317552Y270012D01*
X317623Y269916D01*
X317698Y269823D01*
X317775Y269732D01*
X317855Y269644D01*
X317939Y269559D01*
X318024Y269476D01*
X318113Y269396D01*
X318204Y269319D01*
X318298Y269245D01*
X318394Y269174D01*
X318492Y269106D01*
X318592Y269042D01*
X318695Y268980D01*
X318799Y268922D01*
X318905Y268868D01*
X319013Y268817D01*
X319123Y268770D01*
X319234Y268726D01*
X319346Y268686D01*
X319460Y268650D01*
X319574Y268617D01*
X319690Y268588D01*
X319807Y268563D01*
X319924Y268542D01*
X320042Y268524D01*
X320161Y268511D01*
X320280Y268501D01*
X320399Y268495D01*
X320518Y268493D01*
X324469Y272444D02*
X316567Y282322D01*
X308706Y277383D02*
X308702Y277733D01*
X308689Y278082D01*
X308668Y278431D01*
X308639Y278780D01*
X308602Y279128D01*
X308556Y279475D01*
X308502Y279820D01*
X308440Y280164D01*
X308369Y280507D01*
X308290Y280848D01*
X308204Y281187D01*
X308109Y281523D01*
X308006Y281858D01*
X307895Y282189D01*
X307777Y282519D01*
X307650Y282845D01*
X307516Y283168D01*
X307374Y283487D01*
X307224Y283804D01*
X307225Y283804D02*
X307185Y283917D01*
X307141Y284027D01*
X307093Y284137D01*
X307042Y284244D01*
X306987Y284350D01*
X306929Y284455D01*
X306867Y284557D01*
X306802Y284657D01*
X306734Y284755D01*
X306663Y284851D01*
X306588Y284944D01*
X306511Y285035D01*
X306431Y285123D01*
X306348Y285208D01*
X306262Y285291D01*
X306173Y285371D01*
X306082Y285448D01*
X305988Y285522D01*
X305892Y285593D01*
X305794Y285661D01*
X305694Y285725D01*
X305591Y285787D01*
X305487Y285844D01*
X305381Y285899D01*
X305273Y285950D01*
X305163Y285997D01*
X305052Y286041D01*
X304940Y286081D01*
X304826Y286117D01*
X304712Y286150D01*
X304596Y286179D01*
X304479Y286204D01*
X304362Y286225D01*
X304244Y286243D01*
X304125Y286256D01*
X304006Y286266D01*
X303887Y286272D01*
X303768Y286274D01*
X303768Y286273D02*
X303649Y286271D01*
X303530Y286265D01*
X303411Y286255D01*
X303292Y286242D01*
X303174Y286224D01*
X303057Y286203D01*
X302940Y286178D01*
X302824Y286149D01*
X302710Y286116D01*
X302596Y286080D01*
X302484Y286040D01*
X302373Y285996D01*
X302263Y285949D01*
X302155Y285898D01*
X302049Y285843D01*
X301945Y285786D01*
X301842Y285724D01*
X301742Y285660D01*
X301644Y285592D01*
X301548Y285521D01*
X301454Y285447D01*
X301363Y285370D01*
X301274Y285290D01*
X301189Y285207D01*
X301105Y285122D01*
X301025Y285034D01*
X300948Y284943D01*
X300873Y284850D01*
X300802Y284754D01*
X300734Y284656D01*
X300669Y284556D01*
X300607Y284454D01*
X300549Y284349D01*
X300494Y284244D01*
X300443Y284136D01*
X300395Y284026D01*
X300351Y283916D01*
X300311Y283803D01*
X300311Y283804D02*
X300161Y283487D01*
X300019Y283168D01*
X299885Y282845D01*
X299758Y282519D01*
X299640Y282189D01*
X299529Y281858D01*
X299426Y281523D01*
X299331Y281187D01*
X299245Y280848D01*
X299166Y280507D01*
X299095Y280164D01*
X299033Y279820D01*
X298979Y279475D01*
X298933Y279128D01*
X298896Y278780D01*
X298867Y278431D01*
X298846Y278082D01*
X298833Y277733D01*
X298829Y277383D01*
X308706Y277383D02*
X308702Y277033D01*
X308689Y276684D01*
X308668Y276335D01*
X308639Y275986D01*
X308602Y275638D01*
X308556Y275291D01*
X308502Y274946D01*
X308440Y274602D01*
X308369Y274259D01*
X308290Y273918D01*
X308204Y273579D01*
X308109Y273243D01*
X308006Y272908D01*
X307895Y272577D01*
X307777Y272248D01*
X307650Y271921D01*
X307516Y271598D01*
X307374Y271279D01*
X307224Y270963D01*
X307225Y270963D02*
X307185Y270850D01*
X307141Y270740D01*
X307093Y270630D01*
X307042Y270523D01*
X306987Y270417D01*
X306929Y270312D01*
X306867Y270210D01*
X306802Y270110D01*
X306734Y270012D01*
X306663Y269916D01*
X306588Y269823D01*
X306511Y269732D01*
X306431Y269644D01*
X306348Y269559D01*
X306262Y269476D01*
X306173Y269396D01*
X306082Y269319D01*
X305988Y269245D01*
X305892Y269174D01*
X305794Y269106D01*
X305694Y269042D01*
X305591Y268980D01*
X305487Y268923D01*
X305381Y268868D01*
X305273Y268817D01*
X305163Y268770D01*
X305052Y268726D01*
X304940Y268686D01*
X304826Y268650D01*
X304712Y268617D01*
X304596Y268588D01*
X304479Y268563D01*
X304362Y268542D01*
X304244Y268524D01*
X304125Y268511D01*
X304006Y268501D01*
X303887Y268495D01*
X303768Y268493D01*
X300311Y270963D02*
X300161Y271279D01*
X300019Y271598D01*
X299885Y271921D01*
X299758Y272248D01*
X299640Y272577D01*
X299529Y272908D01*
X299426Y273243D01*
X299331Y273579D01*
X299245Y273918D01*
X299166Y274259D01*
X299095Y274602D01*
X299033Y274946D01*
X298979Y275291D01*
X298933Y275638D01*
X298896Y275986D01*
X298867Y276335D01*
X298846Y276684D01*
X298833Y277033D01*
X298829Y277383D01*
X300311Y270963D02*
X300351Y270850D01*
X300395Y270740D01*
X300443Y270630D01*
X300494Y270522D01*
X300549Y270416D01*
X300607Y270312D01*
X300669Y270210D01*
X300734Y270110D01*
X300802Y270012D01*
X300873Y269916D01*
X300948Y269823D01*
X301025Y269732D01*
X301105Y269644D01*
X301189Y269559D01*
X301274Y269476D01*
X301363Y269396D01*
X301454Y269319D01*
X301548Y269245D01*
X301644Y269174D01*
X301742Y269106D01*
X301842Y269042D01*
X301945Y268980D01*
X302049Y268922D01*
X302155Y268868D01*
X302263Y268817D01*
X302373Y268770D01*
X302484Y268726D01*
X302596Y268686D01*
X302710Y268650D01*
X302824Y268617D01*
X302940Y268588D01*
X303057Y268563D01*
X303174Y268542D01*
X303292Y268524D01*
X303411Y268511D01*
X303530Y268501D01*
X303649Y268495D01*
X303768Y268493D01*
X307719Y272444D02*
X299816Y282322D01*
D12*
X332313Y438281D02*
X334895Y438281D01*
X332313Y438281D02*
X332313Y429673D01*
X337478Y429673D01*
X337593Y429675D01*
X337708Y429681D01*
X337823Y429690D01*
X337937Y429704D01*
X338051Y429721D01*
X338164Y429742D01*
X338276Y429767D01*
X338388Y429795D01*
X338498Y429828D01*
X338607Y429864D01*
X338715Y429903D01*
X338822Y429946D01*
X338927Y429993D01*
X339031Y430043D01*
X339133Y430097D01*
X339233Y430154D01*
X339331Y430214D01*
X339427Y430277D01*
X339520Y430344D01*
X339612Y430414D01*
X339701Y430487D01*
X339788Y430563D01*
X339872Y430641D01*
X339953Y430722D01*
X340032Y430807D01*
X340107Y430893D01*
X340180Y430982D01*
X340250Y431074D01*
X340317Y431167D01*
X340380Y431263D01*
X340440Y431361D01*
X340497Y431461D01*
X340551Y431563D01*
X340601Y431667D01*
X340648Y431772D01*
X340691Y431879D01*
X340731Y431987D01*
X340766Y432096D01*
X340799Y432206D01*
X340827Y432318D01*
X340852Y432430D01*
X340873Y432543D01*
X340890Y432657D01*
X340904Y432771D01*
X340913Y432886D01*
X340919Y433001D01*
X340921Y433116D01*
X340921Y441724D01*
X340919Y441839D01*
X340913Y441954D01*
X340904Y442069D01*
X340890Y442183D01*
X340873Y442297D01*
X340852Y442410D01*
X340827Y442522D01*
X340799Y442634D01*
X340766Y442744D01*
X340731Y442853D01*
X340691Y442961D01*
X340648Y443068D01*
X340601Y443173D01*
X340551Y443277D01*
X340497Y443379D01*
X340440Y443479D01*
X340380Y443577D01*
X340317Y443673D01*
X340250Y443766D01*
X340180Y443858D01*
X340107Y443947D01*
X340032Y444033D01*
X339953Y444118D01*
X339872Y444199D01*
X339788Y444277D01*
X339701Y444353D01*
X339612Y444426D01*
X339520Y444496D01*
X339427Y444563D01*
X339331Y444626D01*
X339233Y444686D01*
X339133Y444743D01*
X339031Y444797D01*
X338927Y444847D01*
X338822Y444894D01*
X338715Y444937D01*
X338607Y444976D01*
X338498Y445012D01*
X338388Y445045D01*
X338276Y445073D01*
X338164Y445098D01*
X338051Y445119D01*
X337937Y445136D01*
X337823Y445150D01*
X337708Y445159D01*
X337593Y445165D01*
X337478Y445167D01*
X332313Y445167D01*
X325064Y445167D02*
X325064Y429673D01*
X316456Y429673D02*
X325064Y445167D01*
X316456Y445167D02*
X316456Y429673D01*
X309207Y429673D02*
X309207Y445167D01*
X304903Y445167D01*
X304773Y445165D01*
X304643Y445159D01*
X304513Y445149D01*
X304384Y445136D01*
X304255Y445118D01*
X304127Y445097D01*
X304000Y445071D01*
X303873Y445042D01*
X303747Y445009D01*
X303623Y444972D01*
X303499Y444932D01*
X303377Y444887D01*
X303256Y444839D01*
X303137Y444788D01*
X303019Y444733D01*
X302903Y444674D01*
X302789Y444612D01*
X302676Y444546D01*
X302566Y444477D01*
X302458Y444405D01*
X302352Y444330D01*
X302249Y444251D01*
X302148Y444169D01*
X302049Y444085D01*
X301953Y443997D01*
X301860Y443906D01*
X301769Y443813D01*
X301681Y443717D01*
X301597Y443618D01*
X301515Y443517D01*
X301436Y443414D01*
X301361Y443308D01*
X301289Y443200D01*
X301220Y443090D01*
X301154Y442977D01*
X301092Y442863D01*
X301033Y442747D01*
X300978Y442629D01*
X300927Y442510D01*
X300879Y442389D01*
X300834Y442267D01*
X300794Y442143D01*
X300757Y442019D01*
X300724Y441893D01*
X300695Y441766D01*
X300669Y441639D01*
X300648Y441511D01*
X300630Y441382D01*
X300617Y441253D01*
X300607Y441123D01*
X300601Y440993D01*
X300599Y440863D01*
X300599Y433977D01*
X300601Y433847D01*
X300607Y433717D01*
X300617Y433587D01*
X300630Y433458D01*
X300648Y433329D01*
X300669Y433201D01*
X300695Y433074D01*
X300724Y432947D01*
X300757Y432821D01*
X300794Y432697D01*
X300834Y432573D01*
X300879Y432451D01*
X300927Y432330D01*
X300978Y432211D01*
X301033Y432093D01*
X301092Y431977D01*
X301154Y431863D01*
X301220Y431750D01*
X301289Y431640D01*
X301361Y431532D01*
X301436Y431426D01*
X301515Y431323D01*
X301597Y431222D01*
X301681Y431123D01*
X301769Y431027D01*
X301860Y430934D01*
X301953Y430843D01*
X302049Y430755D01*
X302148Y430671D01*
X302249Y430589D01*
X302352Y430510D01*
X302458Y430435D01*
X302566Y430363D01*
X302676Y430294D01*
X302789Y430228D01*
X302903Y430166D01*
X303019Y430107D01*
X303137Y430052D01*
X303256Y430001D01*
X303377Y429953D01*
X303499Y429908D01*
X303623Y429868D01*
X303747Y429831D01*
X303873Y429798D01*
X304000Y429769D01*
X304127Y429743D01*
X304255Y429722D01*
X304384Y429704D01*
X304513Y429691D01*
X304643Y429681D01*
X304773Y429675D01*
X304903Y429673D01*
X309207Y429673D01*
X398214Y482878D02*
X408544Y482878D01*
X391826Y488904D02*
X387522Y492347D01*
X387522Y476853D01*
X391826Y476853D02*
X383218Y476853D01*
X376960Y484600D02*
X376956Y484905D01*
X376945Y485209D01*
X376927Y485514D01*
X376902Y485817D01*
X376869Y486120D01*
X376829Y486423D01*
X376782Y486724D01*
X376728Y487024D01*
X376666Y487322D01*
X376598Y487619D01*
X376522Y487915D01*
X376440Y488208D01*
X376350Y488499D01*
X376253Y488788D01*
X376150Y489075D01*
X376040Y489359D01*
X375923Y489641D01*
X375799Y489919D01*
X375669Y490195D01*
X375670Y490195D02*
X375632Y490298D01*
X375592Y490400D01*
X375547Y490500D01*
X375499Y490599D01*
X375448Y490696D01*
X375394Y490791D01*
X375336Y490885D01*
X375275Y490976D01*
X375211Y491065D01*
X375144Y491152D01*
X375074Y491236D01*
X375001Y491318D01*
X374925Y491398D01*
X374847Y491475D01*
X374766Y491549D01*
X374682Y491620D01*
X374596Y491688D01*
X374508Y491754D01*
X374418Y491816D01*
X374325Y491875D01*
X374231Y491931D01*
X374135Y491984D01*
X374037Y492033D01*
X373937Y492079D01*
X373836Y492121D01*
X373733Y492160D01*
X373629Y492195D01*
X373524Y492227D01*
X373418Y492255D01*
X373311Y492279D01*
X373203Y492300D01*
X373095Y492317D01*
X372986Y492330D01*
X372876Y492339D01*
X372767Y492345D01*
X372657Y492347D01*
X372547Y492345D01*
X372438Y492339D01*
X372328Y492330D01*
X372219Y492317D01*
X372111Y492300D01*
X372003Y492279D01*
X371896Y492255D01*
X371790Y492227D01*
X371685Y492195D01*
X371581Y492160D01*
X371478Y492121D01*
X371377Y492079D01*
X371277Y492033D01*
X371179Y491984D01*
X371083Y491931D01*
X370989Y491875D01*
X370896Y491816D01*
X370806Y491754D01*
X370718Y491688D01*
X370632Y491620D01*
X370548Y491549D01*
X370467Y491475D01*
X370389Y491398D01*
X370313Y491319D01*
X370240Y491236D01*
X370170Y491152D01*
X370103Y491065D01*
X370039Y490976D01*
X369978Y490885D01*
X369920Y490791D01*
X369866Y490696D01*
X369815Y490599D01*
X369767Y490500D01*
X369722Y490400D01*
X369682Y490298D01*
X369644Y490195D01*
X369514Y489919D01*
X369390Y489641D01*
X369273Y489359D01*
X369163Y489075D01*
X369060Y488788D01*
X368963Y488499D01*
X368873Y488208D01*
X368791Y487915D01*
X368715Y487619D01*
X368647Y487322D01*
X368585Y487024D01*
X368531Y486724D01*
X368484Y486423D01*
X368444Y486120D01*
X368411Y485817D01*
X368386Y485514D01*
X368368Y485209D01*
X368357Y484905D01*
X368353Y484600D01*
X376960Y484600D02*
X376956Y484295D01*
X376945Y483991D01*
X376927Y483686D01*
X376902Y483383D01*
X376869Y483080D01*
X376829Y482777D01*
X376782Y482476D01*
X376728Y482176D01*
X376666Y481878D01*
X376598Y481581D01*
X376522Y481285D01*
X376440Y480992D01*
X376350Y480701D01*
X376253Y480412D01*
X376150Y480125D01*
X376040Y479841D01*
X375923Y479559D01*
X375799Y479281D01*
X375669Y479005D01*
X375670Y479005D02*
X375632Y478902D01*
X375592Y478800D01*
X375547Y478700D01*
X375499Y478601D01*
X375448Y478504D01*
X375394Y478409D01*
X375336Y478315D01*
X375275Y478224D01*
X375211Y478135D01*
X375144Y478048D01*
X375074Y477964D01*
X375001Y477881D01*
X374925Y477802D01*
X374847Y477725D01*
X374766Y477651D01*
X374682Y477580D01*
X374596Y477512D01*
X374508Y477446D01*
X374418Y477384D01*
X374325Y477325D01*
X374231Y477269D01*
X374135Y477216D01*
X374037Y477167D01*
X373937Y477121D01*
X373836Y477079D01*
X373733Y477040D01*
X373629Y477005D01*
X373524Y476973D01*
X373418Y476945D01*
X373311Y476921D01*
X373203Y476900D01*
X373095Y476883D01*
X372986Y476870D01*
X372876Y476861D01*
X372767Y476855D01*
X372657Y476853D01*
X369644Y479005D02*
X369514Y479281D01*
X369390Y479559D01*
X369273Y479841D01*
X369163Y480125D01*
X369060Y480412D01*
X368963Y480701D01*
X368873Y480992D01*
X368791Y481285D01*
X368715Y481581D01*
X368647Y481878D01*
X368585Y482176D01*
X368531Y482476D01*
X368484Y482777D01*
X368444Y483080D01*
X368411Y483383D01*
X368386Y483686D01*
X368368Y483991D01*
X368357Y484295D01*
X368353Y484600D01*
X369644Y479005D02*
X369682Y478902D01*
X369722Y478800D01*
X369767Y478700D01*
X369815Y478601D01*
X369866Y478504D01*
X369920Y478409D01*
X369978Y478315D01*
X370039Y478224D01*
X370103Y478135D01*
X370170Y478048D01*
X370240Y477963D01*
X370313Y477881D01*
X370389Y477802D01*
X370467Y477725D01*
X370548Y477651D01*
X370632Y477580D01*
X370718Y477512D01*
X370806Y477446D01*
X370896Y477384D01*
X370989Y477325D01*
X371083Y477269D01*
X371179Y477216D01*
X371278Y477167D01*
X371377Y477121D01*
X371478Y477079D01*
X371581Y477040D01*
X371685Y477005D01*
X371790Y476973D01*
X371896Y476945D01*
X372003Y476921D01*
X372111Y476900D01*
X372219Y476883D01*
X372328Y476870D01*
X372438Y476861D01*
X372547Y476855D01*
X372657Y476853D01*
X376100Y480296D02*
X369213Y488904D01*
X362955Y492347D02*
X357791Y476853D01*
X352626Y492347D01*
X347815Y477714D02*
X347815Y476853D01*
X347815Y477714D02*
X346954Y477714D01*
X346954Y476853D01*
X347815Y476853D01*
X341869Y476853D02*
X341869Y477714D01*
X341008Y477714D01*
X341008Y476853D01*
X341869Y476853D01*
X335336Y488904D02*
X331032Y492347D01*
X331032Y476853D01*
X326729Y476853D02*
X335336Y476853D01*
X320470Y484600D02*
X320466Y484905D01*
X320455Y485209D01*
X320437Y485514D01*
X320412Y485817D01*
X320379Y486120D01*
X320339Y486423D01*
X320292Y486724D01*
X320238Y487024D01*
X320176Y487322D01*
X320108Y487619D01*
X320032Y487915D01*
X319950Y488208D01*
X319860Y488499D01*
X319763Y488788D01*
X319660Y489075D01*
X319550Y489359D01*
X319433Y489641D01*
X319309Y489919D01*
X319179Y490195D01*
X319180Y490195D02*
X319142Y490298D01*
X319102Y490400D01*
X319057Y490500D01*
X319009Y490599D01*
X318958Y490696D01*
X318904Y490791D01*
X318846Y490885D01*
X318785Y490976D01*
X318721Y491065D01*
X318654Y491152D01*
X318584Y491236D01*
X318511Y491318D01*
X318435Y491398D01*
X318357Y491475D01*
X318276Y491549D01*
X318192Y491620D01*
X318106Y491688D01*
X318018Y491754D01*
X317928Y491816D01*
X317835Y491875D01*
X317741Y491931D01*
X317645Y491984D01*
X317547Y492033D01*
X317447Y492079D01*
X317346Y492121D01*
X317243Y492160D01*
X317139Y492195D01*
X317034Y492227D01*
X316928Y492255D01*
X316821Y492279D01*
X316713Y492300D01*
X316605Y492317D01*
X316496Y492330D01*
X316386Y492339D01*
X316277Y492345D01*
X316167Y492347D01*
X316057Y492345D01*
X315948Y492339D01*
X315838Y492330D01*
X315729Y492317D01*
X315621Y492300D01*
X315513Y492279D01*
X315406Y492255D01*
X315300Y492227D01*
X315195Y492195D01*
X315091Y492160D01*
X314988Y492121D01*
X314887Y492079D01*
X314787Y492033D01*
X314689Y491984D01*
X314593Y491931D01*
X314499Y491875D01*
X314406Y491816D01*
X314316Y491754D01*
X314228Y491688D01*
X314142Y491620D01*
X314058Y491549D01*
X313977Y491475D01*
X313899Y491398D01*
X313823Y491319D01*
X313750Y491236D01*
X313680Y491152D01*
X313613Y491065D01*
X313549Y490976D01*
X313488Y490885D01*
X313430Y490791D01*
X313376Y490696D01*
X313325Y490599D01*
X313277Y490500D01*
X313232Y490400D01*
X313192Y490298D01*
X313154Y490195D01*
X313024Y489919D01*
X312900Y489641D01*
X312783Y489359D01*
X312673Y489075D01*
X312570Y488788D01*
X312473Y488499D01*
X312383Y488208D01*
X312301Y487915D01*
X312225Y487619D01*
X312157Y487322D01*
X312095Y487024D01*
X312041Y486724D01*
X311994Y486423D01*
X311954Y486120D01*
X311921Y485817D01*
X311896Y485514D01*
X311878Y485209D01*
X311867Y484905D01*
X311863Y484600D01*
X320470Y484600D02*
X320466Y484295D01*
X320455Y483991D01*
X320437Y483686D01*
X320412Y483383D01*
X320379Y483080D01*
X320339Y482777D01*
X320292Y482476D01*
X320238Y482176D01*
X320176Y481878D01*
X320108Y481581D01*
X320032Y481285D01*
X319950Y480992D01*
X319860Y480701D01*
X319763Y480412D01*
X319660Y480125D01*
X319550Y479841D01*
X319433Y479559D01*
X319309Y479281D01*
X319179Y479005D01*
X319180Y479005D02*
X319142Y478902D01*
X319102Y478800D01*
X319057Y478700D01*
X319009Y478601D01*
X318958Y478504D01*
X318904Y478409D01*
X318846Y478315D01*
X318785Y478224D01*
X318721Y478135D01*
X318654Y478048D01*
X318584Y477964D01*
X318511Y477881D01*
X318435Y477802D01*
X318357Y477725D01*
X318276Y477651D01*
X318192Y477580D01*
X318106Y477512D01*
X318018Y477446D01*
X317928Y477384D01*
X317835Y477325D01*
X317741Y477269D01*
X317645Y477216D01*
X317547Y477167D01*
X317447Y477121D01*
X317346Y477079D01*
X317243Y477040D01*
X317139Y477005D01*
X317034Y476973D01*
X316928Y476945D01*
X316821Y476921D01*
X316713Y476900D01*
X316605Y476883D01*
X316496Y476870D01*
X316386Y476861D01*
X316277Y476855D01*
X316167Y476853D01*
X313154Y479005D02*
X313024Y479281D01*
X312900Y479559D01*
X312783Y479841D01*
X312673Y480125D01*
X312570Y480412D01*
X312473Y480701D01*
X312383Y480992D01*
X312301Y481285D01*
X312225Y481581D01*
X312157Y481878D01*
X312095Y482176D01*
X312041Y482476D01*
X311994Y482777D01*
X311954Y483080D01*
X311921Y483383D01*
X311896Y483686D01*
X311878Y483991D01*
X311867Y484295D01*
X311863Y484600D01*
X313154Y479005D02*
X313192Y478902D01*
X313232Y478800D01*
X313277Y478700D01*
X313325Y478601D01*
X313376Y478504D01*
X313430Y478409D01*
X313488Y478315D01*
X313549Y478224D01*
X313613Y478135D01*
X313680Y478048D01*
X313750Y477963D01*
X313823Y477881D01*
X313899Y477802D01*
X313977Y477725D01*
X314058Y477651D01*
X314142Y477580D01*
X314228Y477512D01*
X314316Y477446D01*
X314406Y477384D01*
X314499Y477325D01*
X314593Y477269D01*
X314689Y477216D01*
X314788Y477167D01*
X314887Y477121D01*
X314988Y477079D01*
X315091Y477040D01*
X315195Y477005D01*
X315300Y476973D01*
X315406Y476945D01*
X315513Y476921D01*
X315621Y476900D01*
X315729Y476883D01*
X315838Y476870D01*
X315948Y476861D01*
X316057Y476855D01*
X316167Y476853D01*
X319610Y480296D02*
X312724Y488904D01*
X306466Y492347D02*
X301301Y476853D01*
X296136Y492347D01*
D10*
X377654Y445548D02*
X383073Y429292D01*
X372235Y429292D02*
X377654Y445548D01*
X373590Y433356D02*
X381718Y433356D01*
X366538Y433808D02*
X366538Y441032D01*
X366539Y441032D02*
X366537Y441165D01*
X366531Y441297D01*
X366521Y441429D01*
X366508Y441561D01*
X366490Y441693D01*
X366469Y441823D01*
X366444Y441954D01*
X366415Y442083D01*
X366382Y442211D01*
X366346Y442339D01*
X366306Y442465D01*
X366262Y442590D01*
X366214Y442714D01*
X366163Y442836D01*
X366108Y442957D01*
X366050Y443076D01*
X365988Y443194D01*
X365923Y443309D01*
X365854Y443423D01*
X365783Y443534D01*
X365707Y443643D01*
X365629Y443750D01*
X365548Y443855D01*
X365463Y443957D01*
X365376Y444057D01*
X365286Y444154D01*
X365193Y444249D01*
X365097Y444340D01*
X364999Y444429D01*
X364898Y444515D01*
X364794Y444598D01*
X364688Y444678D01*
X364580Y444754D01*
X364470Y444828D01*
X364357Y444898D01*
X364243Y444965D01*
X364126Y445028D01*
X364008Y445088D01*
X363888Y445145D01*
X363766Y445198D01*
X363643Y445247D01*
X363519Y445293D01*
X363393Y445335D01*
X363266Y445373D01*
X363138Y445408D01*
X363009Y445439D01*
X362880Y445466D01*
X362749Y445489D01*
X362618Y445509D01*
X362486Y445524D01*
X362354Y445536D01*
X362222Y445544D01*
X362089Y445548D01*
X361957Y445548D01*
X361824Y445544D01*
X361692Y445536D01*
X361560Y445524D01*
X361428Y445509D01*
X361297Y445489D01*
X361166Y445466D01*
X361037Y445439D01*
X360908Y445408D01*
X360780Y445373D01*
X360653Y445335D01*
X360527Y445293D01*
X360403Y445247D01*
X360280Y445198D01*
X360158Y445145D01*
X360038Y445088D01*
X359920Y445028D01*
X359803Y444965D01*
X359689Y444898D01*
X359576Y444828D01*
X359466Y444754D01*
X359358Y444678D01*
X359252Y444598D01*
X359148Y444515D01*
X359047Y444429D01*
X358949Y444340D01*
X358853Y444249D01*
X358760Y444154D01*
X358670Y444057D01*
X358583Y443957D01*
X358498Y443855D01*
X358417Y443750D01*
X358339Y443643D01*
X358263Y443534D01*
X358192Y443423D01*
X358123Y443309D01*
X358058Y443194D01*
X357996Y443076D01*
X357938Y442957D01*
X357883Y442836D01*
X357832Y442714D01*
X357784Y442590D01*
X357740Y442465D01*
X357700Y442339D01*
X357664Y442211D01*
X357631Y442083D01*
X357602Y441954D01*
X357577Y441823D01*
X357556Y441693D01*
X357538Y441561D01*
X357525Y441429D01*
X357515Y441297D01*
X357509Y441165D01*
X357507Y441032D01*
X357507Y433808D01*
X357509Y433675D01*
X357515Y433543D01*
X357525Y433411D01*
X357538Y433279D01*
X357556Y433147D01*
X357577Y433017D01*
X357602Y432886D01*
X357631Y432757D01*
X357664Y432629D01*
X357700Y432501D01*
X357740Y432375D01*
X357784Y432250D01*
X357832Y432126D01*
X357883Y432004D01*
X357938Y431883D01*
X357996Y431764D01*
X358058Y431646D01*
X358123Y431531D01*
X358192Y431417D01*
X358263Y431306D01*
X358339Y431197D01*
X358417Y431090D01*
X358498Y430985D01*
X358583Y430883D01*
X358670Y430783D01*
X358760Y430686D01*
X358853Y430591D01*
X358949Y430500D01*
X359047Y430411D01*
X359148Y430325D01*
X359252Y430242D01*
X359358Y430162D01*
X359466Y430086D01*
X359576Y430012D01*
X359689Y429942D01*
X359803Y429875D01*
X359920Y429812D01*
X360038Y429752D01*
X360158Y429695D01*
X360280Y429642D01*
X360403Y429593D01*
X360527Y429547D01*
X360653Y429505D01*
X360780Y429467D01*
X360908Y429432D01*
X361037Y429401D01*
X361166Y429374D01*
X361297Y429351D01*
X361428Y429331D01*
X361560Y429316D01*
X361692Y429304D01*
X361824Y429296D01*
X361957Y429292D01*
X362089Y429292D01*
X362222Y429296D01*
X362354Y429304D01*
X362486Y429316D01*
X362618Y429331D01*
X362749Y429351D01*
X362880Y429374D01*
X363009Y429401D01*
X363138Y429432D01*
X363266Y429467D01*
X363393Y429505D01*
X363519Y429547D01*
X363643Y429593D01*
X363766Y429642D01*
X363888Y429695D01*
X364008Y429752D01*
X364126Y429812D01*
X364243Y429875D01*
X364357Y429942D01*
X364470Y430012D01*
X364580Y430086D01*
X364688Y430162D01*
X364794Y430242D01*
X364898Y430325D01*
X364999Y430411D01*
X365097Y430500D01*
X365193Y430591D01*
X365286Y430686D01*
X365376Y430783D01*
X365463Y430883D01*
X365548Y430985D01*
X365629Y431090D01*
X365707Y431197D01*
X365783Y431306D01*
X365854Y431417D01*
X365923Y431531D01*
X365988Y431646D01*
X366050Y431764D01*
X366108Y431883D01*
X366163Y432004D01*
X366214Y432126D01*
X366262Y432250D01*
X366306Y432375D01*
X366346Y432501D01*
X366382Y432629D01*
X366415Y432757D01*
X366444Y432886D01*
X366469Y433017D01*
X366490Y433147D01*
X366508Y433279D01*
X366521Y433411D01*
X366531Y433543D01*
X366537Y433675D01*
X366539Y433808D01*
D11*
X357054Y251379D02*
X355106Y251379D01*
X355106Y244888D01*
X359001Y244888D01*
X359100Y244890D01*
X359200Y244896D01*
X359299Y244905D01*
X359397Y244918D01*
X359495Y244935D01*
X359593Y244956D01*
X359689Y244981D01*
X359784Y245009D01*
X359878Y245041D01*
X359971Y245076D01*
X360063Y245115D01*
X360153Y245158D01*
X360241Y245203D01*
X360328Y245253D01*
X360412Y245305D01*
X360495Y245361D01*
X360575Y245419D01*
X360653Y245481D01*
X360728Y245546D01*
X360801Y245614D01*
X360871Y245684D01*
X360939Y245757D01*
X361004Y245832D01*
X361066Y245910D01*
X361124Y245990D01*
X361180Y246073D01*
X361232Y246157D01*
X361282Y246244D01*
X361327Y246332D01*
X361370Y246422D01*
X361409Y246514D01*
X361444Y246607D01*
X361476Y246701D01*
X361504Y246796D01*
X361529Y246892D01*
X361550Y246990D01*
X361567Y247088D01*
X361580Y247186D01*
X361589Y247285D01*
X361595Y247385D01*
X361597Y247484D01*
X361598Y247484D02*
X361598Y253976D01*
X361597Y253976D02*
X361595Y254075D01*
X361589Y254175D01*
X361580Y254274D01*
X361567Y254372D01*
X361550Y254470D01*
X361529Y254568D01*
X361504Y254664D01*
X361476Y254759D01*
X361444Y254853D01*
X361409Y254946D01*
X361370Y255038D01*
X361327Y255128D01*
X361282Y255216D01*
X361232Y255303D01*
X361180Y255387D01*
X361124Y255470D01*
X361066Y255550D01*
X361004Y255628D01*
X360939Y255703D01*
X360871Y255776D01*
X360801Y255846D01*
X360728Y255914D01*
X360653Y255979D01*
X360575Y256041D01*
X360495Y256099D01*
X360412Y256155D01*
X360328Y256207D01*
X360241Y256257D01*
X360153Y256302D01*
X360063Y256345D01*
X359971Y256384D01*
X359878Y256419D01*
X359784Y256451D01*
X359689Y256479D01*
X359593Y256504D01*
X359495Y256525D01*
X359397Y256542D01*
X359299Y256555D01*
X359200Y256564D01*
X359100Y256570D01*
X359001Y256572D01*
X355106Y256572D01*
X349406Y256572D02*
X349406Y244888D01*
X342914Y244888D02*
X349406Y256572D01*
X342914Y256572D02*
X342914Y244888D01*
X337214Y244888D02*
X337214Y256572D01*
X333968Y256572D01*
X333855Y256570D01*
X333742Y256564D01*
X333629Y256554D01*
X333516Y256540D01*
X333404Y256523D01*
X333293Y256501D01*
X333183Y256476D01*
X333073Y256446D01*
X332965Y256413D01*
X332858Y256376D01*
X332752Y256336D01*
X332648Y256291D01*
X332545Y256243D01*
X332444Y256192D01*
X332345Y256137D01*
X332248Y256079D01*
X332153Y256017D01*
X332060Y255952D01*
X331970Y255884D01*
X331882Y255813D01*
X331796Y255738D01*
X331713Y255661D01*
X331633Y255581D01*
X331556Y255498D01*
X331481Y255412D01*
X331410Y255324D01*
X331342Y255234D01*
X331277Y255141D01*
X331215Y255046D01*
X331157Y254949D01*
X331102Y254850D01*
X331051Y254749D01*
X331003Y254646D01*
X330958Y254542D01*
X330918Y254436D01*
X330881Y254329D01*
X330848Y254221D01*
X330818Y254111D01*
X330793Y254001D01*
X330771Y253890D01*
X330754Y253778D01*
X330740Y253665D01*
X330730Y253552D01*
X330724Y253439D01*
X330722Y253326D01*
X330723Y253326D02*
X330723Y248134D01*
X330722Y248134D02*
X330724Y248021D01*
X330730Y247908D01*
X330740Y247795D01*
X330754Y247682D01*
X330771Y247570D01*
X330793Y247459D01*
X330818Y247349D01*
X330848Y247239D01*
X330881Y247131D01*
X330918Y247024D01*
X330958Y246918D01*
X331003Y246814D01*
X331051Y246711D01*
X331102Y246610D01*
X331157Y246511D01*
X331215Y246414D01*
X331277Y246319D01*
X331342Y246226D01*
X331410Y246136D01*
X331481Y246048D01*
X331556Y245962D01*
X331633Y245879D01*
X331713Y245799D01*
X331796Y245722D01*
X331882Y245647D01*
X331970Y245576D01*
X332060Y245508D01*
X332153Y245443D01*
X332248Y245381D01*
X332345Y245323D01*
X332444Y245268D01*
X332545Y245217D01*
X332648Y245169D01*
X332752Y245124D01*
X332858Y245084D01*
X332965Y245047D01*
X333073Y245014D01*
X333183Y244984D01*
X333293Y244959D01*
X333404Y244937D01*
X333516Y244920D01*
X333629Y244906D01*
X333742Y244896D01*
X333855Y244890D01*
X333968Y244888D01*
X337214Y244888D01*
D12*
X311889Y247738D02*
X301560Y247738D01*
X295171Y253764D02*
X290867Y257207D01*
X290867Y241713D01*
X286564Y241713D02*
X295171Y241713D01*
X280306Y241713D02*
X275141Y241713D01*
X275026Y241715D01*
X274911Y241721D01*
X274796Y241730D01*
X274682Y241744D01*
X274568Y241761D01*
X274455Y241782D01*
X274343Y241807D01*
X274231Y241835D01*
X274121Y241868D01*
X274012Y241904D01*
X273904Y241943D01*
X273797Y241986D01*
X273692Y242033D01*
X273588Y242083D01*
X273486Y242137D01*
X273386Y242194D01*
X273288Y242254D01*
X273192Y242317D01*
X273099Y242384D01*
X273007Y242454D01*
X272918Y242527D01*
X272831Y242602D01*
X272747Y242681D01*
X272666Y242762D01*
X272587Y242846D01*
X272512Y242933D01*
X272439Y243022D01*
X272369Y243114D01*
X272302Y243207D01*
X272239Y243303D01*
X272179Y243401D01*
X272122Y243501D01*
X272068Y243603D01*
X272018Y243707D01*
X271971Y243812D01*
X271928Y243919D01*
X271889Y244027D01*
X271853Y244136D01*
X271820Y244246D01*
X271792Y244358D01*
X271767Y244470D01*
X271746Y244583D01*
X271729Y244697D01*
X271715Y244811D01*
X271706Y244926D01*
X271700Y245041D01*
X271698Y245156D01*
X271698Y246878D01*
X271700Y246993D01*
X271706Y247108D01*
X271715Y247223D01*
X271729Y247337D01*
X271746Y247451D01*
X271767Y247564D01*
X271792Y247676D01*
X271820Y247788D01*
X271853Y247898D01*
X271889Y248007D01*
X271928Y248115D01*
X271971Y248222D01*
X272018Y248327D01*
X272068Y248431D01*
X272122Y248533D01*
X272179Y248633D01*
X272239Y248731D01*
X272302Y248827D01*
X272369Y248920D01*
X272439Y249012D01*
X272512Y249101D01*
X272588Y249188D01*
X272666Y249272D01*
X272747Y249353D01*
X272832Y249432D01*
X272918Y249507D01*
X273007Y249580D01*
X273099Y249650D01*
X273192Y249717D01*
X273288Y249780D01*
X273386Y249840D01*
X273486Y249897D01*
X273588Y249951D01*
X273692Y250001D01*
X273797Y250048D01*
X273904Y250091D01*
X274012Y250131D01*
X274121Y250166D01*
X274231Y250199D01*
X274343Y250227D01*
X274455Y250252D01*
X274568Y250273D01*
X274682Y250290D01*
X274796Y250304D01*
X274911Y250313D01*
X275026Y250319D01*
X275141Y250321D01*
X280306Y250321D01*
X280306Y257207D01*
X271698Y257207D01*
X266301Y257207D02*
X261136Y241713D01*
X255971Y257207D01*
X434910Y247738D02*
X445239Y247738D01*
X440074Y242574D02*
X440074Y252903D01*
X428521Y253764D02*
X424217Y257207D01*
X424217Y241713D01*
X419914Y241713D02*
X428521Y241713D01*
X413656Y241713D02*
X408491Y241713D01*
X408376Y241715D01*
X408261Y241721D01*
X408146Y241730D01*
X408032Y241744D01*
X407918Y241761D01*
X407805Y241782D01*
X407693Y241807D01*
X407581Y241835D01*
X407471Y241868D01*
X407362Y241904D01*
X407254Y241943D01*
X407147Y241986D01*
X407042Y242033D01*
X406938Y242083D01*
X406836Y242137D01*
X406736Y242194D01*
X406638Y242254D01*
X406542Y242317D01*
X406449Y242384D01*
X406357Y242454D01*
X406268Y242527D01*
X406181Y242602D01*
X406097Y242681D01*
X406016Y242762D01*
X405937Y242846D01*
X405862Y242933D01*
X405789Y243022D01*
X405719Y243114D01*
X405652Y243207D01*
X405589Y243303D01*
X405529Y243401D01*
X405472Y243501D01*
X405418Y243603D01*
X405368Y243707D01*
X405321Y243812D01*
X405278Y243919D01*
X405239Y244027D01*
X405203Y244136D01*
X405170Y244246D01*
X405142Y244358D01*
X405117Y244470D01*
X405096Y244583D01*
X405079Y244697D01*
X405065Y244811D01*
X405056Y244926D01*
X405050Y245041D01*
X405048Y245156D01*
X405048Y246878D01*
X405050Y246993D01*
X405056Y247108D01*
X405065Y247223D01*
X405079Y247337D01*
X405096Y247451D01*
X405117Y247564D01*
X405142Y247676D01*
X405170Y247788D01*
X405203Y247898D01*
X405239Y248007D01*
X405278Y248115D01*
X405321Y248222D01*
X405368Y248327D01*
X405418Y248431D01*
X405472Y248533D01*
X405529Y248633D01*
X405589Y248731D01*
X405652Y248827D01*
X405719Y248920D01*
X405789Y249012D01*
X405862Y249101D01*
X405938Y249188D01*
X406016Y249272D01*
X406097Y249353D01*
X406182Y249432D01*
X406268Y249507D01*
X406357Y249580D01*
X406449Y249650D01*
X406542Y249717D01*
X406638Y249780D01*
X406736Y249840D01*
X406836Y249897D01*
X406938Y249951D01*
X407042Y250001D01*
X407147Y250048D01*
X407254Y250091D01*
X407362Y250131D01*
X407471Y250166D01*
X407581Y250199D01*
X407693Y250227D01*
X407805Y250252D01*
X407918Y250273D01*
X408032Y250290D01*
X408146Y250304D01*
X408261Y250313D01*
X408376Y250319D01*
X408491Y250321D01*
X413656Y250321D01*
X413656Y257207D01*
X405048Y257207D01*
X399651Y257207D02*
X394486Y241713D01*
X389321Y257207D01*
D13*
X427123Y398924D02*
X427123Y401012D01*
X427124Y398924D02*
X427126Y398835D01*
X427132Y398747D01*
X427141Y398659D01*
X427154Y398571D01*
X427171Y398484D01*
X427191Y398398D01*
X427216Y398313D01*
X427243Y398228D01*
X427275Y398145D01*
X427309Y398064D01*
X427348Y397984D01*
X427389Y397906D01*
X427434Y397829D01*
X427482Y397755D01*
X427533Y397682D01*
X427587Y397612D01*
X427645Y397545D01*
X427705Y397479D01*
X427767Y397417D01*
X427833Y397357D01*
X427900Y397299D01*
X427970Y397245D01*
X428043Y397194D01*
X428117Y397146D01*
X428194Y397101D01*
X428272Y397060D01*
X428352Y397021D01*
X428433Y396987D01*
X428516Y396955D01*
X428601Y396928D01*
X428686Y396903D01*
X428772Y396883D01*
X428859Y396866D01*
X428947Y396853D01*
X429035Y396844D01*
X429123Y396838D01*
X429212Y396836D01*
X429212Y396835D02*
X434433Y396835D01*
X434433Y396836D02*
X434524Y396838D01*
X434615Y396844D01*
X434706Y396854D01*
X434796Y396868D01*
X434885Y396885D01*
X434973Y396907D01*
X435061Y396933D01*
X435147Y396962D01*
X435232Y396995D01*
X435315Y397032D01*
X435397Y397072D01*
X435477Y397116D01*
X435555Y397163D01*
X435631Y397214D01*
X435704Y397267D01*
X435775Y397324D01*
X435844Y397385D01*
X435909Y397448D01*
X435972Y397513D01*
X436032Y397582D01*
X436090Y397653D01*
X436143Y397726D01*
X436194Y397802D01*
X436241Y397880D01*
X436285Y397960D01*
X436325Y398042D01*
X436362Y398125D01*
X436395Y398210D01*
X436424Y398296D01*
X436450Y398384D01*
X436472Y398472D01*
X436489Y398561D01*
X436503Y398651D01*
X436513Y398742D01*
X436519Y398833D01*
X436521Y398924D01*
X436521Y401012D01*
X429734Y404480D02*
X429835Y404482D01*
X429936Y404488D01*
X430037Y404498D01*
X430137Y404511D01*
X430237Y404529D01*
X430336Y404550D01*
X430434Y404576D01*
X430531Y404605D01*
X430627Y404637D01*
X430721Y404674D01*
X430814Y404714D01*
X430906Y404758D01*
X430995Y404805D01*
X431083Y404856D01*
X431169Y404910D01*
X431252Y404967D01*
X431334Y405027D01*
X431412Y405091D01*
X431489Y405157D01*
X431562Y405227D01*
X431633Y405299D01*
X431701Y405374D01*
X431766Y405452D01*
X431828Y405532D01*
X431887Y405614D01*
X431943Y405699D01*
X431995Y405786D01*
X432044Y405874D01*
X432090Y405965D01*
X432131Y406057D01*
X432170Y406151D01*
X432204Y406246D01*
X432235Y406342D01*
X432262Y406440D01*
X432286Y406538D01*
X432305Y406638D01*
X432321Y406738D01*
X432333Y406838D01*
X432341Y406939D01*
X432345Y407040D01*
X432345Y407142D01*
X432341Y407243D01*
X432333Y407344D01*
X432321Y407444D01*
X432305Y407544D01*
X432286Y407644D01*
X432262Y407742D01*
X432235Y407840D01*
X432204Y407936D01*
X432170Y408031D01*
X432131Y408125D01*
X432090Y408217D01*
X432044Y408308D01*
X431995Y408396D01*
X431943Y408483D01*
X431887Y408568D01*
X431828Y408650D01*
X431766Y408730D01*
X431701Y408808D01*
X431633Y408883D01*
X431562Y408955D01*
X431489Y409025D01*
X431412Y409091D01*
X431334Y409155D01*
X431252Y409215D01*
X431169Y409272D01*
X431083Y409326D01*
X430995Y409377D01*
X430906Y409424D01*
X430814Y409468D01*
X430721Y409508D01*
X430627Y409545D01*
X430531Y409577D01*
X430434Y409606D01*
X430336Y409632D01*
X430237Y409653D01*
X430137Y409671D01*
X430037Y409684D01*
X429936Y409694D01*
X429835Y409700D01*
X429734Y409702D01*
X429633Y409700D01*
X429532Y409694D01*
X429431Y409684D01*
X429331Y409671D01*
X429231Y409653D01*
X429132Y409632D01*
X429034Y409606D01*
X428937Y409577D01*
X428841Y409545D01*
X428747Y409508D01*
X428654Y409468D01*
X428562Y409424D01*
X428473Y409377D01*
X428385Y409326D01*
X428299Y409272D01*
X428216Y409215D01*
X428134Y409155D01*
X428056Y409091D01*
X427979Y409025D01*
X427906Y408955D01*
X427835Y408883D01*
X427767Y408808D01*
X427702Y408730D01*
X427640Y408650D01*
X427581Y408568D01*
X427525Y408483D01*
X427473Y408397D01*
X427424Y408308D01*
X427378Y408217D01*
X427337Y408125D01*
X427298Y408031D01*
X427264Y407936D01*
X427233Y407840D01*
X427206Y407742D01*
X427182Y407644D01*
X427163Y407544D01*
X427147Y407444D01*
X427135Y407344D01*
X427127Y407243D01*
X427123Y407142D01*
X427123Y407040D01*
X427127Y406939D01*
X427135Y406838D01*
X427147Y406738D01*
X427163Y406638D01*
X427182Y406538D01*
X427206Y406440D01*
X427233Y406342D01*
X427264Y406246D01*
X427298Y406151D01*
X427337Y406057D01*
X427378Y405965D01*
X427424Y405874D01*
X427473Y405786D01*
X427525Y405699D01*
X427581Y405614D01*
X427640Y405532D01*
X427702Y405452D01*
X427767Y405374D01*
X427835Y405299D01*
X427906Y405227D01*
X427979Y405157D01*
X428056Y405091D01*
X428134Y405027D01*
X428216Y404967D01*
X428299Y404910D01*
X428385Y404856D01*
X428473Y404805D01*
X428562Y404758D01*
X428654Y404714D01*
X428747Y404674D01*
X428841Y404637D01*
X428937Y404605D01*
X429034Y404576D01*
X429132Y404550D01*
X429231Y404529D01*
X429331Y404511D01*
X429431Y404498D01*
X429532Y404488D01*
X429633Y404482D01*
X429734Y404480D01*
X434433Y405003D02*
X434523Y405005D01*
X434612Y405011D01*
X434702Y405020D01*
X434791Y405034D01*
X434879Y405051D01*
X434966Y405072D01*
X435053Y405097D01*
X435138Y405126D01*
X435222Y405158D01*
X435304Y405193D01*
X435385Y405233D01*
X435464Y405275D01*
X435541Y405321D01*
X435616Y405371D01*
X435689Y405423D01*
X435760Y405479D01*
X435828Y405537D01*
X435893Y405599D01*
X435956Y405663D01*
X436016Y405730D01*
X436073Y405799D01*
X436127Y405871D01*
X436178Y405945D01*
X436226Y406021D01*
X436270Y406099D01*
X436311Y406179D01*
X436349Y406261D01*
X436383Y406344D01*
X436413Y406429D01*
X436440Y406515D01*
X436463Y406601D01*
X436482Y406689D01*
X436497Y406778D01*
X436509Y406867D01*
X436517Y406956D01*
X436521Y407046D01*
X436521Y407136D01*
X436517Y407226D01*
X436509Y407315D01*
X436497Y407404D01*
X436482Y407493D01*
X436463Y407581D01*
X436440Y407667D01*
X436413Y407753D01*
X436383Y407838D01*
X436349Y407921D01*
X436311Y408003D01*
X436270Y408083D01*
X436226Y408161D01*
X436178Y408237D01*
X436127Y408311D01*
X436073Y408383D01*
X436016Y408452D01*
X435956Y408519D01*
X435893Y408583D01*
X435828Y408645D01*
X435760Y408703D01*
X435689Y408759D01*
X435616Y408811D01*
X435541Y408861D01*
X435464Y408907D01*
X435385Y408949D01*
X435304Y408989D01*
X435222Y409024D01*
X435138Y409056D01*
X435053Y409085D01*
X434966Y409110D01*
X434879Y409131D01*
X434791Y409148D01*
X434702Y409162D01*
X434612Y409171D01*
X434523Y409177D01*
X434433Y409179D01*
X434343Y409177D01*
X434254Y409171D01*
X434164Y409162D01*
X434075Y409148D01*
X433987Y409131D01*
X433900Y409110D01*
X433813Y409085D01*
X433728Y409056D01*
X433644Y409024D01*
X433562Y408989D01*
X433481Y408949D01*
X433402Y408907D01*
X433325Y408861D01*
X433250Y408811D01*
X433177Y408759D01*
X433106Y408703D01*
X433038Y408645D01*
X432973Y408583D01*
X432910Y408519D01*
X432850Y408452D01*
X432793Y408383D01*
X432739Y408311D01*
X432688Y408237D01*
X432640Y408161D01*
X432596Y408083D01*
X432555Y408003D01*
X432517Y407921D01*
X432483Y407838D01*
X432453Y407753D01*
X432426Y407667D01*
X432403Y407581D01*
X432384Y407493D01*
X432369Y407404D01*
X432357Y407315D01*
X432349Y407226D01*
X432345Y407136D01*
X432345Y407046D01*
X432349Y406956D01*
X432357Y406867D01*
X432369Y406778D01*
X432384Y406689D01*
X432403Y406601D01*
X432426Y406515D01*
X432453Y406429D01*
X432483Y406344D01*
X432517Y406261D01*
X432555Y406179D01*
X432596Y406099D01*
X432640Y406021D01*
X432688Y405945D01*
X432739Y405871D01*
X432793Y405799D01*
X432850Y405730D01*
X432910Y405663D01*
X432973Y405599D01*
X433038Y405537D01*
X433106Y405479D01*
X433177Y405423D01*
X433250Y405371D01*
X433325Y405321D01*
X433402Y405275D01*
X433481Y405233D01*
X433562Y405193D01*
X433644Y405158D01*
X433728Y405126D01*
X433813Y405097D01*
X433900Y405072D01*
X433987Y405051D01*
X434075Y405034D01*
X434164Y405020D01*
X434254Y405011D01*
X434343Y405005D01*
X434433Y405003D01*
D10*
X443544Y296673D02*
X423415Y296673D01*
D13*
X447503Y305265D02*
X447503Y307354D01*
X447503Y305265D02*
X447505Y305176D01*
X447511Y305088D01*
X447520Y305000D01*
X447533Y304912D01*
X447550Y304825D01*
X447570Y304739D01*
X447595Y304654D01*
X447622Y304569D01*
X447654Y304486D01*
X447688Y304405D01*
X447727Y304325D01*
X447768Y304247D01*
X447813Y304170D01*
X447861Y304096D01*
X447912Y304023D01*
X447966Y303953D01*
X448024Y303886D01*
X448084Y303820D01*
X448146Y303758D01*
X448212Y303698D01*
X448279Y303640D01*
X448349Y303586D01*
X448422Y303535D01*
X448496Y303487D01*
X448573Y303442D01*
X448651Y303401D01*
X448731Y303362D01*
X448812Y303328D01*
X448895Y303296D01*
X448980Y303269D01*
X449065Y303244D01*
X449151Y303224D01*
X449238Y303207D01*
X449326Y303194D01*
X449414Y303185D01*
X449502Y303179D01*
X449591Y303177D01*
X454813Y303177D01*
X454904Y303179D01*
X454995Y303185D01*
X455086Y303195D01*
X455176Y303209D01*
X455265Y303226D01*
X455353Y303248D01*
X455441Y303274D01*
X455527Y303303D01*
X455612Y303336D01*
X455695Y303373D01*
X455777Y303413D01*
X455857Y303457D01*
X455935Y303504D01*
X456011Y303555D01*
X456084Y303608D01*
X456155Y303665D01*
X456224Y303726D01*
X456289Y303789D01*
X456352Y303854D01*
X456412Y303923D01*
X456470Y303994D01*
X456523Y304067D01*
X456574Y304143D01*
X456621Y304221D01*
X456665Y304301D01*
X456705Y304383D01*
X456742Y304466D01*
X456775Y304551D01*
X456804Y304637D01*
X456830Y304725D01*
X456852Y304813D01*
X456869Y304902D01*
X456883Y304992D01*
X456893Y305083D01*
X456899Y305174D01*
X456901Y305265D01*
X456901Y307354D01*
X456902Y313694D02*
X456900Y313789D01*
X456894Y313883D01*
X456885Y313977D01*
X456872Y314071D01*
X456855Y314164D01*
X456834Y314256D01*
X456809Y314348D01*
X456781Y314438D01*
X456749Y314527D01*
X456714Y314615D01*
X456675Y314701D01*
X456633Y314786D01*
X456587Y314869D01*
X456538Y314950D01*
X456486Y315029D01*
X456431Y315106D01*
X456372Y315180D01*
X456311Y315252D01*
X456247Y315322D01*
X456180Y315389D01*
X456110Y315453D01*
X456038Y315514D01*
X455964Y315573D01*
X455887Y315628D01*
X455808Y315680D01*
X455727Y315729D01*
X455644Y315775D01*
X455559Y315817D01*
X455473Y315856D01*
X455385Y315891D01*
X455296Y315923D01*
X455206Y315951D01*
X455114Y315976D01*
X455022Y315997D01*
X454929Y316014D01*
X454835Y316027D01*
X454741Y316036D01*
X454647Y316042D01*
X454552Y316044D01*
X456901Y313694D02*
X456899Y313586D01*
X456893Y313477D01*
X456883Y313369D01*
X456870Y313262D01*
X456852Y313155D01*
X456831Y313048D01*
X456806Y312943D01*
X456777Y312838D01*
X456745Y312735D01*
X456708Y312633D01*
X456668Y312532D01*
X456625Y312433D01*
X456578Y312335D01*
X456527Y312239D01*
X456473Y312145D01*
X456416Y312053D01*
X456355Y311963D01*
X456291Y311875D01*
X456225Y311790D01*
X456155Y311707D01*
X456082Y311627D01*
X456006Y311549D01*
X455928Y311474D01*
X455847Y311402D01*
X455763Y311333D01*
X455677Y311267D01*
X455589Y311204D01*
X455498Y311145D01*
X455406Y311088D01*
X455311Y311035D01*
X455215Y310986D01*
X455116Y310940D01*
X455017Y310897D01*
X454915Y310858D01*
X454813Y310823D01*
X452724Y315261D02*
X452793Y315330D01*
X452864Y315396D01*
X452937Y315460D01*
X453013Y315521D01*
X453092Y315579D01*
X453172Y315633D01*
X453255Y315685D01*
X453339Y315733D01*
X453425Y315779D01*
X453513Y315820D01*
X453603Y315859D01*
X453694Y315894D01*
X453786Y315925D01*
X453879Y315953D01*
X453973Y315977D01*
X454068Y315997D01*
X454164Y316014D01*
X454261Y316027D01*
X454358Y316036D01*
X454455Y316042D01*
X454552Y316044D01*
X452724Y315260D02*
X447503Y310822D01*
X447503Y316044D01*
X482648Y316779D02*
X482648Y307381D01*
X482648Y316779D02*
X478471Y316779D01*
X478471Y312602D02*
X482648Y312602D01*
X474610Y312602D02*
X471999Y312602D01*
X471898Y312600D01*
X471797Y312594D01*
X471696Y312584D01*
X471596Y312571D01*
X471496Y312553D01*
X471397Y312532D01*
X471299Y312506D01*
X471202Y312477D01*
X471106Y312445D01*
X471012Y312408D01*
X470919Y312368D01*
X470827Y312324D01*
X470738Y312277D01*
X470650Y312226D01*
X470564Y312172D01*
X470481Y312115D01*
X470399Y312055D01*
X470321Y311991D01*
X470244Y311925D01*
X470171Y311855D01*
X470100Y311783D01*
X470032Y311708D01*
X469967Y311630D01*
X469905Y311550D01*
X469846Y311468D01*
X469790Y311383D01*
X469738Y311297D01*
X469689Y311208D01*
X469643Y311117D01*
X469602Y311025D01*
X469563Y310931D01*
X469529Y310836D01*
X469498Y310740D01*
X469471Y310642D01*
X469447Y310544D01*
X469428Y310444D01*
X469412Y310344D01*
X469400Y310244D01*
X469392Y310143D01*
X469388Y310042D01*
X469388Y309940D01*
X469392Y309839D01*
X469400Y309738D01*
X469412Y309638D01*
X469428Y309538D01*
X469447Y309438D01*
X469471Y309340D01*
X469498Y309242D01*
X469529Y309146D01*
X469563Y309051D01*
X469602Y308957D01*
X469643Y308865D01*
X469689Y308774D01*
X469738Y308686D01*
X469790Y308599D01*
X469846Y308514D01*
X469905Y308432D01*
X469967Y308352D01*
X470032Y308274D01*
X470100Y308199D01*
X470171Y308127D01*
X470244Y308057D01*
X470321Y307991D01*
X470399Y307927D01*
X470481Y307867D01*
X470564Y307810D01*
X470650Y307756D01*
X470738Y307705D01*
X470827Y307658D01*
X470919Y307614D01*
X471012Y307574D01*
X471106Y307537D01*
X471202Y307505D01*
X471299Y307476D01*
X471397Y307450D01*
X471496Y307429D01*
X471596Y307411D01*
X471696Y307398D01*
X471797Y307388D01*
X471898Y307382D01*
X471999Y307380D01*
X471999Y307381D02*
X474610Y307381D01*
X474610Y316779D01*
X471999Y316779D01*
X471999Y316778D02*
X471909Y316776D01*
X471820Y316770D01*
X471730Y316761D01*
X471641Y316747D01*
X471553Y316730D01*
X471466Y316709D01*
X471379Y316684D01*
X471294Y316655D01*
X471210Y316623D01*
X471128Y316588D01*
X471047Y316548D01*
X470968Y316506D01*
X470891Y316460D01*
X470816Y316410D01*
X470743Y316358D01*
X470672Y316302D01*
X470604Y316244D01*
X470539Y316182D01*
X470476Y316118D01*
X470416Y316051D01*
X470359Y315982D01*
X470305Y315910D01*
X470254Y315836D01*
X470206Y315760D01*
X470162Y315682D01*
X470121Y315602D01*
X470083Y315520D01*
X470049Y315437D01*
X470019Y315352D01*
X469992Y315266D01*
X469969Y315180D01*
X469950Y315092D01*
X469935Y315003D01*
X469923Y314914D01*
X469915Y314825D01*
X469911Y314735D01*
X469911Y314645D01*
X469915Y314555D01*
X469923Y314466D01*
X469935Y314377D01*
X469950Y314288D01*
X469969Y314200D01*
X469992Y314114D01*
X470019Y314028D01*
X470049Y313943D01*
X470083Y313860D01*
X470121Y313778D01*
X470162Y313698D01*
X470206Y313620D01*
X470254Y313544D01*
X470305Y313470D01*
X470359Y313398D01*
X470416Y313329D01*
X470476Y313262D01*
X470539Y313198D01*
X470604Y313136D01*
X470672Y313078D01*
X470743Y313022D01*
X470816Y312970D01*
X470891Y312920D01*
X470968Y312874D01*
X471047Y312832D01*
X471128Y312792D01*
X471210Y312757D01*
X471294Y312725D01*
X471379Y312696D01*
X471466Y312671D01*
X471553Y312650D01*
X471641Y312633D01*
X471730Y312619D01*
X471820Y312610D01*
X471909Y312604D01*
X471999Y312602D01*
X465902Y314690D02*
X463291Y316779D01*
X463291Y307381D01*
X460681Y307381D02*
X465902Y307381D01*
D12*
X381202Y376202D02*
X376202Y381202D01*
X311202Y311212D02*
X311202Y311202D01*
X385972Y373852D02*
X385974Y373941D01*
X385980Y374030D01*
X385990Y374119D01*
X386004Y374207D01*
X386021Y374294D01*
X386043Y374380D01*
X386069Y374466D01*
X386098Y374550D01*
X386131Y374633D01*
X386167Y374714D01*
X386208Y374794D01*
X386251Y374871D01*
X386298Y374947D01*
X386349Y375020D01*
X386402Y375091D01*
X386459Y375160D01*
X386519Y375226D01*
X386582Y375290D01*
X386647Y375350D01*
X386715Y375408D01*
X386786Y375462D01*
X386859Y375513D01*
X386934Y375561D01*
X387011Y375606D01*
X387090Y375647D01*
X387171Y375684D01*
X387253Y375718D01*
X387337Y375749D01*
X387422Y375775D01*
X387508Y375798D01*
X387595Y375816D01*
X387683Y375831D01*
X387772Y375842D01*
X387861Y375849D01*
X387950Y375852D01*
X388039Y375851D01*
X388128Y375846D01*
X388216Y375837D01*
X388305Y375824D01*
X388392Y375807D01*
X388479Y375787D01*
X388565Y375762D01*
X388649Y375734D01*
X388732Y375702D01*
X388814Y375666D01*
X388894Y375627D01*
X388972Y375584D01*
X389048Y375538D01*
X389122Y375488D01*
X389194Y375435D01*
X389263Y375379D01*
X389330Y375320D01*
X389394Y375258D01*
X389455Y375194D01*
X389514Y375126D01*
X389569Y375056D01*
X389621Y374984D01*
X389670Y374909D01*
X389715Y374833D01*
X389757Y374754D01*
X389795Y374674D01*
X389830Y374592D01*
X389861Y374508D01*
X389889Y374423D01*
X389912Y374337D01*
X389932Y374250D01*
X389948Y374163D01*
X389960Y374074D01*
X389968Y373986D01*
X389972Y373897D01*
X389972Y373807D01*
X389968Y373718D01*
X389960Y373630D01*
X389948Y373541D01*
X389932Y373454D01*
X389912Y373367D01*
X389889Y373281D01*
X389861Y373196D01*
X389830Y373112D01*
X389795Y373030D01*
X389757Y372950D01*
X389715Y372871D01*
X389670Y372795D01*
X389621Y372720D01*
X389569Y372648D01*
X389514Y372578D01*
X389455Y372510D01*
X389394Y372446D01*
X389330Y372384D01*
X389263Y372325D01*
X389194Y372269D01*
X389122Y372216D01*
X389048Y372166D01*
X388972Y372120D01*
X388894Y372077D01*
X388814Y372038D01*
X388732Y372002D01*
X388649Y371970D01*
X388565Y371942D01*
X388479Y371917D01*
X388392Y371897D01*
X388305Y371880D01*
X388216Y371867D01*
X388128Y371858D01*
X388039Y371853D01*
X387950Y371852D01*
X387861Y371855D01*
X387772Y371862D01*
X387683Y371873D01*
X387595Y371888D01*
X387508Y371906D01*
X387422Y371929D01*
X387337Y371955D01*
X387253Y371986D01*
X387171Y372020D01*
X387090Y372057D01*
X387011Y372098D01*
X386934Y372143D01*
X386859Y372191D01*
X386786Y372242D01*
X386715Y372296D01*
X386647Y372354D01*
X386582Y372414D01*
X386519Y372478D01*
X386459Y372544D01*
X386402Y372613D01*
X386349Y372684D01*
X386298Y372757D01*
X386251Y372833D01*
X386208Y372910D01*
X386167Y372990D01*
X386131Y373071D01*
X386098Y373154D01*
X386069Y373238D01*
X386043Y373324D01*
X386021Y373410D01*
X386004Y373497D01*
X385990Y373585D01*
X385980Y373674D01*
X385974Y373763D01*
X385972Y373852D01*
X311242Y381212D02*
X311242Y381222D01*
X315942Y381222D01*
X315902Y311212D02*
X311202Y311212D01*
X311242Y376522D02*
X311242Y381212D01*
X311192Y315902D02*
X311192Y311202D01*
X376522Y311202D02*
X381222Y311202D01*
X381222Y311192D02*
X381222Y315892D01*
D13*
X327737Y391294D02*
X327737Y398081D01*
X327737Y391294D02*
X327735Y391193D01*
X327729Y391092D01*
X327719Y390991D01*
X327706Y390891D01*
X327688Y390791D01*
X327667Y390692D01*
X327641Y390594D01*
X327612Y390497D01*
X327580Y390401D01*
X327543Y390307D01*
X327503Y390214D01*
X327459Y390122D01*
X327412Y390033D01*
X327361Y389945D01*
X327307Y389859D01*
X327250Y389776D01*
X327190Y389694D01*
X327126Y389616D01*
X327060Y389539D01*
X326990Y389466D01*
X326918Y389395D01*
X326843Y389327D01*
X326765Y389262D01*
X326685Y389200D01*
X326603Y389141D01*
X326518Y389085D01*
X326431Y389033D01*
X326343Y388984D01*
X326252Y388938D01*
X326160Y388897D01*
X326066Y388858D01*
X325971Y388824D01*
X325875Y388793D01*
X325777Y388766D01*
X325679Y388742D01*
X325579Y388723D01*
X325479Y388707D01*
X325379Y388695D01*
X325278Y388687D01*
X325177Y388683D01*
X325075Y388683D01*
X324974Y388687D01*
X324873Y388695D01*
X324773Y388707D01*
X324673Y388723D01*
X324573Y388742D01*
X324475Y388766D01*
X324377Y388793D01*
X324281Y388824D01*
X324186Y388858D01*
X324092Y388897D01*
X324000Y388938D01*
X323909Y388984D01*
X323821Y389033D01*
X323734Y389085D01*
X323649Y389141D01*
X323567Y389200D01*
X323487Y389262D01*
X323409Y389327D01*
X323334Y389395D01*
X323262Y389466D01*
X323192Y389539D01*
X323126Y389616D01*
X323062Y389694D01*
X323002Y389776D01*
X322945Y389859D01*
X322891Y389945D01*
X322840Y390033D01*
X322793Y390122D01*
X322749Y390214D01*
X322709Y390307D01*
X322672Y390401D01*
X322640Y390497D01*
X322611Y390594D01*
X322585Y390692D01*
X322564Y390791D01*
X322546Y390891D01*
X322533Y390991D01*
X322523Y391092D01*
X322517Y391193D01*
X322515Y391294D01*
X322516Y391294D02*
X322516Y398081D01*
X318288Y395993D02*
X315678Y398081D01*
X315678Y388683D01*
X318288Y388683D02*
X313067Y388683D01*
D14*
X394175Y372600D02*
X394175Y337040D01*
X414495Y337040D01*
X414495Y372600D01*
X394175Y372600D01*
D13*
X419082Y341640D02*
X428480Y347905D01*
X428480Y341640D02*
X419082Y347905D01*
X426392Y351306D02*
X428480Y353916D01*
X419082Y353916D01*
X419082Y351306D02*
X419082Y356527D01*
X398877Y414251D02*
X389479Y414251D01*
X398877Y414251D02*
X398877Y416862D01*
X398875Y416963D01*
X398869Y417064D01*
X398859Y417165D01*
X398846Y417265D01*
X398828Y417365D01*
X398807Y417464D01*
X398781Y417562D01*
X398752Y417659D01*
X398720Y417755D01*
X398683Y417849D01*
X398643Y417942D01*
X398599Y418034D01*
X398552Y418123D01*
X398501Y418211D01*
X398447Y418297D01*
X398390Y418380D01*
X398330Y418462D01*
X398266Y418540D01*
X398200Y418617D01*
X398130Y418690D01*
X398058Y418761D01*
X397983Y418829D01*
X397905Y418894D01*
X397825Y418956D01*
X397743Y419015D01*
X397658Y419071D01*
X397572Y419123D01*
X397483Y419172D01*
X397392Y419218D01*
X397300Y419259D01*
X397206Y419298D01*
X397111Y419332D01*
X397015Y419363D01*
X396917Y419390D01*
X396819Y419414D01*
X396719Y419433D01*
X396619Y419449D01*
X396519Y419461D01*
X396418Y419469D01*
X396317Y419473D01*
X396215Y419473D01*
X396114Y419469D01*
X396013Y419461D01*
X395913Y419449D01*
X395813Y419433D01*
X395713Y419414D01*
X395615Y419390D01*
X395517Y419363D01*
X395421Y419332D01*
X395326Y419298D01*
X395232Y419259D01*
X395140Y419218D01*
X395049Y419172D01*
X394961Y419123D01*
X394874Y419071D01*
X394789Y419015D01*
X394707Y418956D01*
X394627Y418894D01*
X394549Y418829D01*
X394474Y418761D01*
X394402Y418690D01*
X394332Y418617D01*
X394266Y418540D01*
X394202Y418462D01*
X394142Y418380D01*
X394085Y418297D01*
X394031Y418211D01*
X393980Y418123D01*
X393933Y418034D01*
X393889Y417942D01*
X393849Y417849D01*
X393812Y417755D01*
X393780Y417659D01*
X393751Y417562D01*
X393725Y417464D01*
X393704Y417365D01*
X393686Y417265D01*
X393673Y417165D01*
X393663Y417064D01*
X393657Y416963D01*
X393655Y416862D01*
X393655Y414251D01*
X393655Y417384D02*
X389479Y419472D01*
X389479Y423338D02*
X389479Y425948D01*
X389478Y425948D02*
X389480Y426049D01*
X389486Y426150D01*
X389496Y426251D01*
X389509Y426351D01*
X389527Y426451D01*
X389548Y426550D01*
X389574Y426648D01*
X389603Y426745D01*
X389635Y426841D01*
X389672Y426935D01*
X389712Y427028D01*
X389756Y427120D01*
X389803Y427209D01*
X389854Y427297D01*
X389908Y427383D01*
X389965Y427466D01*
X390025Y427548D01*
X390089Y427626D01*
X390155Y427703D01*
X390225Y427776D01*
X390297Y427847D01*
X390372Y427915D01*
X390450Y427980D01*
X390530Y428042D01*
X390612Y428101D01*
X390697Y428157D01*
X390784Y428209D01*
X390872Y428258D01*
X390963Y428304D01*
X391055Y428345D01*
X391149Y428384D01*
X391244Y428418D01*
X391340Y428449D01*
X391438Y428476D01*
X391536Y428500D01*
X391636Y428519D01*
X391736Y428535D01*
X391836Y428547D01*
X391937Y428555D01*
X392038Y428559D01*
X392140Y428559D01*
X392241Y428555D01*
X392342Y428547D01*
X392442Y428535D01*
X392542Y428519D01*
X392642Y428500D01*
X392740Y428476D01*
X392838Y428449D01*
X392934Y428418D01*
X393029Y428384D01*
X393123Y428345D01*
X393215Y428304D01*
X393306Y428258D01*
X393395Y428209D01*
X393481Y428157D01*
X393566Y428101D01*
X393648Y428042D01*
X393728Y427980D01*
X393806Y427915D01*
X393881Y427847D01*
X393953Y427776D01*
X394023Y427703D01*
X394089Y427626D01*
X394153Y427548D01*
X394213Y427466D01*
X394270Y427383D01*
X394324Y427297D01*
X394375Y427209D01*
X394422Y427120D01*
X394466Y427028D01*
X394506Y426935D01*
X394543Y426841D01*
X394575Y426745D01*
X394604Y426648D01*
X394630Y426550D01*
X394651Y426451D01*
X394669Y426351D01*
X394682Y426251D01*
X394692Y426150D01*
X394698Y426049D01*
X394700Y425948D01*
X398877Y426471D02*
X398877Y423338D01*
X398876Y426471D02*
X398874Y426561D01*
X398868Y426650D01*
X398859Y426740D01*
X398845Y426829D01*
X398828Y426917D01*
X398807Y427004D01*
X398782Y427091D01*
X398753Y427176D01*
X398721Y427260D01*
X398686Y427342D01*
X398646Y427423D01*
X398604Y427502D01*
X398558Y427579D01*
X398508Y427654D01*
X398456Y427727D01*
X398400Y427798D01*
X398342Y427866D01*
X398280Y427931D01*
X398216Y427994D01*
X398149Y428054D01*
X398080Y428111D01*
X398008Y428165D01*
X397934Y428216D01*
X397858Y428264D01*
X397780Y428308D01*
X397700Y428349D01*
X397618Y428387D01*
X397535Y428421D01*
X397450Y428451D01*
X397364Y428478D01*
X397278Y428501D01*
X397190Y428520D01*
X397101Y428535D01*
X397012Y428547D01*
X396923Y428555D01*
X396833Y428559D01*
X396743Y428559D01*
X396653Y428555D01*
X396564Y428547D01*
X396475Y428535D01*
X396386Y428520D01*
X396298Y428501D01*
X396212Y428478D01*
X396126Y428451D01*
X396041Y428421D01*
X395958Y428387D01*
X395876Y428349D01*
X395796Y428308D01*
X395718Y428264D01*
X395642Y428216D01*
X395568Y428165D01*
X395496Y428111D01*
X395427Y428054D01*
X395360Y427994D01*
X395296Y427931D01*
X395234Y427866D01*
X395176Y427798D01*
X395120Y427727D01*
X395068Y427654D01*
X395018Y427579D01*
X394972Y427502D01*
X394930Y427423D01*
X394890Y427342D01*
X394855Y427260D01*
X394823Y427176D01*
X394794Y427091D01*
X394769Y427004D01*
X394748Y426917D01*
X394731Y426829D01*
X394717Y426740D01*
X394708Y426650D01*
X394702Y426561D01*
X394700Y426471D01*
X394700Y424382D01*
D10*
X307038Y330185D02*
X307038Y310055D01*
D13*
X291834Y333177D02*
X289746Y333177D01*
X291834Y333177D02*
X291923Y333179D01*
X292011Y333185D01*
X292099Y333194D01*
X292187Y333207D01*
X292274Y333224D01*
X292360Y333244D01*
X292445Y333269D01*
X292530Y333296D01*
X292613Y333328D01*
X292694Y333362D01*
X292774Y333401D01*
X292852Y333442D01*
X292929Y333487D01*
X293003Y333535D01*
X293076Y333586D01*
X293146Y333640D01*
X293213Y333698D01*
X293279Y333758D01*
X293341Y333820D01*
X293401Y333886D01*
X293459Y333953D01*
X293513Y334023D01*
X293564Y334096D01*
X293612Y334170D01*
X293657Y334247D01*
X293698Y334325D01*
X293737Y334405D01*
X293771Y334486D01*
X293803Y334569D01*
X293830Y334654D01*
X293855Y334739D01*
X293875Y334825D01*
X293892Y334912D01*
X293905Y335000D01*
X293914Y335088D01*
X293920Y335176D01*
X293922Y335265D01*
X293923Y335265D02*
X293923Y340486D01*
X293922Y340486D02*
X293920Y340575D01*
X293914Y340663D01*
X293905Y340751D01*
X293892Y340839D01*
X293875Y340926D01*
X293855Y341012D01*
X293830Y341097D01*
X293803Y341182D01*
X293771Y341265D01*
X293737Y341346D01*
X293698Y341426D01*
X293657Y341504D01*
X293612Y341581D01*
X293564Y341655D01*
X293513Y341728D01*
X293459Y341798D01*
X293401Y341865D01*
X293341Y341931D01*
X293279Y341993D01*
X293213Y342053D01*
X293146Y342111D01*
X293076Y342165D01*
X293003Y342216D01*
X292929Y342264D01*
X292852Y342309D01*
X292774Y342350D01*
X292694Y342389D01*
X292613Y342423D01*
X292530Y342455D01*
X292445Y342482D01*
X292360Y342507D01*
X292274Y342527D01*
X292187Y342544D01*
X292099Y342557D01*
X292011Y342566D01*
X291923Y342572D01*
X291834Y342574D01*
X291834Y342575D02*
X289746Y342575D01*
X284189Y342575D02*
X286277Y335265D01*
X281056Y335265D01*
X282622Y337354D02*
X282622Y333177D01*
D10*
X272590Y371884D02*
X292720Y371884D01*
D13*
X274384Y356816D02*
X274384Y354728D01*
X274386Y354639D01*
X274392Y354551D01*
X274401Y354463D01*
X274414Y354375D01*
X274431Y354288D01*
X274451Y354202D01*
X274476Y354117D01*
X274503Y354032D01*
X274535Y353949D01*
X274569Y353868D01*
X274608Y353788D01*
X274649Y353710D01*
X274694Y353633D01*
X274742Y353559D01*
X274793Y353486D01*
X274847Y353416D01*
X274905Y353349D01*
X274965Y353283D01*
X275027Y353221D01*
X275093Y353161D01*
X275160Y353103D01*
X275230Y353049D01*
X275303Y352998D01*
X275377Y352950D01*
X275454Y352905D01*
X275532Y352864D01*
X275612Y352825D01*
X275693Y352791D01*
X275776Y352759D01*
X275861Y352732D01*
X275946Y352707D01*
X276032Y352687D01*
X276119Y352670D01*
X276207Y352657D01*
X276295Y352648D01*
X276383Y352642D01*
X276472Y352640D01*
X281693Y352640D01*
X281784Y352642D01*
X281875Y352648D01*
X281966Y352658D01*
X282056Y352672D01*
X282145Y352689D01*
X282233Y352711D01*
X282321Y352737D01*
X282407Y352766D01*
X282492Y352799D01*
X282575Y352836D01*
X282657Y352876D01*
X282737Y352920D01*
X282815Y352967D01*
X282891Y353018D01*
X282964Y353071D01*
X283035Y353128D01*
X283104Y353189D01*
X283169Y353252D01*
X283232Y353317D01*
X283292Y353386D01*
X283350Y353457D01*
X283403Y353530D01*
X283454Y353606D01*
X283501Y353684D01*
X283545Y353764D01*
X283585Y353846D01*
X283622Y353929D01*
X283655Y354014D01*
X283684Y354100D01*
X283710Y354188D01*
X283732Y354276D01*
X283749Y354365D01*
X283763Y354455D01*
X283773Y354546D01*
X283779Y354637D01*
X283781Y354728D01*
X283782Y354728D02*
X283782Y356816D01*
X283782Y360285D02*
X282737Y360285D01*
X283782Y360285D02*
X283782Y365506D01*
X274384Y362896D01*
X386931Y308054D02*
X386931Y305966D01*
X386933Y305877D01*
X386939Y305789D01*
X386948Y305701D01*
X386961Y305613D01*
X386978Y305526D01*
X386998Y305440D01*
X387023Y305355D01*
X387050Y305270D01*
X387082Y305187D01*
X387116Y305106D01*
X387155Y305026D01*
X387196Y304948D01*
X387241Y304871D01*
X387289Y304797D01*
X387340Y304724D01*
X387394Y304654D01*
X387452Y304587D01*
X387512Y304521D01*
X387574Y304459D01*
X387640Y304399D01*
X387707Y304341D01*
X387777Y304287D01*
X387850Y304236D01*
X387924Y304188D01*
X388001Y304143D01*
X388079Y304102D01*
X388159Y304063D01*
X388240Y304029D01*
X388323Y303997D01*
X388408Y303970D01*
X388493Y303945D01*
X388579Y303925D01*
X388666Y303908D01*
X388754Y303895D01*
X388842Y303886D01*
X388930Y303880D01*
X389019Y303878D01*
X394240Y303878D01*
X394331Y303880D01*
X394422Y303886D01*
X394513Y303896D01*
X394603Y303910D01*
X394692Y303927D01*
X394780Y303949D01*
X394868Y303975D01*
X394954Y304004D01*
X395039Y304037D01*
X395122Y304074D01*
X395204Y304114D01*
X395284Y304158D01*
X395362Y304205D01*
X395438Y304256D01*
X395511Y304309D01*
X395582Y304366D01*
X395651Y304427D01*
X395716Y304490D01*
X395779Y304555D01*
X395839Y304624D01*
X395897Y304695D01*
X395950Y304768D01*
X396001Y304844D01*
X396048Y304922D01*
X396092Y305002D01*
X396132Y305084D01*
X396169Y305167D01*
X396202Y305252D01*
X396231Y305338D01*
X396257Y305426D01*
X396279Y305514D01*
X396296Y305603D01*
X396310Y305693D01*
X396320Y305784D01*
X396326Y305875D01*
X396328Y305966D01*
X396329Y305966D02*
X396329Y308054D01*
X394240Y311523D02*
X396329Y314134D01*
X386931Y314134D01*
X386931Y316744D02*
X386931Y311523D01*
X407355Y417646D02*
X407355Y419734D01*
X407355Y417646D02*
X407357Y417557D01*
X407363Y417469D01*
X407372Y417381D01*
X407385Y417293D01*
X407402Y417206D01*
X407422Y417120D01*
X407447Y417035D01*
X407474Y416950D01*
X407506Y416867D01*
X407540Y416786D01*
X407579Y416706D01*
X407620Y416628D01*
X407665Y416551D01*
X407713Y416477D01*
X407764Y416404D01*
X407818Y416334D01*
X407876Y416267D01*
X407936Y416201D01*
X407998Y416139D01*
X408064Y416079D01*
X408131Y416021D01*
X408201Y415967D01*
X408274Y415916D01*
X408348Y415868D01*
X408425Y415823D01*
X408503Y415782D01*
X408583Y415743D01*
X408664Y415709D01*
X408747Y415677D01*
X408832Y415650D01*
X408917Y415625D01*
X409003Y415605D01*
X409090Y415588D01*
X409178Y415575D01*
X409266Y415566D01*
X409354Y415560D01*
X409443Y415558D01*
X414665Y415558D01*
X414756Y415560D01*
X414847Y415566D01*
X414938Y415576D01*
X415028Y415590D01*
X415117Y415607D01*
X415205Y415629D01*
X415293Y415655D01*
X415379Y415684D01*
X415464Y415717D01*
X415547Y415754D01*
X415629Y415794D01*
X415709Y415838D01*
X415787Y415885D01*
X415863Y415936D01*
X415936Y415989D01*
X416007Y416046D01*
X416076Y416107D01*
X416141Y416170D01*
X416204Y416235D01*
X416264Y416304D01*
X416322Y416375D01*
X416375Y416448D01*
X416426Y416524D01*
X416473Y416602D01*
X416517Y416682D01*
X416557Y416764D01*
X416594Y416847D01*
X416627Y416932D01*
X416656Y417018D01*
X416682Y417106D01*
X416704Y417194D01*
X416721Y417283D01*
X416735Y417373D01*
X416745Y417464D01*
X416751Y417555D01*
X416753Y417646D01*
X416753Y419734D01*
X407355Y423203D02*
X407355Y425814D01*
X407357Y425915D01*
X407363Y426016D01*
X407373Y426117D01*
X407386Y426217D01*
X407404Y426317D01*
X407425Y426416D01*
X407451Y426514D01*
X407480Y426611D01*
X407512Y426707D01*
X407549Y426801D01*
X407589Y426894D01*
X407633Y426986D01*
X407680Y427075D01*
X407731Y427163D01*
X407785Y427249D01*
X407842Y427332D01*
X407902Y427414D01*
X407966Y427492D01*
X408032Y427569D01*
X408102Y427642D01*
X408174Y427713D01*
X408249Y427781D01*
X408327Y427846D01*
X408407Y427908D01*
X408489Y427967D01*
X408574Y428023D01*
X408661Y428075D01*
X408749Y428124D01*
X408840Y428170D01*
X408932Y428211D01*
X409026Y428250D01*
X409121Y428284D01*
X409217Y428315D01*
X409315Y428342D01*
X409413Y428366D01*
X409513Y428385D01*
X409613Y428401D01*
X409713Y428413D01*
X409814Y428421D01*
X409915Y428425D01*
X410017Y428425D01*
X410118Y428421D01*
X410219Y428413D01*
X410319Y428401D01*
X410419Y428385D01*
X410519Y428366D01*
X410617Y428342D01*
X410715Y428315D01*
X410811Y428284D01*
X410906Y428250D01*
X411000Y428211D01*
X411092Y428170D01*
X411183Y428124D01*
X411272Y428075D01*
X411358Y428023D01*
X411443Y427967D01*
X411525Y427908D01*
X411605Y427846D01*
X411683Y427781D01*
X411758Y427713D01*
X411830Y427642D01*
X411900Y427569D01*
X411966Y427492D01*
X412030Y427414D01*
X412090Y427332D01*
X412147Y427249D01*
X412201Y427163D01*
X412252Y427075D01*
X412299Y426986D01*
X412343Y426894D01*
X412383Y426801D01*
X412420Y426707D01*
X412452Y426611D01*
X412481Y426514D01*
X412507Y426416D01*
X412528Y426317D01*
X412546Y426217D01*
X412559Y426117D01*
X412569Y426016D01*
X412575Y425915D01*
X412577Y425814D01*
X416753Y426336D02*
X416753Y423203D01*
X416753Y426336D02*
X416751Y426426D01*
X416745Y426515D01*
X416736Y426605D01*
X416722Y426694D01*
X416705Y426782D01*
X416684Y426869D01*
X416659Y426956D01*
X416630Y427041D01*
X416598Y427125D01*
X416563Y427207D01*
X416523Y427288D01*
X416481Y427367D01*
X416435Y427444D01*
X416385Y427519D01*
X416333Y427592D01*
X416277Y427663D01*
X416219Y427731D01*
X416157Y427796D01*
X416093Y427859D01*
X416026Y427919D01*
X415957Y427976D01*
X415885Y428030D01*
X415811Y428081D01*
X415735Y428129D01*
X415657Y428173D01*
X415577Y428214D01*
X415495Y428252D01*
X415412Y428286D01*
X415327Y428316D01*
X415241Y428343D01*
X415155Y428366D01*
X415067Y428385D01*
X414978Y428400D01*
X414889Y428412D01*
X414800Y428420D01*
X414710Y428424D01*
X414620Y428424D01*
X414530Y428420D01*
X414441Y428412D01*
X414352Y428400D01*
X414263Y428385D01*
X414175Y428366D01*
X414089Y428343D01*
X414003Y428316D01*
X413918Y428286D01*
X413835Y428252D01*
X413753Y428214D01*
X413673Y428173D01*
X413595Y428129D01*
X413519Y428081D01*
X413445Y428030D01*
X413373Y427976D01*
X413304Y427919D01*
X413237Y427859D01*
X413173Y427796D01*
X413111Y427731D01*
X413053Y427663D01*
X412997Y427592D01*
X412945Y427519D01*
X412895Y427444D01*
X412849Y427367D01*
X412807Y427288D01*
X412767Y427207D01*
X412732Y427125D01*
X412700Y427041D01*
X412671Y426956D01*
X412646Y426869D01*
X412625Y426782D01*
X412608Y426694D01*
X412594Y426605D01*
X412585Y426515D01*
X412579Y426426D01*
X412577Y426336D01*
X412576Y426336D02*
X412576Y424247D01*
X293749Y357694D02*
X293749Y355606D01*
X293751Y355517D01*
X293757Y355429D01*
X293766Y355341D01*
X293779Y355253D01*
X293796Y355166D01*
X293816Y355080D01*
X293841Y354995D01*
X293868Y354910D01*
X293900Y354827D01*
X293934Y354746D01*
X293973Y354666D01*
X294014Y354588D01*
X294059Y354511D01*
X294107Y354437D01*
X294158Y354364D01*
X294212Y354294D01*
X294270Y354227D01*
X294330Y354161D01*
X294392Y354099D01*
X294458Y354039D01*
X294525Y353981D01*
X294595Y353927D01*
X294668Y353876D01*
X294742Y353828D01*
X294819Y353783D01*
X294897Y353742D01*
X294977Y353703D01*
X295058Y353669D01*
X295141Y353637D01*
X295226Y353610D01*
X295311Y353585D01*
X295397Y353565D01*
X295484Y353548D01*
X295572Y353535D01*
X295660Y353526D01*
X295748Y353520D01*
X295837Y353518D01*
X295837Y353517D02*
X301058Y353517D01*
X301058Y353518D02*
X301149Y353520D01*
X301240Y353526D01*
X301331Y353536D01*
X301421Y353550D01*
X301510Y353567D01*
X301598Y353589D01*
X301686Y353615D01*
X301772Y353644D01*
X301857Y353677D01*
X301940Y353714D01*
X302022Y353754D01*
X302102Y353798D01*
X302180Y353845D01*
X302256Y353896D01*
X302329Y353949D01*
X302400Y354006D01*
X302469Y354067D01*
X302534Y354130D01*
X302597Y354195D01*
X302657Y354264D01*
X302715Y354335D01*
X302768Y354408D01*
X302819Y354484D01*
X302866Y354562D01*
X302910Y354642D01*
X302950Y354724D01*
X302987Y354807D01*
X303020Y354892D01*
X303049Y354978D01*
X303075Y355066D01*
X303097Y355154D01*
X303114Y355243D01*
X303128Y355333D01*
X303138Y355424D01*
X303144Y355515D01*
X303146Y355606D01*
X303147Y355606D02*
X303147Y357694D01*
X293749Y361163D02*
X293749Y364296D01*
X293751Y364385D01*
X293757Y364473D01*
X293766Y364561D01*
X293779Y364649D01*
X293796Y364736D01*
X293816Y364822D01*
X293841Y364907D01*
X293868Y364992D01*
X293900Y365075D01*
X293934Y365156D01*
X293973Y365236D01*
X294014Y365314D01*
X294059Y365391D01*
X294107Y365465D01*
X294158Y365538D01*
X294212Y365608D01*
X294270Y365675D01*
X294330Y365741D01*
X294392Y365803D01*
X294458Y365863D01*
X294525Y365921D01*
X294595Y365975D01*
X294668Y366026D01*
X294742Y366074D01*
X294819Y366119D01*
X294897Y366160D01*
X294977Y366199D01*
X295058Y366233D01*
X295141Y366265D01*
X295226Y366292D01*
X295311Y366317D01*
X295397Y366337D01*
X295484Y366354D01*
X295572Y366367D01*
X295660Y366376D01*
X295748Y366382D01*
X295837Y366384D01*
X296881Y366384D01*
X296970Y366382D01*
X297058Y366376D01*
X297146Y366367D01*
X297234Y366354D01*
X297321Y366337D01*
X297407Y366317D01*
X297492Y366292D01*
X297577Y366265D01*
X297660Y366233D01*
X297741Y366199D01*
X297821Y366160D01*
X297899Y366119D01*
X297976Y366074D01*
X298050Y366026D01*
X298123Y365975D01*
X298193Y365921D01*
X298260Y365863D01*
X298326Y365803D01*
X298388Y365741D01*
X298448Y365675D01*
X298506Y365608D01*
X298560Y365538D01*
X298611Y365465D01*
X298659Y365391D01*
X298704Y365314D01*
X298745Y365236D01*
X298784Y365156D01*
X298818Y365075D01*
X298850Y364992D01*
X298877Y364907D01*
X298902Y364822D01*
X298922Y364736D01*
X298939Y364649D01*
X298952Y364561D01*
X298961Y364473D01*
X298967Y364385D01*
X298969Y364296D01*
X298970Y364296D02*
X298970Y361163D01*
X303147Y361163D01*
X303147Y366384D01*
X271983Y293983D02*
X269895Y293983D01*
X271983Y293983D02*
X272072Y293985D01*
X272160Y293991D01*
X272248Y294000D01*
X272336Y294013D01*
X272423Y294030D01*
X272509Y294050D01*
X272594Y294075D01*
X272679Y294102D01*
X272762Y294134D01*
X272843Y294168D01*
X272923Y294207D01*
X273001Y294248D01*
X273078Y294293D01*
X273152Y294341D01*
X273225Y294392D01*
X273295Y294446D01*
X273362Y294504D01*
X273428Y294564D01*
X273490Y294626D01*
X273550Y294692D01*
X273608Y294759D01*
X273662Y294829D01*
X273713Y294902D01*
X273761Y294976D01*
X273806Y295053D01*
X273847Y295131D01*
X273886Y295211D01*
X273920Y295292D01*
X273952Y295375D01*
X273979Y295460D01*
X274004Y295545D01*
X274024Y295631D01*
X274041Y295718D01*
X274054Y295806D01*
X274063Y295894D01*
X274069Y295982D01*
X274071Y296071D01*
X274072Y296071D02*
X274072Y301292D01*
X274071Y301292D02*
X274069Y301381D01*
X274063Y301469D01*
X274054Y301557D01*
X274041Y301645D01*
X274024Y301732D01*
X274004Y301818D01*
X273979Y301903D01*
X273952Y301988D01*
X273920Y302071D01*
X273886Y302152D01*
X273847Y302232D01*
X273806Y302310D01*
X273761Y302387D01*
X273713Y302461D01*
X273662Y302534D01*
X273608Y302604D01*
X273550Y302671D01*
X273490Y302737D01*
X273428Y302799D01*
X273362Y302859D01*
X273295Y302917D01*
X273225Y302971D01*
X273152Y303022D01*
X273078Y303070D01*
X273001Y303115D01*
X272923Y303156D01*
X272843Y303195D01*
X272762Y303229D01*
X272679Y303261D01*
X272594Y303288D01*
X272509Y303313D01*
X272423Y303333D01*
X272336Y303350D01*
X272248Y303363D01*
X272160Y303372D01*
X272072Y303378D01*
X271983Y303380D01*
X271983Y303381D02*
X269895Y303381D01*
X266426Y299204D02*
X263293Y299204D01*
X263293Y299203D02*
X263204Y299201D01*
X263116Y299195D01*
X263028Y299186D01*
X262940Y299173D01*
X262853Y299156D01*
X262767Y299136D01*
X262682Y299111D01*
X262597Y299084D01*
X262514Y299052D01*
X262433Y299018D01*
X262353Y298979D01*
X262275Y298938D01*
X262198Y298893D01*
X262124Y298845D01*
X262051Y298794D01*
X261981Y298740D01*
X261914Y298682D01*
X261848Y298622D01*
X261786Y298560D01*
X261726Y298494D01*
X261668Y298427D01*
X261614Y298357D01*
X261563Y298284D01*
X261515Y298210D01*
X261470Y298133D01*
X261429Y298055D01*
X261390Y297975D01*
X261356Y297894D01*
X261324Y297811D01*
X261297Y297726D01*
X261272Y297641D01*
X261252Y297555D01*
X261235Y297468D01*
X261222Y297380D01*
X261213Y297292D01*
X261207Y297204D01*
X261205Y297115D01*
X261205Y296593D01*
X261204Y296593D02*
X261206Y296492D01*
X261212Y296391D01*
X261222Y296290D01*
X261235Y296190D01*
X261253Y296090D01*
X261274Y295991D01*
X261300Y295893D01*
X261329Y295796D01*
X261361Y295700D01*
X261398Y295606D01*
X261438Y295513D01*
X261482Y295421D01*
X261529Y295332D01*
X261580Y295244D01*
X261634Y295158D01*
X261691Y295075D01*
X261751Y294993D01*
X261815Y294915D01*
X261881Y294838D01*
X261951Y294765D01*
X262023Y294694D01*
X262098Y294626D01*
X262176Y294561D01*
X262256Y294499D01*
X262338Y294440D01*
X262423Y294384D01*
X262510Y294332D01*
X262598Y294283D01*
X262689Y294237D01*
X262781Y294196D01*
X262875Y294157D01*
X262970Y294123D01*
X263066Y294092D01*
X263164Y294065D01*
X263262Y294041D01*
X263362Y294022D01*
X263462Y294006D01*
X263562Y293994D01*
X263663Y293986D01*
X263764Y293982D01*
X263866Y293982D01*
X263967Y293986D01*
X264068Y293994D01*
X264168Y294006D01*
X264268Y294022D01*
X264368Y294041D01*
X264466Y294065D01*
X264564Y294092D01*
X264660Y294123D01*
X264755Y294157D01*
X264849Y294196D01*
X264941Y294237D01*
X265032Y294283D01*
X265120Y294332D01*
X265207Y294384D01*
X265292Y294440D01*
X265374Y294499D01*
X265454Y294561D01*
X265532Y294626D01*
X265607Y294694D01*
X265679Y294765D01*
X265749Y294838D01*
X265815Y294915D01*
X265879Y294993D01*
X265939Y295075D01*
X265996Y295158D01*
X266050Y295244D01*
X266101Y295332D01*
X266148Y295421D01*
X266192Y295513D01*
X266232Y295606D01*
X266269Y295700D01*
X266301Y295796D01*
X266330Y295893D01*
X266356Y295991D01*
X266377Y296090D01*
X266395Y296190D01*
X266408Y296290D01*
X266418Y296391D01*
X266424Y296492D01*
X266426Y296593D01*
X266426Y299204D01*
X266424Y299330D01*
X266418Y299456D01*
X266409Y299582D01*
X266396Y299707D01*
X266378Y299832D01*
X266358Y299957D01*
X266333Y300081D01*
X266305Y300204D01*
X266273Y300326D01*
X266237Y300447D01*
X266198Y300567D01*
X266155Y300685D01*
X266108Y300802D01*
X266058Y300918D01*
X266004Y301033D01*
X265948Y301145D01*
X265887Y301256D01*
X265824Y301365D01*
X265757Y301472D01*
X265687Y301577D01*
X265613Y301680D01*
X265537Y301780D01*
X265458Y301878D01*
X265376Y301974D01*
X265290Y302067D01*
X265203Y302158D01*
X265112Y302245D01*
X265019Y302331D01*
X264923Y302413D01*
X264825Y302492D01*
X264725Y302568D01*
X264622Y302642D01*
X264517Y302712D01*
X264410Y302779D01*
X264301Y302842D01*
X264190Y302903D01*
X264078Y302959D01*
X263963Y303013D01*
X263847Y303063D01*
X263730Y303110D01*
X263612Y303153D01*
X263492Y303192D01*
X263371Y303228D01*
X263249Y303260D01*
X263126Y303288D01*
X263002Y303313D01*
X262877Y303333D01*
X262752Y303351D01*
X262627Y303364D01*
X262501Y303373D01*
X262375Y303379D01*
X262249Y303381D01*
X406475Y399872D02*
X408564Y399872D01*
X408564Y399873D02*
X408653Y399875D01*
X408741Y399881D01*
X408829Y399890D01*
X408917Y399903D01*
X409004Y399920D01*
X409090Y399940D01*
X409175Y399965D01*
X409260Y399992D01*
X409343Y400024D01*
X409424Y400058D01*
X409504Y400097D01*
X409582Y400138D01*
X409659Y400183D01*
X409733Y400231D01*
X409806Y400282D01*
X409876Y400336D01*
X409943Y400394D01*
X410009Y400454D01*
X410071Y400516D01*
X410131Y400582D01*
X410189Y400649D01*
X410243Y400719D01*
X410294Y400792D01*
X410342Y400866D01*
X410387Y400943D01*
X410428Y401021D01*
X410467Y401101D01*
X410501Y401182D01*
X410533Y401265D01*
X410560Y401350D01*
X410585Y401435D01*
X410605Y401521D01*
X410622Y401608D01*
X410635Y401696D01*
X410644Y401784D01*
X410650Y401872D01*
X410652Y401961D01*
X410652Y407182D01*
X410650Y407271D01*
X410644Y407359D01*
X410635Y407447D01*
X410622Y407535D01*
X410605Y407622D01*
X410585Y407708D01*
X410560Y407793D01*
X410533Y407878D01*
X410501Y407961D01*
X410467Y408042D01*
X410428Y408122D01*
X410387Y408200D01*
X410342Y408277D01*
X410294Y408351D01*
X410243Y408424D01*
X410189Y408494D01*
X410131Y408561D01*
X410071Y408627D01*
X410009Y408689D01*
X409943Y408749D01*
X409876Y408807D01*
X409806Y408861D01*
X409733Y408912D01*
X409659Y408960D01*
X409582Y409005D01*
X409504Y409046D01*
X409424Y409085D01*
X409343Y409119D01*
X409260Y409151D01*
X409175Y409178D01*
X409090Y409203D01*
X409004Y409223D01*
X408917Y409240D01*
X408829Y409253D01*
X408741Y409262D01*
X408653Y409268D01*
X408564Y409270D01*
X406475Y409270D01*
X400918Y404049D02*
X397785Y404049D01*
X400918Y404050D02*
X401007Y404052D01*
X401095Y404058D01*
X401183Y404067D01*
X401271Y404080D01*
X401358Y404097D01*
X401444Y404117D01*
X401529Y404142D01*
X401614Y404169D01*
X401697Y404201D01*
X401778Y404235D01*
X401858Y404274D01*
X401936Y404315D01*
X402013Y404360D01*
X402087Y404408D01*
X402160Y404459D01*
X402230Y404513D01*
X402297Y404571D01*
X402363Y404631D01*
X402425Y404693D01*
X402485Y404759D01*
X402543Y404826D01*
X402597Y404896D01*
X402648Y404969D01*
X402696Y405043D01*
X402741Y405120D01*
X402782Y405198D01*
X402821Y405278D01*
X402855Y405359D01*
X402887Y405442D01*
X402914Y405527D01*
X402939Y405612D01*
X402959Y405698D01*
X402976Y405785D01*
X402989Y405873D01*
X402998Y405961D01*
X403004Y406049D01*
X403006Y406138D01*
X403006Y406660D01*
X403007Y406660D02*
X403005Y406761D01*
X402999Y406862D01*
X402989Y406963D01*
X402976Y407063D01*
X402958Y407163D01*
X402937Y407262D01*
X402911Y407360D01*
X402882Y407457D01*
X402850Y407553D01*
X402813Y407647D01*
X402773Y407740D01*
X402729Y407832D01*
X402682Y407921D01*
X402631Y408009D01*
X402577Y408095D01*
X402520Y408178D01*
X402460Y408260D01*
X402396Y408338D01*
X402330Y408415D01*
X402260Y408488D01*
X402188Y408559D01*
X402113Y408627D01*
X402035Y408692D01*
X401955Y408754D01*
X401873Y408813D01*
X401788Y408869D01*
X401702Y408921D01*
X401613Y408970D01*
X401522Y409016D01*
X401430Y409057D01*
X401336Y409096D01*
X401241Y409130D01*
X401145Y409161D01*
X401047Y409188D01*
X400949Y409212D01*
X400849Y409231D01*
X400749Y409247D01*
X400649Y409259D01*
X400548Y409267D01*
X400447Y409271D01*
X400345Y409271D01*
X400244Y409267D01*
X400143Y409259D01*
X400043Y409247D01*
X399943Y409231D01*
X399843Y409212D01*
X399745Y409188D01*
X399647Y409161D01*
X399551Y409130D01*
X399456Y409096D01*
X399362Y409057D01*
X399270Y409016D01*
X399179Y408970D01*
X399091Y408921D01*
X399004Y408869D01*
X398919Y408813D01*
X398837Y408754D01*
X398757Y408692D01*
X398679Y408627D01*
X398604Y408559D01*
X398532Y408488D01*
X398462Y408415D01*
X398396Y408338D01*
X398332Y408260D01*
X398272Y408178D01*
X398215Y408095D01*
X398161Y408009D01*
X398110Y407921D01*
X398063Y407832D01*
X398019Y407740D01*
X397979Y407647D01*
X397942Y407553D01*
X397910Y407457D01*
X397881Y407360D01*
X397855Y407262D01*
X397834Y407163D01*
X397816Y407063D01*
X397803Y406963D01*
X397793Y406862D01*
X397787Y406761D01*
X397785Y406660D01*
X397785Y404049D01*
X397787Y403923D01*
X397793Y403797D01*
X397802Y403671D01*
X397815Y403546D01*
X397833Y403421D01*
X397853Y403296D01*
X397878Y403172D01*
X397906Y403049D01*
X397938Y402927D01*
X397974Y402806D01*
X398013Y402686D01*
X398056Y402568D01*
X398103Y402451D01*
X398153Y402335D01*
X398207Y402220D01*
X398263Y402108D01*
X398324Y401997D01*
X398387Y401888D01*
X398454Y401781D01*
X398524Y401676D01*
X398598Y401573D01*
X398674Y401473D01*
X398753Y401375D01*
X398835Y401279D01*
X398921Y401186D01*
X399008Y401095D01*
X399099Y401008D01*
X399192Y400922D01*
X399288Y400840D01*
X399386Y400761D01*
X399486Y400685D01*
X399589Y400611D01*
X399694Y400541D01*
X399801Y400474D01*
X399910Y400411D01*
X400021Y400350D01*
X400133Y400294D01*
X400248Y400240D01*
X400364Y400190D01*
X400481Y400143D01*
X400599Y400100D01*
X400719Y400061D01*
X400840Y400025D01*
X400962Y399993D01*
X401085Y399965D01*
X401209Y399940D01*
X401334Y399920D01*
X401459Y399902D01*
X401584Y399889D01*
X401710Y399880D01*
X401836Y399874D01*
X401962Y399872D01*
X380129Y212931D02*
X380129Y203533D01*
X380129Y212931D02*
X377518Y212931D01*
X377417Y212929D01*
X377316Y212923D01*
X377215Y212913D01*
X377115Y212900D01*
X377015Y212882D01*
X376916Y212861D01*
X376818Y212835D01*
X376721Y212806D01*
X376625Y212774D01*
X376531Y212737D01*
X376438Y212697D01*
X376346Y212653D01*
X376257Y212606D01*
X376169Y212555D01*
X376083Y212501D01*
X376000Y212444D01*
X375918Y212384D01*
X375840Y212320D01*
X375763Y212254D01*
X375690Y212184D01*
X375619Y212112D01*
X375551Y212037D01*
X375486Y211959D01*
X375424Y211879D01*
X375365Y211797D01*
X375309Y211712D01*
X375257Y211626D01*
X375208Y211537D01*
X375162Y211446D01*
X375121Y211354D01*
X375082Y211260D01*
X375048Y211165D01*
X375017Y211069D01*
X374990Y210971D01*
X374966Y210873D01*
X374947Y210773D01*
X374931Y210673D01*
X374919Y210573D01*
X374911Y210472D01*
X374907Y210371D01*
X374907Y210269D01*
X374911Y210168D01*
X374919Y210067D01*
X374931Y209967D01*
X374947Y209867D01*
X374966Y209767D01*
X374990Y209669D01*
X375017Y209571D01*
X375048Y209475D01*
X375082Y209380D01*
X375121Y209286D01*
X375162Y209194D01*
X375208Y209103D01*
X375257Y209015D01*
X375309Y208928D01*
X375365Y208843D01*
X375424Y208761D01*
X375486Y208681D01*
X375551Y208603D01*
X375619Y208528D01*
X375690Y208456D01*
X375763Y208386D01*
X375840Y208320D01*
X375918Y208256D01*
X376000Y208196D01*
X376083Y208139D01*
X376169Y208085D01*
X376257Y208034D01*
X376346Y207987D01*
X376438Y207943D01*
X376531Y207903D01*
X376625Y207866D01*
X376721Y207834D01*
X376818Y207805D01*
X376916Y207779D01*
X377015Y207758D01*
X377115Y207740D01*
X377215Y207727D01*
X377316Y207717D01*
X377417Y207711D01*
X377518Y207709D01*
X377518Y207710D02*
X380129Y207710D01*
X376996Y207710D02*
X374908Y203533D01*
X365820Y210581D02*
X365822Y210676D01*
X365828Y210770D01*
X365837Y210864D01*
X365850Y210958D01*
X365867Y211051D01*
X365888Y211143D01*
X365913Y211235D01*
X365941Y211325D01*
X365973Y211414D01*
X366008Y211502D01*
X366047Y211588D01*
X366089Y211673D01*
X366135Y211756D01*
X366184Y211837D01*
X366236Y211916D01*
X366291Y211993D01*
X366350Y212067D01*
X366411Y212139D01*
X366475Y212209D01*
X366542Y212276D01*
X366612Y212340D01*
X366684Y212401D01*
X366758Y212460D01*
X366835Y212515D01*
X366914Y212567D01*
X366995Y212616D01*
X367078Y212662D01*
X367163Y212704D01*
X367249Y212743D01*
X367337Y212778D01*
X367426Y212810D01*
X367516Y212838D01*
X367608Y212863D01*
X367700Y212884D01*
X367793Y212901D01*
X367887Y212914D01*
X367981Y212923D01*
X368075Y212929D01*
X368170Y212931D01*
X368170Y212930D02*
X368278Y212928D01*
X368387Y212922D01*
X368495Y212912D01*
X368602Y212899D01*
X368709Y212881D01*
X368816Y212860D01*
X368921Y212835D01*
X369026Y212806D01*
X369129Y212774D01*
X369231Y212737D01*
X369332Y212697D01*
X369431Y212654D01*
X369529Y212607D01*
X369625Y212556D01*
X369719Y212502D01*
X369811Y212445D01*
X369901Y212384D01*
X369989Y212320D01*
X370074Y212254D01*
X370157Y212184D01*
X370237Y212111D01*
X370315Y212035D01*
X370390Y211957D01*
X370462Y211876D01*
X370531Y211792D01*
X370597Y211706D01*
X370660Y211618D01*
X370719Y211527D01*
X370776Y211435D01*
X370829Y211340D01*
X370878Y211243D01*
X370924Y211145D01*
X370967Y211046D01*
X371006Y210944D01*
X371041Y210842D01*
X366603Y208753D02*
X366534Y208822D01*
X366468Y208893D01*
X366404Y208966D01*
X366343Y209042D01*
X366285Y209121D01*
X366231Y209201D01*
X366179Y209284D01*
X366131Y209368D01*
X366085Y209454D01*
X366044Y209542D01*
X366005Y209632D01*
X365970Y209723D01*
X365939Y209815D01*
X365911Y209908D01*
X365887Y210002D01*
X365867Y210097D01*
X365850Y210193D01*
X365837Y210290D01*
X365828Y210387D01*
X365822Y210484D01*
X365820Y210581D01*
X366604Y208754D02*
X371042Y203533D01*
X365821Y203533D01*
M02*
